<?xml version="1.0" encoding="UTF-8"?><svg id="a" xmlns="http://www.w3.org/2000/svg" xmlns:xlink="http://www.w3.org/1999/xlink" viewBox="0 0 1366 768"><defs><style>.f{stroke-miterlimit:10;stroke-width:1.27px;}.f,.g{fill:none;stroke:#39b54a;}.h{filter:url(#b);}.i{filter:url(#d);}.g{stroke-linecap:round;stroke-linejoin:round;stroke-width:2.45px;}</style><filter id="b" filterUnits="userSpaceOnUse"><feOffset dx="0" dy="0"/><feGaussianBlur result="c" stdDeviation="5"/><feFlood flood-color="#f9f9f9" flood-opacity=".75"/><feComposite in2="c" operator="in"/><feComposite in="SourceGraphic"/></filter><filter id="d" filterUnits="userSpaceOnUse"><feOffset dx="0" dy="0"/><feGaussianBlur result="e" stdDeviation="5"/><feFlood flood-color="#f9f9f9" flood-opacity=".75"/><feComposite in2="e" operator="in"/><feComposite in="SourceGraphic"/></filter></defs><rect width="1366" height="768"/><g><g class="h"><path class="g" d="M1014.28,156.13c.2,7.55,.54,15.1,.58,22.65,.09,14.69,.03,29.39,.03,44.38H303.51v-30.3c0-3.47-.05-6.94,0-10.41,.18-10.2,.4-20.41,.6-30.61,11.99-15.09,22.74-31.79,39.94-41.36,14.76-8.21,28.19-8.54,46.33,5.92,13.05,10.4,22.54,24.08,32.52,37.26,10.15,13.41,19.91,27.2,33.66,37.35,16.56,12.22,34.31,12.53,51.44-1.18,11.35-9.07,19.93-20.55,28.77-31.85,10.89-13.92,20.58-28.9,34.3-40.38,9.32-7.81,19.74-13.55,32.4-12.18,11.44,1.24,21.15,6.99,28.65,15.33,10.74,11.96,20.46,24.85,30.77,37.2,9.73,11.65,18.54,23.99,31.09,33.23,19.14,14.1,38.46,10.53,53.18-3.41,10.77-10.2,19.85-22.18,29.56-33.49,10.09-11.76,19.1-24.61,30.22-35.28,20.15-19.34,41.31-18.15,60.84,.59,10.19,9.77,18.75,21.28,27.68,32.3,11.76,14.52,22,30.29,37.94,41.07,15.1,10.22,32.79,8.99,47.23-1.9,13.28-10.02,22.34-23.82,32.9-36.26,1.38-1.62,1.29-4.78,1.3-7.23,.09-21.84,.05-43.67,.05-65.81H303.51c0,11.93-.08,24.18,.02,36.43,.09,10.61,.38,21.22,.59,31.84"/><path class="g" d="M1013.67,353.88c-1.22,.2-2.45,.59-3.67,.59-36.32,.03-72.65,.03-108.97,.03h-4.59v-94.59h-118.46v93.97h-118.77v-93.97h-118.46v94.28h-118.46v-94.59h-117.54"/><path class="g" d="M1014.28,353.88c.2-2.24,.58-4.49,.59-6.73,.04-36.94,.03-73.87,.03-111.12H303.81v141.42H1014.28v-22.96"/><path class="g" d="M896.74,461.63c19.45,15.43,38.89,30.87,58.76,46.64,19.33-15.45,38.97-31.15,59.09-47.24v-70.72H303.51c0,14.18-.07,28.67,.03,43.16,.06,8.98,.38,17.96,.59,26.94"/><path class="g" d="M304.12,615.29c-.2,6.33-.55,12.65-.58,18.98-.08,17.14-.03,34.28-.03,51.73H1014.59v-141.42H303.51c0,14.18-.07,28.67,.03,43.16,.06,8.98,.38,17.96,.59,26.94"/><path class="g" d="M421.66,460.4c-19.51-15.61-39.02-31.22-58.63-46.9-20.19,16.18-40.12,32.14-59.52,47.68v70.54H1014.89c0-12.14,.08-24.59-.02-37.04-.09-10.82-.38-21.63-.59-32.45"/><path class="g" d="M1013.67,615.29c-19.18,7.75-38.34,15.56-57.55,23.25-18.54,7.42-37.13,14.71-55.7,22.06-1.2,.47-2.39,.96-4.29,1.71v-94.78c-79.23,31.71-157.72,63.12-236.92,94.82v-94.81c-79.37,31.75-157.8,63.12-236.92,94.77v-94.86c-39.69,15.95-78.62,31.59-117.54,47.23"/><path class="g" d="M776.74,461.63c-19.38,15.51-38.77,31.03-58.3,46.66-39.45-31.56-78.92-63.13-118.48-94.78-39.62,31.69-78.96,63.17-118.38,94.71-19.56-15.52-39.13-31.05-58.7-46.59"/><path class="g" d="M895.51,460.4c-19.51-15.61-39.02-31.22-58.54-46.83-19.86,15.76-39.43,31.3-59,46.83"/><path class="g" d="M943.88,272.45v-11.42c-3.59-1.25-6.08-1.49-6.14,2.85-.05,3.43,.36,6.2,4.91,4.29"/><path class="g" d="M965.92,425.51c1.44-.22,2.88-.44,4.59-.7v-12.21c-2.43,1.05-4.87,1.35-5.61,2.63-.75,1.29-.32,3.9,.6,5.25,.52,.76,3.06,.14,4.7,.14"/><path class="g" d="M961.02,114.5v-8.26h-5.68c-.16,2.96-.3,5.61-.44,8.26"/><path class="g" d="M959.79,421.83v-8.26h-5.68c-.16,2.96-.3,5.61-.44,8.26"/><path class="g" d="M945.1,103.48q-4.68-1.74-6.14,3.11c1.97,2.47,8.74,.98,5.73,8.22-1.75-.47-3.73-1-5.72-1.53"/><path class="g" d="M924.28,565.09q-4.68-1.74-6.14,3.11c1.97,2.47,8.74,.98,5.73,8.22-1.75-.47-3.73-1-5.72-1.53"/><path class="g" d="M932.86,257.76q-4.68-1.74-6.14,3.11c1.97,2.47,8.74,.98,5.73,8.22-1.75-.47-3.73-1-5.72-1.53"/><path class="g" d="M990.4,576.11v-8.66c-1.69,.24-3.3,.47-4.9,.7"/><path class="g" d="M948.77,416.93c-2.87-.02-6.2-.48-4.46,4.29q5.78-.01,4.98-7.57c-1.71-.12-3.57-.25-5.42-.39"/><path class="g" d="M964.69,263.88c-2.87-.02-6.2-.48-4.46,4.29q5.78-.01,4.98-7.57c-1.71-.12-3.57-.25-5.42-.39"/><path class="g" d="M934.08,571.21c-2.87-.02-6.2-.48-4.46,4.29q5.78-.01,4.98-7.57c-1.71-.12-3.57-.25-5.42-.39"/><path class="g" d="M974.49,260.21c-1.44,.11-2.87,.22-4.46,.34-.16,2.92-.3,5.57-.44,8.23"/><path class="g" d="M975.71,409.59v12.24"/><path class="g" d="M948.77,260.21c.23,2.89,.47,5.78,.71,8.73,7.36-.61,4.91-5.41,5.41-8.73"/><path class="g" d="M936.53,413.26c-1.44,.11-2.87,.22-4.46,.34-.16,2.92-.3,5.57-.44,8.23"/><path class="g" d="M927.35,410.81v11.02"/><path class="g" d="M981.83,416.93q4.02-.14,4.99-3.37h-5.68c-.22,2.49-.41,4.73-.68,7.82,2.55,.18,4.41,.32,6.27,.45"/><path class="g" d="M978.16,263.88c1.89-.61,5.78,1.98,4.75-3.37h-5.44c-.22,2.49-.41,4.73-.68,7.82,2.55,.18,4.41,.32,6.27,.45"/><path class="g" d="M967.14,109.61c1.89-.61,5.78,1.98,4.75-3.37h-5.44c-.22,2.49-.41,4.73-.68,7.82,2.55,.18,4.41,.32,6.27,.45"/><path class="g" d="M981.83,567.54c-.83-.07-1.65-.13-2.56-.21q-1.81,6.56,2.56,8.78"/><path class="g" d="M956.12,567.54c-.83-.07-1.65-.13-2.56-.21q-1.81,6.56,2.56,8.78"/><path class="g" d="M938.98,413.26v8.57"/><path class="g" d="M948.77,567.54c-.61,2.86-1.22,5.71-1.84,8.57"/><path class="g" d="M950,105.93v8.57"/><path class="g" d="M984.28,563.86v12.24"/><path class="g" d="M938.98,567.54c.53,2.26,1.05,4.52,1.58,6.79,.33,.06,.66,.13,.99,.19,.67-2.15,1.35-4.3,2.4-7.65,.81,2.84,1.29,4.51,1.77,6.18"/><path class="g" d="M931.63,409.59h-8.57"/><path class="g" d="M961.02,567.54c-3.57,4.28-3.49,5.33,.61,8.57,4.3-3.39,4.3-6.3,0-8.57"/><path class="g" d="M970.81,567.54c-3.57,4.28-3.49,5.33,.61,8.57,4.3-3.39,4.3-6.3,0-8.57"/></g><g class="i"><g><path class="f" d="M934.42,126.6l.68,.09h.02l8.03-.47c.32-.02,.55-.05,.68-.09,.13-.04,.23-.06,.3-.06s.18,.05,.32,.14,.26,.2,.36,.31c.1,.12,.15,.21,.15,.27s-.11,.11-.32,.13l-4.26,.24h-.08v.08l.02,3.88v.08h.08l2.04-.12c.38-.03,.64-.07,.75-.11,.12-.04,.22-.06,.31-.06s.21,.05,.35,.15c.14,.1,.26,.21,.35,.33,.09,.12,.14,.2,.14,.24,0,.08-.1,.13-.3,.15l-3.62,.21h-.08v4.26s.01,.08,.01,.08h.08l4.33-.12c.24,0,.45-.02,.62-.08,.17-.05,.31-.08,.42-.08s.32,.17,.62,.5c.09,.12,.14,.2,.14,.24,0,.08-.1,.13-.3,.15l-12.54,.36c-.38,0-.63-.14-.76-.43h-.01v-.02c-.08-.13-.14-.27-.17-.43,.05,0,.14,.02,.26,.05,.12,.03,.3,.05,.53,.05l.33-.02,1.98-.06h.08v-.08l-.14-5.91c0-.3-.08-.58-.24-.82-.03-.05-.05-.09-.05-.11s.04-.04,.11-.04,.2,.03,.38,.08c.46,.13,.68,.28,.68,.46l.09,6.32v.08h.08l2.52-.08h.08v-.08l-.06-8.97v-.08h-.08l-3.48,.2h-.01c-.07,.01-.14,.02-.21,.02h-.23c-.27,0-.48-.07-.62-.21s-.23-.27-.27-.4c-.04-.13-.07-.21-.08-.24Zm1.14,3.06v0Z"/><path class="f" d="M950.28,128.91h.03l1.37-.08h.06l.33-2.17,.02-.11-1.98,.18h-.02c-.05,.01-.1,.02-.15,.02h-.14c-.32,0-.57-.15-.73-.46-.08-.16-.12-.26-.12-.3v-.02l.52,.08h.01c.2,0,.38-.01,.53-.03l2.27-.18,.15-.02c.08,0,.2,.05,.35,.14,.15,.09,.23,.18,.23,.27s-.01,.15-.05,.2c-.03,.05-.05,.1-.06,.16l-.36,2.14v.06c.26,.28,.38,.46,.38,.52s-.03,.1-.08,.11-.12,.03-.21,.04l-2.43,.14h-.06l-.35,2.19h.09l2.08-.12h.11c.16,0,.31,.05,.43,.14,.13,.1,.19,.17,.19,.22s-.03,.2-.08,.46v.02c-.25,2.52-.58,4.14-.97,4.83-.2,.34-.41,.52-.63,.52s-.56-.2-1.02-.59c-.46-.4-.78-.71-.95-.95-.17-.24-.26-.38-.26-.43v-.05h.02c.08,0,.28,.1,.59,.3,.31,.2,.62,.37,.91,.52s.48,.22,.55,.22c.1,0,.19-.12,.27-.36,.08-.24,.2-.74,.36-1.51,.16-.77,.26-1.62,.31-2.56v-.08h-.08l-1.76,.11c-.15,.01-.27,.03-.36,.05s-.17,.04-.26,.04-.17-.05-.26-.15c-.09-.1-.13-.18-.13-.25s0-.12,.02-.16l.41-2.54c.02-.13,.03-.24,.03-.33v-.02l-.09-.5s.04-.05,.11-.05,.36,.12,.84,.35Zm6.77-.3c.23,.15,.36,.26,.4,.32-.01,.06-.05,.17-.12,.33-.23,.55-.77,1.35-1.61,2.4l-.05,.06c.38,.27,.83,.68,1.35,1.23l.08,.06,.04-.08c.8-1.07,1.34-1.89,1.61-2.43,.04-.1,.07-.22,.08-.35,.01-.13,.03-.2,.06-.2s.11,.04,.23,.11c.34,.22,.52,.44,.53,.64,0,.12-.47,.78-1.4,1.98s-1.93,2.33-3,3.4l-.15,.17,.23-.03c1.16-.14,2.53-.37,4.13-.68l.11-.02-.06-.09c-.25-.49-.48-.88-.68-1.19-.2-.3-.3-.49-.3-.55s.03-.12,.09-.17c.16-.1,.29-.15,.39-.15s.19,.06,.27,.18c.72,1.09,1.33,2.21,1.82,3.34,.13,.27,.2,.44,.2,.51s-.07,.15-.2,.25c-.13,.1-.26,.15-.38,.15-.09,0-.18-.11-.26-.32-.24-.65-.44-1.1-.58-1.35l-.02-.06-.06,.02c-2.45,.53-4.04,.83-4.76,.91-.72,.08-1.11,.12-1.16,.12-.22,0-.38-.08-.47-.23-.21-.31-.32-.49-.32-.54s.02-.07,.06-.07l.4,.05c.1,.02,.19,.03,.27,.03h.12l.18-.02h.03c.85-.85,1.67-1.75,2.46-2.71l.05-.05-.05-.06c-.83-.82-1.65-1.52-2.45-2.1-.18-.13-.27-.24-.27-.33s.07-.17,.2-.27c.13-.09,.24-.13,.31-.13,.08,0,.31,.17,.71,.51l.06,.05c.92-1.23,1.41-2.12,1.47-2.69l.02-.09h-.09l-2.22,.14h-.01c-.06,.01-.12,.02-.17,.02h-.27c-.12,0-.27-.07-.44-.21-.17-.14-.28-.32-.32-.54h.04l.56,.05h.21c.08,0,.17,0,.27-.02l2.49-.15h.08v-.08l-.06-1.93c0-.24-.04-.42-.13-.54-.09-.12-.14-.19-.16-.24,.03,0,.07-.02,.11-.02l.17,.02c.29,0,.51,.04,.65,.13,.14,.09,.21,.17,.21,.27l-.02,2.25v.08h.08l2.05-.14c.35-.03,.61-.07,.76-.12,.15-.05,.28-.08,.38-.08,.19,0,.39,.16,.59,.47,.07,.11,.11,.19,.11,.24s-.1,.09-.3,.11l-4.13,.26-.23,.02,.18,.12Z"/><path class="f" d="M965.81,130.15c.14,.11,.21,.22,.21,.31s-.07,.2-.21,.3c-.14,.1-.23,.16-.28,.18-.08-.05-.34-.27-.79-.66-.45-.39-.91-.73-1.38-1.03-.12-.08-.18-.15-.18-.21s.04-.15,.12-.26c.08-.11,.15-.17,.22-.17s.3,.13,.69,.38c.39,.25,.93,.64,1.6,1.16Zm-1.69,7.12l-.24-.06c-.42-.08-.62-.19-.62-.33,0-.02,.04-.06,.11-.11,.24-.14,.43-.32,.55-.55,.89-1.43,1.64-2.76,2.24-4,.13-.28,.24-.43,.33-.43,.03,0,.05,.05,.05,.16s-.07,.37-.21,.8c-.35,1.07-.9,2.36-1.63,3.85-.12,.22-.22,.39-.3,.5-.08,.11-.16,.17-.24,.17h-.02Zm1.27-11.36c.38,.31,.68,.57,.89,.78s.39,.38,.52,.52,.21,.25,.21,.3-.06,.15-.18,.27c-.12,.13-.21,.19-.28,.19s-.16-.06-.28-.18c-.55-.63-1.15-1.2-1.79-1.72-.12-.09-.18-.16-.18-.22s.04-.14,.13-.25,.17-.17,.27-.17,.33,.16,.71,.47Zm11.53,11.65s.04,0,.05,.03c-.01,.03-.05,.09-.12,.17-.22,.28-.43,.43-.62,.43-.06-.01-.28-.11-.65-.29-1.03-.56-2.08-1.31-3.13-2.27l-.04-.05-.05,.05c-1.6,1.38-3.04,2.22-4.32,2.54l-.09-.03c0-.09,.14-.22,.41-.38,1.34-.79,2.5-1.68,3.5-2.68l-.05-.05c-.84-.88-1.45-1.61-1.84-2.19-.15-.22-.23-.36-.23-.4s.05-.12,.14-.22c.1-.1,.2-.15,.3-.15s.2,.06,.28,.17c.66,.88,1.3,1.63,1.92,2.25l.06-.06c.83-.97,1.48-2.01,1.95-3.1h-.12l-5.4,.3h-.08v.08c-.01,.23-.05,.5-.12,.79-.28,1.45-.78,2.72-1.49,3.82-.28,.45-.54,.78-.76,1-.22,.22-.37,.33-.43,.33,0-.01-.01-.04-.01-.1s.07-.2,.2-.43c.65-1.06,1.14-2.26,1.48-3.58s.51-2.89,.51-4.69v-.79c0-.34-.03-.61-.1-.81-.07-.19-.1-.31-.1-.36s.06-.07,.17-.07,.47,.16,1.06,.47l.02,.02h.01l2.24-.14h.08v-1.69c.01-.38-.05-.64-.18-.81-.03-.04-.05-.07-.05-.09s.04-.03,.11-.03,.18,.02,.33,.05c.44,.07,.65,.22,.65,.46l-.05,1.98v.08h.08l2.83-.17,.27-.02c.13,0,.27,.05,.43,.15,.13,.1,.2,.2,.2,.29s-.03,.17-.09,.23c-.06,.06-.15,.21-.28,.46s-.38,.6-.76,1.08c-.38,.48-.64,.71-.78,.71-.01,0-.02-.05-.02-.12s.09-.31,.27-.71c.18-.4,.33-.82,.46-1.27l.03-.09h-.11l-2.46,.15h-.08v.08l-.05,2.78v.08h.08l2.14-.12h.17c.16,0,.33,.05,.49,.16,.17,.11,.25,.22,.25,.33s-.03,.21-.1,.29c-.07,.08-.11,.15-.14,.21-.57,1.29-1.3,2.41-2.19,3.38l-.04,.05,.06,.06c1.08,.96,2.39,1.78,3.91,2.46Zm-7.92-9.47c-.01,.53-.02,1.05-.02,1.57,0,.52-.04,.95-.1,1.29h.09l2.46-.14h.08v-.08l.03-2.78v-.08h-.08l-2.39,.14h-.08v.08Zm7.92,9.47v0Z"/></g><g><path class="f" d="M941.94,284.03c.25,.05,.52,.08,.79,.08h.2l4.87-.29h.08v-2.17c-.01-.25-.06-.44-.14-.55-.08-.12-.12-.19-.12-.22s.04-.05,.12-.05,.2,.01,.35,.03c.42,.05,.62,.14,.62,.27v2.55s-.01,.08-.01,.08h.08l4.56-.27c.35-.03,.58-.06,.68-.09,.1-.03,.18-.05,.23-.05s.14,.03,.27,.09c.35,.2,.53,.39,.53,.55,0,.08-.07,.13-.21,.15l-6.63,.38h-.06v.06c-.15,.76-.31,1.45-.52,2.07h.11l3.75-.21h.11c.2,0,.38,.05,.52,.15,.15,.1,.22,.2,.22,.3s-.02,.18-.05,.25c-.04,.07-.06,.14-.07,.2v.02c-.22,2.24-.62,4.11-1.19,5.61-.09,.24-.24,.46-.43,.64-.2,.18-.37,.27-.51,.27s-.41-.1-.8-.29c-.39-.19-.9-.54-1.54-1.03-.63-.5-.96-.82-.98-.96,.02-.01,.06-.02,.12-.02s.36,.13,.91,.4c.55,.27,1.02,.47,1.41,.59,.39,.13,.62,.19,.69,.19s.11-.05,.14-.14c.38-.8,.67-1.67,.84-2.6,.18-.93,.31-1.85,.39-2.75l.02-.08h-.09l-3.79,.2h-.06c-.52,1.55-1.34,2.92-2.46,4.12-.83,.89-1.64,1.55-2.43,1.96-.29,.14-.48,.21-.55,.21s-.11-.01-.11-.03c0-.08,.09-.18,.26-.3,.96-.7,1.88-1.62,2.74-2.77s1.48-2.36,1.85-3.63c.22-.78,.4-1.57,.53-2.37h-.09l-3.82,.23h-.01c-.17,.02-.34,.03-.49,.03s-.31-.04-.45-.11c-.14-.07-.28-.27-.41-.61h-.01v-.06s.01-.03,.04-.03Z"/><path class="f" d="M959.36,285.95c.14,.11,.21,.22,.21,.31s-.07,.2-.21,.3c-.14,.1-.23,.16-.28,.18-.08-.05-.34-.27-.79-.66-.45-.39-.91-.73-1.38-1.03-.12-.08-.18-.15-.18-.21s.04-.15,.12-.26c.08-.11,.15-.17,.22-.17s.3,.13,.69,.38c.39,.25,.93,.64,1.6,1.16Zm-1.69,7.12l-.24-.06c-.42-.08-.62-.19-.62-.33,0-.02,.04-.06,.11-.11,.24-.14,.43-.32,.55-.55,.89-1.43,1.64-2.76,2.24-4,.13-.28,.24-.43,.33-.43,.03,0,.05,.05,.05,.16s-.07,.37-.21,.8c-.35,1.07-.9,2.36-1.63,3.85-.12,.22-.22,.39-.3,.5-.08,.11-.16,.17-.24,.17h-.02Zm1.27-11.36c.38,.31,.68,.57,.89,.78s.39,.38,.52,.52,.21,.25,.21,.3-.06,.15-.18,.27c-.12,.13-.21,.19-.28,.19s-.16-.06-.28-.18c-.55-.63-1.15-1.2-1.79-1.72-.12-.09-.18-.16-.18-.22s.04-.14,.13-.25,.17-.17,.27-.17,.33,.16,.71,.47Zm11.53,11.65s.04,0,.05,.03c-.01,.03-.05,.09-.12,.17-.22,.28-.43,.43-.62,.43-.06-.01-.28-.11-.65-.29-1.03-.56-2.08-1.31-3.13-2.27l-.04-.05-.05,.05c-1.6,1.38-3.04,2.22-4.32,2.54l-.09-.03c0-.09,.14-.22,.41-.38,1.34-.79,2.5-1.68,3.5-2.68l-.05-.05c-.84-.88-1.45-1.61-1.84-2.19-.15-.22-.23-.36-.23-.4s.05-.12,.14-.22c.1-.1,.2-.15,.3-.15s.2,.06,.28,.17c.66,.88,1.3,1.63,1.92,2.25l.06-.06c.83-.97,1.48-2.01,1.95-3.1h-.12l-5.4,.3h-.08v.08c-.01,.23-.05,.5-.12,.79-.28,1.45-.78,2.72-1.49,3.82-.28,.45-.54,.78-.76,1-.22,.22-.37,.33-.43,.33,0-.01-.01-.04-.01-.1s.07-.2,.2-.43c.65-1.06,1.14-2.26,1.48-3.58s.51-2.89,.51-4.69v-.79c0-.34-.03-.61-.1-.81-.07-.19-.1-.31-.1-.36s.06-.07,.17-.07,.47,.16,1.06,.47l.02,.02h.01l2.24-.14h.08v-1.69c.01-.38-.05-.64-.18-.81-.03-.04-.05-.07-.05-.09s.04-.03,.11-.03,.18,.02,.33,.05c.44,.07,.65,.22,.65,.46l-.05,1.98v.08h.08l2.83-.17,.27-.02c.13,0,.27,.05,.43,.15,.13,.1,.2,.2,.2,.29s-.03,.17-.09,.23c-.06,.06-.15,.21-.28,.46s-.38,.6-.76,1.08c-.38,.48-.64,.71-.78,.71-.01,0-.02-.05-.02-.12s.09-.31,.27-.71c.18-.4,.33-.82,.46-1.27l.03-.09h-.11l-2.46,.15h-.08v.08l-.05,2.78v.08h.08l2.14-.12h.17c.16,0,.33,.05,.49,.16,.17,.11,.25,.22,.25,.33s-.03,.21-.1,.29c-.07,.08-.11,.15-.14,.21-.57,1.29-1.3,2.41-2.19,3.38l-.04,.05,.06,.06c1.08,.96,2.39,1.78,3.91,2.46Zm-7.92-9.47c-.01,.53-.02,1.05-.02,1.57,0,.52-.04,.95-.1,1.29h.09l2.46-.14h.08v-.08l.03-2.78v-.08h-.08l-2.39,.14h-.08v.08Zm7.92,9.47v0Z"/></g><g><path class="f" d="M935.49,445.72l10.84-.37c.17,0,.36-.04,.56-.08,.2-.04,.33-.07,.39-.07s.15,.04,.3,.13c.14,.09,.27,.19,.38,.31,.11,.12,.17,.22,.17,.3,0,.13-.11,.21-.32,.23l-11.66,.39-.41,.02c-.26,0-.46-.05-.58-.14-.12-.1-.23-.23-.31-.4-.09-.17-.13-.29-.13-.36v-.05c.05,0,.13,.02,.24,.05s.29,.05,.53,.05Zm2.1-7.97h-.47c-.21,.01-.37-.03-.46-.11-.1-.09-.17-.22-.24-.4l-.11-.32v-.02s0,0,.03,0,.08,.02,.17,.05c.1,.03,.29,.05,.58,.05h.2l7.31-.43c.22-.02,.4-.05,.53-.1,.13-.05,.23-.07,.29-.07s.15,.05,.28,.15c.13,.1,.24,.21,.33,.33s.14,.2,.14,.25c0,.1-.11,.16-.33,.18l-8.27,.46Zm1.05,4.07l-.44,.02c-.2,0-.34-.03-.43-.09-.27-.31-.41-.56-.41-.75,0-.06,0-.09,.03-.09s.09,.02,.21,.05c.12,.04,.32,.05,.59,.05h.15l5.56-.27c.22-.02,.4-.05,.53-.1,.13-.04,.22-.07,.27-.07s.14,.05,.28,.14c.14,.1,.25,.21,.35,.33s.14,.22,.14,.29c0,.1-.11,.16-.33,.18l-6.52,.3Z"/><path class="f" d="M952.3,438.83c-.82,.59-1.27,.88-1.35,.87-.08,0-.11-.02-.11-.04,0-.07,.04-.14,.14-.21,1.6-1.39,2.93-2.87,4-4.45,.11-.19,.17-.42,.17-.68v-.09c0-.08,.02-.12,.05-.12,.18,0,.45,.16,.79,.47,.12,.11,.18,.2,.18,.27-.03,.1-.32,.49-.87,1.16l-.11,.14,3.48-.24h.2c.24-.01,.43,.05,.56,.17,.13,.13,.2,.22,.2,.27s-.12,.21-.36,.48-.74,.72-1.5,1.37l-.18,.15,3.18-.18h.12c.1,0,.22,.04,.34,.12,.13,.08,.19,.18,.19,.3l-.04,.3v8.3s.03,.43,.03,.43c0,.11-.06,.25-.17,.43-.12,.17-.25,.26-.39,.26-.38,0-1.06-.39-2.07-1.17-.57-.45-.85-.75-.85-.93,0-.03,.03-.05,.1-.05s.22,.07,.48,.2c.81,.48,1.46,.78,1.96,.91l.09,.03v-3.33h-.08l-3.27,.11h-.08v3.45c0,.21-.06,.32-.17,.32-.03,0-.11-.02-.23-.07-.12-.05-.24-.12-.34-.22s-.16-.23-.16-.38v-.08s.02-.12,.06-.29c.04-.17,.06-.41,.06-.7v-1.99h-.08l-3.3,.11h-.06c-.27,1.1-.78,2.08-1.52,2.93-.29,.34-.56,.61-.8,.78-.24,.18-.38,.27-.43,.27s-.08-.02-.08-.05c0-.06,.07-.17,.2-.33,.92-1.09,1.52-2.21,1.78-3.35,.19-.81,.29-2.01,.29-3.59v-1.52c-.01-.12-.03-.3-.06-.55Zm.87-.26h.03l3.34-.18h.04c.8-.69,1.4-1.27,1.79-1.75l.11-.14-3.8,.26h-.03l-.03,.03c-.63,.68-1.23,1.22-1.79,1.63l.12,.06,.21,.09Zm-.09,4.68v.21s-.01,.08-.01,.08h.08l3.13-.09h.08v-2.04h-.08l-3.04,.12h-.08v.08c-.03,.79-.06,1.34-.08,1.64Zm.06-3.95l.02,1.49v.08h.08l3.04-.12h.08v-1.69h-.08l-3.06,.17h-.08v.08Zm7.33-.46l-3.28,.17h-.08v1.7h.08l3.28-.12h.08v-1.75h-.08Zm0,2.42l-3.27,.12h-.08v2.04h.08l3.28-.12h.08v-.08l-.02-1.88v-.08h-.08Z"/><path class="f" d="M967.56,440.2c.14,.11,.21,.22,.21,.31s-.07,.2-.21,.3-.23,.16-.28,.18c-.08-.05-.34-.27-.79-.66-.45-.39-.91-.73-1.38-1.03-.12-.08-.18-.15-.18-.21s.04-.15,.12-.26c.08-.11,.15-.17,.22-.17s.3,.13,.69,.38c.39,.25,.93,.64,1.6,1.16Zm-1.69,7.12l-.24-.06c-.42-.08-.62-.19-.62-.33,0-.02,.04-.05,.11-.11,.24-.14,.43-.32,.55-.55,.89-1.43,1.64-2.76,2.24-4,.13-.28,.24-.42,.33-.42,.03,0,.05,.05,.05,.16s-.07,.37-.21,.8c-.35,1.08-.9,2.36-1.63,3.85-.12,.22-.22,.39-.3,.5s-.16,.17-.24,.17h-.02Zm1.27-11.36c.38,.31,.68,.57,.89,.78,.21,.2,.39,.38,.52,.52,.14,.15,.21,.25,.21,.3s-.06,.15-.18,.27c-.12,.13-.21,.19-.28,.19s-.16-.06-.28-.18c-.55-.63-1.15-1.2-1.79-1.72-.12-.09-.18-.17-.18-.22s.04-.14,.13-.25,.17-.17,.27-.17,.33,.16,.71,.47Zm11.53,11.65s.04,0,.05,.03c-.01,.03-.05,.09-.12,.17-.22,.28-.43,.43-.62,.43-.06,0-.28-.11-.65-.29-1.03-.56-2.08-1.31-3.13-2.27l-.04-.05-.05,.05c-1.6,1.38-3.04,2.22-4.32,2.54l-.09-.03c0-.09,.14-.22,.41-.38,1.34-.79,2.5-1.68,3.5-2.68l-.05-.04c-.84-.88-1.45-1.61-1.84-2.19-.15-.22-.23-.36-.23-.4s.05-.12,.14-.22c.1-.1,.2-.15,.3-.15s.2,.06,.28,.17c.66,.88,1.3,1.63,1.92,2.25l.06-.06c.83-.97,1.48-2.01,1.95-3.1h-.12l-5.4,.3h-.08v.08c-.01,.23-.05,.5-.12,.79-.28,1.45-.78,2.72-1.49,3.82-.28,.45-.54,.78-.76,1s-.37,.33-.43,.33c0,0-.01-.04-.01-.1s.07-.2,.2-.43c.65-1.06,1.14-2.26,1.48-3.58,.34-1.32,.51-2.89,.51-4.69v-.79c0-.34-.03-.61-.1-.81-.07-.19-.1-.31-.1-.36s.06-.07,.17-.07,.47,.16,1.06,.47l.02,.02h.01l2.24-.14h.08v-1.69c.01-.38-.05-.64-.18-.81-.03-.04-.05-.07-.05-.09s.04-.03,.11-.03,.18,.01,.33,.05c.44,.07,.65,.22,.65,.46l-.05,1.98v.08h.08l2.83-.17h.27c.13-.01,.27,.04,.43,.14,.13,.1,.2,.2,.2,.29s-.03,.17-.09,.23c-.06,.06-.15,.21-.28,.46s-.38,.6-.76,1.08c-.38,.48-.64,.71-.78,.71-.01,0-.02-.05-.02-.12s.09-.31,.27-.71c.18-.4,.33-.82,.46-1.27l.03-.09h-.11l-2.46,.15h-.08v.08l-.05,2.78v.08h.08l2.14-.12h.17c.16,0,.33,.05,.49,.16,.17,.11,.25,.22,.25,.33s-.03,.21-.1,.29c-.07,.08-.11,.15-.14,.21-.57,1.29-1.3,2.41-2.19,3.38l-.04,.05,.06,.06c1.08,.96,2.39,1.78,3.91,2.46Zm-7.92-9.47c-.01,.53-.02,1.05-.02,1.57,0,.52-.04,.95-.1,1.29h.09l2.46-.14h.08v-.08l.03-2.78v-.08h-.08l-2.39,.14h-.08v.08Zm7.92,9.47v0Z"/></g><g><path class="f" d="M934.41,591.07s-.06-.04-.06-.11,.18-.35,.55-.84c.37-.49,.77-1.18,1.19-2.07,.42-.89,.64-1.57,.64-2.04,0-.09,.04-.14,.11-.14s.19,.04,.34,.11c.38,.18,.56,.37,.56,.56,0,.03-.03,.11-.09,.24l-.29,.58c-.12,.23-.22,.41-.3,.53l-.09,.14,1.44-.12c.22-.02,.44-.07,.65-.14s.38-.11,.52-.11,.28,.08,.44,.25,.24,.3,.24,.41-.06,.17-.17,.17l-3.53,.23h-.05c-.06,.11-.3,.43-.71,.94-.73,.93-1.2,1.4-1.41,1.4Zm3.53,6.17c-.62,.53-.99,.79-1.12,.79s-.26-.11-.37-.34c-.12-.23-.17-.37-.17-.43s.07-.1,.2-.13,.27-.1,.43-.2v-.05l.03-3.03v-.08h-.08l-.96,.06h-.02c-.16,.02-.3,.03-.43,.03s-.21-.02-.27-.06c-.31-.24-.47-.46-.47-.65,0-.04,.03-.06,.08-.06l.52,.06h.02l1.54-.09h.08v-.08l.03-1.78v-.08h-.08l-.52,.03c-.22,0-.36-.01-.41-.04-.3-.23-.46-.45-.46-.65,0-.04,.02-.06,.06-.06s.1,0,.19,.03c.09,.02,.29,.03,.62,.03,1.45-.09,2.25-.16,2.39-.21,.14-.05,.24-.08,.3-.08s.18,.07,.37,.21c.19,.14,.29,.27,.29,.4,0,.09-.11,.15-.32,.17l-1.54,.12h-.08v1.85s-.01,.08-.01,.08h.08c.81-.05,1.27-.1,1.39-.14,.12-.04,.19-.06,.22-.06s.11,.03,.23,.08c.3,.19,.46,.37,.46,.53,0,.08-.1,.13-.29,.15l-2.02,.15h-.08v.08l-.02,2.49v.14c.85-.54,1.41-.91,1.68-1.12s.43-.31,.49-.31,.08,.03,.08,.08c0,.26-.68,.98-2.04,2.16Zm-.75-11.28v0Zm4.61,.82h.03l4.83-.32,.17-.02c.13,0,.26,.06,.4,.18,.13,.12,.2,.21,.2,.27s-.02,.11-.06,.17c-.04,.06-.07,.11-.08,.17l-.44,1.98v.06c.27,.27,.39,.44,.39,.5s-.03,.1-.1,.11c-.07,.01-.16,.03-.28,.04l-5.05,.24h-.08v.08c-.09,2.9-.54,5.19-1.35,6.87-.28,.57-.6,1.12-.94,1.66-.13,.2-.24,.3-.32,.3-.03,0-.05-.05-.05-.14s.03-.2,.09-.32c.71-1.54,1.18-3.01,1.41-4.42,.23-1.4,.34-3.09,.34-5.05v-.76c0-.87-.06-1.42-.18-1.64v-.02l-.11-.15s-.02-.04-.02-.05c.03-.02,.1-.03,.22-.03s.44,.09,.97,.27Zm-2.13,6.11v0s0,0,0,0Zm6.63-5.75l-4.47,.26h-.08v.08c0,.15,.02,.31,.02,.47v.99c0,.18,0,.36-.02,.55v.08h.08l4.07-.23h.06l.41-2.1v-.09s-.08,0-.08,0Zm-3.15,7.8h.03l1.22-.06h.08v-1.99h-.08l-1.75,.08c-.21,0-.36-.03-.44-.1-.08-.07-.16-.16-.24-.29-.08-.13-.11-.22-.11-.28v-.03h.02c.3,.05,.53,.08,.67,.08h.18l1.67-.08h.08v-1.19c0-.25-.04-.44-.13-.55-.09-.11-.13-.19-.13-.23,0,0,.04-.02,.1-.02s.2,.04,.44,.12,.38,.14,.44,.17,.08,.09,.08,.16l-.05,1.4v.08h.08l1.69-.06h.02l.67-.12s.12,.03,.23,.09c.3,.18,.46,.34,.46,.47,0,.06-.08,.1-.23,.12l-2.83,.12h-.08v.08l-.04,1.84v.08h.08l1.51-.08h.15c.14,0,.28,.07,.43,.21,.14,.14,.19,.23,.14,.28s-.07,.11-.08,.17l-.38,2.08v.03l.02,.03c.23,.29,.35,.47,.35,.53s-.02,.1-.06,.11c-.09,0-.21,0-.35,.01l-3.57,.08h-.08v.08l.03,.46v.09c0,.13-.04,.2-.11,.2-.19,0-.36-.06-.49-.19-.14-.13-.21-.26-.21-.39v-.06c.02-.18,.03-.32,.03-.41v-.21c0-.05,0-.11-.01-.18l-.18-2.05c-.02-.28-.08-.5-.17-.65-.1-.15-.15-.25-.17-.3,.03,0,.09-.02,.18-.02s.4,.1,.93,.29Zm3.39,.41l-3.34,.15h-.08v.08l.15,2.04v.08h.08l2.9-.09h.06l.3-2.16,.02-.09h-.09Z"/><path class="f" d="M949.99,590.63c.28,.09,.54,.14,.76,.14h.08l2.24-.12h.08v-.08l-.08-2.57c-.01-.29-.11-.57-.29-.84-.03-.04-.05-.08-.05-.12,0-.01,.04-.02,.1-.02s.17,.02,.36,.06c.46,.12,.68,.28,.68,.49l.03,2.95v.08h.08l2.16-.11h.08v-4.11c-.01-.28-.1-.56-.27-.84-.02-.03-.03-.06-.03-.08s.05-.03,.14-.03,.23,.03,.4,.08c.4,.12,.59,.26,.59,.41v1.78s-.01,.08-.01,.08h.08l2.3-.14c.23-.02,.41-.06,.54-.11s.22-.08,.29-.08,.15,.04,.27,.12c.31,.22,.47,.4,.47,.52,0,.07-.09,.12-.27,.14l-3.6,.2h-.08v1.93s-.01,.08-.01,.08h.08l4.45-.23c.38-.03,.61-.06,.71-.1,.1-.04,.18-.05,.25-.05s.17,.05,.29,.14c.12,.1,.23,.2,.31,.31,.09,.11,.13,.19,.13,.24s-.09,.08-.26,.1l-11.75,.61h-.01c-.08,.01-.16,.02-.23,.02h-.23c-.23,0-.39-.04-.46-.12-.19-.24-.32-.47-.38-.68,0-.02,.02-.03,.05-.03h.05Zm10.58,8.61c-.13-.12-.2-.21-.2-.3s.02-.21,.05-.4h-.09l-7.53,.29c-.17,0-.31,.04-.43,.08-.11,.05-.19,.07-.24,.07s-.11-.02-.21-.06c-.25-.08-.38-.21-.38-.38,0-.03,.03-.13,.08-.3,.05-.17,.08-.37,.08-.6l.08-4.3c0-.27-.1-.55-.29-.84-.03-.04-.05-.08-.05-.12,0,0,.04-.02,.1-.02s.17,.03,.36,.08c.47,.11,.7,.29,.7,.55l-.11,5.12v.08h.08l7.83-.32h.08v-.08l.08-4.73c-.02-.32-.08-.55-.17-.69-.1-.14-.14-.23-.14-.27,0,0,.04-.01,.1-.01s.17,.02,.34,.06c.47,.12,.7,.29,.7,.52l-.15,6.49c0,.16-.06,.24-.17,.24-.19,0-.36-.06-.49-.17Zm-5.67-2.77c-.33,.23-.64,.4-.9,.51s-.43,.16-.48,.16h-.11c.03-.07,.14-.17,.32-.3,.88-.61,1.52-1.28,1.91-2.02,.39-.74,.59-1.49,.6-2.25,0-.22-.03-.38-.08-.46s-.09-.15-.11-.19h.04c.09,0,.21,.01,.37,.04,.38,.07,.58,.25,.58,.53,0,.58-.1,1.09-.26,1.55l-.06,.18,.17-.09h.04c.05,.02,.24,.12,.58,.31,.33,.19,.7,.42,1.09,.71,.78,.58,1.17,.92,1.17,1.02s-.06,.24-.17,.4c-.12,.17-.22,.25-.3,.25s-.23-.1-.46-.3c-.5-.48-1.21-1.05-2.13-1.72l-.18-.15c-.37,.74-.91,1.35-1.64,1.82Z"/><path class="f" d="M967.56,591.27c.14,.11,.21,.21,.21,.31s-.07,.2-.21,.3c-.14,.1-.23,.16-.28,.18-.08-.05-.34-.27-.79-.66-.45-.39-.91-.73-1.38-1.03-.12-.08-.18-.15-.18-.21s.04-.15,.12-.26c.08-.11,.15-.17,.22-.17s.3,.13,.69,.38c.39,.25,.93,.64,1.6,1.16Zm-1.69,7.12l-.24-.06c-.42-.08-.62-.19-.62-.33,0-.02,.04-.06,.11-.11,.24-.14,.43-.32,.55-.55,.89-1.43,1.64-2.76,2.24-4,.13-.28,.24-.43,.33-.43,.03,0,.05,.05,.05,.16s-.07,.37-.21,.8c-.35,1.07-.9,2.36-1.63,3.85-.12,.22-.22,.39-.3,.5-.08,.11-.16,.17-.24,.17h-.02Zm1.27-11.36c.38,.31,.68,.57,.89,.78,.21,.2,.39,.38,.52,.52,.14,.15,.21,.25,.21,.3s-.06,.15-.18,.27c-.12,.13-.21,.19-.28,.19s-.16-.06-.28-.18c-.55-.63-1.15-1.2-1.79-1.72-.12-.09-.18-.16-.18-.22s.04-.14,.13-.25,.17-.17,.27-.17,.33,.16,.71,.47Zm11.53,11.65s.04,0,.05,.03c-.01,.03-.05,.09-.12,.17-.22,.28-.43,.43-.62,.43-.06-.01-.28-.11-.65-.29-1.03-.56-2.08-1.31-3.13-2.27l-.04-.04-.05,.04c-1.6,1.38-3.04,2.22-4.32,2.54l-.09-.03c0-.09,.14-.22,.41-.38,1.34-.79,2.5-1.68,3.5-2.68l-.05-.05c-.84-.88-1.45-1.61-1.84-2.19-.15-.22-.23-.36-.23-.4s.05-.12,.14-.22c.1-.1,.2-.15,.3-.15s.2,.06,.28,.17c.66,.88,1.3,1.63,1.92,2.25l.06-.06c.83-.97,1.48-2.01,1.95-3.1h-.12l-5.4,.3h-.08v.08c-.01,.23-.05,.5-.12,.79-.28,1.45-.78,2.72-1.49,3.82-.28,.45-.54,.78-.76,1-.22,.22-.37,.33-.43,.33,0-.01-.01-.04-.01-.1s.07-.2,.2-.43c.65-1.06,1.14-2.26,1.48-3.58,.34-1.32,.51-2.89,.51-4.69v-.79c0-.34-.03-.61-.1-.81-.07-.19-.1-.31-.1-.36s.06-.07,.17-.07,.47,.16,1.06,.47h.02s.01,.01,.01,.01l2.24-.14h.08v-1.69c.01-.38-.05-.64-.18-.81-.03-.04-.05-.07-.05-.09,0-.02,.04-.03,.11-.03s.18,.02,.33,.05c.44,.07,.65,.22,.65,.46l-.05,1.98v.08h.08l2.83-.17,.27-.02c.13,0,.27,.05,.43,.15,.13,.1,.2,.2,.2,.29s-.03,.17-.09,.23-.15,.21-.28,.46-.38,.6-.76,1.08c-.38,.48-.64,.71-.78,.71-.01,0-.02-.05-.02-.12s.09-.31,.27-.71c.18-.4,.33-.82,.46-1.27l.03-.09h-.11l-2.46,.15h-.08v.08l-.05,2.78v.08h.08l2.14-.12h.17c.16,0,.33,.05,.49,.16,.17,.11,.25,.21,.25,.33s-.03,.21-.1,.29c-.07,.08-.11,.15-.14,.21-.57,1.29-1.3,2.41-2.19,3.38l-.04,.05,.06,.06c1.08,.96,2.39,1.78,3.91,2.46Zm-7.92-9.47c-.01,.53-.02,1.05-.02,1.57,0,.52-.04,.95-.1,1.29h.09l2.46-.14h.08v-.08l.03-2.78v-.08h-.08l-2.39,.14h-.08v.08Zm7.92,9.47v0Z"/></g></g></g></svg>