<?xml version="1.0" encoding="UTF-8"?><svg id="g" xmlns="http://www.w3.org/2000/svg" viewBox="0 0 1366 768"><defs><style>.h{fill:#fff;}.i{fill:#3fa9f5;}.j{fill:none;stroke:#fff;stroke-miterlimit:10;stroke-width:4px;}</style></defs><rect class="i" x="0" y="1" width="1366" height="767"/><g><line class="j" x1="632.34" y1="139.17" x2="632.34" y2="633.17"/><g><path class="h" d="M654.56,162.6c4.32,3.46,8.21,7.35,11.67,11.67,0,2.59-1.08,3.68-3.24,3.24-3.03-3.89-6.7-7.78-11.02-11.67-.44-2.16,.43-3.24,2.59-3.24Zm12.32,20.1c1.73-1.73,3.02-1.51,3.89,.65-1.3,10.38-4.76,21.62-10.38,33.72-2.16,1.73-3.46,1.3-3.89-1.3,5.62-12.1,9.08-23.12,10.38-33.07Zm-7.13-40.85c3.46,3.03,6.92,6.92,10.38,11.67,.43,2.59-.65,3.46-3.24,2.59-3.03-3.89-6.27-7.56-9.73-11.02-.44-2.16,.43-3.24,2.59-3.24Zm23.99-1.3c1.73-1.73,3.02-1.3,3.89,1.3l-1.95,4.54h41.5c2.16,1.3,2.16,2.59,0,3.89h-42.8c-3.03,5.62-6.27,10.16-9.73,13.62-2.59,.87-3.68-.21-3.24-3.24,5.62-5.62,9.73-12.32,12.32-20.1Zm4.54,17.51h30.48c4.75,0,6.92,2.16,6.48,6.48l-1.3,15.56h5.19c2.16,1.3,2.16,2.59,0,3.89h-5.19l-1.95,18.16h7.13c2.16,1.3,2.16,2.59,0,3.89h-7.78c-1.3,7.35-3.89,11.24-7.78,11.67-6.05,.86-11.89-.22-17.51-3.24-1.3-2.59-.65-3.89,1.95-3.89,4.32,2.16,8.86,3.24,13.62,3.24,3.02,0,4.97-2.59,5.84-7.78h-35.66c-4.76,.43-6.7-1.73-5.84-6.48l2.59-15.56h-5.19c-2.16-1.3-2.16-2.59,0-3.89h5.84l2.59-16.21c.86-3.89,3.02-5.84,6.48-5.84Zm31.77,25.94h-37.61l-2.59,15.56c-.44,2.16,.43,3.03,2.59,2.59h35.66l1.95-18.16Zm-1.95-22.05h-28.53c-2.16,0-3.46,.87-3.89,2.59l-2.59,15.56h36.96l1.3-14.91c.43-2.16-.65-3.24-3.24-3.24Zm-25.29,27.23c-.44-3.02,.65-4.1,3.24-3.24,3.02,3.89,5.62,8,7.78,12.32-.44,2.59-1.73,3.24-3.89,1.95-1.73-3.46-4.11-7.13-7.13-11.02Zm2.59-22.7c0-2.59,1.08-3.46,3.24-2.59,3.02,3.89,5.4,7.78,7.13,11.67-.44,2.16-1.73,2.59-3.89,1.3-2.16-4.32-4.33-7.78-6.48-10.38Z"/><path class="h" d="M655.2,251.44h9.73c4.75,0,6.92,1.95,6.48,5.84v25.94c6.48,7.35,14.27,10.81,23.34,10.38h31.12c1.73,1.3,1.73,2.59,0,3.89h-30.48c-9.51,.43-17.94-2.81-25.29-9.73-3.03,3.89-6.48,6.92-10.38,9.08-2.59,0-3.24-1.3-1.95-3.89,4.32-2.16,7.56-5.19,9.73-9.08v-25.29c.43-2.16-.87-3.24-3.89-3.24h-8.43c-1.73-1.3-1.73-2.59,0-3.89Zm9.08-22.05c3.02,3.89,5.84,8.43,8.43,13.62,0,2.59-1.08,3.46-3.24,2.59-3.03-5.62-5.84-10.16-8.43-13.62,.43-2.59,1.51-3.46,3.24-2.59Zm32.42-3.89v11.67h18.8c5.62,0,8.21,2.59,7.78,7.78l-1.3,33.07c.43,9.08-6.27,11.67-20.1,7.78-.87-2.16-.44-3.46,1.3-3.89,10.38,3.89,15.34,2.38,14.91-4.54l1.3-31.12c.43-3.46-1.3-5.19-5.19-5.19h-17.51c0,20.75-5.62,35.88-16.86,45.39-2.16,.44-3.03-.65-2.59-3.24,10.38-9.08,15.56-23.12,15.56-42.15h-14.27c-1.73-.86-1.73-2.16,0-3.89h14.27v-11.67c1.3-2.16,2.59-2.16,3.89,0Z"/><path class="h" d="M671.42,307.85c1.73-1.73,3.02-1.51,3.89,.65-.44,3.89-1.08,7.35-1.95,10.38h9.08c4.75,0,6.92,2.16,6.48,6.48v46.69c.43,4.75-1.73,6.92-6.48,6.48h-18.16c-4.33,.43-6.48-1.73-6.48-6.48v-46.69c0-4.32,2.16-6.48,6.48-6.48h5.19c.86-3.02,1.51-6.7,1.95-11.02Zm9.73,14.91h-15.56c-2.59,0-3.89,1.3-3.89,3.89v19.45h23.34v-19.45c.43-2.59-.87-3.89-3.89-3.89Zm3.89,27.23h-23.34v20.75c0,3.03,1.3,4.32,3.89,3.89h15.56c3.02,.43,4.32-.87,3.89-3.89v-20.75Zm16.21-42.15c0,2.16-.22,4.97-.65,8.43h20.75c4.75,0,6.92,2.16,6.48,6.48l-.65,44.09c.43,13.4-9.3,16.86-29.18,10.38-1.3-2.59-.87-3.89,1.3-3.89,16.42,6.05,24.42,3.46,23.99-7.78l.65-41.5c.43-2.59-.87-3.89-3.89-3.89h-20.1c-1.3,6.05-3.24,11.46-5.84,16.21-2.16,1.3-3.24,.65-3.24-1.95,4.32-8.64,6.48-17.51,6.48-26.59,1.3-1.73,2.59-1.73,3.89,0Zm.65,27.23c5.19,7.35,9.29,15.13,12.32,23.34-.44,3.46-1.73,3.89-3.89,1.3-3.89-9.08-7.78-16.64-11.67-22.7-.44-2.59,.65-3.24,3.24-1.95Z"/><path class="h" d="M692.17,390.2v9.08h29.83c1.73,1.3,1.73,2.59,0,3.89h-29.83v16.86h37.61c1.73,1.3,1.73,2.59,0,3.89h-37.61v7.78c13.4,5.62,23.56,10.59,30.48,14.91,1.3,2.16,.65,3.24-1.95,3.24-8.22-4.75-17.73-9.29-28.53-13.62v29.83c-1.3,1.73-2.59,1.73-3.89,0v-42.15h-32.42c-1.73-1.3-1.73-2.59,0-3.89h32.42v-29.83c1.3-1.73,2.59-1.73,3.89,0Z"/><path class="h" d="M689.57,473.85c1.3-1.73,2.59-1.73,3.89,0v12.32h29.83c1.73,1.3,1.73,2.59,0,3.89h-29.83c0,9.08-.22,16-.65,20.75h33.07c1.73,1.3,1.73,2.59,0,3.89h-26.59c6.92,16.86,16.86,27.02,29.83,30.48,1.73,1.73,1.3,3.03-1.3,3.89-15.56-4.76-26.37-16.21-32.42-34.37h-3.24c-3.89,17.29-15.35,28.74-34.37,34.37-3.03,0-3.46-1.3-1.3-3.89,16.86-4.76,27.45-14.91,31.77-30.48h-29.83c-2.16-1.3-2.16-2.59,0-3.89h30.48c.43-4.32,.65-11.24,.65-20.75h-28.53c-2.16-1.3-2.16-2.59,0-3.89h28.53v-12.32Z"/><path class="h" d="M692.17,556.2v9.08h29.83c1.73,1.3,1.73,2.59,0,3.89h-29.83v16.86h37.61c1.73,1.3,1.73,2.59,0,3.89h-37.61v7.78c13.4,5.62,23.56,10.59,30.48,14.91,1.3,2.16,.65,3.24-1.95,3.24-8.22-4.75-17.73-9.29-28.53-13.62v29.83c-1.3,1.73-2.59,1.73-3.89,0v-42.15h-32.42c-1.73-1.3-1.73-2.59,0-3.89h32.42v-29.83c1.3-1.73,2.59-1.73,3.89,0Z"/></g></g></svg>