<?xml version="1.0" encoding="UTF-8"?><svg id="f" xmlns="http://www.w3.org/2000/svg" viewBox="0 0 1366 768"><defs><style>.i{fill:#fff;}.j{opacity:.84;}.k{fill:#1a1a1a;}</style></defs><rect y="1" width="1366" height="767"/><g id="g" class="j"><path class="k" d="M1002.5,54.42l.3-40.37s37.49-9.37,62.97-13.06c2.98,4.75,.32,10.93-5.87,17.11L313.52,764.49l-14.52-6.57L1002.5,54.42Z"/><path class="k" d="M755.26,496.8l.65-40.02s37.05-8.93,61.74-12.53c2.98,4.75,.76,10.49-5.43,16.68l-305.38,305.38-14.08-7.01,262.5-262.5Z"/></g><g><path class="i" d="M684.69,231.7c0,.46,.36,.96,1.09,1.49,3.43,2.71,6.14,5.05,8.12,7.03s4.54,3.93,7.67,5.84c3.13,1.92,5.59,3.14,7.38,3.66,9.7,2.91,14.55,5.12,14.55,6.63,0,1.06-.99,1.73-2.97,2.03-1.98,.3-4.44,.45-7.38,.45s-5.56-.11-7.87-.35c-2.31-.23-3.7-.35-4.16-.35-1.06,0-1.72-.97-1.98-2.92-.26-1.95-.66-3.33-1.19-4.16-.53-.82-1.68-2.31-3.46-4.46-1.78-2.14-3.89-3.94-6.34-5.4-2.44-1.45-3.94-2.18-4.5-2.18s-.88,.18-.94,.54c-.07,.36-.1,1.82-.1,4.36s.23,5,.69,7.38c.46,2.38,.69,4.85,.69,7.43l-.2,3.56c0,1.05,.13,2.13,.4,3.22,.26,1.09,.4,1.9,.4,2.43,0,1.12-.48,1.68-1.44,1.68s-2.96-.31-5.99-.94c-3.04-.63-6.12-1.98-9.26-4.06-3.14-2.08-4.7-3.58-4.7-4.5,0-.53,.25-.79,.74-.79s1.15,.18,1.98,.54c.83,.36,2.19,.69,4.11,.99,1.91,.3,3.1,.45,3.56,.45,1.91,0,2.74-1.82,2.47-5.44-.07-.86-.1-2.9-.1-6.14l.3-10.3c0-.99-.21-1.48-.64-1.48s-.91,.36-1.44,1.09c-5.08,6.2-8.71,10.03-10.89,11.48-2.18,1.45-4.08,2.96-5.69,4.5-1.62,1.55-2.76,2.99-3.42,4.31-.66,1.32-1.25,2.04-1.78,2.18-.53,.13-1.42,.2-2.67,.2s-2.66-.15-4.21-.45c-1.55-.3-2.33-.73-2.33-1.29s.87-1.35,2.62-2.38c1.75-1.02,3.02-1.67,3.81-1.93,.79-.26,2.21-1.17,4.26-2.72,2.04-1.55,3.86-3.12,5.45-4.7s2.67-2.64,3.27-3.17c1.98-1.78,3.6-3.75,4.85-5.89,1.25-2.14,1.88-3.5,1.88-4.06s-.23-.84-.69-.84c-.2,0-1.34,.3-3.42,.89s-3.78,1.04-5.1,1.34c-1.32,.3-2.67,.73-4.06,1.29-1.39,.56-2.23,.96-2.52,1.19-.3,.23-.69,.35-1.19,.35s-1.09-.56-1.78-1.68c-.69-1.12-1.04-2.09-1.04-2.92s.49-1.24,1.48-1.24,1.95-.2,2.87-.59c.92-.4,3.73-1.27,8.42-2.62,4.69-1.35,7.84-2.21,9.45-2.57,1.62-.36,2.69-.69,3.22-.99,.53-.3,.79-.81,.79-1.53,0-1.85-.33-2.77-.99-2.77s-1.67,.2-3.02,.59c-1.35,.4-2.82,1.06-4.41,1.98-.53,.26-1.09,.4-1.68,.4s-1.34-.94-2.23-2.82-1.34-3.05-1.34-3.51c0-.79,.59-1.22,1.78-1.29,1.32-.07,3-.43,5.05-1.09,3.56-1.05,5.58-1.68,6.04-1.88,.26-.13,.43-.46,.5-.99,.26-1.12,.4-2.18,.4-3.17,0-.86-.33-1.29-.99-1.29-1.98,0-3.96,.63-5.94,1.88-1.39,.86-2.33,1.29-2.82,1.29s-.91-.31-1.24-.94c-.33-.63-.78-1.93-1.34-3.91-.56-1.98-.84-3.4-.84-4.26s.72-1.29,2.18-1.29c1.19,0,3.45-.15,6.78-.45,3.33-.3,5.06-.71,5.2-1.24,.13-.53,.31-2.14,.54-4.85,.23-2.71,.38-4.85,.45-6.44,.07-1.45,.59-2.18,1.58-2.18s2.29,.26,3.91,.79c1.62,.53,2.43,1.16,2.43,1.88,0,.26-.17,.69-.5,1.29-.66,1.06-.99,2.39-.99,4.01s.06,2.56,.2,2.82c.13,.26,.38,.4,.74,.4s.71-.03,1.04-.1c3.43-.86,6.2-1.29,8.32-1.29,.92,0,1.48,.28,1.68,.84,.2,.56,.3,1.37,.3,2.43s-.26,1.88-.79,2.47c-.53,.59-1.78,1.47-3.76,2.62-1.98,1.16-3.66,1.98-5.05,2.47-1.39,.5-2.18,.94-2.38,1.34-.2,.4-.3,.97-.3,1.73s.13,1.14,.4,1.14,.53-.03,.79-.1c2.51-.79,4.44-1.19,5.79-1.19s2.16,.21,2.42,.64c.26,.43,.4,1.17,.4,2.23s-.26,1.88-.79,2.48c-.53,.59-1.6,1.39-3.22,2.38-1.62,.99-3.38,1.88-5.3,2.67-.59,.2-.89,.86-.89,1.98s.46,1.68,1.39,1.68c.26,0,1.3-.2,3.12-.59,1.81-.4,3.79-.74,5.94-1.04,2.14-.3,3.58-.59,4.31-.89,.73-.3,1.19-.45,1.39-.45,.86,0,1.85,.81,2.97,2.42,1.12,1.62,1.68,2.89,1.68,3.81,0,1.32-.25,1.98-.74,1.98s-1.06-.1-1.68-.3c-.63-.2-1.75-.3-3.37-.3s-4.14,.21-7.57,.64c-3.43,.43-5.4,.76-5.89,.99-.5,.23-.74,.51-.74,.84Z"/><path class="i" d="M689.05,348.03c-.99,.2-1.49,.53-1.49,.99s.1,1.04,.3,1.73,.3,1.55,.3,2.57-.51,2.08-1.53,3.17c-1.02,1.09-1.96,1.63-2.82,1.63s-1.82-1.01-2.87-3.02c-1.06-2.01-1.78-3.27-2.18-3.76-.4-.5-.94-.74-1.63-.74s-2.51,.38-5.45,1.14c-2.94,.76-4.54,1.27-4.8,1.53-.26,.26-.43,.99-.5,2.18l-.4,10.4c-.07,1.19-.17,1.98-.3,2.38-.13,.4-.46,.59-.99,.59-1.45,0-2.52-.4-3.22-1.19-.69-.79-1.04-1.68-1.04-2.67s.13-1.82,.4-2.48c.73-1.85,1.09-3.79,1.09-5.84s-.05-4.44-.15-7.18c-.1-2.74-.25-4.21-.45-4.41-.2-.2-.4-.3-.59-.3-.59,0-2.03,.79-4.31,2.38-2.28,1.58-4.55,3.38-6.83,5.4-2.28,2.01-4.57,3.02-6.88,3.02-.93,0-1.87-.2-2.82-.59-.96-.4-1.44-.97-1.44-1.73s.96-1.48,2.87-2.18c1.91-.69,4.12-1.96,6.63-3.81,2.51-1.85,4.82-4.01,6.93-6.48,2.11-2.47,3.17-3.91,3.17-4.31s-.18-.59-.54-.59-.84,.07-1.44,.2l-6.34,1.39c-.73,.13-1.55,.38-2.47,.74-.92,.36-1.57,.69-1.93,.99-.36,.3-.81,.45-1.34,.45s-.97-.53-1.34-1.58c-.36-1.05-.54-1.96-.54-2.72s.13-1.27,.4-1.53,.87-.5,1.83-.69c.96-.2,1.77-.46,2.43-.79,1.98-.86,6.17-2.31,12.57-4.36,.92-.33,1.53-.66,1.83-.99,.3-.33,.45-.77,.45-1.34s-.33-.84-.99-.84c-1.39,0-2.54,.3-3.46,.89-.26,.2-.56,.3-.89,.3-1.06,0-1.95-.56-2.67-1.68-.73-1.12-1.09-2.47-1.09-4.06,0-.53,.13-.92,.4-1.19,.26-.26,.84-.5,1.73-.69,.89-.2,2.28-.68,4.16-1.44,1.88-.76,2.99-1.35,3.32-1.78,.33-.43,.5-1.09,.5-1.98s-.33-1.34-.99-1.34-1.53,.17-2.62,.5-1.77,.69-2.03,1.09c-.26,.4-.59,.59-.99,.59-.92,0-1.73-.92-2.43-2.77-.69-1.85-1.04-3.12-1.04-3.81s.16-1.14,.5-1.34c.33-.2,1-.35,2.03-.45,1.02-.1,2.69-.41,5-.94,2.31-.53,3.55-.96,3.71-1.29,.16-.33,.48-1.85,.94-4.55,.46-2.71,.86-4.54,1.19-5.49,.33-.96,.73-1.44,1.19-1.44s1.15,.26,2.08,.79c.92,.53,1.39,1.01,1.39,1.44s-.07,.97-.2,1.63c-.13,.66-.2,1.82-.2,3.46s.18,2.47,.54,2.47,.97-.1,1.83-.3c.86-.2,1.71-.3,2.57-.3s1.48,.48,1.88,1.44c.4,.96,.59,1.85,.59,2.67s-.4,1.52-1.19,2.08c-.79,.56-2.18,1.17-4.16,1.83-1.45,.53-2.18,1.39-2.18,2.57,0,.92,.3,1.39,.89,1.39l2.28-.4c.59,0,1.2,.59,1.83,1.78,.63,1.19,.94,2.15,.94,2.87s-.45,1.32-1.34,1.78c-.89,.46-1.96,1.12-3.22,1.98-1.25,.86-1.88,1.55-1.88,2.08,0,.99,.15,1.49,.45,1.49s.79-.12,1.48-.35c.69-.23,1.4-.35,2.13-.35s1.2,.12,1.44,.35c.23,.23,.51,.74,.84,1.53,.33,.79,.71,1.19,1.14,1.19s1.27-.99,2.53-2.97c1.25-1.98,2.13-4.21,2.62-6.68,.5-2.47,.74-6.52,.74-12.13,0-1.12,.36-2.06,1.09-2.82,.73-.76,1.58-1.17,2.57-1.24,.99-.06,2.08-.21,3.27-.45,1.19-.23,2.34-.59,3.46-1.09,1.12-.5,2.59-.94,4.41-1.34,1.81-.4,3.23-.59,4.26-.59s1.8,.26,2.33,.79c.53,.53,.79,1.19,.79,1.98,0,1.39-1.42,2.69-4.26,3.91-2.84,1.22-5.64,2.2-8.42,2.92-1.39,.4-2.28,.84-2.67,1.34-.4,.5-.59,1.21-.59,2.13,0,.53,.31,.79,.94,.79s1.57-.36,2.82-1.09c1.25-.73,3.32-1.39,6.19-1.98s4.6-.89,5.2-.89,.99,.51,1.19,1.53c.2,1.02,.3,1.77,.3,2.23s-.28,.84-.84,1.14c-.56,.3-2.19,.94-4.9,1.93-2.71,.99-4.74,1.62-6.09,1.88-1.35,.26-2.89,.4-4.6,.4-.86,0-1.45,.26-1.78,.79-.33,.53-.5,1.19-.5,1.98,0,.4,.28,.59,.84,.59s1.9-.36,4.01-1.09c6.8-2.38,11.78-3.56,14.95-3.56,.99,0,1.63,.45,1.93,1.34s.45,1.5,.45,1.83c0,.86-.76,1.5-2.28,1.93-1.52,.43-3.04,.96-4.55,1.58-1.52,.63-3.33,1.24-5.44,1.83-.59,.13-.89,.38-.89,.74s.43,.86,1.29,1.49c.86,.63,1.54,.94,2.03,.94s1.01-.16,1.54-.5c5.35-3.3,8.25-4.95,8.71-4.95,.79,0,1.48,.46,2.08,1.39,.59,.93,.89,1.75,.89,2.48s-.59,1.16-1.78,1.29c-1.19,.13-2.52,.54-4.01,1.24-1.49,.69-2.23,1.34-2.23,1.93,0,.2,.16,.41,.5,.64,.33,.23,.58,.61,.74,1.14,.16,.53,.2,1.32,.1,2.38-.1,1.06-.15,1.87-.15,2.42s.11,.96,.35,1.19c.23,.23,.76,.35,1.58,.35s2.08-.18,3.76-.54c1.68-.36,2.71-.54,3.07-.54s.78,.17,1.24,.49c.46,.33,1.27,1.22,2.43,2.67,1.15,1.45,1.8,2.36,1.93,2.72,.13,.36,.2,.88,.2,1.54s-.13,1.11-.4,1.34c-.26,.23-.68,.35-1.24,.35s-1.83-.13-3.81-.4c-1.98-.26-3.83-.4-5.54-.4s-2.74,.05-3.07,.15c-.33,.1-.58,.51-.74,1.24-.17,.73-.3,2.28-.4,4.65-.1,2.38-.15,4.84-.15,7.38s.11,4.45,.35,5.74c.23,1.29,.35,3.02,.35,5.2s-.12,3.73-.35,4.65c-.23,.92-.59,1.39-1.09,1.39s-1.55-.31-3.17-.94c-1.62-.63-5.17-1.8-10.64-3.51-2.18-.66-4.11-1.65-5.79-2.97-1.68-1.32-2.52-2.18-2.52-2.57s.28-.59,.84-.59,1.1,.07,1.63,.2c4.29,.73,7.26,1.09,8.91,1.09,2.18,0,3.68-.48,4.5-1.44,.82-.96,1.24-2.51,1.24-4.65s-.1-4.62-.3-7.43c-.2-2.8-.35-4.42-.45-4.85-.1-.43-.28-.76-.54-.99-.26-.23-.54-.35-.84-.35s-.64,.03-1.04,.1l-7.03,1.19Zm11.09-12.47c0-.26-.13-.59-.4-.99-.26-.4-.59-.69-.99-.89-2.57-1.65-5.44-3.79-8.61-6.44-.73-.59-1.25-.89-1.58-.89-.73,0-1.09,1.55-1.09,4.65,0,1.58,.13,2.59,.4,3.02,.26,.43,.79,.64,1.58,.64s1.53-.25,2.23-.74,1.2-.74,1.53-.74c.66,0,.99,.43,.99,1.29,0,1.25-1.25,2.77-3.76,4.55-2.51,1.78-4.39,2.67-5.64,2.67-.53,0-.96-.15-1.29-.45-.33-.3-.64-1.12-.94-2.47-.3-1.35-.45-2.62-.45-3.81s.15-2.23,.45-3.12c.3-.89,.45-1.55,.45-1.98s-.12-.64-.35-.64-.78,.4-1.63,1.19c-.86,.79-2.23,1.5-4.11,2.13-1.88,.63-2.99,.94-3.32,.94s-.5-.18-.5-.54,.03-.71,.1-1.04c.07-.33,.1-.63,.1-.89s-.1-.4-.3-.4-.45,.1-.74,.3-.97,.53-2.03,.99c-1.06,.46-1.58,1.16-1.58,2.08s.2,1.72,.59,2.38c.4,.66,1.58,1.85,3.56,3.56,.59,.53,.89,1.12,.89,1.78s-.21,1.21-.64,1.63-1.14,.64-2.13,.64-1.68-.03-2.08-.1c-.4-.06-.66-.1-.79-.1-.86,0-1.29,.89-1.29,2.67,0,.59,.23,.89,.69,.89,1.12,0,3.13-.59,6.04-1.78,2.9-1.05,5.71-1.78,8.42-2.18,2.71-.4,4.8-.91,6.29-1.54,1.49-.63,3.27-1.19,5.35-1.68s3.22-.82,3.42-.99c.2-.16,.3-.58,.3-1.24s.15-1.1,.45-1.34c.3-.23,.78-.35,1.44-.35s.99-.23,.99-.69Z"/><path class="i" d="M698.25,461.08l.4,7.33c0,1.12-.1,2.16-.3,3.12-.2,.96-.43,1.44-.69,1.44s-1.27-.51-3.02-1.53c-1.75-1.02-3.35-1.87-4.8-2.52-5.81-2.77-10.02-5.25-12.62-7.42-2.61-2.18-3.91-3.63-3.91-4.36,0-.26,.2-.4,.59-.4s1.02,.17,1.88,.49c5.28,2.18,9.31,3.27,12.08,3.27,.92,0,1.55-.23,1.88-.69,.33-.46,.5-1.32,.5-2.57l-.59-13.17c-.2-5.21-.45-10.11-.74-14.7-.3-4.59-.61-8.53-.94-11.83-.33-3.3-.54-5.3-.64-5.99-.1-.69-.36-1.35-.79-1.98-.43-.63-.96-1.07-1.58-1.34-.63-.26-1.37-.4-2.23-.4-1.78,0-3.66,.59-5.64,1.78-1.98,1.19-3.28,2.31-3.91,3.37-.63,1.06-.94,2.57-.94,4.55,0,.53,.3,.79,.89,.79,2.71,0,4.69-.13,5.94-.4,1.25-.26,2.01-.4,2.28-.4,.86,0,1.29,.92,1.29,2.77s-.53,2.89-1.58,3.12c-1.06,.23-2.08,.61-3.07,1.14-.99,.53-2.24,1.3-3.76,2.33-1.52,1.02-2.34,1.63-2.47,1.83-.13,.2-.23,.5-.3,.89l-.59,4.06c0,.4,.18,.59,.54,.59s.81-.1,1.34-.3c4.16-1.65,6.99-2.47,8.51-2.47,1.32,0,1.98,1.16,1.98,3.46,0,.99-.38,1.82-1.14,2.47-.76,.66-2.21,1.3-4.36,1.93-2.15,.63-4.27,1.35-6.39,2.18-2.11,.83-3.33,1.35-3.66,1.58-.33,.23-.59,.58-.79,1.04-1.32,2.51-2.51,4.47-3.56,5.89-1.06,1.42-1.73,2.56-2.03,3.42-.3,.86-.45,1.68-.45,2.48v2.08c0,.79-.26,1.58-.79,2.38s-1.85,1.78-3.96,2.97c-2.11,1.19-4.42,2.19-6.93,3.02-2.51,.82-4.34,1.24-5.49,1.24s-1.73-.23-1.73-.69c0-.66,2.62-2.84,7.87-6.53,5.25-3.7,9.24-9.04,11.98-16.04,2.74-7,4.11-15.35,4.11-25.05l-.3-8.22c0-1.39,.43-2.42,1.29-3.12,.86-.69,4.08-1.75,9.65-3.17,5.58-1.42,9.73-2.13,12.47-2.13s4.92,.25,6.53,.74c1.62,.49,2.61,.89,2.97,1.19,.36,.3,.54,.68,.54,1.14s-.25,.97-.74,1.53c-.5,.56-.86,1.39-1.09,2.48-.23,1.09-.35,2.99-.35,5.69l.3,13.86-.1,6.53c0,3.7,.3,7.64,.89,11.83,.59,4.19,.89,6.78,.89,7.77s-.1,1.95-.3,2.87c-.2,.92-.3,1.85-.3,2.77Z"/><path class="i" d="M672.61,554.04c.53,0,.91,.41,1.14,1.24,.23,.83,.35,1.57,.35,2.23s-.28,1.22-.84,1.68c-.56,.46-1.73,1.02-3.51,1.68-9.11,3.37-15.94,6.86-20.49,10.49-.79,.66-1.5,.99-2.13,.99s-1.25-.4-1.88-1.19c-.63-.79-1.35-1.8-2.18-3.02-.83-1.22-1.24-2.06-1.24-2.52,0-.99,.84-1.57,2.52-1.73,1.68-.16,3.38-.58,5.1-1.24,3.76-1.65,10.36-4.12,19.8-7.42,.79-.2,1.47-.45,2.03-.74,.56-.3,1-.45,1.34-.45Zm2.57-26.73c0,.4-.33,.83-.99,1.29-.66,.46-1.78,1.52-3.37,3.17-1.58,1.65-3.4,3.78-5.44,6.39-2.05,2.61-3.19,4.11-3.42,4.5-.23,.4-.35,.76-.35,1.09,0,.66,.25,.99,.74,.99s.97-.1,1.44-.3c2.71-.99,4.85-1.48,6.43-1.48,1.32,0,2.16,.45,2.52,1.34,.36,.89,.54,1.57,.54,2.03s-.4,.91-1.19,1.34c-.79,.43-2.34,.99-4.65,1.68-2.31,.69-4.8,1.67-7.47,2.92-2.67,1.25-4.64,2.34-5.89,3.27-.59,.4-1.25,.59-1.98,.59s-1.67-.79-2.82-2.38c-1.16-1.58-1.73-2.79-1.73-3.61s.43-1.34,1.29-1.53c2.57-.73,4.6-2.26,6.09-4.6,1.48-2.34,2.23-3.68,2.23-4.01s-.15-.5-.45-.5-1.48,.22-3.56,.64c-2.08,.43-3.45,.89-4.11,1.39-.66,.49-1.27,.74-1.83,.74s-1.34-.91-2.33-2.72c-.99-1.81-1.49-3.1-1.49-3.86s.43-1.24,1.29-1.44c2.04-.53,3.6-1.27,4.65-2.23,1.05-.96,3.28-4.41,6.68-10.34,3.4-5.94,5.59-10.05,6.58-12.33,.99-2.28,1.85-3.42,2.57-3.42s1.95,.53,3.66,1.58c1.72,1.06,2.57,1.87,2.57,2.43s-.36,1.27-1.09,2.13c-2.51,3.17-4.42,5.91-5.74,8.22-1.32,2.31-3.53,5.48-6.63,9.5-.66,.79-.99,1.52-.99,2.18s.43,.99,1.29,.99,1.88-.12,3.07-.35c1.19-.23,2.04-.71,2.57-1.44,1.25-1.72,2.49-3.38,3.71-5,1.22-1.62,1.98-2.56,2.28-2.82,.3-.26,.68-.4,1.14-.4s1.27,.56,2.43,1.68c1.15,1.12,1.73,2.01,1.73,2.67Zm23.36-5.74c0,1.06,.4,1.58,1.19,1.58,.13,0,2.04-.4,5.74-1.19,3.7-.79,5.71-1.29,6.04-1.49,.73-.33,1.35-.5,1.88-.5s1.01,.63,1.44,1.88c.43,1.25,.94,2.34,1.53,3.27,.59,.92,.89,1.75,.89,2.47,0,1.39-.92,1.92-2.77,1.58-.53-.06-1.95-.1-4.26-.1s-4.69,.18-7.13,.54c-2.44,.36-3.85,.83-4.21,1.39-.36,.56-.54,1.9-.54,4.01,0,1.45,.36,2.18,1.09,2.18,.2,0,.56-.05,1.09-.15,.53-.1,1.63-.25,3.32-.45,1.68-.2,2.87-.45,3.56-.74,.69-.3,1.19-.45,1.48-.45s.56,.1,.79,.3,.73,.86,1.49,1.98c.76,1.12,1.25,1.96,1.49,2.52,.23,.56,.35,1.35,.35,2.38s-.43,1.53-1.29,1.53c-.2,0-.48-.05-.84-.15-.36-.1-1.21-.15-2.52-.15s-3.2,.18-5.64,.54c-2.44,.36-4.57,.81-6.38,1.34-1.82,.53-3.58,.79-5.3,.79l-3.37-.1c-1.32,0-2.66,.12-4.01,.35-1.35,.23-2.28,.53-2.77,.89-.5,.36-.96,.54-1.39,.54s-.88-.61-1.34-1.83c-.46-1.22-.69-2.09-.69-2.62,0-.86,.48-1.29,1.44-1.29s2.36-.23,4.21-.69c1.85-.46,3.28-.91,4.31-1.34,1.02-.43,1.63-.81,1.83-1.14,.2-.33,.4-1.27,.59-2.82,.2-1.55,.3-2.52,.3-2.92s-.3-.59-.89-.59c-.07,0-1.62,.21-4.65,.64-3.04,.43-5,.86-5.89,1.29-.89,.43-1.57,.64-2.03,.64-.79,0-1.24-.45-1.34-1.34-.1-.89-.3-1.81-.59-2.77-.3-.96-.45-1.6-.45-1.93,0-1.05,.76-1.58,2.28-1.58,2.84-.13,5.11-.41,6.83-.84,1.72-.43,3.35-.83,4.9-1.19,1.55-.36,2.39-.76,2.52-1.19,.13-.43,.36-3.15,.69-8.17l1.09-16.04c.07-1.12,.4-1.68,.99-1.68s1.81,.33,3.66,.99c1.85,.66,2.77,1.17,2.77,1.53s-.13,.78-.4,1.24c-.73,1.06-1.09,4.72-1.09,10.99v8.02Zm16.53,33.46c0,.46-.3,1.06-.89,1.78-1.65,1.92-3.07,4.36-4.26,7.33-1.19,2.97-1.78,5.41-1.78,7.33,0,.92-.2,1.55-.59,1.88-.4,.33-2.01,.56-4.85,.69-6.47,.33-11.22,.96-14.26,1.88-.92,.26-1.58,.4-1.98,.4s-.71-.1-.94-.3c-.23-.2-1.17-1.62-2.82-4.26-1.65-2.64-2.97-5.69-3.96-9.16-.99-3.47-1.48-5.5-1.48-6.09s.16-1.02,.5-1.29c.33-.26,1.96-.86,4.9-1.78,2.94-.92,5.89-1.67,8.86-2.23,2.97-.56,5.86-.84,8.66-.84s5.53,.36,8.17,1.09c2.64,.73,4.42,1.39,5.35,1.98,.92,.59,1.39,1.12,1.39,1.58Zm-24.55,12.38c2.31,0,4.6-.51,6.88-1.53s3.42-3.18,3.42-6.48c0-2.57-1.48-3.86-4.46-3.86-1.06,0-2.71,.53-4.95,1.58-2.25,1.06-3.6,1.88-4.06,2.48-.46,.59-.69,1.48-.69,2.67s.23,2.34,.69,3.46c.46,1.12,1.52,1.68,3.17,1.68Z"/></g></svg>