<?xml version="1.0" encoding="UTF-8"?><svg id="uuid-2c49256d-fa26-4cc8-8abe-b09b025ca2e2" xmlns="http://www.w3.org/2000/svg" xmlns:xlink="http://www.w3.org/1999/xlink" viewBox="0 0 1366 768"><defs><style>.uuid-4c54afc4-2b00-4289-b5f1-5a1aa364bf52{filter:url(#uuid-a98b46d2-7c70-43e5-8df7-b2a8f6f64bd4);}.uuid-0cdd5b94-2a58-4d3a-ac75-61c7c45ebb72{filter:url(#uuid-8aac1b43-28bd-4aca-a5a9-1a5c2dd06de5);}.uuid-a722e527-2b44-452b-9eac-35021580deb5{filter:url(#uuid-e6ee5d97-cc49-485f-8b0f-db992c276b48);}.uuid-24a18575-f089-4394-bd5f-cae6912d2194{stroke:#e4e6d9;stroke-width:4px;}.uuid-24a18575-f089-4394-bd5f-cae6912d2194,.uuid-475a151a-fe98-495b-8ddd-21311ac855af,.uuid-a850bedf-4e5d-4487-87a3-9422aedcce54{fill:none;stroke-miterlimit:10;}.uuid-475a151a-fe98-495b-8ddd-21311ac855af{stroke-width:.84px;}.uuid-475a151a-fe98-495b-8ddd-21311ac855af,.uuid-a850bedf-4e5d-4487-87a3-9422aedcce54{stroke:#000;}.uuid-b9a62460-4f1f-4a81-96bb-995935fec46b{filter:url(#uuid-84143e05-ffec-49e4-9460-e42224c65869);}.uuid-a850bedf-4e5d-4487-87a3-9422aedcce54{stroke-width:3.35px;}.uuid-80edab93-f28c-494d-b0c8-dad256e3b56d{fill:#18365d;}.uuid-be8ce5b5-8415-431b-984a-3378936a7bb7{fill:#e4e6d9;}.uuid-9220869f-8146-4453-b433-a026ea8fd0d4{fill:red;}</style><filter id="uuid-8aac1b43-28bd-4aca-a5a9-1a5c2dd06de5" x="-20%" y="-20%" width="140%" height="140%"><feGaussianBlur in="SourceAlpha" result="blur" stdDeviation="4"/><feOffset dx="4" dy="4" in="blur" result="offsetBlur"/><feSpecularLighting in="blur" result="specOut" specularConstant="1" specularExponent="10" surfaceScale="5"><fePointLight x="-5000" y="-10000" z="-20000"/></feSpecularLighting><feComposite in="specOut" in2="SourceAlpha" operator="in" result="specOut"/><feComposite in="SourceGraphic" in2="specOut" k1="0" k2="1" k3="1" k4="0" operator="arithmetic" result="litPaint"/><feMerge><feMergeNode in="offsetBlur"/><feMergeNode in="litPaint"/></feMerge></filter><filter id="uuid-84143e05-ffec-49e4-9460-e42224c65869" x="-20%" y="-20%" width="140%" height="140%"><feGaussianBlur in="SourceAlpha" result="blur" stdDeviation="4"/><feOffset dx="4" dy="4" in="blur" result="offsetBlur"/><feSpecularLighting in="blur" result="specOut" specularConstant="1" specularExponent="10" surfaceScale="5"><fePointLight x="-5000" y="-10000" z="-20000"/></feSpecularLighting><feComposite in="specOut" in2="SourceAlpha" operator="in" result="specOut"/><feComposite in="SourceGraphic" in2="specOut" k1="0" k2="1" k3="1" k4="0" operator="arithmetic" result="litPaint"/><feMerge><feMergeNode in="offsetBlur"/><feMergeNode in="litPaint"/></feMerge></filter><filter id="uuid-a98b46d2-7c70-43e5-8df7-b2a8f6f64bd4" x="-20%" y="-20%" width="140%" height="140%"><feGaussianBlur in="SourceAlpha" result="blur" stdDeviation="4"/><feOffset dx="4" dy="4" in="blur" result="offsetBlur"/><feSpecularLighting in="blur" result="specOut" specularConstant="1" specularExponent="10" surfaceScale="5"><fePointLight x="-5000" y="-10000" z="-20000"/></feSpecularLighting><feComposite in="specOut" in2="SourceAlpha" operator="in" result="specOut"/><feComposite in="SourceGraphic" in2="specOut" k1="0" k2="1" k3="1" k4="0" operator="arithmetic" result="litPaint"/><feMerge><feMergeNode in="offsetBlur"/><feMergeNode in="litPaint"/></feMerge></filter><filter id="uuid-e6ee5d97-cc49-485f-8b0f-db992c276b48" x="-20%" y="-20%" width="140%" height="140%"><feGaussianBlur in="SourceAlpha" result="blur" stdDeviation="4"/><feOffset dx="4" dy="4" in="blur" result="offsetBlur"/><feSpecularLighting in="blur" result="specOut" specularConstant="1" specularExponent="10" surfaceScale="5"><fePointLight x="-5000" y="-10000" z="-20000"/></feSpecularLighting><feComposite in="specOut" in2="SourceAlpha" operator="in" result="specOut"/><feComposite in="SourceGraphic" in2="specOut" k1="0" k2="1" k3="1" k4="0" operator="arithmetic" result="litPaint"/><feMerge><feMergeNode in="offsetBlur"/><feMergeNode in="litPaint"/></feMerge></filter></defs><rect class="uuid-80edab93-f28c-494d-b0c8-dad256e3b56d" width="1366" height="768"/><g class="uuid-0cdd5b94-2a58-4d3a-ac75-61c7c45ebb72"><g><path d="M748.98,303.74c-12.45,12.27-24.9,24.53-37.35,36.8-.44,.43-.88,.87-1.32,1.3-5.57,5.42-10.25,5.62-16.11,.48-5.84-5.13-11.56-10.39-17.34-15.59-19.58-17.62-39.18-35.23-58.75-52.86-1.79-1.61-3.51-3.3-5.14-5.07-2.33-2.52-3.24-5.59-2.79-8.97,1.63-12.27,3.29-24.55,5.01-36.81,.72-5.14,3.11-9.36,6.88-13.05,22.52-22.04,44.93-44.2,67.38-66.31,.73-.72,1.46-1.47,2.26-2.11,4.32-3.44,8.68-3.56,12.98-.06,4.16,3.39,8.13,7,12.16,10.54,19.2,16.81,38.33,33.7,57.61,50.41,5.6,4.85,9.18,10.39,10.19,17.94,1.58,11.86,3.76,23.64,5.89,35.41,.77,4.26-.22,7.4-3.43,10.48-12.84,12.35-25.45,24.95-38.14,37.46Zm-88.28-7.84s0,0-.01,.01c12.34,11.16,24.67,22.35,37.04,33.48,3.8,3.42,6.35,3.42,9.86-.02,22.42-22.04,44.82-44.11,67.2-66.2,3.14-3.09,2.97-5.42-.28-8.34-18.29-16.49-36.56-32.99-54.85-49.48-6.84-6.17-13.68-12.35-20.54-18.51-2.63-2.36-4.63-2.38-7.3-.13-.53,.44-1.02,.93-1.51,1.41-21.86,21.54-43.72,43.07-65.57,64.61-4.06,4-4.02,6.83,.13,10.81,.3,.29,.61,.55,.92,.83,11.64,10.51,23.27,21.02,34.91,31.54Zm117.67-52.59c.24-.09,.48-.18,.72-.27-.01-.9,.08-1.82-.06-2.71-.88-5.92-1.88-11.82-2.69-17.75-.67-4.95-2.93-8.92-6.66-12.19-19.14-16.77-38.26-33.57-57.39-50.35-2.84-2.49-5.67-5.01-8.61-7.38-.64-.52-1.84-.76-2.62-.54-.41,.11-.71,1.52-.63,2.31,.51,5.34,1.13,10.67,1.72,16,.33,2.99,1.55,5.54,3.74,7.61,1.2,1.13,2.4,2.27,3.62,3.38,20.08,18.09,40.17,36.18,60.26,54.27,2.85,2.57,5.73,5.09,8.6,7.64Z"/><path d="M706.08,282.37c.49-.43,1-.85,1.47-1.31,9.02-8.88,18.01-17.8,27.09-26.62,1.34-1.3,1.48-2.23,.2-3.56-.95-.99-1.65-2.2-2.57-3.22-1.18-1.31-.78-2.14,.59-2.91,1.98-1.11,4.48-.97,6.35,.68,5.1,4.52,10.11,9.12,15.18,13.66,.85,.76,.9,1.38,.12,2.24-1.66,1.84-3.37,2.13-5.47,.81q-3.95-2.48-7.26,.78c-14.75,14.54-29.52,29.06-44.23,43.63-1.26,1.25-2.38,1.7-3.96,.84-2.17-1.17-4.5-2.11-6.52-3.5-3.37-2.31-5.11-5.58-4.37-9.77,.74-4.19,1.55-8.38,2.48-12.53,3.31-14.7,6.69-29.38,10.03-44.06,.11-.5,.15-1.02,.3-2.04-.86,.75-1.37,1.16-1.83,1.61-9.9,9.75-19.78,19.53-29.73,29.23-1.22,1.19-1.44,2.08-.43,3.47,1.21,1.67,2.18,3.5,3.33,5.22,.87,1.31,.43,1.99-.91,2.44-2.68,.91-4.91-.08-6.84-1.79-5.34-4.75-10.59-9.62-15.93-14.38-1.4-1.24-1-2.03,.32-2.83,1.45-.87,2.84-.7,4.29,.11,4.48,2.49,4.49,2.46,8.19-1.18,12.84-12.65,25.66-25.33,38.55-37.92,1.44-1.41,1.74-2.42,.2-3.85-.9-.83-1.57-1.91-2.44-2.8-1.16-1.19-.71-2.01,.42-2.84,2.39-1.76,5.11-1.71,7.57,.42,4.83,4.19,9.44,8.65,14.42,12.65,2.55,2.05,2.86,4.02,2.18,7.03-3.74,16.64-7.27,33.34-10.86,50.01-.14,.66-.24,1.33-.36,1.99,.14,.09,.27,.18,.41,.27Z"/></g><g><path d="M795.58,397.42c.92-.81,1.88-1.57,2.76-2.43,15.73-15.29,31.48-30.56,47.12-45.94,1.9-1.87,3.12-2.19,4.98-.1,2.69,3.02,5.51,5.95,8.47,8.72,1.95,1.82,1.37,2.96-.27,4.55-10.97,10.6-21.86,21.28-32.78,31.94-13.12,12.79-26.22,25.6-39.38,38.36-3.16,3.06-2.53,3.31-5.78,0-2.27-2.32-4.42-4.79-6.83-6.95-1.64-1.47-1.92-2.98-1.55-5.03,2.65-14.74,5.23-29.48,7.8-44.23,2.29-13.15,4.54-26.31,6.78-39.47,.17-1.01,.15-2.06,.28-3.88-1.43,1.05-2.32,1.57-3.04,2.27-12.96,12.44-25.9,24.89-38.83,37.36-3.38,3.26-6.78,6.5-10.06,9.86-1.34,1.37-2.24,1.3-3.51-.07-2.88-3.11-5.81-6.2-8.9-9.09-1.87-1.75-1.64-2.9,.1-4.59,14.59-14.13,29.11-28.34,43.65-42.52,9.31-9.08,18.61-18.16,27.92-27.23,3.59-3.49,3.65-3.54,7.35-.11,2.38,2.21,4.68,4.52,6.78,6.99,.7,.82,1.09,2.33,.91,3.4-2.12,12.72-4.39,25.42-6.58,38.13-2.71,15.73-5.39,31.47-8.07,47.21-.14,.83-.1,1.69-.14,2.53,.27,.12,.55,.24,.82,.35Z"/><path d="M880.72,414.9c5.13,5.13,8.65,11.18,10.53,18.06,2.86,10.45,.66,20.22-5.01,29.23-6.87,10.91-16.17,19.15-28.49,23.23-13.31,4.42-25.22,1.01-35.58-8.13-5.95-5.25-10.81-11.35-13.33-19.01-3.88-11.81-1.32-22.62,5.53-32.57,5.71-8.3,12.91-15.08,22.01-19.54,12.61-6.18,24.92-5.5,36.6,2.48,2.73,1.86,5.16,4.16,7.73,6.25Zm-18.34,46.26c6.2-6.09,9.91-10.74,11.7-16.75,2.34-7.86,.25-14.4-5.68-19.8-5.64-5.14-12.24-6.53-19.32-3.75-8.8,3.47-15.46,9.56-20.51,17.59-4.96,7.89-5.67,15.5-.07,23.39,4.16,5.86,12.02,9.06,19.03,7.48,6.68-1.5,11.96-5.26,14.85-8.17Z"/><path d="M1001.91,539.2c6.57,6.69,10.72,14.49,11.75,23.82,.96,8.72-1.59,16.58-6.23,23.85-6.07,9.49-14.07,16.91-24.36,21.52-12.2,5.46-24.03,4.48-35.11-3.18-6.15-4.25-11.27-9.55-14.87-16.12-6.81-12.44-6.03-24.75,1.24-36.7,6.61-10.86,15.69-19.08,27.67-23.53,11.39-4.24,22.36-2.77,32.38,4.28,2.63,1.85,5.03,4.04,7.54,6.07Zm-16.54,44.83c.21,.13,.43,.26,.64,.39,2.89-4.4,6.22-8.58,8.58-13.25,3.43-6.8,2.41-13.58-2.36-19.5-5.13-6.37-11.98-9.45-19.91-6.85-12.32,4.02-20.95,12.54-25.48,24.69-4.41,11.82,6.83,25.88,19.39,24.72,7.82-.72,13.7-5.04,19.14-10.2Z"/><path d="M1040.27,599.4c1.19-.24,2.38-.47,3.58-.71,8.11-1.64,15.22,.57,21.3,5.94,3.78,3.33,7.19,7.01,9.35,11.76,3.64,8,3.03,15.73-1.57,22.96-2.59,4.07-5.77,7.86-9.19,11.28-10.85,10.86-21.93,21.49-32.93,32.2-3.12,3.04-3.14,3.01-6.14-.1-2.57-2.66-5.06-5.42-7.79-7.91-1.84-1.68-1.52-2.7,.14-4.29,10.8-10.4,21.6-20.8,32.16-31.43,2.67-2.69,4.77-6.06,6.62-9.41,2.31-4.18,1.39-8.54-1.04-12.35-4.63-7.27-12.19-12.06-21.12-8.94-3.3,1.15-6.52,3.24-9.07,5.65-10.83,10.23-21.43,20.7-32.02,31.18-1.71,1.69-2.77,2-4.49,.04-2.67-3.05-5.53-5.97-8.5-8.73-1.89-1.75-1.64-2.94,.08-4.61,12.97-12.57,25.88-25.2,38.81-37.81,5.11-4.98,10.26-9.91,15.28-14.98,1.61-1.63,2.71-1.89,4.36-.03,2.7,3.03,5.58,5.91,8.5,8.74,1.39,1.34,1.24,2.24-.08,3.52-2.35,2.29-4.53,4.76-6.78,7.16,.19,.29,.37,.59,.56,.88Z"/><path d="M890,484.89c5.3-5.17,10.53-10.4,15.93-15.46,1.7-1.6,1.62-2.61-.02-4.09-1.93-1.76-3.62-3.78-5.5-5.6-1.07-1.04-1.13-1.87-.01-2.92,2.56-2.41,5.08-4.87,7.56-7.37,1.07-1.07,2.01-1.02,3.01-.03,1.92,1.9,3.92,3.74,5.73,5.75,1.35,1.5,2.36,1.47,3.76,.05,3.61-3.66,7.37-7.18,11-10.82,1.29-1.29,2.24-1.43,3.56-.02,3.08,3.3,6.22,6.54,9.45,9.69,1.39,1.35,1.23,2.24-.11,3.51-3.68,3.46-7.19,7.1-10.9,10.54-1.61,1.5-1.75,2.57-.1,4.15,2.93,2.81,5.66,5.82,8.49,8.73,1.36,1.4,1.56,2.58-.11,4.03-2.32,2-4.5,4.18-6.59,6.42-1.41,1.51-2.42,1.68-3.91,.02-2.77-3.09-5.85-5.89-8.62-8.98-1.5-1.67-2.46-1.42-3.92,.01-9.37,9.26-18.84,18.43-28.23,27.67-4.11,4.05-4.25,9.52-.44,13.82,1.37,1.55,2.88,2.99,4.39,4.41,1.01,.95,1.04,1.73,.01,2.7-2.56,2.42-5.01,4.95-7.62,7.31-.5,.45-1.85,.68-2.32,.34-6.84-4.94-12.36-11.04-15.62-18.92-3.15-7.61,.05-13.81,5.1-19.17,5.13-5.45,10.67-10.51,16.04-15.74-.01-.01-.02-.03-.04-.04Z"/><path d="M935.21,532.49c-8.98,8.76-18.01,17.46-26.9,26.32-1.89,1.89-3,1.76-4.69-.15-2.69-3.04-5.56-5.93-8.49-8.73-1.61-1.54-1.62-2.59,0-4.16,13.1-12.68,26.13-25.42,39.19-38.15,5.1-4.98,10.25-9.92,15.28-14.96,1.54-1.55,2.64-1.68,4.19,.01,2.92,3.2,5.95,6.3,9.07,9.3,1.48,1.43,1.33,2.32-.09,3.7-9.23,8.89-18.38,17.87-27.55,26.81Z"/><path d="M968.56,487.34c-4.37-4.49-4.32-11.1,.11-15.46,4.27-4.2,11.35-4.14,15.53,.13,4.48,4.58,4.27,10.94-.51,15.57-4.47,4.33-10.78,4.23-15.13-.24Z"/></g></g><g class="uuid-b9a62460-4f1f-4a81-96bb-995935fec46b"><path d="M612.23,554.51c-1.72,2.3-3.67,4.22-6.84,4.08-.59-.65-1.29-1.03-2.21-.87-.14-.81-.63-1.31-1.39-1.56,0-1.18-.63-1.96-1.62-2.49-1.52-2.57-3.78-4.44-5.9-6.47-5.17-4.95-4.13-9.29,2.34-11.8,8.28-3.21,14-8.87,15.31-18.07,1.9-13.35,1.19-26.21-7.17-37.64-8.65-11.83-20.66-16.63-34.89-16.51-28,.24-47.9,15.42-64.84,35.72-14.8,17.74-19.51,38.49-17.68,61.12,.46,5.69,2.39,10.82,4.88,15.83,.94,3.4,2.47,6.37,5.86,7.97,.95,1.84,2.36,3.22,4.22,4.14,1.25,2.57,3.5,2.79,5.95,2.55,0,0,.05,.04,.06,.04,1.26,.82,2.57,.72,3.89,.2,0,0-.03,0-.03,0,5.15-1.34,6.74-4.57,4.47-10.07-1.31-3.18-1.16-5.87,.98-8.49,3.49-1.8,6.77-.79,10.01,.77,.21,1.78,1.51,2.41,2.99,2.84,1.17,6.4,2.79,12.67,.75,19.32-1.61,5.26-5.01,8.81-9.5,11.09-11.34,5.76-24.61,2.89-33.02-6.9-12.66-14.75-16.97-32.39-17.07-51.29-.16-30.68,13.08-55.62,33.64-77.33,1.34-1.42,2.66-2.86,3.99-4.28,1.55-.36,2.51-1.4,3.12-2.82,1.5-.97,2.96-1.98,3.47-3.84,2.98,.29,4.88-1.64,6.9-3.34,.63-.47,1.27-.95,1.9-1.42,3.89-1.16,7.38-3.17,10.92-5.09,.74-.33,1.48-.66,2.23-.99,4.94-1.52,9.88-3.04,14.81-4.57,.28-.16,.55-.32,.83-.48,2.54,.25,5.01-.13,7.45-.82,.18,.05,.35,.03,.51-.08,2.95,.85,5.85,.66,8.67-.54,.43,.71,1.02,.89,1.78,.56,.99,.52,1.98,.62,2.97,.03,.2,.17,.4,.34,.6,.51,1.29,.88,2.67,1.09,4.15,.59,.21,.18,.42,.36,.62,.54,1.39,1.13,2.99,1.42,4.72,1.16,.5,.38,.99,.76,1.49,1.14,1.34,.92,2.79,1.46,4.45,1.24,.2,.17,.4,.34,.6,.5,3.18,3.68,8.18,4.58,11.73,7.7,1.08,.94,2.15,1.88,3.23,2.82,.8,.8,1.6,1.59,2.4,2.39,12.29,14.75,17.11,32.1,17.75,50.91,.05,1.38,.18,2.76,.28,4.14-.64,3.26-1.93,6.76,2.69,8.28,9.84,3.24,18.75,7.72,23.85,17.44,.17,.21,.35,.41,.52,.62,1.86,6.92,4.18,13.69,6.71,20.4,0,0,0-.04,0-.04-.47,1.56-.28,3.05,.49,4.48-.18,1.2-.37,2.4-.55,3.6-.39,2.89,.51,4.07,3.43,2.58,1.42-.68,2.37-1.82,3.17-3.13,3.47-2.79,6.67-5.86,9.62-9.2,3.01-1.75,5.49-4.03,7.15-7.13,.69-.19,.94-.62,.69-1.32,.01-.48,.02-.96,.03-1.43,.29-.47,.18-.87-.24-1.22-.09-1.12-.17-2.24-.26-3.36,1.43-1.7,3.5-2.18,5.47-2.86,3.74-.05,7.48-.1,11.21-.16,2.67,.75,1.59,2.69,1.38,4.35-2.07,1.1-3.61,2.71-4.65,4.8-.78,.55-1.68,1-2.34,1.68-11.21,11.48-22.41,22.98-33.55,34.52-1.43,1.48-3.05,2.9-3.64,5.03-2.31,1.9-1.82,5.16-3.54,7.34-1.53-1.24-3.15-2.28-5.17-2.52-1.46-2.32-3.32-4.24-5.77-5.53,.15-.89-.15-1.6-.86-2.16-.92-1.57-1.37-3.49-3.25-4.35-.26-.55-.68-.85-1.3-.8-2.6-1.87-5.2-3.74-7.8-5.6,.13-.89-.2-1.58-.94-2.08-1.29-2.88-.36-5.56,.75-8.22,.54-.65,.57-1.31,0-1.98-3.97-6.24-9.14-11.24-15.5-15.01-1.18-.69-1.95-.17-2.56,.85Zm15.44,.23c2.81,2.48,5.48,4.95,8.27,7.28,2.25,1.88,4.64,1.48,5.17-1.32,1.78-9.36-9.43-22.55-18.69-20.71-3.51,.7-4.73,3.24-2.49,6.06,2.42,3.06,5.19,5.85,7.74,8.68Z"/><path d="M723.7,585.23c2.02-2.79,5.05-1.78,7.72-2.01,1.8-.16,3.61-.15,5.42-.21,.93,.62,1.88,.5,2.84,.09,.23,.06,.46,.08,.7,.05,.94,1,1.88,2,2.82,3-5.33,4.91-11.09,9.43-14.76,15.9-2.38,4.19-1.96,5.31,2.7,6.94,11.21,3.92,16.97,14.82,12.86,24.6-1.6,3.8-4.61,6.67-7.36,9.6-6.55,6.98-13.79,12.69-24.25,11.93-9.4-.69-15.12-6.48-19.58-13.94-1.04-1.74-1.95-3.29-3.85-4.18-4.63-2.19-5.02-7.07-.75-9.92,13.22-8.86,23.85-20.49,34.5-32.11,1.07-1.17,2.46-2.48,1.32-4.41,.77-1.83-.07-3.55-.34-5.32Zm-17.4,38.33c-2.79,2.7-5.2,5.05-6.79,8.06-3.55,6.72-.16,13.91,7,14.97,9.8,1.44,22.34-4.92,26.6-13.49,2.95-5.94,2.09-12.89-1.99-16.24-4.39-3.6-12.12-3.55-17.21,.3-2.78,2.1-5.35,4.49-7.61,6.41Z"/><path d="M775.53,723.37c-5.39-3.79-9.28-9.22-14.51-13.19,.11-1.09-.28-1.92-1.47-1.84-1.68,.12-2.06,1.38-2.08,2.82-.69,.53-1.38,1.07-2.06,1.6-.94-.4-1.83-.31-2.67,.27,0,0,0,0,0,0-1.51-1.11-3.02-2.22-4.53-3.33,.3-4.79,3.56-7.16,7.53-8.53,3.28-1.13,4.93-3.15,5.94-6.37,3.25-10.27,9.98-17.71,19.71-22.14,11-5,24.44,.66,28.88,11.86,1.02,2.59,1.66,5.32,2.61,7.94,1.42,3.94,.77,4.84-3.54,5.18-9.87,.78-19.69,2.03-29.42,3.92-2.37,.46-5.08,.64-6.6,3.1-.7,.13-.8,.52-.47,1.1,.16,.8,.32,1.59,.49,2.38,.56,6.49,7.19,11.42,14,10.39,.28,.02,.56,.04,.83,.05,5.26,2.19,1.43,4.34-.04,6.5-.66,.13-1.33,.26-1.99,.39-1.02-.63-2.06-1.2-3.28-.47-1.9-.34-3.8-.69-5.7-1.03-.39-.62-.95-.8-1.65-.61Zm.64-38.82c-2.74,1.94-3.42,4.89-3.85,7.94-.43,3.1,1.09,3.71,3.72,2.85,7.3,.44,14.34-.82,21.24-3.15,5.29-1.79,6.3-4.8,2.85-9.31-5.01-6.55-18.55-7.59-23.96,1.68Z"/><path d="M773.87,646.98c.87,.62,1.74,1.24,2.6,1.86,.79,2.05,1.98,3.81,3.8,5.11,1.02,2.79,1.78,5.5,.58,8.53-1.46,3.69-4.15,5.4-7.83,4.87-3.63-.52-5.88-3-6.56-6.7-.18-.97-.08-1.74,.71-2.63,2.46-2.8,1.6-4.99-2.1-5.52-3.52-.51-6.83,.47-9.37,2.82-5.54,5.12-11.35,9.98-16.12,15.88-1.61,2-2.85,4.16-3.35,6.68-.49,2.46-1.88,2.56-3.62,1.37-1.14-.78-2.17-1.76-3.17-2.73-5.19-5.03-4.79-4.77,1.17-8.7,6.99-4.62,12.29-11.3,18.11-17.31,2.02-2.08,3.07-4.24,2.61-7.1,.34-.98,.07-1.83-.55-2.6,0,0-.03-.12-.03-.12,.39-.94,.34-1.83-.33-2.64,.05-.65,.1-1.29,.15-1.93,.79-.71,1.59-1.43,2.39-2.14,1.74-.11,3.48-.21,5.21-.32,3.24,1.29,4.44,3.9,4.73,7.17,.17,1.95,.3,4.03,3,4.21,.72,.11,1.45,.21,2.16,.32,.67,.15,1.34,.3,2.02,.45,.75,.28,1.49,.57,2.24,.85,.42,.54,.95,.62,1.56,.35Z"/><path d="M696.23,578.09c.44,.04,.88,.08,1.32,.12,.76,.34,1.48,.78,2.27,.99,7.61,1.99,7.89,3.17,2.39,8.98-3.06,3.23-6.69,5.94-8.95,9.89-5.5,4.76-10.86,9.67-15.16,15.59-1.73,.7-1.68,2.37-2.13,3.81-.83,2.66-2.47,3.32-4.7,1.51-1.4-1.14-2.71-2.43-3.92-3.77-1.83-2.01-1.62-3.79,.96-4.97,1.66-.76,3.48-1.39,4.53-2.92,3.69-5.39,8.92-9.19,13.63-13.55,3.62-3.35,6.92-6.99,6.89-12.43-.01-1.92,1.68-2.39,2.9-3.25Z"/><path d="M707.99,567.43c.84-.11,1.31-.58,1.43-1.42,4.29-1.16,7.43,.61,9.95,3.93,.18,.26,.37,.51,.55,.77-3.23,7.88-8.03,8.56-13.37,1.92,0,0-.03,.06-.02,.06,.49-1.75,.97-3.5,1.46-5.25Z"/></g><g class="uuid-4c54afc4-2b00-4289-b5f1-5a1aa364bf52"><path d="M235.37,612.88c7.05,6.9,13.35,12.95,19.51,19.13,7.9,7.94,10.26,17.03,6.52,24.39-3.94,7.76-10.98,10.04-24.29,7.48,.7,9.06-2.13,16.6-10.76,20.45-10.04,4.48-18.9,.8-26.97-5.22-3.48-2.59-6.66-5.7-9.54-8.96-10.02-11.35-8.29-22,4.5-30.29,13.53-8.77,26.96-17.72,41.04-26.98Zm-41.56,43.82c6.58,5.22,11.65,10.25,17.67,13.56,2.53,1.39,8.51,.32,10.27-1.82,1.75-2.13,1.41-7.68-.18-10.53-5.95-10.67-11.35-11.64-21.76-5.13-1.27,.8-2.51,1.64-6,3.93Zm28.04-18.21c5.15,5.04,8.84,9.93,13.71,12.92,2.63,1.61,7.26-.04,10.98-.23-.49-3.43,.02-7.52-1.7-10.15-2.62-4.01-6.77-7.01-10.46-10.62-4.31,2.78-7.9,5.09-12.54,8.08Z"/><path d="M305.06,563.79c8.3,8.99,16.24,16.9,23.35,25.51,4.93,5.97,5.95,13.41,1.19,20-4.33,5.99-10.83,8.1-18.28,6.55-1.47-.31-3.01-.31-4.5-.45-2.68,21.4-17.8,28.18-35.87,16.33-3.1-2.03-6.01-4.47-8.62-7.1-14-14.1-12.98-24.36,3.53-35.31,12.65-8.39,25.43-16.57,39.21-25.53Zm-41.68,44.05c6.02,4.99,10.96,10.1,16.87,13.51,2.52,1.45,8.02,.49,10.4-1.49,1.74-1.45,1.82-6.96,.51-9.62-5.87-11.94-11.57-13.2-22.66-5.96-1.24,.81-2.43,1.69-5.11,3.56Zm27.49-17.12c5.53,4.63,10.1,9.28,15.51,12.54,2.07,1.25,6.86,.23,8.9-1.52,1.33-1.14,.85-5.95-.4-8.27-6.49-12.04-12.33-12.87-24.01-2.75Z"/><path d="M288.18,765.1c9.42-6.08,18.2-11.91,27.13-17.47,15.05-9.37,24.56-8.37,37.59,3.82,4.05,3.78,7.93,7.74,11.9,11.63-6.87,9.56-13.14,18.27-21.08,29.31,11.45-3.01,20.53-4.73,29.1-7.83,8.6-3.11,15.06-2.27,20.09,7.5-12.46,3.48-24.81,7.05-37.22,10.38-12.94,3.47-25.96,6.64-38.91,10.08-10.52,2.79-10.49,2.88-19.14-8.82,32.27,.92,38.68-27.18,53-44.11-4.59-1.67-9.23-4.04-14.15-4.9-3.39-.59-7.61,.04-10.65,1.65-7.12,3.77-14.37,7.74-20.44,12.94-7.74,6.63-12.44,4.43-17.23-4.15Z"/><path d="M276.93,723.54c-9.31-9.12-18.8-18.41-28.39-27.8-6.2,8.79-3.15,16.45,6.24,19.94,5.74,2.13,10.94,5.7,17.38,9.16-12.86,8.49-28.33,3.32-37.37-10.45-7.3-11.13-2.29-28.35,10.64-36.51,13.9-8.78,33.24-4.06,42.55,10.4,7.79,12.1,3.85,25.51-11.05,35.27Zm-1.6-17.44c1.29-.54,2.59-1.07,3.88-1.61-1.87-4.9-2.55-10.98-5.93-14.37-3.61-3.63-9.71-6.56-15.34-1.04,6.04,5.92,11.71,11.47,17.38,17.02Z"/><path d="M343.38,705.02c-1.9-3.12-4.06-6.9-6.47-10.52-.84-1.27-2.23-2.22-3.49-3.15-4.43-3.27-9.6-5.84-13.22-9.83-5.02-5.52-5.6-12.36-1.35-18.94,4.05-6.26,10.23-8.69,16.95-6.11,7.14,2.74,13.69,7.03,20.5,10.66,3.41,1.82,6.8,3.67,11.3,6.1,1.59-9.5-3.66-11.98-9.41-14.64-5.56-2.57-10.75-5.95-17.36-9.67,16.93-8.2,40.74,4.35,41.09,20.18,.11,4.86-3.76,11.16-7.74,14.48-8.97,7.47-19.15,13.49-30.79,21.44Zm12.62-25.27c-6.1-3.99-10.95-7.75-16.34-10.41-2.13-1.05-5.47,.34-8.26,.63,.65,2.8,.4,6.5,2.12,8.22,5.95,5.95,12.97,7.83,22.48,1.57Z"/><path d="M395.16,753.09c.34-.52,.56-1.2,1.04-1.52,19.69-12.94,39.41-25.84,59.35-38.9,3.14,3.08,5.93,5.8,9.41,9.22-9.98,6.78-19.37,13.16-30.36,20.61,15.09,4.58,33.13-3.72,41.93,15.25-8.77-.57-17.34-.59-25.73-1.83-6.39-.95-9.04,1.2-10.6,7.14-2.28,8.69-5.32,17.19-8.22,26.33-8.19-4.49-12.58-9.59-7.79-19.15,2.31-4.62,3.25-9.93,5.85-18.26-7.9,2.27-13.88,2.85-18.63,5.58-9.41,5.42-9.79,5.73-16.26-4.47Z"/><path d="M418.63,728.21c-5.46-4.37-10.7-7.36-10.01-15.77,.65-7.81-6.92-13.34-15.12-12.9-9.09,.48-16.08,6.96-16.16,14.98-.08,7.59,4.71,10.88,14.13,12.72,4.86,.94,9.09,5.14,14.16,8.19-12.66,9.84-24.69,7.33-37.04-6.23-8.86-9.73-8.13-23.7,1.75-33.69,11.06-11.19,29.03-13.12,40.1-4.32,14.58,11.6,17.5,23.48,8.18,37.03Z"/><path d="M357.92,618.64c-13.62,8.95-27.23,17.95-40.91,26.86-8.48,5.52-8.9,6.94-3.69,15.51-3.8,3.54-7.15,7.74-12.8,2.12-6.11-6.08-7.68-13.6-1.93-18.89,7.46-6.85,16-12.57,24.31-18.43,6.07-4.28,12.57-7.96,18.81-12.01,9.26-6.01,9.78-5.9,16.2,4.84Z"/><path d="M331.13,731.19c-4.06,4.97-7.91,7.5-13.88,2.6-5.63-4.62-11.8-2.94-17.42,.6-6.31,3.97-12.77,7.8-18.61,12.39-6.77,5.33-11.56,4.28-16.24-4.57,12.9-8.88,24.59-20.25,40.92-23.43,10.92-2.13,19.15,3.27,25.23,12.42Z"/></g><g class="uuid-a722e527-2b44-452b-9eac-35021580deb5"><path d="M1037.81,196.83c-13.37,13.25-26.87,26.38-40.02,39.85-3.26,3.34-5.85,3.55-9.75,1.56-11.08-5.64-20.24-13.37-26.59-24.07-13.25-22.33-2.37-50.4,23.79-61.87,19.89-8.72,40.93-2.73,54.83,15.99,2.44,3.29,3.64,3.45,6.41,.58,7.4-7.68,15.34-14.85,22.58-22.67,4.55-4.91,6.25-.38,8.73,1.85,2.63,2.36,5.36,4.21,1.11,8.25-13.94,13.26-27.44,26.99-41.1,40.54Zm-26.16,6.45c6.39-6.34,12.64-12.83,19.24-18.93,2.83-2.61,2.52-4.7,.7-7.49-7.45-11.41-20.17-17.19-32.88-14.82-13.54,2.53-26.39,14.98-29.03,28.12-2.34,11.67,3.76,24.52,14.86,32.36,3.38,2.39,5.51,2.53,8.45-.6,6.01-6.4,12.42-12.44,18.66-18.63Z"/><path d="M852.74,103.61c-7.35-6.33-13.49-11.39-11.31-22.6,2.81-14.49,3.27-29.44,4.74-44.19-2.54-.88-3.16,1.2-4.17,2.19-7.95,7.73-16.01,15.37-23.58,23.47-3.63,3.88-5.71,1.94-7.84-.94-1.86-2.51-7.28-3.89-2.35-8.74,28.5-28.02,56.85-56.19,85.16-84.4,2.55-2.54,4.07-2.4,6.56,.06,6.58,6.49,6.7,6.37,.35,12.67-13.37,13.26-26.75,26.52-40.13,39.77l-5.5,5.45c11.07,.33,20.62,1.45,30.01,.67,11.12-.92,18.9,3.14,24.66,12.64-1.84,1.19-4.11,.39-6.17,.32-12.75-.46-25.51-.8-38.22-1.74-5.11-.38-6.19,1.57-6.56,6.09-1.43,17.93-3.19,35.83-4.85,53.74-.15,1.6-.46,3.18-.81,5.54Z"/><path d="M1086.52,282.02c-5.15-5.2-10.62-10.13-15.35-15.68-3.54-4.15-5.48-2.59-7.97,.72-11.2,14.91-7.22,33.55,9.25,42.77,2,1.12,4.06,2.25,6.23,2.89,3.5,1.02,5.85,1.58,3.93,6.57-1.86,4.83-4.06,5.24-8.2,3.65-15.31-5.89-27.15-15.43-30.26-32.25-3.29-17.84,5.44-31.59,17.82-43.2,7.4-6.94,16.16-11.72,26.54-13.07,23.84-3.09,42.58,19.67,34.88,42.43-2.95,8.73-8.67,15.6-14.57,22.4-2.12,2.45-3.63,1.75-5.56-.26-5.5-5.73-11.16-11.32-16.75-16.96Zm2.85-13.22c3.97,4.01,7.92,8.05,11.94,12.01,1.06,1.04,1.82,2.72,3.99,.92,6.61-5.49,9.11-19.08,4.5-26.58-7.44-12.11-23.16-10.57-32.74-1.93-2.06,1.86-.22,2.9,.85,3.99,3.79,3.9,7.64,7.74,11.46,11.6Z"/><path d="M912.34,103.61c9.07-8.99,18.11-18,27.23-26.94,1.62-1.59,3.31-4.72,5.93-1.36,2,2.56,7.61,4.26,3.44,8.87-4.58,5.06-1.54,5.7,2.95,6.39,6.91,1.07,13.25,3.71,18.99,7.73,12.8,8.97,15.33,23.35,6.44,36.23-5.4,7.83-12.75,13.82-19.33,20.53-7.33,7.47-15.12,14.51-22.17,22.22-4.04,4.41-6.32,4.42-10.79,.2-5.18-4.89-2.04-7,1.24-10.2,10.35-10.08,20.54-20.31,30.81-30.47,3.13-3.1,6.13-6.3,8.41-10.1,4.61-7.65,3.22-14.51-3.92-19.73-7.04-5.15-15.25-6.52-23.62-7.44-2.86-.31-4.02,1.92-5.58,3.46-12.38,12.19-24.89,24.26-36.93,36.77-3.92,4.07-5.83,1.92-8.29-.93-2.24-2.59-6.5-4.33-1.64-8.82,9.22-8.51,17.93-17.59,26.85-26.43Z"/><path d="M1052.93,208.95c12.78-12.67,25.76-25.14,38.23-38.12,4.08-4.25,6.15-3.38,9.82,.28,3.64,3.62,3.83,5.56,.01,9.28-23.81,23.23-47.35,46.75-70.98,70.17-7.04,6.98-7.1,7.03-1.66,15.58,1.91,3-1.1,3.98-2.04,5.79-.96,1.85-1.81,3.47-4.74,2.62-12.65-3.68-16.68-17.76-7.4-27.12,12.81-12.93,25.83-25.66,38.76-38.48Z"/><path d="M889.2,80.26c9.2-9.11,18.61-18.03,27.49-27.44,3.83-4.06,5.62-1.32,7.73,1.17,2.07,2.46,6.89,3.98,2.02,8.71-18.43,17.89-36.65,36-54.74,54.23-4.5,4.53-6.01-.06-8.26-2.09-2.27-2.05-5.68-3.81-1.45-7.76,9.3-8.7,18.17-17.85,27.22-26.82Z"/><path d="M950.67,42.04c-3.73,3.57-10.03,3.46-13.5-.25-3.58-3.83-3.31-9.81,.61-13.43,3.8-3.51,9.16-3.38,12.88,.31,3.81,3.78,3.82,9.72,.01,13.37Z"/></g><g><polyline class="uuid-24a18575-f089-4394-bd5f-cae6912d2194" points="966.29 -201.89 795.22 -30.83 .11 764.29"/><line class="uuid-24a18575-f089-4394-bd5f-cae6912d2194" x1="1367.01" y1="701.99" x2="714.7" y2="49.69"/><line class="uuid-24a18575-f089-4394-bd5f-cae6912d2194" x1="1361.55" y1="291.45" x2="917.25" y2="-152.86"/><line class="uuid-24a18575-f089-4394-bd5f-cae6912d2194" x1="1028.96" y1="769.04" x2="512.16" y2="252.23"/><line class="uuid-24a18575-f089-4394-bd5f-cae6912d2194" x1="626.42" y1="771.58" x2="309.61" y2="454.78"/><line class="uuid-24a18575-f089-4394-bd5f-cae6912d2194" x1="220.37" y1="770.63" x2="107.07" y2="657.33"/></g><g><rect class="uuid-be8ce5b5-8415-431b-984a-3378936a7bb7" x="255.25" y="253.89" width="855.5" height="260.22"/><rect class="uuid-a850bedf-4e5d-4487-87a3-9422aedcce54" x="269.21" y="267.85" width="824.23" height="233.42"/><rect class="uuid-475a151a-fe98-495b-8ddd-21311ac855af" x="285.96" y="279.14" width="794.07" height="210.08"/><g><path d="M421.51,388.25c1.03,0,2.25,2.86,3.69,8.58,1.43,5.72,2.15,11.15,2.15,16.28,0,1.17-.28,2-.83,2.47-.55,.48-1.83,.92-3.85,1.32-2.02,.4-6.16,.86-12.43,1.38-6.27,.51-11.46,.77-15.57,.77s-6.64-.2-7.59-.61c-.95-.4-2.66-1.71-5.11-3.91-2.46-2.2-4.49-4.42-6.1-6.65-1.61-2.24-2.9-5.04-3.85-8.42-.22-.88-.57-1.32-1.04-1.32s-1.25,.17-2.31,.5c-1.06,.33-1.81,.59-2.25,.77-.44,.18-.88,.28-1.32,.28s-.9-.17-1.38-.5c-.48-.33-1.91-2.05-4.29-5.17-2.38-3.12-4.2-6.11-5.44-8.96-1.25-2.86-2.09-5.96-2.53-9.29-.44-3.34-.66-5.72-.66-7.15s.48-2.42,1.43-2.97c.95-.55,3.65-1.36,8.08-2.42,4.44-1.06,7.87-1.82,10.29-2.25,.95-.15,1.52-.46,1.71-.94,.18-.48,.35-2.33,.5-5.55l.33-9.9c.07-1.61,.38-2.6,.93-2.97,.55-.37,1.8-.55,3.74-.55s3.34,.11,4.18,.33c.84,.22,1.26,.64,1.26,1.26s-.07,1.56-.22,2.81c-.15,1.25-.35,3.48-.6,6.71-.26,3.23-.39,4.91-.39,5.06,0,1.17,.66,1.65,1.98,1.43,3.59-.44,6.44-.66,8.53-.66s4.44,.18,7.04,.55c2.6,.37,4.49,.79,5.67,1.26,1.17,.48,2.05,.95,2.64,1.43,.59,.48,.88,.95,.88,1.43s-.2,1.06-.6,1.76c-.4,.7-.9,3.02-1.48,6.98-.59,3.96-1.43,7.87-2.53,11.72-1.1,3.85-2.38,7.15-3.85,9.9-1.47,2.75-2.48,4.35-3.02,4.79-.55,.44-1.06,.66-1.54,.66s-1.41-.24-2.81-.71c-1.39-.48-2.66-1.08-3.79-1.82-1.14-.73-2.04-1.1-2.7-1.1s-1.74,.15-3.24,.44c-1.5,.29-2.37,.55-2.58,.77-.22,.22-.33,.84-.33,1.87s.24,2.55,.71,4.56c.48,2.02,1.16,3.67,2.04,4.95,.88,1.28,2.03,2.24,3.46,2.86,1.43,.62,3.89,.93,7.37,.93s7.57-.29,12.27-.88c4.69-.59,7.86-1.41,9.51-2.47,1.65-1.06,2.82-2.77,3.52-5.12,.7-2.35,1.16-6.31,1.38-11.88,.07-1.76,.4-2.64,.99-2.64Zm-56.65-11.77c0-1.17,.55-1.87,1.65-2.09,2.71-.51,4.33-1.04,4.84-1.6,.51-.55,.77-2.03,.77-4.45,0-1.61-.31-2.42-.94-2.42s-2.24,.75-4.84,2.26c-2.6,1.5-4.16,2.6-4.68,3.3-.51,.7-.77,2.49-.77,5.39s.48,5.79,1.43,8.69c.95,2.9,2.46,4.34,4.51,4.34,.59,0,1.39-.17,2.42-.5,1.03-.33,1.61-.92,1.76-1.76,.15-.84,.22-1.63,.22-2.37s-.37-1.1-1.1-1.1c-1.54,0-2.81-1.03-3.79-3.08-.99-2.05-1.48-3.59-1.48-4.62Zm31.13-4.73c0-3.23-.51-5.55-1.54-6.98-1.03-1.43-3.28-2.15-6.77-2.15s-5.41,.44-5.77,1.32c-.37,.88-.55,2.31-.55,4.29,0,.88,.13,1.47,.38,1.76,.26,.29,.75,.44,1.48,.44l2.75-.11c1.1,0,1.89,.26,2.37,.77,.48,.51,.71,1.63,.71,3.35s-.35,2.86-1.04,3.41c-.7,.55-2.69,1.45-6,2.7-.66,.22-1.08,.6-1.26,1.15-.18,.55-.28,1.54-.28,2.97s.29,2.14,.88,2.14,1.36-.09,2.31-.28c.95-.18,1.78-.27,2.48-.27s1.19,.26,1.49,.77c.29,.51,.48,1.41,.55,2.7,.07,1.28,.18,2.07,.33,2.37,.15,.29,.64,.44,1.48,.44s1.56-.48,2.15-1.43c.59-.95,1.38-3.54,2.37-7.75,.99-4.22,1.48-8.08,1.48-11.61Z"/><path d="M530.41,377.25c0,1.25-.33,1.87-.99,1.87s-1.43-.33-2.31-.99c-2.86-2.05-7.26-3.08-13.2-3.08-2.13,0-4.56,.17-7.31,.49-2.75,.33-4.38,.62-4.9,.88-.51,.26-.77,1.04-.77,2.36l.22,8.69c0,8.29-.4,15.29-1.21,21.01-.51,4.4-.84,8.47-.99,12.21-.07,2.2-.68,3.3-1.81,3.3s-4.07-.79-8.8-2.36c-4.73-1.58-8.16-2.92-10.28-4.02-2.13-1.1-3.63-2.07-4.51-2.92-.88-.84-1.32-1.41-1.32-1.71,0-.59,.37-.88,1.1-.88s1.43,.11,2.09,.33c4.18,1.03,7.44,1.54,9.79,1.54s3.87-.18,4.56-.55c.7-.37,1.17-1.16,1.43-2.37,.26-1.21,.62-4.36,1.1-9.46,.48-5.1,.72-8.75,.72-10.95s-.13-4.49-.39-6.88c-.26-2.38-.55-3.76-.88-4.12-.33-.37-.75-.55-1.27-.55s-1.14,.11-1.87,.33c-4.47,1.39-9.22,2.4-14.25,3.03-5.02,.62-9.17,1.54-12.43,2.75-3.26,1.21-5.59,2.51-6.98,3.91-.59,.59-1.06,.88-1.43,.88s-.7-.7-.99-2.09c-.29-1.39-.7-2.58-1.21-3.57-.51-.99-.77-1.63-.77-1.93,0-1.03,1.34-1.78,4.01-2.25,2.68-.48,6.25-1.32,10.73-2.53,4.47-1.21,7.81-2.2,10.01-2.97,2.2-.77,6.42-2.11,12.65-4.01,1.47-.37,2.2-1.14,2.2-2.31,0-.59-.24-1.45-.72-2.58-.48-1.14-1.06-2.11-1.76-2.92-.7-.81-1.04-1.43-1.04-1.87,0-.81,1.14-1.21,3.41-1.21s4.11-1.54,5.5-4.62c1.39-3.08,2.09-5.32,2.09-6.71s-.81-2.09-2.42-2.09-5.74,1.89-12.38,5.67c-6.64,3.78-10.3,6.01-11,6.71-.7,.7-1.25,1.04-1.65,1.04s-.79-.29-1.15-.88c-.95-1.83-2.02-3.37-3.19-4.62-.51-.66-.77-1.34-.77-2.04s.7-1.19,2.09-1.49c1.39-.29,3.17-1.12,5.33-2.47,2.16-1.36,4.53-2.57,7.1-3.63,2.57-1.06,5.19-1.96,7.86-2.69,2.68-.73,4.69-1.12,6.05-1.16,1.36-.04,2.49-.05,3.41-.05s1.72-.15,2.42-.44c.7-.29,1.38-.44,2.04-.44,1.69,0,4,.84,6.93,2.53,2.93,1.69,4.4,3.04,4.4,4.07s-.51,1.8-1.54,2.31c-2.27,1.1-4.23,2.69-5.88,4.78-1.65,2.09-3.69,3.8-6.11,5.12-.66,.29-.99,1.21-.99,2.75,0,4.4,.99,6.49,2.97,6.27,3.89-.51,6.82-.77,8.8-.77s3.89,.07,5.72,.22c1.83,.15,3.61,.22,5.34,.22s2.82-.07,3.3-.22c.48-.15,.95-.22,1.43-.22s.86,.48,1.15,1.43c.29,.95,.95,2.24,1.98,3.85,1.03,1.61,1.54,3.3,1.54,5.06Z"/><path d="M575.4,372.85c0,3.37-.5,7.85-1.49,13.42-.99,5.57-1.48,10.62-1.48,15.12s-.26,7.21-.77,8.08c-.51,.88-1.98,1.32-4.4,1.32-.66,0-1.12-.13-1.38-.39-.26-.26-.39-.71-.39-1.38l.55-7.59c.15-2.86,.22-6.47,.22-10.83s-.09-8.58-.27-12.65c-.18-4.07-.33-6.4-.44-6.99-.11-.59-.17-1.17-.17-1.76,0-1.69,.6-2.53,1.81-2.53s2.66,.48,4.35,1.43c1.69,.95,2.75,1.69,3.19,2.2,.44,.51,.66,1.36,.66,2.53Zm10.12-16.72c0,2.71-1.21,4.07-3.63,4.07-1.32,0-2.86-.5-4.62-1.48-1.76-.99-2.84-1.91-3.24-2.75-.4-.84-.61-2.51-.61-5.01s.37-4.36,1.1-5.61c.73-1.25,1.52-1.87,2.37-1.87s1.61,.7,2.31,2.09c.7,1.39,1.67,2.79,2.92,4.18,2.27,2.35,3.41,4.47,3.41,6.38Zm30.25,28.49c.66,0,1.39,.81,2.2,2.42,.81,1.61,1.45,4.27,1.92,7.98,.48,3.7,.72,6.4,.72,8.08,0,1.39-.66,2.31-1.98,2.75-1.32,.44-4.55,.66-9.68,.66s-8.64-1.36-10.5-4.07c-1.87-2.71-2.81-5.76-2.81-9.13,0-.73,.04-1.32,.11-1.76,.07-.44,.11-1.04,.11-1.82s-.24-1.16-.72-1.16-1.34,.94-2.58,2.81c-1.25,1.87-2.25,3.19-3.02,3.96-.77,.77-1.41,1.83-1.92,3.19-.51,1.36-1.56,2.42-3.14,3.19-1.58,.77-3.54,1.16-5.88,1.16s-3.52-.33-3.52-.99c0-.95,1.65-2.24,4.95-3.85,3.3-1.61,5.56-3.43,6.77-5.44,1.21-2.02,1.81-3.37,1.81-4.07s-.44-1.41-1.32-2.14c-1.83-1.54-3.1-3.32-3.79-5.34-.7-2.02-1.05-3.5-1.05-4.45,0-1.39,.79-2.18,2.37-2.37,1.58-.18,2.84-.48,3.79-.88,.95-.4,2.07-.77,3.35-1.1,1.28-.33,2.27-.84,2.97-1.54,.7-.7,2.2-2.02,4.51-3.96,2.31-1.94,4.29-4.07,5.94-6.38,1.65-2.31,2.93-3.46,3.85-3.46s1.8,.35,2.64,1.04c.84,.7,1.27,1.34,1.27,1.92s-.55,1.43-1.65,2.53c-4.62,4.84-6.93,7.41-6.93,7.7s.26,.48,.77,.55c1.76,.15,3.67,.71,5.72,1.71,2.05,.99,3.08,2.05,3.08,3.19s-.95,2.84-2.86,5.12c-.73,.88-1.32,2-1.76,3.36-.44,1.36-.9,2.24-1.38,2.64-.48,.4-1.26,.61-2.36,.61s-1.83,.11-2.2,.33c-.37,.22-.64,.46-.82,.71-.18,.26-.5,1.5-.94,3.74-.44,2.24-.66,3.65-.66,4.24,0,2.57,1.69,3.85,5.06,3.85s5.65-.99,6.82-2.97c1.17-1.98,1.76-5.1,1.76-9.35,0-2.13,.33-3.19,.99-3.19Zm-19.14-22.33c0,.95-1.1,2.48-3.3,4.57-2.2,2.09-3.74,3.13-4.62,3.13s-1.72-.73-2.53-2.2c-.81-1.47-1.21-2.57-1.21-3.3s.68-1.1,2.04-1.1,3.79-.55,7.31-1.65c.51-.15,1.03-.22,1.54-.22s.77,.26,.77,.77Zm38.61,38.39c0,3.81,.18,7.41,.55,10.78,.37,3.37,.55,6.42,.55,9.13s-.11,4.22-.33,4.51c-.22,.29-.59,.44-1.1,.44-3.23,0-8.47-1.92-15.73-5.77-7.26-3.85-10.89-6.4-10.89-7.65,0-.44,.24-.66,.72-.66s.97,.11,1.48,.33c3.08,1.03,6.86,1.54,11.33,1.54,1.61,0,2.68-.15,3.19-.44,.51-.29,.9-.9,1.15-1.82,.26-.92,.39-2.29,.39-4.12,0-3.89-.44-12.98-1.32-27.28l-1.32-23.87c-.29-2.64-.84-4.47-1.65-5.5-.81-1.03-2.13-1.54-3.96-1.54-3.23,0-7.02,.9-11.39,2.69-4.36,1.8-7.35,3.39-8.96,4.79-.59,.51-1.25,.77-1.98,.77s-1.81-.86-3.25-2.58c-1.43-1.72-2.15-2.97-2.15-3.74s.31-1.32,.94-1.65c.62-.33,2.86-.88,6.71-1.65s8.38-1.45,13.58-2.03c2.35-.29,4.35-.64,6-1.05,1.65-.4,3.45-.6,5.39-.6s4.67,.66,8.19,1.98c3.52,1.32,5.28,2.57,5.28,3.74,0,.29-.15,.7-.44,1.21-1.54,2.57-2.31,6.78-2.31,12.65,0,3.52,.22,8.51,.66,14.96,.44,6.45,.66,13.93,.66,22.44Zm-41.58-17.82c.95,0,2.68-.35,5.17-1.04,2.49-.7,3.74-1.96,3.74-3.79s-.88-2.75-2.64-2.75-3.56,.48-5.39,1.43c-1.83,.95-2.75,2.22-2.75,3.79s.62,2.37,1.87,2.37Z"/><path d="M742.27,389.13c2.35,0,3.92,1.14,4.73,3.41,.81,2.27,1.21,3.89,1.21,4.84,0,1.83-.7,2.75-2.09,2.75-.37,0-.81-.11-1.32-.33-1.83-.66-4.01-.99-6.54-.99s-5.44,.17-8.75,.5c-3.3,.33-5.17,.59-5.61,.77-.44,.18-.88,.55-1.32,1.1-.44,.55-1.5,1.67-3.19,3.35-1.69,1.69-3.3,3.69-4.84,6s-2.35,3.92-2.42,4.84c-.07,.92-.42,1.69-1.04,2.31-.62,.62-2.16,1.36-4.62,2.2-2.46,.84-4.38,1.27-5.77,1.27s-2.81-.17-4.24-.5-2.14-.77-2.14-1.32,.37-1.04,1.1-1.48c8.51-3.74,13.86-7.02,16.06-9.85,2.2-2.82,3.3-4.75,3.3-5.77,0-.44-.24-.66-.72-.66s-2.93,.37-7.37,1.1c-4.44,.73-7,1.28-7.7,1.65-.7,.37-1.34,.55-1.92,.55s-1.06-.13-1.43-.38c-.37-.26-.7-.38-.99-.38s-.55,.18-.77,.55c-2.13,3.37-4.16,5.92-6.1,7.64-1.94,1.72-3.37,2.58-4.29,2.58s-1.78-1.47-2.58-4.4c-.81-2.93-1.21-5.41-1.21-7.43s.11-3.83,.33-5.44c.22-1.61,.33-2.86,.33-3.74,0-3.3-1.03-4.95-3.08-4.95-.59,0-1.32,.18-2.2,.55-.88,.37-1.67,.55-2.36,.55s-1.69-1.16-2.97-3.47c-1.28-2.31-1.92-3.79-1.92-4.45,0-1.32,.66-2.02,1.98-2.09,2.71-.29,5.7-.9,8.96-1.81,3.26-.92,5.74-1.89,7.42-2.92,.44-.22,.97-.33,1.6-.33s1.8,.66,3.52,1.98c1.72,1.32,2.58,2.79,2.58,4.4s-.59,3.04-1.76,4.29c-2.86,3.01-4.69,5.78-5.5,8.3-.81,2.53-1.21,4.2-1.21,5s.5,1.21,1.49,1.21,2.51-.81,4.56-2.42c2.05-1.61,4.22-5.46,6.49-11.55,.51-1.25,.95-1.87,1.32-1.87s.55,.73,.55,2.2c0,2.93-.66,6.09-1.98,9.46-.15,.37-.22,.7-.22,.99s.48,.44,1.43,.44c1.76,0,5.3-.73,10.62-2.2,5.32-1.47,8.34-2.29,9.08-2.48,.73-.18,1.41-1.26,2.04-3.25,.62-1.98,.97-4.73,1.04-8.25,.07-3.52,.57-5.9,1.48-7.15,.92-1.25,1.71-1.87,2.37-1.87s1.25,.24,1.76,.71c.51,.48,.77,.88,.77,1.21s-.04,.61-.11,.83c-.51,1.17-.77,3.92-.77,8.25s.09,6.75,.27,7.26c.18,.51,.68,.77,1.49,.77,1.98,0,5.5-.59,10.56-1.76,1.03-.22,1.91-.33,2.64-.33Zm-46.86-31.24c0,.88-.15,2.02-.44,3.41-.29,1.39-.73,2.09-1.32,2.09-.22,0-.88-.33-1.98-.99-1.1-.66-2.14-1.16-3.13-1.49s-1.69-1.08-2.09-2.25c-.4-1.17-.6-3.3-.6-6.38,0-1.91,.57-3.45,1.7-4.62,1.14-1.17,2-1.76,2.58-1.76,.95,0,2.07,1.58,3.36,4.73,1.28,3.15,1.92,5.57,1.92,7.26Zm37.51,5.5c5.06,0,9.11,1.72,12.16,5.17,3.04,3.45,4.57,5.9,4.57,7.37,0,.59-.22,1.06-.66,1.43-.44,.37-1.71,.71-3.79,1.04-2.09,.33-4.31,.5-6.66,.5s-3.78-.09-4.29-.28c-.51-.18-.77-.44-.77-.77s.5-.75,1.49-1.26c.99-.51,1.89-1.36,2.7-2.53,.81-1.17,1.21-2.27,1.21-3.3s-.33-1.98-.99-2.86-1.67-1.32-3.03-1.32-3.01,.18-4.95,.55c-1.94,.37-3.43,.81-4.46,1.32-4.03,2.2-7.41,3.56-10.12,4.07-.66,.15-.99,.4-.99,.77,0,.95,1.06,1.94,3.19,2.97,.81,.37,1.21,1.39,1.21,3.08,0,2.35-1.06,3.52-3.19,3.52-3.01,0-5.68-2.38-8.03-7.15-.44-.95-.88-1.43-1.32-1.43s-.95,.15-1.54,.44-1.21,.44-1.87,.44c-1.25,0-1.87-.64-1.87-1.92s.37-1.96,1.1-2.04c2.05-.29,4.35-1.06,6.88-2.31,2.53-1.25,4.09-2.18,4.68-2.81,.59-.62,.88-1.52,.88-2.69s-.62-1.76-1.87-1.76c-2.05,0-3.41,.26-4.07,.77-.44,.29-.95,.44-1.54,.44s-1.08-.57-1.48-1.71c-.4-1.14-.61-2.18-.61-3.14,0-1.47,.42-2.24,1.26-2.31,.84-.07,2.64-.57,5.39-1.49,2.75-.92,4.27-1.59,4.56-2.04,.29-.44,.68-2.64,1.16-6.6,.48-3.96,.75-6.97,.83-9.02,.07-2.05,.77-3.08,2.09-3.08s2.42,.2,3.3,.6c.88,.4,1.32,.88,1.32,1.43s-.11,1.04-.33,1.48c-.51,1.17-.77,4.99-.77,11.44,0,1.03,.7,1.39,2.09,1.1,3.15-.59,5.21-.88,6.16-.88s1.54,.37,1.76,1.1c.22,.73,.33,1.47,.33,2.2,0,2.64-1.03,4.18-3.08,4.62-1.39,.29-2.86,.81-4.4,1.54-1.54,.73-2.42,1.28-2.64,1.65-.22,.37-.33,1.17-.33,2.42s.81,1.87,2.42,1.87c.51,0,1.43-.11,2.75-.33,1.32-.22,2.71-.33,4.18-.33Zm-16.5,25.74c0,2.27-1.39,3.41-4.18,3.41-1.98,0-3.65-.64-5-1.92-1.36-1.28-2.04-2.92-2.04-4.89,0-1.03,.2-1.83,.6-2.42,.4-.59,.81-.88,1.21-.88s.79,.15,1.15,.44c2.13,1.39,4.36,2.49,6.71,3.3,.44,.15,.81,.5,1.1,1.04,.29,.55,.44,1.19,.44,1.93Zm28.93,29.92c0,3.08-.33,4.62-.99,4.62s-1.67-.44-3.03-1.32c-1.36-.88-2.92-2.09-4.67-3.63s-4.01-3.65-6.76-6.33-4.24-4.18-4.46-4.51c-.22-.33-.33-.72-.33-1.16,0-.81,.46-1.21,1.38-1.21s3.63,.62,8.14,1.87c4.51,1.25,7.21,2.13,8.08,2.64,.88,.51,1.54,1.58,1.98,3.19,.44,1.61,.66,3.56,.66,5.83Z"/><path d="M823.78,353.93c0,1.1-.2,1.89-.61,2.36-.4,.48-1.39,.99-2.97,1.54-1.58,.55-2.37,.99-2.37,1.32s.29,.75,.88,1.26c.59,.51,1.41,1.03,2.48,1.54,1.06,.51,1.59,1.3,1.59,2.37s-.64,1.87-1.92,2.42c-1.28,.55-2.16,1.17-2.64,1.87-.48,.7-.72,1.28-.72,1.76s.57,.72,1.71,.72,1.89,.22,2.25,.66c.37,.44,.55,1.17,.55,2.2s-.44,1.89-1.32,2.58c-.88,.7-2.82,1.71-5.83,3.03-.73,.44-1.17,.9-1.32,1.38-.15,.48-.22,1.06-.22,1.76s.22,1.04,.66,1.04,1.28-.26,2.53-.77c1.25-.51,2.2-.77,2.86-.77,1.54,0,2.62,.62,3.25,1.87,.62,1.25,.94,2.25,.94,3.03s-.46,1.34-1.38,1.71c-.92,.37-3.5,.92-7.76,1.65-1.03,.15-1.7,.4-2.03,.77-.33,.37-.5,.84-.5,1.43s.33,.99,.99,1.21c4.11,1.47,6.16,3.04,6.16,4.73,0,.59-.26,1.26-.77,2.03-.51,.77-1.14,1.16-1.87,1.16s-1.52-.11-2.37-.33c-.84-.22-1.58-.33-2.2-.33s-.93,.37-.93,1.1,.15,2.07,.44,4.01c.29,1.94,.44,3.58,.44,4.9,0,4.03-.84,6.05-2.53,6.05-.59,0-2.2-.61-4.84-1.82-2.64-1.21-5.24-3.13-7.81-5.77-.44-.51-.83-.77-1.16-.77s-.79,.55-1.38,1.65c-.59,1.1-.95,1.91-1.1,2.42-.29,.95-.84,1.43-1.65,1.43s-2.07-.48-3.79-1.43c-1.72-.95-2.58-1.8-2.58-2.53s.15-1.36,.44-1.87c.29-.51,1.5-2.25,3.63-5.22,2.13-2.97,3.41-4.69,3.85-5.17,.44-.48,.66-.9,.66-1.27s-.28-.55-.83-.55-1.8,.26-3.74,.77c-1.94,.51-3.32,.99-4.12,1.43-.81,.44-1.43,.66-1.87,.66s-.97-.53-1.59-1.6c-.62-1.06-.93-1.92-.93-2.58s.55-1.14,1.65-1.43c8.07-2.35,12.85-3.89,14.36-4.62,1.5-.73,3.76-1.54,6.76-2.42,.95-.29,1.43-.77,1.43-1.43,0-1.47-.44-2.2-1.32-2.2-.37,0-1.85,.24-4.46,.71-2.6,.48-4.11,.86-4.51,1.16-.4,.29-.88,.44-1.43,.44s-1.14-.62-1.76-1.87c-.62-1.25-.93-2.2-.93-2.86,0-.95,.29-1.49,.88-1.59,.59-.11,2.11-.71,4.56-1.82,2.46-1.1,4.97-2.05,7.54-2.86,2.57-.81,4.12-1.58,4.67-2.31,.55-.73,1.25-1.78,2.09-3.13,.84-1.36,1.26-2.48,1.26-3.36s-.11-1.67-.33-2.36c-.22-.7-.4-1.05-.55-1.05s-.38,.33-.71,.99-.9,1.23-1.71,1.71c-.81,.48-1.45,1.03-1.92,1.65-.48,.62-1.52,2.25-3.14,4.89-.51,.88-1.19,1.56-2.04,2.04-.84,.48-1.47,.71-1.87,.71s-.79-.2-1.16-.6c-.37-.4-.55-1.04-.55-1.93s.44-2.02,1.32-3.41c1.39-2.13,2.09-3.78,2.09-4.95,0-.51-.44-.77-1.32-.77s-1.58,.09-2.09,.28c-.51,.18-1.14,.51-1.87,.99-.73,.48-1.28,.71-1.65,.71s-.83-.64-1.38-1.92c-.55-1.28-.83-2.24-.83-2.86s.62-1.01,1.87-1.16c2.27-.29,5.87-1.25,10.78-2.86,6.67-2.27,11.92-3.41,15.73-3.41,1.54,0,2.57,.13,3.08,.38,.51,.26,.77,.75,.77,1.49Zm-17.49,44.55c0-1.03-.04-2.16-.11-3.41-.07-1.25-.29-1.87-.66-1.87s-.81,.09-1.32,.28c-.51,.18-1.59,.48-3.25,.88-1.65,.4-2.55,.71-2.7,.93-.15,.22-.26,.86-.33,1.93-.07,1.06-.22,2.46-.44,4.18-.22,1.72-.33,2.95-.33,3.68s.53,1.38,1.59,1.93c1.06,.55,2.24,.82,3.52,.82s2.18-.18,2.69-.55c.51-.37,.86-1.54,1.05-3.52,.18-1.98,.27-3.74,.27-5.28Zm5.61-65.67c.73,0,1.34,.49,1.81,1.48,.48,.99,1.16,2.2,2.04,3.63,.88,1.43,1.43,2.66,1.65,3.69,.22,1.03,.33,2.37,.33,4.02s-.22,2.69-.66,3.13c-.44,.44-1.25,.66-2.42,.66-1.61,0-3.32-.66-5.12-1.98-1.8-1.32-2.7-3.26-2.7-5.83,0-1.69,.61-3.58,1.82-5.67s2.29-3.13,3.25-3.13Zm48.18,36.96c.59,0,1.03,.13,1.32,.38,.29,.26,1.01,1.3,2.14,3.13,1.14,1.83,1.89,3.12,2.25,3.85,.37,.73,.55,1.43,.55,2.09,0,1.54-.77,2.31-2.31,2.31-.29,0-.59-.04-.88-.11-1.32-.37-3.48-.55-6.49-.55s-4.71,.16-5.12,.49c-.4,.33-.93,2.33-1.59,6-.66,3.67-.99,6.78-.99,9.35s.07,4.82,.22,6.76c.15,1.94,.22,4.03,.22,6.27s-.15,4.16-.44,5.77c-.29,1.61-.44,3.01-.44,4.18s.2,2.55,.6,4.12c.4,1.58,.61,2.84,.61,3.8,0,2.05-1.21,3.08-3.63,3.08-.88,0-1.54-.11-1.98-.33-.44-.22-.81-.7-1.1-1.43-.29-.73-.44-1.61-.44-2.64l.11-3.41c0-2.71-.17-8.96-.5-18.75s-.62-15.55-.88-17.27c-.26-1.72-.48-2.9-.66-3.52-.18-.62-.53-.94-1.04-.94s-1.47,.28-2.86,.83c-1.39,.55-2.49,1.1-3.3,1.65-.81,.55-1.39,1.16-1.76,1.81-.37,.66-.86,1.71-1.49,3.14-.62,1.43-.93,2.73-.93,3.9l.22,3.52c0,2.13-.97,4.42-2.92,6.88-1.94,2.46-3.89,4-5.83,4.62-1.94,.62-3.21,.93-3.79,.93s-.88-.18-.88-.55c0-.59,1.19-2.58,3.58-6,2.38-3.41,4.11-6.84,5.17-10.29,1.06-3.45,1.87-7.44,2.42-11.99s.83-8.43,.83-11.66l-.22-6.27c0-1.03,.17-1.72,.49-2.09,.33-.37,.9-.66,1.71-.88,4.25-1.03,7.52-2.02,9.79-2.97,4.91-1.98,8.47-2.97,10.67-2.97,1.17,0,2.11,.39,2.81,1.16,.7,.77,1.04,1.71,1.04,2.8s-.24,2.02-.71,2.75c-.48,.73-1.32,1.21-2.53,1.43-1.21,.22-2.38,.73-3.52,1.54-1.14,.81-2.77,1.28-4.89,1.43-3.3,.29-5.74,1.58-7.32,3.85-1.58,2.27-2.36,4.44-2.36,6.49,0,.59,.26,.88,.77,.88,.29,0,2.8-.77,7.54-2.31,4.73-1.54,8.51-2.64,11.33-3.3,2.82-.66,5.3-.99,7.42-.99Z"/><path d="M967.44,379.01c1.91,0,3.06,.62,3.46,1.87,.4,1.25,.95,2.38,1.65,3.41,.7,1.03,1.05,1.91,1.05,2.64,0,1.32-.81,1.98-2.42,1.98-.51,0-1.06-.07-1.65-.22-1.98-.44-4.79-.84-8.42-1.21-3.63-.37-7.41-.55-11.33-.55s-8.36,.38-13.31,1.15c-4.95,.77-8.87,1.65-11.77,2.64-2.9,.99-4.56,1.72-5,2.2-.44,.48-.73,1.08-.88,1.81-.88,5.06-2.24,8.62-4.07,10.67-1.25,1.39-2.79,3.7-4.62,6.93-.59,.95-1.32,1.74-2.2,2.36-.88,.62-1.69,.94-2.42,.94s-1.32-.24-1.76-.71c-.44-.48-1.08-2.15-1.92-5.01-.84-2.86-1.26-5.37-1.26-7.53s.11-4.25,.33-6.27c.22-2.02,.33-3.63,.33-4.84s-.22-2.31-.66-3.3c-.44-.99-.97-1.49-1.6-1.49s-1.45,.18-2.47,.55c-1.03,.37-1.78,.79-2.25,1.27-.48,.48-.94,.71-1.38,.71-.95,0-2.35-1.25-4.18-3.74-1.83-2.49-2.75-4.18-2.75-5.06,0-1.39,1.14-2.2,3.41-2.42,3.08-.29,6.56-1.27,10.45-2.92,3.89-1.65,6.12-2.88,6.71-3.69,.37-.44,.71-.66,1.04-.66s.77,.44,1.32,1.32,1.47,2.02,2.75,3.41c1.28,1.39,1.92,2.79,1.92,4.18,0,1.76-.77,2.75-2.31,2.97-1.17,.15-2.05,.88-2.64,2.2-.59,1.32-1.32,4.14-2.2,8.47-.88,4.33-1.32,6.93-1.32,7.81,0,1.61,.55,2.42,1.65,2.42,1.25,0,3.14-1.23,5.67-3.68,2.53-2.46,3.79-4.93,3.79-7.43,0-1.1-.24-1.92-.71-2.47-.48-.55-.71-1.04-.71-1.49,0-.66,.4-.99,1.21-.99l1.54,.11c.81,0,1.43-.18,1.87-.55,1.39-1.17,3.17-2.05,5.33-2.64,2.16-.59,3.41-1.04,3.74-1.38s.66-1.06,.99-2.2c.33-1.14,.95-2.51,1.87-4.12,.92-1.61,1.38-2.6,1.38-2.97s-.29-.55-.88-.55c-2.05,0-4.07,.33-6.05,.99-.59,.22-1.06,.33-1.43,.33-1.25,0-1.87-1.47-1.87-4.4,0-1.69,.66-2.57,1.98-2.64,1.32-.07,3.01-.37,5.06-.88l5.06-1.32c1.39-.37,2.25-.75,2.58-1.15,.33-.4,.7-1.38,1.1-2.92,.4-1.54,.6-2.7,.6-3.46s-.33-1.16-.99-1.16c-1.47,0-3.12,.48-4.95,1.43-.73,.44-1.32,.66-1.76,.66-1.03,0-2.02-1.14-2.97-3.41-.95-2.27-1.43-4.18-1.43-5.72,0-1.03,.53-1.76,1.59-2.2,1.06-.44,3.1-.71,6.11-.83,3.01-.11,5.63-.55,7.86-1.32,2.24-.77,4.82-1.41,7.76-1.92,2.93-.51,4.82-.77,5.67-.77s1.59,.73,2.25,2.2c.66,1.47,.99,2.64,.99,3.52,0,2.05-.62,3.15-1.87,3.3-2.05,.07-3.61,.51-4.68,1.32-1.06,.81-2.29,2.46-3.68,4.95-1.39,2.49-2.09,3.98-2.09,4.46s.17,.75,.5,.83c.33,.07,1.63,.11,3.9,.11s4.42,.5,6.44,1.49c2.02,.99,3.46,1.72,4.34,2.2,.88,.48,1.32,1.15,1.32,2.03,0,1.1-.55,2-1.65,2.7-1.1,.7-2.2,1.91-3.3,3.63-1.1,1.72-1.65,2.82-1.65,3.3s.48,.75,1.43,.83c.95,.07,2.68,.11,5.17,.11l4.29-.22Zm-49.5-21.01c0,2.49-1.21,3.74-3.63,3.74-1.25,0-2.81-.29-4.68-.88-1.87-.59-3.08-1.16-3.63-1.71s-.93-1.19-1.15-1.92c-.22-.73-.33-2.68-.33-5.83s.46-5.33,1.38-6.54c.92-1.21,1.85-1.81,2.8-1.81,1.47,0,2.42,.77,2.86,2.31,.44,1.54,.95,2.8,1.54,3.79,.59,.99,1.54,2.4,2.86,4.24,1.32,1.83,1.98,3.37,1.98,4.62Zm30.03,33.33c4.47,0,8.45,1.21,11.94,3.63,3.48,2.42,5.22,4.14,5.22,5.17,0,.59-.62,1.36-1.87,2.31-3.81,2.86-5.72,6.09-5.72,9.68,0,1.54-.24,2.81-.71,3.79-.48,.99-.84,1.61-1.1,1.87-.26,.26-1.05,.31-2.37,.17-1.32-.15-2.71-.22-4.18-.22s-3.34,.11-5.61,.33c-2.27,.22-3.83,.55-4.67,.99-.84,.44-1.56,.66-2.15,.66s-1.3-.59-2.14-1.76c-.84-1.17-2.18-2.51-4.02-4.01-1.83-1.5-3.43-3.89-4.79-7.15-1.36-3.26-2.03-5.92-2.03-7.97,0-1.39,.53-2.16,1.59-2.31,1.06-.15,2.62-.62,4.67-1.43,2.05-.81,5.06-1.63,9.02-2.47,3.96-.84,6.93-1.27,8.91-1.27Zm-7.48,17.93c2.64,0,4.89-.81,6.76-2.42,1.87-1.61,2.81-3.37,2.81-5.28,0-1.03-.48-1.87-1.43-2.53-.95-.66-2.16-.99-3.63-.99s-3.26,.37-5.39,1.1c-2.13,.73-3.32,1.76-3.58,3.08-.26,1.32-.38,2.44-.38,3.35s.44,1.76,1.32,2.53c.88,.77,2.05,1.16,3.52,1.16Zm-2.09-28.49c.44,0,1.54-.18,3.3-.55,1.76-.37,2.82-.64,3.19-.83,.37-.18,.84-.81,1.43-1.87,.59-1.06,1.08-2.22,1.48-3.46,.4-1.25,.61-2.24,.61-2.97,0-1.39-.66-2.09-1.98-2.09-1.76,0-3.15,1.01-4.18,3.03-1.03,2.02-2.05,3.87-3.08,5.55-1.03,1.69-1.54,2.64-1.54,2.86s.26,.33,.77,.33Z"/></g><g><path class="uuid-9220869f-8146-4453-b433-a026ea8fd0d4" d="M1039.25,317.53c-.8-.88-.89-1.35-.27-1.4,.62-.04,1.24,.11,1.86,.47,.62,.35,1.06,.84,1.33,1.46,.62-1.33,1.06-2.48,1.33-3.46,.27-.97,.4-1.64,.4-1.99,0-.44-.16-.62-.46-.53-.31,.09-.73,.22-1.26,.4-.53,.18-1.11,.07-1.73-.33-.62-.4-.6-.62,.07-.66,.66-.04,1.33-.18,1.99-.4,.67-.22,1.17-.49,1.53-.8,.35-.31,1.06-.15,2.13,.47,.71,.44,.82,.91,.33,1.4-.49,.49-1.02,1.62-1.59,3.39-.58,1.77-1.31,3.5-2.19,5.18-.89,1.68-2.02,3.15-3.39,4.39-1.38,1.24-2.81,2.13-4.32,2.66-1.51,.53-1.68,.42-.53-.33,1.15-.75,2.35-1.75,3.59-2.99,1.24-1.24,2.44-2.97,3.59-5.18-.8-.27-1.59-.84-2.39-1.73Zm9.57,6.18c-.18,.31-.4,1.04-.66,2.19,1.6-.35,2.86-.58,3.79-.66,.93-.09,1.77-.2,2.53-.33,.75-.13,1.48,.07,2.19,.6,.71,.53,.47,.86-.73,1-1.2,.13-2.44,.25-3.72,.33-1.29,.09-2.68,.22-4.19,.4-.89,2.92-2.08,5.1-3.59,6.51-1.51,1.42-3.24,2.37-5.18,2.86-1.95,.49-2.02,.27-.2-.66,1.82-.93,3.32-2.1,4.52-3.52,1.2-1.42,2.01-3.06,2.46-4.92-1.15,.27-2.15,.47-2.99,.6-.84,.13-1.53,.22-2.06,.27-.53,.05-1.15-.2-1.86-.73-.71-.53-.66-.82,.13-.86,.8-.04,1.77-.11,2.92-.2,1.15-.09,2.53-.27,4.12-.53,.27-1.06,.31-2.21,.13-3.46-1.15,0-1.99-.15-2.53-.47-.53-.31-.13-.6,1.2-.86,1.33-.27,2.39-.53,3.19-.8,.8-.27,1.57-.51,2.33-.73,.75-.22,1.4-.09,1.93,.4,.53,.49,.27,.91-.8,1.26-1.06,.35-2.31,.66-3.72,.93,.71,.62,.97,1.09,.8,1.4Zm4.25-8.17c.71-.8,1.4-1.66,2.06-2.59,.66-.93,1-1.71,1-2.33,0-.71,.31-.88,.93-.53,.62,.35,1.22,.75,1.79,1.2,.58,.44,.51,.78-.2,1-.71,.22-2.44,1.44-5.18,3.66,2.04,2.39,3.9,4.21,5.58,5.45,1.68,1.24,3.28,2.11,4.79,2.59,1.5,.49,1.77,.78,.8,.86-.98,.09-2.24,.16-3.79,.2-1.55,.05-2.81-.55-3.79-1.79-.98-1.24-2.31-3.06-3.99-5.45-1.68-2.39-2.88-3.83-3.59-4.32-.71-.49-.93-.8-.67-.93s.62-.11,1.06,.07c.71-.97,1.28-1.86,1.73-2.66,.44-.8,.62-1.44,.53-1.93-.09-.49,.15-.62,.73-.4,.58,.22,1.15,.53,1.73,.93,.57,.4,.51,.75-.2,1.06-.71,.31-2.04,1.35-3.99,3.12,.97,.98,1.86,1.91,2.66,2.79Zm4.05,17.35c.49,.58,.66,1.46,.53,2.66s-.93,1-2.39-.6c-1.46-1.6-2.81-2.99-4.05-4.19-1.24-1.2-1.35-1.64-.33-1.33,1.02,.31,2.19,.82,3.52,1.53,1.33,.71,2.24,1.35,2.72,1.93Z"/><path class="uuid-9220869f-8146-4453-b433-a026ea8fd0d4" d="M1044.83,350.88c-.09-1.28-.29-2.26-.6-2.92s-.11-.91,.6-.73c.71,.18,1.37,.42,1.99,.73,.62,.31,.77,.73,.47,1.26-.31,.53-.47,1.55-.47,3.06s-.13,3.5-.4,5.98c-.27,2.48-.98,4.54-2.13,6.18-1.15,1.64-2.5,2.86-4.05,3.66-1.55,.8-1.71,.64-.47-.46,1.24-1.11,2.35-2.53,3.32-4.25,.97-1.73,1.55-4.23,1.73-7.51-2.57,1.42-4.32,2.68-5.25,3.79-.93,1.11-1.66,1.29-2.19,.53-.53-.75-.51-1.42,.07-1.99,.58-.58,.97-1.26,1.2-2.06,.22-.8,.27-2.26,.13-4.39-.13-2.13-.51-3.61-1.13-4.45-.62-.84-.58-1.22,.13-1.13,.71,.09,1.37,.31,1.99,.66,1.59-.88,2.81-1.73,3.66-2.53,.84-.8,1.24-1.51,1.2-2.13-.05-.62,.29-.77,1-.46,.71,.31,1.37,.75,1.99,1.33,.62,.58,.6,.95-.07,1.13-.67,.18-1.55,.53-2.66,1.06-1.11,.53-2.73,1.29-4.85,2.26,.27,1.6,.4,4.7,.4,9.3,1.33-.62,2.79-1.24,4.39-1.86,.09-1.42,.09-2.77,0-4.05Zm7.98,7.38c0,4.34-.11,7.75-.33,10.23-.22,2.48-.55,3.77-1,3.85-.44,.09-.67-1.11-.67-3.59s.04-5.52,.13-9.37c.09-3.85,.09-6.67,0-8.44-.09-1.77-.38-2.99-.86-3.66-.49-.66-.36-.93,.4-.8,.75,.13,1.35,.27,1.79,.4,.44,.13,1.35,0,2.72-.4,1.37-.4,2.28-.77,2.72-1.13,.44-.35,1.08-.4,1.93-.13,.84,.27,1.55,.6,2.13,1,.57,.4,.66,.8,.27,1.2-.4,.4-.69,.98-.86,1.73-.18,.75-.27,2.15-.27,4.19s-.47,3.5-1.4,4.65c-.93,1.15-1.57,1.26-1.93,.33-.36-.93-1.04-1.79-2.06-2.59-1.02-.8-.93-1.02,.27-.66,1.2,.36,1.99,.4,2.39,.13,.4-.27,.62-1.04,.67-2.33,.04-1.28,.04-2.48,0-3.59-.05-1.11-.22-1.77-.53-1.99-.31-.22-.89-.22-1.73,0-.84,.22-2.06,.51-3.66,.86-.09,2.31-.13,5.67-.13,10.1Z"/><path class="uuid-9220869f-8146-4453-b433-a026ea8fd0d4" d="M1044.9,411.58c-.13,.44-.27,1.2-.4,2.26s-.2,2.08-.2,3.06,.29,1.42,.87,1.33c.57-.09,2.04-.22,4.39-.4,2.35-.18,4.5-.4,6.45-.67s3.32,0,4.12,.8c.8,.8,.53,1.17-.8,1.13-1.33-.04-4.05,.04-8.18,.27-4.12,.22-6.54,.58-7.24,1.06-.71,.49-1.24,.4-1.59-.27-.35-.67-.42-1.35-.2-2.06,.22-.71,.38-1.4,.47-2.06,.09-.67,.11-1.53,.07-2.59-.05-1.06-.16-2.08-.33-3.06-2.22,.27-3.59,.44-4.12,.53-.53,.09-1.26-.18-2.19-.8-.93-.62-.86-.93,.2-.93,1.15,0,2.66-.07,4.52-.2s4.07-.31,6.65-.53c2.57-.22,4.8-.44,6.71-.67,1.91-.22,3.39-.42,4.45-.6,1.06-.18,2.04,.02,2.92,.6,.88,.58,1.17,1.02,.86,1.33s-1.15,.44-2.53,.4c-1.38-.04-3.46-.02-6.25,.07-2.79,.09-6.09,.31-9.9,.66,.97,.44,1.4,.89,1.26,1.33Zm8.04-17.94c-.27-.71,0-.93,.8-.67,.8,.27,1.46,.58,1.99,.93,.53,.36,.64,.69,.33,1-.31,.31-.78,1.26-1.39,2.86,2.3-.27,3.83-.49,4.59-.67,.75-.18,1.55,.13,2.39,.93,.84,.8,.46,1.2-1.13,1.2s-3.72,.09-6.38,.27c-.98,1.95-1.66,3.1-2.06,3.46-.4,.36-.53,.2-.4-.46,.13-.67,.38-1.62,.73-2.86-1.77,.18-3.68,.4-5.72,.67,0,1.42-.09,2.37-.27,2.86-.18,.49-.4,.49-.66,0-.27-.49-.44-1.35-.53-2.59-2.31,.27-3.83,.49-4.59,.66-.75,.18-1.62-.04-2.59-.66-.98-.62-.91-.91,.2-.86,1.11,.05,3.34-.11,6.71-.46-.18-1.6-.58-2.77-1.2-3.52-.62-.75-.51-1.08,.33-1,.84,.09,1.57,.25,2.19,.46,.62,.22,.86,.53,.73,.93s-.25,1.35-.33,2.86c1.68-.27,3.68-.58,5.98-.93,.44-2.21,.53-3.68,.27-4.39Zm-4.92,10.24c1.42,.09,2.37,.38,2.86,.86,.49,.49,.6,1.04,.33,1.66-.27,.62-.82,.66-1.66,.13-.84-.53-1.66-1.11-2.46-1.73-.8-.71-.49-1.02,.93-.93Z"/><path class="uuid-9220869f-8146-4453-b433-a026ea8fd0d4" d="M1044.43,433.9c-.18,.27-.27,.93-.27,1.99,.8-.27,1.44-.49,1.93-.67,.49-.18,.93-.11,1.33,.2,.4,.31,.27,.6-.4,.86s-1.62,.58-2.86,.93v3.19c1.06,.09,1.97,.31,2.73,.66,.75,.36,1.08,.93,1,1.73-.09,.8-.49,.95-1.2,.46-.71-.49-1.55-1.13-2.53-1.93v9.17c0,.8-.18,1.66-.53,2.59-.36,.93-.75,.8-1.2-.4-.44-1.2-.55-2.21-.33-3.06,.22-.84,.35-2.01,.4-3.52,.04-1.51,.11-3.37,.2-5.58-1.86,3.54-3.92,6.18-6.18,7.91-2.26,1.73-2.64,1.77-1.13,.13,1.51-1.64,2.9-3.54,4.19-5.72,1.28-2.17,2.1-3.83,2.46-4.98-2.48,.89-4.01,1.44-4.59,1.66-.58,.22-1.31,.07-2.19-.46-.89-.53-.69-.86,.6-1,1.28-.13,3.52-.73,6.71-1.79,.09-1.15-.05-2.26-.4-3.32-1.77,.62-3.06,.95-3.85,1-.8,.05-.82-.11-.07-.46,.75-.35,1.53-.75,2.33-1.2,.8-.44,1.71-1.06,2.72-1.86,1.02-.8,1.57-1.48,1.66-2.06,.09-.58,.73-.4,1.93,.53s1.37,1.51,.53,1.73c-.84,.22-1.55,.47-2.13,.73-.58,.27-1.35,.67-2.33,1.2,1.15,.62,1.64,1.06,1.46,1.33Zm15.35,.73c.49-.31,1.06-.33,1.73-.07,.66,.27,1.26,.6,1.79,1,.53,.4,.51,.86-.07,1.4-.58,.53-1.18,1.82-1.79,3.85,.88,.89,.97,1.35,.27,1.4-.71,.05-2.44,.25-5.18,.6,0,5.58-.05,8.91-.13,9.97-.09,1.06-.2,1.99-.33,2.79-.13,.8-.33,1.24-.6,1.33-.27,.09-.44-.42-.53-1.53-.09-1.11-.13-2.33-.13-3.66v-8.64l-3.86,.53c-.36,.98-.66,1.22-.93,.73-.27-.49-.45-1.06-.53-1.73-.09-.67-.25-1.68-.47-3.06-.22-1.37-.51-2.33-.86-2.86-.36-.53-.25-.75,.33-.67,.58,.09,1.02,.18,1.33,.27,.31,.09,.86,.11,1.66,.07,.8-.04,1.9-.2,3.32-.46,0-2.13-.07-3.74-.2-4.85-.13-1.11-.38-1.97-.73-2.59-.36-.62-.2-.86,.47-.73,.66,.13,1.33,.36,1.99,.67,.67,.31,.86,.73,.6,1.26-.27,.53-.4,2.53-.4,5.98,1.68-.35,2.77-.69,3.26-1Zm-8.84,7.91l3.86-.53v-4.92l-4.39,.4c.27,2.66,.44,4.34,.53,5.05Zm9.17-1.46c.27-2.48,.33-3.94,.2-4.39-.13-.44-.46-.62-1-.53-.53,.09-1.46,.27-2.79,.53v5.05c1.24-.18,2.44-.4,3.59-.67Z"/></g></g><path d="M275.36,210.34c-1.01,1.9-1.15,3.79-2.62,4.96-.96,.76-2.06,1.27-3.23,.65-1.09-.58-.72-1.69-.59-2.63,.13-.96,.26-1.94,.55-2.87,.99-3.14,.26-5.73-2.28-7.84-7.14-5.93-8.5-13.56-6.44-22.18,2.79-11.63,4.81-23.48,10.19-34.35,2.46-4.97,1.83-10.47,2.41-15.76,1.04-9.48,1.82-18.98,6.94-27.46,5.23-8.66,12.39-15.29,21.28-19.87,20.41-10.51,40.61-8.63,60.33,2.02,11.69,6.31,20.73,15.37,26.54,27.45,2.34,4.87,3.72,10.03,4.36,15.36,.89,7.33,1.55,14.68,3.55,21.85,2.44,8.79,2.19,17.91,2.83,26.91,.29,4.16,.75,8.27,.19,12.5-.77,5.81-2.41,11.21-5.51,16.16-1.22,1.95-1.88,3.83-.42,5.94,.27,.39,.39,.9,.47,1.38,.26,1.63,1.73,3.83-.21,4.73-1.64,.77-2.97-1.3-4.07-2.64-.3-.37-.52-.8-.94-1.45-.71,1.18,.74,3.05-1.01,3.31-1.75,.26-2.8-1.1-3.59-2.51-1.5-2.69-1.28-6.46,1.17-8.56,7.87-6.74,8.79-15.51,7.8-25.69-1.8,5.02-3.78,9.14-6.99,12.64-6.29,6.88-13.98,11.03-23.24,11.23-5.33,.12-8.66,2.3-11.66,6.32-4.12,5.51-5.57,11.76-5.75,18.36-.22,7.97,.05,15.95-.97,23.9-.24,1.87,.18,3.89,.6,5.78,.44,2.01,2.21,2.63,4.01,2.86,1.64,.21,3.31,.31,4.96,.25,2.59-.1,3.16,1.61,3.22,3.57,.06,2.17-1.79,1.57-3.02,1.73-3.38,.44-6.75,.94-10.15,0-3.88-1.08-5.02-2.08-4.81-6.11,.57-11.1,.04-22.2,.26-33.3,.16-7.96,2.63-15.12,7.39-21.45,1.63-2.17,2.17-3.74-.63-5.31-1.25-.7-2.42-1.69-3.36-2.78-5.15-5.98-3.2-10.83,3.96-15.02,5.38-3.14,11.5-4.17,17.48-5.48,4.27-.94,5.49-2.09,5.58-6.44,.25-11.78,.31-23.62-1.47-35.26-1.63-10.65-6.25-20.24-14.12-27.91-2.91-2.84-6.67-4.39-10.52-5.52-14.63-4.28-27.98-1.61-39.61,8.19-5.5,4.63-8.88,10.93-10.04,18.04-2.23,13.74-3.43,27.59-3.64,41.51-.05,3.12,.69,6.18,1.6,9.17,1.59,5.28,5.46,7.79,10.6,8.75,5.39,1.01,10.89,.13,16.29,1.04,1.26,.21,2.7,.04,2.77,1.84,.06,1.55-.67,2.72-2.32,2.83-7.91,.54-15.77,.66-23.22-2.73-7.98-3.63-11.05-10.19-10.39-18.5,.48-6.04,.06-12.08,.48-18.09,.57-8.14,.21-16.36,1.8-24.42,1.63-8.24,4.45-15.95,10.61-22,8.3-8.15,18.52-12.01,29.92-12.89,8.62-.66,16.88,1.01,24.53,5.15,7.68,4.15,12.58,10.79,16.38,18.45,3.06,6.17,3.92,12.79,4.36,19.51,.7,10.77,1.94,21.52,1.27,32.35-.48,7.82-3.35,11.23-10.98,12.85-4.17,.89-8.56,.73-12.52,2.63-2.08,1-3.89,2.19-4.67,4.53-.69,2.08-.14,3.6,1.74,4.7,1.89,1.09,3.94,1.8,6.09,1.89,8.58,.37,16.34-2.31,23.39-6.96,4.32-2.85,6.74-7.31,7.97-12.22,5.5-21.91,3.17-43.21-5.13-64.07-6.92-17.4-21.22-24.83-38.21-28.59-5.11-1.13-10.36-2.08-15.56-2.17-5.49-.09-11.07,.79-16.32,2.56-10.17,3.43-18.69,9.16-24.19,18.68-3.46,5.99-4.91,12.66-6.12,19.39-1.21,6.72-1.18,13.56-1.61,20.34-.6,9.3-2.44,18.51-2.06,27.89,.23,5.88,1.09,11.63,2.86,17.21,1.77,5.56,5.7,9.3,11.06,11.28,11.39,4.21,22.89,3.83,34.34,.11,5.3-1.72,7.55-5.93,8.18-11.05,.37-2.97,.05-6.03,.12-9.05,.04-1.76-.78-2.5-2.48-2.41-5.53,.3-11.08,.45-16.6,.94-3.05,.27-5.99-.38-8.99-.48-1.81-.06-2.76-1.72-3.14-3.43-.21-.94-.2-1.93-.2-2.91-.01-9.14-.2-18.28,.06-27.41,.19-6.93,1.18-13.73,4.94-19.88,6.53-10.66,17.05-14.98,28.86-12.8,6.02,1.11,11.59,2.86,15.42,7.92,3.85,5.08,6.04,11.02,6.61,17.26,.73,7.92,1.34,15.89,.24,23.88-.7,5.11-3.3,8.73-6.9,8.8-5.07,.09-8.63-3.48-9.82-8.58-1.53-6.54-.04-13.24-1.57-19.73-.47-2-.86-4-2.1-5.71-3.22-4.46-8.42-4.5-11.73-.13-3.07,4.05-3.83,8.87-4.63,13.68-.33,2.01-.43,4.06-.62,6.09-.12,1.22,.21,2.82-1.66,2.84-1.74,.02-3.09-.95-3.14-2.79-.1-3.4-.31-6.86,.14-10.21,.8-5.94,3.37-11.14,7.76-15.34,6.05-5.79,17.17-2.78,19.47,5.32,1.93,6.78,2.3,13.8,3.01,20.77,.21,2.03,.41,4.08,.9,6.05,.37,1.46,1.48,2.67,3.11,2.68,1.74,.01,1.58-1.64,1.95-2.8,1.69-5.25,.57-10.62,.53-15.94,0,2.74,0,5.49,0,8.23,0,1.61-.33,3.03-2.36,2.91-1.8-.11-3.28-.71-3.11-2.98,.36-4.88-.52-9.67-.99-14.49-.67-6.83-5.05-12.91-10.6-14.39-6.85-1.82-15.26,2.09-18.01,9.11-3.29,8.41-4.75,17.22-3.5,26.31,.11,.77,.34,1.52,.57,2.26,.46,1.51,1.28,2.61,3.06,2.62,1.88,.01,3.17-.83,3.8-2.6,.53-1.48,.77-3.03,.66-4.6-.22-3.23,.32-6.41,.67-9.6,.49-4.53,3.07-7.17,7.16-7.52,3-.26,5.33,.73,6.6,3.68,.94,2.19,1.35,4.46,1.36,6.82,.03,5.65,.16,11.3,.12,16.95-.02,2.47,1.18,3.63,3.46,3.78,5.66,.38,11.26-.42,16.86-1.12,1.19-.15,1.61-.89,1.68-2,.74-12.15,1.16-24.3-.78-36.38-1.72-10.73-8.25-17.69-18.08-21.48-10.43-4.02-20.64-3.22-30.15,2.99-4.04,2.64-6.62,6.46-8.37,10.93-3.18,8.14-3.54,16.72-3.83,25.27-.24,7.2-.2,14.41,0,21.61,.17,6.57,2.29,8.2,8.71,8.6,4.97,.31,9.85-1.05,14.82-.23,4.1,.68,6.9,3.18,8.15,8.06,.87,3.4-.99,5.73-3.41,7.78-4.76,4-10.53,4.92-16.41,5.11-7.59,.25-14.92-.89-21.5-5.16-6.39-4.15-9.84-10.2-10.12-17.53-.52-13.51-.45-27.03,1.28-40.51,.88-6.85,1.18-13.76,3.03-20.47,3.11-11.29,9.73-20.01,20.02-25.36,18.01-9.37,36.29-8.68,53.9,.98,10.55,5.79,17.12,15.31,21.1,26.64,3.1,8.83,3.94,18.01,4.63,27.24,.3,3.97,.71,7.94,.95,11.91,.44,7.39-.39,14.68-3.6,21.38-3.36,7.01-10.2,9.54-17.05,11.71-2.88,.91-5.87,1.58-8.88,.46-1.14-.42-2.74-.57-2.76-2.15-.02-1.34,1.35-1.8,2.41-2.25,3.07-1.31,6.33-2.04,9.61-2.41,7.96-.89,11.51-5.61,13.21-13.11,1.57-6.91,.94-13.99,.69-20.97-.41-11.58-1.64-23.17-5.53-34.13-3.6-10.16-11.49-16.72-21.13-21.08-12.33-5.58-25.21-5.79-38-2.35-9.93,2.67-17.29,9.02-21.67,18.56-4.17,9.09-5.42,18.83-6.44,28.61-1.16,11.16-.53,22.38-.59,33.57-.09,14.4,8.9,20.02,21.24,20.75,4.3,.25,8.57-.09,12.75-1.15,1.5-.38,3.02-.88,4.35-1.63,1.53-.86,2.38-2.48,2.17-4.19-.2-1.59-1.92-1.37-3.08-1.66-4.86-1.2-9.92-.29-14.8-1.32-5-1.05-10.03-2.06-12.46-7.43-.9-1.98-1.33-4.03-1.52-6.2-.94-10.83,.59-21.53,1.47-32.28,.54-6.66,1.6-13.14,4.76-19.12,4.99-9.44,12.51-15.43,23.19-17.28,14.73-2.56,29.81,3.81,37.32,16.18,3.49,5.75,4.35,12.37,5.41,18.93,1.18,7.26,.93,14.56,1.26,21.83,.19,4.19-.18,8.53-1.1,12.76-.44,2-1.34,2.75-3.3,2.88-6.79,.47-13.56,1.14-20.35,1.55-2.34,.14-3.03,1.19-2.96,3.31,.08,2.53,.07,5.07,0,7.6-.28,11.86-4.68,15.58-15.03,18.38-4.03,1.09-8.26,1.35-12.46,1.19-2.96-.12-4.74,1.06-5.38,4.09-1.43,6.78-2.75,13.5-1.78,20.52,.62,4.54-.38,9.11-.69,13.67-.23,3.31-.33,6.58,.12,9.89,.4,2.88,1.72,4.43,4.7,4.49,1.16,.02,2.32,.31,3.48,.31,1.96,0,2.45,1.11,2.48,2.83,.03,1.66-.56,2.54-2.33,2.62-2.9,.13-5.72,.58-8.69-.12-2.87-.68-4.14-2.33-4.55-4.96-.18-1.15-.2-2.33-.21-3.49-.02-8.96-.13-17.93,.03-26.89,.12-6.7,.38-13.42,1.87-20.01,.53-2.34-.16-3.22-2.62-3.66-7.73-1.38-15.2-3.43-20.9-9.46-3.1-3.28-4.73-6.99-4.79-11.54-.11-7.95-.43-15.9-.86-23.87-2.79,6.08-3.85,12.54-4.38,19.11-.03,.39,.04,.79-.02,1.17-1.46,9.57,3.17,15.68,11.14,20.11,4.74,2.63,5.5,10.03,1.67,13.71-1.46,1.41-2.45,1.42-2.99-.81-.41-1.68-.38-3.48-1.44-5.37Zm75.99-76.59c-.92-10.03-9.45-17.46-20.21-17.44-13.21,.03-21.92,9.27-22.91,22.21-.74,9.74-1.14,19.56-1.31,29.36-.07,3.98,1.45,5.32,5.5,5.45,6.34,.21,12.6-.73,18.9-1.07,2.01-.11,2.38-1.24,2.37-2.9-.02-5.74-.01-11.48-.02-17.23,0-1.59-.35-3.1-1.25-4.43-.47-.69-.73-1.83-1.78-1.67-.93,.14-1.31,1.11-1.55,1.95-.83,2.91-1.41,5.86-1.28,8.92,.14,3.1-.54,6.03-2.19,8.65-2.1,3.34-5.02,5.41-9.19,5.04-3.35-.3-5.26-2.5-6.23-5.41-1.42-4.27-2.05-8.71-1.51-13.23,.47-3.96,1.01-7.91,1.61-11.85,1.43-9.49,4.9-17.58,15.21-20.32,7.26-1.93,14.04-1.25,19.7,4.49,2.72,2.76,4.8,5.82,6.13,9.47Z"/></svg>