<?xml version="1.0" encoding="UTF-8"?><svg id="a" xmlns="http://www.w3.org/2000/svg" viewBox="0 0 1366 720.19"><defs><style>.b{fill:#fbe66a;}.c{fill:#f8e7a2;}.d{fill:#020202;}.e{fill:#d5cd4f;}.f{fill:#050404;}.g{fill:#335792;}.h{fill:#0f0d0a;}.i{fill:#1d324b;}.j{fill:#030303;}.k{fill:#7ca4d0;}.l{fill:#090807;}.m{fill:#131210;}.n{fill:#7da4d0;}.o{fill:#f7dbac;}.p{fill:#fbebd2;}.q{fill:#fee96c;}.r{fill:#0e0c0a;}.s{fill:#0b0a09;}.t{fill:#eac752;}.u{fill:#f9fafc;}.v{fill:#4475ae;}.w{fill:#f8dcac;}.x{fill:#325480;}</style></defs><rect class="g" width="1366" height="720"/><g><path d="M1209.24,268c5.39,2.41,9.2,6.96,13.91,10.29,3.23,2.29,6.42,3.77,10.54,4.24,7.68,.87,14.95,2.75,18.82,11.01,2.59,5.53,6.78,10.16,11.25,14.46,7.47,7.18,12.32,15.76,15.6,25.76,5.27,16.05,1.86,31.04-3.33,46.06-1.54,4.46-3.19,9.12-5.89,12.9-3.26,4.56-2.86,8.43-.69,13.05,2.05,4.35,2.46,8.9,1.09,13.81-2.35,8.46-9.39,10.71-16.28,11.59-6.29,.81-8.97,4.73-12.06,8.92-.66,.89-1.11,1.94-1.74,2.86-3.36,4.9-2.96,5.66,2.6,8.33,5.61,2.69,11.91,2.97,17.53,5.37,16.39,7.01,31.31,16.58,45.06,27.81,20.5,16.74,38.99,35.42,53.39,57.87,2.23,3.48,3.72,7.48,6.82,10.39v7.54c-2.68,20.29-11.6,38.21-21.39,55.75-5.09,9.13-10.51,18.08-16.85,26.42-1.18,1.56-2.26,3.26-4.09,4.11-2.21,1.02-1.79,2.14-.76,3.91,2.81,4.81,5.55,9.65,5.72,15.5,.19,6.95-2.56,12.75-6.66,18.05-2.1,2.7-4.98,3.88-8.43,3.84-10.59-.11-21.18,.22-32.2-.24,2.3,6.03,5.16,11.53,9.32,16.21,3.97,4.46,7.54,9.34,12.45,12.93,1.08,.79,2.25,1.77,1.75,3.46h-7.54c-7.14-4.87-12.91-11.07-17.14-18.57-6.33-11.22-11.16-23.1-14.45-35.56-.77-2.92-1.93-3.65-4.68-2.51-11.52,4.79-23.61,7.58-35.83,9.91-13.93,2.29-27.96,3.31-42.03,2.72-12.43-.52-24.57-3.09-36.44-6.81-7.64-2.61-14.85-6.27-22.73-9.5,.2,7.92,1.61,15.29,2.34,22.73,1.05,10.82,2.19,21.64,3.64,32.42,.24,1.8,.33,3.64-1.04,5.16h-5.03c-.45-12.13-2.5-24.09-3.75-36.14-2.04-19.67-4.1-39.34-6.41-58.99-2.31-19.65-3.85-39.38-5.46-59.09-1.09-13.33-1.39-26.73-1.77-40.1-.09-3.39-.73-4.19-4.16-3.24-18.4,5.11-37,9.42-55.96,11.9-13.03,1.71-26.08,3.18-38.88-1.41-1.45-.52-2.71,.35-4.09,.37-3.9,.06-7.9,.65-10.93-2.72-.88-.98-2.02-.84-3.12-.65-6.93,1.18-13.84,1.08-20.79,.04-4.37-.66-7.96-2.58-10.68-5.93-1.11-1.36-2.37-2.06-3.86-2.88-6.13-3.37-12.21-6.85-13.25-14.9-.43-3.31,.76-6.02,2.17-8.74,.69-1.34,1.29-2.21-.39-3.45-8.85-6.51-10.39-12.39-5.36-21.72,1.29-2.39,1.09-3.88-.26-5.96-3.16-4.87-5.33-10.11-4.19-16.12,1.58-8.32,8.07-13.68,17.27-14.05,5.27-.21,10.55-.04,16.46-.04-2.78-6.51-4.62-12.59-5.96-18.83-1.3-6.09-1.38-12.23-.52-18.31,1.36-9.65,9.62-17.52,20.18-19.78,1.5-.32,3-.65,4.52-.84,7.09-.85,11.62,2.94,12.95,9.9,1.18,6.21-.15,12.03-2.18,17.61-4.57,12.54-2.62,18.82,9.58,27.39,7.3,5.12,12.47,11.3,16.62,18.76,1.01,1.83,2.06,2.78,4.22,2.4,1.85-.33,3.74,.15,5.22,1.16,9.33,6.35,20.23,6.79,30.81,7.97,25.03,2.81,49.81-.37,74.53-4.02,.78-.12,1.86,.18,2.2-.78,.41-1.14-.74-1.69-1.34-2.37-10.92-12.46-17.96-26.89-20.84-43.12-3.05-17.22-1.3-34.21,5-50.54,1.8-4.67,1.67-8.29-1.52-12.25-5.99-7.46-5.63-16.37,.57-22.73,1.29-1.33,.64-2.48,.23-3.81-4.85-15.85-1.05-26.25,12.69-35.1,1.66-1.07,3.45-1.96,4.92-.52,1.84,1.81,.06,3.13-1.28,4.44-2.3,2.25-1.85,4.81-.42,7.28,1.39,2.4,3.02,4.12,6.4,3.3,3.98-.97,7.05-3.17,10.03-5.75,4.72-4.09,9.13-8.53,15.23-10.81,3.02-1.13,5.83-1.5,8.94-.93,5.89,1.07,11.03,.7,14.9-5.19,3.61-5.51,7.62-11.08,14.69-12.88h2.51Z"/><path class="v" d="M1146.43,668.25c9.35,2.17,18.58,4.86,28.18,5.92,15.22,1.69,30.35,.72,45.46-1.22,1.93-.25,3.88-.42,5.82-.62,2.79,.59,2.26,2.95,2.15,4.67-.77,12.33-1.38,24.67-1.62,37.02-.04,2.24-.42,4.45-2.1,6.16h-78.73c-1.24-1.34-1.34-3.01-1.37-4.7-.28-14.49,1.34-28.93,.89-43.42-.04-1.38,.14-2.81,1.33-3.82Z"/><path class="x" d="M1224.32,720.19c1.02-12.17,1.68-24.35,1.66-36.56,0-3.77,2.35-7.56-.09-11.3,12.61-2.79,25.19-5.66,37.15-10.71,1.63-.69,2.62-.61,3.19,1.64,5.28,21.05,13.09,40.78,29.96,55.61,.41,.36,.67,.88,1,1.32h-72.87Z"/><path class="k" d="M1146.43,668.25c.52,17.33-1.11,34.62-.85,51.94h-16.75c-1.55-14.77-3.09-29.55-4.67-44.32-.63-5.92-1.36-11.83-2.1-18.21,8.43,3.66,16.4,7.13,24.37,10.59Z"/><path class="v" d="M1249.3,546.07c.33,.26,.66,.52,.98,.78,1.4,1.57,1.01,3.39,.64,5.17-4.6,22.26-9.21,44.52-13.98,66.74-.32,1.49-.57,3.04-1.79,4.15-12.25,2.99-24.73,4-37.28,4.5-3.26,.13-4.87-.91-5.65-4.49-2.72-12.47-1.86-25.06-1.1-37.52,1.42-23.37,4.88-46.54,8.66-69.65,.46-2.82,1.54-4.02,4.27-4.56,10-1.96,19.94-4.16,28.64-9.92,13.31-8.81,21.65-20.72,22.89-36.94,.27-3.51,1.13-4.22,4.46-2.63,19.92,9.47,37.91,21.72,54.16,36.64,14.33,13.15,27.83,26.98,38.22,43.56,1.38,2.47,1.13,5.02,.51,7.65-2.96,12.47-10.19,22.44-18.65,31.63-14.71,15.98-31.92,28.91-50.1,40.63-1.28,.82-2.51,2.48-4.42,1.16-1.2-7.09,2.41-12.98,5.09-18.97,5.06-11.33,12.05-21.59,18.66-32.04,.97-1.53,2.02-3.03,2.75-4.66,.76-1.7,.71-3.51-1.68-3.75-7.52-.78-13.95-4.53-20.65-7.49-6.61-2.92-13.03-6.26-19.57-9.34-2.78-1.31-5.53-2.63-7.71-4.84-3.41-3.45-8.3-4.23-12.19-6.8-1.17-.55-2.35-.82-3.14,.52-.7,1.19,.21,1.98,.92,2.8,.62,.71,1.48,1.15,2.07,1.89,.36,.47,.71,.94,1.07,1.42,.33,2.34,2.54,2.98,3.93,4.37Z"/><path class="c" d="M1116.71,607.17c6.93,4.31,12.87,8.15,18.96,11.72,3.72,2.18,7.87,4.68,12.09,1.94,4.35-2.82,3.06-7.71,2.78-11.94-2.25-34.12-.7-68.02,6.82-101.45,1.17-5.2,.76-8.61-2.94-12.59-7.45-8.01-7.09-17.92-5.32-28.54,5.05,3.64,10.41,5.17,14.16,10.74,5.94,8.83,15.89,11.59,26.37,12.03,10.64,.45,19.51-3.67,27.54-10.16,.87-.7,1.55-1.68,2.49-2.22,9.03-5.2,14.02-13.28,16.48-23.38,3.87,2.45,7.94,3.84,11.99,5.11,2.32,.73,3.07,1.68,2.86,4.06-1.28,14.92-8.33,26.29-20.79,34.45-7.51,4.91-16,7-24.62,8.86-11.57,2.5-9.52,1.94-10.96,11.06-4.86,30.86-9.6,61.74-8.88,93.14,.12,5.48,.84,10.84,2.04,16.14,.92,4.08,3.77,6.1,7.89,6.11,10.75,0,21.47-.81,32.03-2.77,11.08-2.05,22.42-2.95,33.11-6.88,1.98-.73,2.68-.37,2.75,1.89,.29,9.47,.63,18.95,1.21,28.41,.14,2.37-.77,3.01-2.71,3.79-20,8.07-40.83,12.07-62.29,13.25-25.22,1.38-48.92-3.96-71.6-15.03-5.23-2.55-7.37-5.48-7.78-11.05-.89-11.94-2.36-23.83-3.69-36.7Z"/><path class="p" d="M1175.47,473.31c-16.33-5.84-31.33-13.31-41.2-28.72-11.61-18.11-16.74-37.65-13.65-58.83,2.07-14.2,6.59-27.86,13.64-40.55,1.94-3.5,3.14-6.99,8.41-7.11,3.25-.08,6.06-2.57,8.24-5.73,4.21-6.1,10.01-10.74,16.18-14.86,1.9-1.27,4.13-1.7,5.89-.27,7.54,6.12,15.04,4.06,22.63,.28,1.36-.68,2.75-1.32,4.12-1.98,2.01-.45,2.77,1.04,3.35,2.41,2.31,5.5,4.67,10.98,6.51,16.66,.43,1.33,.71,2.71-.35,3.94-.2,.17-.43,.33-.67,.46-1.28,.71-3.31,.93-3.37,2.61-.07,1.91,2.16,1.7,3.39,2.36,2.57,1.38,5.07,2.76,5.84,5.9,.93,8.58,3.31,16.91,3.96,25.55,2.35,31.25-4.75,59.64-24.6,84.42-3.61,4.51-8.11,8-12.15,12.01-1.79,1.77-3.85,2.04-6.16,1.44Z"/><path class="n" d="M1032.71,481.56c-.99-5.92-1.86-11.85-5.44-16.97-.86-1.23-1.62-3.09-.49-4.27,1.24-1.29,2.45,.39,3.55,1.06,8.02,4.85,17.15,5.76,26.09,6.84,25.69,3.12,51.22,.83,76.67-2.97,3.03-.45,6.07-.93,9.02-1.73,2.58-.7,2.3,.2,2.01,2.21-1.33,9.32-2.1,18.63,2.87,27.31,.48,.85,.73,1.98,1.43,2.52,5.37,4.11,4.26,9.07,3.05,14.83-5.87,27.98-7.05,56.39-6.67,84.89,.08,5.72,.48,11.41,1.09,17.1,.48,4.47-.86,5.33-4.96,3.53-8.49-3.71-15.53-9.84-23.54-14.35-1.49-.84-1.53-2.23-1.64-3.6-1.9-24.32-4.55-48.61-4.4-73.04,.03-5.35,1.47-10.69,2.22-16.04,.26-1.83,1.09-4.35-.58-5.25-1.65-.89-2.44,1.78-3.56,2.87-1.27,1.23-2.11,2.91-3.13,4.4-6.1,2.26-12.42,1.31-18.57,.77-20.18-1.78-36.67-11.62-51.65-24.52-1.74-1.5-3.03-3.26-3.39-5.59Z"/><path class="w" d="M1175.47,473.31c2-.04,3.59-.69,5.23-2.07,14.1-11.84,23.84-26.64,30.07-43.84,3.22-8.9,5.02-18.08,6.14-27.52,1.87-15.84-.03-31.27-3.33-46.67-.29-1.33-.07-2.78-.08-4.17,2.3-.2,2.38,2.33,4.24,3.42-1.89-4.32-4.31-7.74-7.38-10.72-.97-.94-2.28-1.62-2.16-3.26,.83-.49,1.16-1.25,.83-2.11-2.47-6.42-4.95-12.83-7.52-19.21-.27-.67-1.18-1.09-1.79-1.63,2.34-3.13,4.76-3.18,7.79-.69,4.97,4.09,9.64,8.45,13.67,13.45,2.19,2.73,4.16,3.73,7.81,1.99,5.94-2.84,12.37-4.19,19.09-3.69,6.11,.46,9.35,5.81,7.37,11.65-1.78,5.22-5.85,7.94-10.08,10.66-1.3,.84-2.79,1.56-2.53,3.45,.29,2.08,1.93,2.02,3.5,2.08,1.6,.06,2.97,.85,4.2,1.74,5.67,4.07,14.69,18.54,15.92,26.45-1.83-2.92-3.71-5.81-5.49-8.76-3.54-5.85-6.85-11.91-13.26-15.23-1.19-.62-2.87-2.29-3.9-.15-.87,1.8,1.22,2.13,2.34,2.76,2.73,1.52,5,3.51,6.83,6.04,4.58,6.34,8.49,13.08,12.22,19.93,.54,1,1.68,2.06,.32,3.65-2.03-1.79-2.62-4.41-3.92-6.56-3.44-5.68-7.5-10.73-13.44-13.99-1.27-.69-3.03-2.3-4.02-.54-1.24,2.2,1.46,2.52,2.71,3.25,8.02,4.71,12.16,12.43,15.98,20.4,.26,.54,.32,1.59-.02,1.95-2.56,2.74-1.14,4.96,.16,7.82,2.37,5.19,5.53,10.49,2.02,16.63-1.11,1.94-2.22,3.33-4.36,4.11-4.06,1.47-8,3.38-12.44,3.28-2.13-.05-3.41,1.08-4.45,2.61-2.11,3.11-4.12,6.8-6.83,8.84-7.26,5.49-10.11,14.93-18.43,19.35-2.59,1.38-5.94,1.59-7.92,4.38,5.75,1.07,9.02,.25,18.82-4.79-1.14,3.55-2.42,6.73-4.95,8.79-7.4,6.03-14.16,13.06-23.63,16.09-10.51,3.35-20.21,1.49-29.32-4.43,5.39,1.69,10.97,1.48,16.51,1.76,2.98,.15,5.83-.45,8.63-1.38,.62-.2,1.48-.27,1.59-1.11,.13-1.05-.76-1.48-1.54-1.66-3.63-.84-7.33-1.44-11.03-1.21-3.5,.21-6.91,.47-10.16-1.17Z"/><path class="w" d="M963.36,522.31c7.77-.52,14.83-1.05,21.8-2.3,4.14-.74,8.12-1.93,11.34-4.86,4.31-3.91,5.18-8.48,2.19-13.38-1.03-1.69-.95-2.35,.58-3.62,5.35-4.44,6.15-8.91,2.77-15.14-1.59-2.93-4.29-5.54-5.23-8.44-.96-2.98,3.18-5.29,4.25-8.45,2.29-6.77-.66-15.21-7.84-20.38-5.35-3.86-11.31-6.61-17.71-8.21-2.23-.56-3.64-1.49-4.59-3.64-4.25-9.67-6.84-19.58-6.64-30.3,.18-9.92,7.93-17.06,16.32-19.16,9.82-2.47,13.08-.05,12.12,11.18-.33,3.83-1.52,7.67-2.86,11.31-3.93,10.64-1.02,19.34,7.03,26.73,2.05,1.88,4.13,3.84,6.52,5.2,5,2.86,8.1,7.16,11.42,11.75,6.29,8.68,6.17,17.5,2.94,26.87-1.56,4.52-2.41,9.15-2.87,13.87-.77,8.05-3.11,15.55-8.08,22.04-8.81,11.49-20.97,13.83-34.42,12.3-2.96-.34-6.2-.29-9.05-3.36Z"/><path class="x" d="M1279.76,622.98c7.08-3.57,13.36-8.39,19.8-12.94,12.51-8.85,24.11-18.8,34.43-30.13,8.19-8.99,15.28-18.7,17.96-30.97,.52-2.38,.41-4.68,.47-7.03,.21,.18,.44,.34,.63,.54,7.79,8.43,8.4,17.54,4.84,28.41-7.81,23.8-19.63,45.35-33.57,65.96-2.85,4.22-6.49,5.28-10.91,5.29-11.25,.03-20.79-4.16-28.85-11.92-2.15-2.07-3.95-4.29-4.79-7.2Z"/><path class="e" d="M1202.39,276.29c4.48-3.78,6.91-3.55,11.02,.35,4.04,3.83,8.42,7.26,13.36,9.95,1.5,.81,2.96,.54,4.46,.68,7.25,.69,13.88,2.03,17.54,9.71,3.14,6.6,8.52,11.65,13.64,16.81,6.01,6.06,9.37,13.51,12.23,21.56,5.2,14.65,.98,28.22-2.6,41.97-1.86,.13-1.83-1.21-2.11-1.95-3.49-9.22-9.64-16.56-16.61-23.25-1.93-1.85-.43-2.06,.57-2.9,6.33-5.32,8.84-13.91,5.8-20.14-2.27-4.64-6-7.04-11.25-7.37-6.97-.44-13.62,.82-20.07,3.28-1.79,.68-2.81,.74-4.2-.93-2.83-3.4-6.06-6.47-9.13-9.68-1.49-3.52-1.73-7.27-2.04-11.01-.83-10.08-3.92-19.29-10.6-27.08Z"/><path class="q" d="M1202.39,276.29c4.12,1.24,5.21,5.09,6.87,8.29,4.83,9.34,5.2,19.6,5.78,29.8-2.74-2.12-5.5-4.23-8.22-6.37-2.29-1.8-4.54-1.35-6.41,.43-4.08,3.89-9.25,5.57-14.34,7.46-3.23,1.2-6.04-.05-8.62-1.78-5.43-3.62-9.37-3.5-14.5,.15-6.5,4.63-12.32,9.89-17.07,16.36-2.78,3.8-9.35,4.32-13.7,1.48-10.38-6.77-11.58-25.62-2.14-33.83,.16,.18,.4,.33,.46,.53,3.66,12.03,12.96,11.85,20.94,6.42,3.44-2.34,6.58-5.14,9.7-7.91,5.2-4.6,10.76-7.8,18.09-6.07,9.15,2.17,14.15-3.61,18.84-9.95,1.32-1.78,2.4-3.77,4.32-5.03Z"/><path class="v" d="M1032.71,481.56c5.96,7.58,13.95,12.69,21.96,17.69,13.22,8.24,27.7,12.03,43.27,11.67,2.79-.06,5.58-.02,8.37-.02-.27,4.79-3.05,6.52-7.56,7.68-19.82,5.1-39.74,9.62-60.09,11.96-8.29,.95-16.65,1.23-25.35-.78,3.33-3.9,7.29-6.88,10.25-10.8,7.19-9.51,10.23-20.18,9.52-32-.11-1.8-.25-3.6-.38-5.39Z"/><path class="w" d="M1311.13,646.44c-2.98,3.73-5.43,6.39-7.41,9.37-3.56,5.35-2.41,12.34,2.28,15.77,2.28,1.67,4.62,1.51,7.12,.51,2.22-.89,2.68-2.63,2.67-4.7,0-.92,.41-2.06-.77-2.56-.92-.39-1.51,.43-2.17,.9-1.24,.9-2.12,3-4.16,1.45-1.68-1.28-2.27-3.02-2.01-5.17,.59-4.89,4.72-7.4,7.28-10.95,.88-1.22,1.69,0,2.24,.76,7.32,10.16,8.62,16.82,2.31,26.38-1.63,2.48-3.55,3.86-6.79,3.97-9.07,.31-18.11-.26-27.16-.52-1.84-.05-2.96-.92-4.21-2.18-7.08-7.11-10.07-15.85-10.64-25.63-.09-1.53-.17-3.06-.26-4.59-.62-10.89-.56-10.84,6.55-18.54,1.38-1.49,1.68-.37,2.46,.37,2.02,1.91,4.11,3.76,6.18,5.61,7.22,6.49,15.6,10.05,26.49,9.73Z"/><path class="x" d="M1235.15,622.92c1.8-9.09,3.53-18.19,5.41-27.26,3.14-15.17,6.39-30.32,9.56-45.48,.22-1.07,.11-2.22,.16-3.33,6.66,2.62,13.62,4.45,19.96,7.94,1.93,1.06,2.45,2,1.98,4.2-2.14,10.05-4.97,19.96-6.15,30.2-.91,7.86-1.77,15.73-2.37,23.62-.21,2.71-.94,3.96-3.75,4.89-8.1,2.68-16.36,4.32-24.8,5.22Z"/><path class="w" d="M959.09,440.84c10.28-1.02,19.51,2.11,28.33,7.02,3.78,2.11,6.47,5.13,8.39,9,1.48,3,1.45,5.81-.02,8.76-2.44,4.9-3.28,5.01-8.31,3.19-12.47-4.51-25.34-4.85-38.3-2.79-6.58,1.05-6.55,1.23-9.69-4.84-5.33-10.3-.34-19.09,11.28-19.87,2.78-.19,5.56-.32,8.33-.48Z"/><path class="w" d="M962.28,469.65c9.62,.89,19.45,.63,27.99,6.51,4.4,3.03,6.57,7.43,8.48,12.06,.93,2.25-.43,4.01-1.91,5.58-1.42,1.52-2.96,1.46-4.89,.83-13.59-4.48-27.53-5.19-41.63-3.42-5.94,.75-11.68-4.74-10.69-10.57,1.16-6.84,2.53-8.14,9.34-9.52,4.39-.89,8.82-1.19,13.31-1.47Z"/><path class="g" d="M1269.06,631.44c-1.46-8.01-.86-15.42-.26-22.87,1.27-15.56,4.07-30.85,7.61-46.04,.87-3.72,1.91-3.91,5.08-2.24,4.79,2.51,9.83,4.61,14.92,6.48,2.78,1.02,3.44,1.74,1.66,4.51-6.15,9.6-12.53,19.1-17.28,29.52-3.22,7.06-6.67,14.04-6.44,22.21,.09,3.47-2.99,5.56-5.3,8.43Z"/><path class="w" d="M960.5,517.86c-3.33,.65-8.13-2.37-12.41-6.74-2.5-2.56-3.25-5.47-1.84-8.78,1.37-3.21,2.7-6.19,7.05-6.67,11.8-1.3,23.33,.03,34.77,2.77,4.31,1.03,6.63,4.57,7.19,8.34,.61,4.07-3.08,5.91-6.48,7.05-8.14,2.75-16.71,2.67-28.29,4.03Z"/><path class="o" d="M996.46,527.9c8.44-4.04,14.29-9.95,18.23-17.75,2.27-4.5,4.17-9.16,4.55-14.23,.63-8.5,3.22-16.54,5.54-25.44,3.07,7.72,4.15,15.19,3.46,22.58-1.31,14.19-7.69,25.73-20.14,33.41-3.45,2.12-7.04,2.91-11.64,1.43Z"/><path class="b" d="M1125.87,350.76c-3.54-4.96-6.94-9.41-4.44-15.56,1.58-3.88,2.58-4.12,5.31-1.18,.09,.1,.23,.18,.29,.3,1.07,2.13,5.13,1.81,4.61,4.88-.38,2.22-1.96,4.25-3.02,6.35-.81,1.6-1.67,3.18-2.74,5.21Z"/><path class="i" d="M1244.3,540.29c-1.16-.17-1.93-.97-2.78-1.66-1.43-1.16-2.3-2.66-1.09-4.24,1.52-2,2.77-.11,4.02,.7-5.16,1.59-.22,3.47-.15,5.21Z"/><path class="x" d="M1249.3,546.07c-1.88-.94-5-.77-3.93-4.36,1.49,1.29,3.04,2.53,3.93,4.36Z"/><path class="d" d="M1138.33,425.12c-.59,1,.16,3.14-1.76,3.2-1.86,.06-1.6-1.93-2.12-3.14-.78-1.79-1.38-3.72-2.51-5.27-2.38-3.25-1.48-5.63,1.45-7.78,.67-.49,1.27-1.08,1.89-1.63,.86-.77,1.33-2.5,2.92-1.59,1.34,.77,.36,1.89,.11,2.93-.48,2.07,1.13,2.59,2.62,3.05,17.43,5.42,34.61,4.54,51.52-2.15,4.08-1.61,4.81-3.78,2.88-7.85-.33-.7-1.28-1.34-.41-2.17,.89-.86,1.51,0,2.05,.58,3.25,3.48,7.13,6.22,10.8,9.22,2.39,1.95,3.41,4.05,2.31,7.27-.94,2.73-1.14,5.71-1.69,8.58-.18,.92-.18,2.17-1.56,1.95-1.09-.17-.79-1.25-.82-2.06-.19-7.28-1.19-7.86-7.36-3.97-5.2,3.28-10.76,5.8-16.29,8.46-9.68,4.66-19.22,3.86-28.7-.08-5.24-2.18-10.22-5.01-15.33-7.56Z"/><path class="j" d="M1164.22,403.71c-.54-.33-1.48-.7-2.14-1.35-.99-.96-1.88-2.05-2.65-3.2q-5.31-8.01,1.09-14.94c5.39-5.8,9.18-12.53,11.9-19.92,.45-1.23,.68-3.2,2.56-2.53,1.92,.69,.77,2.36,.3,3.54-3.24,8.16-6.98,16.07-12.04,23.27-1.4,1.99-1.75,3.47,.06,5.4,1.5,1.61,2.74,3.51,3.86,5.42,1.25,2.14-.18,4.42-2.93,4.3Z"/><path class="d" d="M1202.19,363.87c7.4-.01,13.36,5.44,13.3,11.94-.01,1.36,.06,3.04-1.34,3.74-1.68,.84-2.27-.92-3.22-1.84-4.31-4.2-9.45-6.79-15.41-7.69-1.36-.2-3.17-.02-3.4-1.74-.22-1.65,1.59-2.1,2.75-2.74,2.36-1.31,4.92-1.93,7.31-1.68Z"/><path class="f" d="M1149.08,369.15c-.25,1.36-.42,2.73-.76,4.07-.51,2.02-.93,4.39-3.61,4.41-2.72,.02-3.1-2.58-3.7-4.42-1.06-3.26-.54-6.61,.57-9.8,.46-1.32,1.3-2.47,2.93-2.61,1.95-.16,2.68,1.24,3.25,2.68,.71,1.8,1.36,3.65,1.31,5.68Z"/><path class="s" d="M1152.81,442.48c6.04-3.66,11.95-1.32,17.59-1.67,1.05-.06,1.89,1.16,1.79,2.43-.1,1.21-.78,2.15-2.06,2.23-5.75,.38-11.55,.94-17.32-2.99Z"/><path class="l" d="M1208.19,338.49c5.03,4.35,9.78,8.87,10.76,16.74-3.08-1.64-3.54-4.57-5.46-6.19-1.6-2.68-4.38-3.63-7-4.87-1.22-.57-3.83-.46-3.13-2.34,.63-1.69,1.8-4.32,4.83-3.34Z"/><path class="m" d="M1140.98,347.66c-.91-.18-1.15-.6-.93-1.47,.58-2.23,8.36-7.81,10.84-7.85,1.49-.02,1.29,1.09,1.64,1.91,.39,.9,.42,1.65-.71,1.88-3.75,.75-7.02,2.4-9.83,5-.28,.26-.71,.38-1.02,.53Z"/><path class="r" d="M1245.65,379.34c1.18,.75,2.28,1.34,3.27,2.09,3.5,2.63,5.78,6.31,8.3,9.79,.61,.84,1.1,1.68,.07,2.53-1.05,.86-1.94,.14-2.48-.6-3.01-4.15-5.95-8.35-10.39-11.18-.62-.39-.7-1.22-.12-1.81,.35-.35,.88-.53,1.35-.8Z"/><path class="h" d="M1249.63,399.12c-.81-.08-1.4-.55-1.54-1.24-.44-2.17-1.66-3.76-3.3-5.17-.82-.7-.99-1.7-.08-2.55,.8-.75,1.5-.26,2.19,.28,2.05,1.58,3.57,3.51,4.08,6.11,.24,1.23,0,2.2-1.36,2.56Z"/><path class="u" d="M1166.66,431.25c-9.05-.69-17.64-2.86-25.47-7.48-2.06-1.21-5.38-2.64-4.49-5.26,1.13-3.32,4.39-1.13,6.57-.59,14.73,3.64,29.42,4.43,44.1-.17,1.85-.58,3.72-1.27,5.37-2.26,2.58-1.53,4.96-1.12,7.55-.11,2.83,1.11,2.78,2.38,.54,4.02-8.12,5.95-17.1,9.85-27.11,11.19-2.34,.31-4.71,.44-7.06,.65Z"/></g><g><path class="t" d="M862.84,360.07c-26.22,0-52.45,.09-78.67-.1-3.91-.03-6.23,.35-6.46,4.94-.14,2.82-1.25,5.62-2.07,8.39-2.27,7.66-2.3,7.65,6.03,7.65,23.78,0,47.56-.03,71.34,.01,11.94,.02,21.39,6.77,31.36,11.96,2.96,1.54,1.06,3.16-.83,4.29-11.89,7.11-23.86,13.22-38.5,12.94-27.77-.52-55.56-.07-83.34-.23-4.33-.02-7.33,1.27-10.43,4.38-38.81,38.95-100.6,38.93-139.41-.05-3.11-3.12-6.14-4.34-10.45-4.33-28.89,.08-57.78,.03-86.66-.19-12.29-.09-22.35-6.67-32.72-12.16-2.74-1.45-2.96-3.19-.11-4.75,11.83-6.49,23.24-13.56,37.76-13.15,21.32,.61,42.67,.06,64,.23,4.53,.04,5.75-.86,4.3-5.61-4.35-14.18-4.15-14.24-18.85-14.24-46.89,0-93.79-.2-140.68,.12-13.53,.09-24.03-6.94-35.26-12.54-2.39-1.19-2.59-2.92-.08-4.44,10.69-6.42,21.43-12.53,34.54-12.51,50,.08,100.01-.05,150.01,.16,5.17,.02,7.93-1.16,8.19-6.53,.23-4.65,5.01-10.28,2.56-13.04-2.73-3.07-9.22-.94-14.07-.96-19.78-.1-39.56-.24-59.34,.03-12.78,.17-22.67-7.01-33.4-12.13-2.15-1.03-2.18-2.67,0-3.93,10.73-6.22,21.14-13.17,34.31-13.14,28.45,.07,56.89-.05,85.34,.1,4.08,.02,6.92-1.11,9.84-4.11,38.57-39.65,101.68-39.91,140.38-.53,3.48,3.54,6.9,4.68,11.63,4.65,29.11-.17,58.23-.15,87.34-.05,12.78,.04,23.26,6.66,33.91,12.59,2.76,1.53,1.71,3.24-.41,4.43-12.01,6.71-23.73,13.65-38.45,13.27-21.76-.57-43.56,.02-65.33-.26-5.55-.07-6.68,1.52-4.47,6.34,1.91,4.17,.43,10.59,4.28,12.65,3.64,1.95,9.1,.52,13.76,.52,47.78,0,95.56,.19,143.34-.11,13.76-.09,24.39,7.28,35.86,12.87,2.5,1.22,2.3,2.92-.14,4.35-11.14,6.56-22.24,12.6-35.94,12.35-24.66-.44-49.33-.13-74-.13Z"/><path class="g" d="M757.01,346.11c-.05,41.78-33.64,74.93-75.84,74.84-41.4-.09-75.39-35.1-75.3-77.59,.08-41.07,33.72-72.97,76.82-72.86,41.41,.1,74.37,33.62,74.32,75.6Z"/><path class="t" d="M727.94,346.22c-.07,25.49-20.25,45.62-45.72,45.62-25.63,0-45.82-20.5-45.69-46.38,.14-25.17,20.84-45.56,46.11-45.4,25.25,.17,45.38,20.66,45.3,46.15Z"/><g><path class="t" d="M420.17,206.39V101.56h13.35l51.3,81.09-1.73,1.88V101.56h14.57v104.83h-13.49l-51.15-79.87,1.73-1.88v81.74h-14.57Z"/><path class="t" d="M549.53,183.81l21.5-82.25h10.1l21.5,82.25,18.54-82.25h15.3l-25.61,104.9h-15.01l-19.34-73.3-20.2,73.3h-15.01l-25.61-104.9h15.3l18.54,82.25Z"/><path class="t" d="M652.35,206.46V101.56h14.72v104.9h-14.72Zm7.58-40.69v-14h33.55c4.81,0,8.67-1.66,11.58-4.98s4.37-7.67,4.37-13.06-1.46-9.88-4.37-13.2c-2.91-3.32-6.77-4.98-11.58-4.98h-33.55v-14h33.04c6.35,0,11.88,1.33,16.59,4,4.71,2.67,8.38,6.41,11,11.22,2.62,4.81,3.93,10.46,3.93,16.95s-1.31,12.07-3.93,16.88c-2.62,4.81-6.29,8.54-11,11.18-4.71,2.65-10.25,3.97-16.59,3.97h-33.04Z"/><path class="t" d="M741.45,151.12h58.58v14h-58.58v-14Zm36.65-22.29v58.58h-14.72v-58.58h14.72Z"/><path class="t" d="M812.3,206.46l38.67-104.9h12.55l38.67,104.9h-15.87l-29.08-84.63-29.08,84.63h-15.87Zm17.82-23.02v-14h55.19v14h-55.19Z"/><path class="t" d="M932.79,101.56v104.9h-14.72V101.56h14.72Z"/></g></g><g><path class="t" d="M384.76,559.81h4.69c-.16,3.28-.23,6.88-.23,10.78,5.31,0,9.06-.08,11.25-.23v4.22c-2.19-.15-5.94-.23-11.25-.23,0,4.53,.08,8.05,.23,10.55h-4.69c.15-2.19,.23-4.92,.23-8.2-.78,1.25-2.27,2.85-4.45,4.8-2.19,1.96-4.22,3.48-6.09,4.57-.78-1.41-1.96-2.42-3.52-3.05,1.41-.47,3.28-1.56,5.62-3.28,2.34-1.72,4.14-3.52,5.39-5.39-3.13,0-6.09,.08-8.91,.23v-4.22c2.66,.16,6.64,.23,11.95,.23,0-3.75-.08-7.34-.23-10.78Zm1.17,29.77h12.89c-.94,3.91-2.58,7.81-4.92,11.72,2.5,.94,4.45,1.8,5.86,2.58-.78,1.09-1.49,2.27-2.11,3.52-1.41-.94-3.52-1.88-6.33-2.81-3.13,3.44-8.52,6.48-16.17,9.14-.78-1.72-1.8-2.89-3.05-3.52,7.34-1.72,12.34-4.06,15-7.03-4.38-1.09-7.97-2.03-10.78-2.81,.94-1.41,2.19-3.75,3.75-7.03-1.56,0-4.14,.08-7.73,.23v-4.22c2.97,.16,6.01,.23,9.14,.23,.62-1.41,1.09-2.97,1.41-4.69,1.72,.63,3.44,1.17,5.16,1.64-.63,.63-1.33,1.64-2.11,3.05Zm-3.52-22.27l-3.52,2.11c-1.09-2.19-2.74-4.22-4.92-6.09,1.41-.94,2.42-1.79,3.05-2.58,2.19,2.19,3.98,4.38,5.39,6.56Zm7.27,32.81c1.25-1.56,2.42-3.83,3.52-6.8h-8.67c-.78,1.56-1.64,3.2-2.58,4.92,1.88,.47,4.45,1.09,7.73,1.88Zm8.67-18.05c-.94,.78-1.96,1.72-3.05,2.81-2.19-2.66-3.98-4.76-5.39-6.33,.94-.78,1.79-1.64,2.58-2.58,2.03,2.03,3.98,4.06,5.86,6.09Zm-.7-16.17c-.47,1.09-1.09,2.42-1.88,3.98-1.25-.62-2.5-1.09-3.75-1.41,1.25-2.03,2.42-4.61,3.52-7.73,1.56,.78,2.89,1.33,3.98,1.64-.78,1.25-1.41,2.42-1.88,3.52Zm11.95-1.29c-.47,1.33-1.17,3.71-2.11,7.15h10.78c1.56,0,3.44-.08,5.62-.23v4.22c-1.72-.15-3.05-.23-3.98-.23,0,2.5-.43,6.45-1.29,11.84-.86,5.39-2.38,10.04-4.57,13.95,1.56,1.88,3.32,3.56,5.27,5.04,1.95,1.48,3.79,2.54,5.51,3.16-1.88,1.41-3.13,2.73-3.75,3.98-1.88-1.09-3.6-2.34-5.16-3.75-1.56-1.41-3.13-3.12-4.69-5.16-1.72,1.88-3.56,3.48-5.51,4.8-1.96,1.33-4.42,2.77-7.38,4.34-.78-1.41-1.88-2.5-3.28-3.28,2.34-.94,4.84-2.27,7.5-3.98,2.66-1.72,4.69-3.44,6.09-5.16-1.09-2.19-2.15-4.53-3.16-7.03-1.02-2.5-1.92-5.78-2.7-9.84-.47,1.25-1.25,2.89-2.34,4.92-1.09-.62-2.42-1.25-3.98-1.88,2.5-4.37,4.53-9.14,6.09-14.3,1.56-5.16,2.58-9.61,3.05-13.36,1.88,.78,3.59,1.33,5.16,1.64-.31,.78-.7,1.84-1.17,3.16Zm1.88,32.46c1.56-3.59,2.61-7.23,3.16-10.9,.55-3.67,.9-7.23,1.05-10.66h-9.14l-.94,2.34c1.41,9.22,3.36,15.63,5.86,19.22Z"/><path class="t" d="M443.82,572.46v30.94c0,3.28,.08,6.41,.23,9.38h-4.92c.15-2.66,.23-5.54,.23-8.67v-24.14c-1.88,3.13-3.6,5.62-5.16,7.5-1.25-1.72-2.42-3.05-3.52-3.98,1.56-1.56,3.71-4.57,6.45-9.02,2.73-4.45,4.88-9.49,6.45-15.12,2.19,1.09,4.06,1.88,5.62,2.34-1.25,1.41-3.05,5-5.39,10.78Zm18.98-6.56v-6.09c1.88,.16,3.98,.31,6.33,.47-.78,1.09-1.25,2.97-1.41,5.62h8.67c2.66,0,5-.08,7.03-.23v4.22c-2.19-.15-4.53-.23-7.03-.23h-8.91l-.47,5.16h11.95c-.16,1.88-.23,4.38-.23,7.5v23.91c3.12,0,5.39-.08,6.8-.23v4.22c-2.03-.16-4.84-.23-8.44-.23h-22.03c-3.6,0-6.56,.08-8.91,.23v-4.22c1.41,.16,3.59,.23,6.56,.23v-23.91c0-2.97-.08-5.47-.23-7.5h9.61l.47-5.16h-4.22c-3.91,0-6.95,.08-9.14,.23v-4.22c2.03,.16,5.08,.23,9.14,.23h4.45Zm11.72,16.88v-4.69h-17.34v4.69h17.34Zm0,7.73v-4.22h-17.34v4.22h17.34Zm0,7.73v-4.22h-17.34v4.22h17.34Zm0,7.97v-4.45h-17.34v4.45h17.34Z"/><path class="t" d="M530.3,561.68c2.81,0,5.62-.08,8.44-.23v4.92c-2.81-.15-5.62-.23-8.44-.23h-9.61v12.66h15c2.97,0,5.62-.08,7.97-.23v4.92c-2.19-.15-4.77-.23-7.73-.23h-14.53c2.19,5.94,5.31,11.02,9.38,15.23,4.06,4.22,9.29,7.11,15.7,8.67-2.19,1.72-3.52,3.28-3.98,4.69-4.84-1.72-9.3-4.41-13.36-8.09-4.06-3.67-7.58-8.94-10.55-15.82-1.88,6.41-4.84,11.52-8.91,15.35-4.06,3.83-9.14,7.07-15.23,9.73-.63-1.56-1.96-3.05-3.98-4.45,4.53-1.25,9.29-3.87,14.3-7.85,5-3.98,8.51-9.8,10.55-17.46h-12.89c-3.44,0-6.33,.08-8.67,.23v-4.92c2.5,.16,5.39,.23,8.67,.23h13.59v-12.66h-9.84c-3.28,0-6.09,.08-8.44,.23v-4.92c2.5,.16,5.31,.23,8.44,.23h24.14Z"/><path class="t" d="M566.87,564.96h25.78c2.81,0,5.47-.08,7.97-.23v4.22c-2.5-.15-5.16-.23-7.97-.23h-27.66c-.78,1.56-1.99,3.56-3.63,5.98-1.64,2.42-3.24,4.49-4.8,6.21-1.25-1.25-2.81-2.11-4.69-2.58,2.03-1.72,4.37-4.65,7.03-8.79,2.66-4.14,4.53-7.93,5.62-11.37,1.72,.78,3.52,1.49,5.39,2.11-.94,1.41-1.96,2.97-3.05,4.69Zm32.58,48.16c-2.19,.39-4.06-.67-5.62-3.16-1.56-2.5-2.66-5.35-3.28-8.55-.63-3.2-.78-7.85-.47-13.95h-25.78c-2.5,0-5.16,.08-7.97,.23v-4.22c2.81,.16,5.47,.23,7.97,.23h30.7c-.31,4.84-.43,8.59-.35,11.25,.08,2.66,.47,5.04,1.17,7.15s1.48,3.71,2.34,4.8c.86,1.09,1.99-1.41,3.4-7.5,1.72,2.03,3.2,3.2,4.45,3.52-2.19,6.41-4.38,9.8-6.56,10.2Zm-10.78-39.02c2.5,0,5-.08,7.5-.23v4.22c-2.5-.15-5-.23-7.5-.23h-17.34c-2.5,0-5,.08-7.5,.23v-3.98c2.5,.16,5,.16,7.5,0h17.34Z"/><path class="t" d="M628.51,590.51c.62-2.66,1.09-4.61,1.41-5.86h-5.16v21.8c-.16,2.66-1.17,4.3-3.05,4.92-1.88,.62-3.98,.94-6.33,.94-.31-1.72-.86-3.36-1.64-4.92,3.44,.31,5.43,.27,5.98-.12,.55-.39,.82-1.37,.82-2.93v-19.69h-2.58c-2.03,0-4.14,.08-6.33,.23v-3.98c2.19,.16,4.22,.23,6.09,.23h17.34c-.78,3.13-1.56,6.41-2.34,9.84-1.56-.31-2.97-.47-4.22-.47Zm-12.66-17.11c.78-.78,1.64-1.72,2.58-2.81,1.09,.78,2.19,1.64,3.28,2.58,2.03-2.97,3.67-5.16,4.92-6.56h-5.16c-3.13,0-6.09,.08-8.91,.23v-3.98c2.81,.16,5.7,.23,8.67,.23h11.25v3.52c-2.34,1.72-5,4.77-7.97,9.14l2.11,1.88c-1.25,1.09-2.27,2.03-3.05,2.81-2.19-2.34-4.77-4.69-7.73-7.03Zm35.62,14.53c-.16,2.97-.59,6.29-1.29,9.96-.7,3.67-2.27,6.72-4.69,9.14-2.42,2.42-5.67,4.72-9.73,6.91-1.41-1.09-2.81-2.11-4.22-3.05,3.75-1.41,6.76-3.13,9.02-5.16,2.26-2.03,3.87-4.34,4.8-6.91s1.52-5.43,1.76-8.55c.23-3.12,.35-6.48,.35-10.08l5.16,.47c-.63,1.88-1.02,4.3-1.17,7.27Zm5.62-25.31c2.34,0,4.69-.08,7.03-.23v3.98c-2.34-.15-4.69-.23-7.03-.23h-6.56c-.47,2.34-.94,4.92-1.41,7.73h12.89c-.16,2.34-.23,4.84-.23,7.5v10.08c0,2.66,.08,5.39,.23,8.2h-4.45v-22.27h-15.94v22.73h-4.45c.15-3.59,.23-6.48,.23-8.67v-9.84c0-2.5-.08-5.08-.23-7.73h7.73c.62-3.44,.94-6.01,.94-7.73h-2.58c-2.66,0-5.39,.08-8.2,.23v-3.98c2.97,.16,5.7,.23,8.2,.23h13.83Zm8.2,48.05c-1.41,1.09-2.5,2.11-3.28,3.05-2.03-2.03-3.87-3.79-5.51-5.27s-3.56-2.85-5.74-4.1c.78-1.09,1.56-2.26,2.34-3.52,5.94,4.53,10,7.81,12.19,9.84Z"/><path class="t" d="M681.48,558.64h4.69c-.16,2.97-.23,7.42-.23,13.36,2.5,0,5.08-.08,7.73-.23v4.45c-3.44-.15-6.02-.23-7.73-.23v9.61c2.5-.78,5-1.64,7.5-2.58-.16,1.25-.16,2.66,0,4.22-2.34,.63-4.84,1.41-7.5,2.34v16.41c0,2.66-.67,4.41-1.99,5.27-1.33,.86-3.71,1.52-7.15,1.99-.47-1.88-1.25-3.44-2.34-4.69,2.81,0,4.72-.2,5.74-.59,1.01-.39,1.52-1.29,1.52-2.7v-14.3c-5.16,1.72-8.2,2.89-9.14,3.52-.78-2.03-1.56-3.75-2.34-5.16,2.81-.47,6.64-1.41,11.48-2.81v-10.55c-3.75,0-7.03,.08-9.84,.23v-4.45c2.34,.16,5.62,.23,9.84,.23,0-5.62-.08-10.08-.23-13.36Zm18.52,54.14h-4.45c.15-3.75,.23-7.65,.23-11.72v-27.89c0-4.22-.08-8.05-.23-11.48h24.61c0,4.53-.23,8.75-.7,12.66-.47,1.88-1.29,3.16-2.46,3.87s-4.02,1.21-8.55,1.52c-.31-1.88-.78-3.44-1.41-4.69,4.37,.16,6.87-.15,7.5-.94,.62-.78,.94-3.59,.94-8.44h-15.47v15.94h22.03c-.16,1.25-.86,3.87-2.11,7.85-1.25,3.98-2.97,7.77-5.16,11.37,3.28,3.44,7.19,6.25,11.72,8.44-1.09,1.09-2.34,2.42-3.75,3.98-5.31-3.6-8.83-6.56-10.55-8.91-2.03,2.81-5.08,5.78-9.14,8.91-.47-1.25-1.41-2.5-2.81-3.75,3.44-2.03,6.33-4.69,8.67-7.97-3.44-5.47-5.78-10.86-7.03-16.17l-1.88,.23v27.19Zm11.72-15.47c2.03-3.12,3.52-7.03,4.45-11.72h-10.08c1.56,5.16,3.44,9.06,5.62,11.72Z"/><path class="t" d="M756.48,587.7h-11.48v11.48h-3.98v-11.48h-11.48v-3.75h11.48v-11.48h3.98v11.48h11.48v3.75Z"/><path class="t" d="M775.93,598.01c3.44-4.37,5.82-8.87,7.15-13.48,1.33-4.61,2.07-8.91,2.23-12.89,.15-3.98,.08-8.16-.23-12.54,1.72,.16,3.67,.31,5.86,.47-.47,2.5-.7,5.08-.7,7.73s.15,5.71,.47,9.14c.31,3.44,2.54,8.63,6.68,15.59,4.14,6.95,10.2,12.15,18.16,15.59-1.88,1.88-3.13,3.44-3.75,4.69-10.94-5.31-18.75-14.92-23.44-28.83-3.13,12.34-10.7,22.19-22.73,29.53-.94-1.25-2.27-2.58-3.98-3.98,6.09-2.97,10.86-6.64,14.3-11.02Z"/><path class="t" d="M860.3,563.79c3.75,0,7.19-.08,10.31-.23v4.69c-3.13-.15-6.56-.23-10.31-.23h-9.61v37.03h15.23c3.59,0,6.87-.08,9.84-.23v4.69c-2.97-.16-6.17-.23-9.61-.23h-36.33c-3.44,0-6.41,.08-8.91,.23v-4.69c2.66,.16,5.7,.23,9.14,.23h15.47v-37.03h-9.38c-4.06,0-7.58,.08-10.55,.23v-4.69c2.97,.16,6.48,.23,10.55,.23h24.14Z"/><path class="t" d="M892.88,564.73c8.44,0,14.3-.08,17.58-.23v4.22c-3.44-.15-6.56-.23-9.38-.23,0,1.41-.08,3.2-.23,5.39,5,0,8.67-.08,11.02-.23v4.22c-2.34-.15-6.25-.23-11.72-.23l-.47,1.64c4.84,1.88,8.67,3.52,11.48,4.92-1.25,1.72-2.19,3.13-2.81,4.22-3.44-2.5-6.95-4.37-10.55-5.62-2.66,3.44-6.17,6.41-10.55,8.91-.94-1.25-2.11-2.42-3.52-3.52,2.66-1.09,5.12-2.66,7.38-4.69,2.26-2.03,3.71-3.98,4.34-5.86-5.78,0-9.92,.08-12.42,.23v-4.22c2.5,.16,6.95,.23,13.36,.23,.31-2.03,.39-3.83,.23-5.39h-5.39c-.94,1.72-2.03,3.36-3.28,4.92-1.72-.94-3.05-1.72-3.98-2.34,1.25-1.41,2.7-3.44,4.34-6.09,1.64-2.66,2.7-4.84,3.16-6.56,1.25,.63,2.89,1.25,4.92,1.88-1.09,1.09-2.27,2.58-3.52,4.45Zm33.28,36.8c0,5.16,.08,9.06,.23,11.72h-4.92v-2.81h-24.61v2.81h-4.92c.15-2.5,.23-6.33,.23-11.48s-.08-9.29-.23-11.95h34.45c-.16,2.66-.23,6.56-.23,11.72Zm-4.69-3.28v-5.16h-24.61v5.16h24.61Zm0,8.44v-4.92h-24.61v4.92h24.61Zm-7.5-21.56c.15-2.5,.23-5.86,.23-10.08s-.08-7.81-.23-10.31h18.52c-.16,1.88-.23,5.16-.23,9.84s.08,8.2,.23,10.55h-18.52Zm13.59-3.75v-12.89h-8.91v12.89h8.91Z"/><path class="t" d="M964.84,576.21c-5.16,.31-9.46,.63-12.89,.94-3.44,.31-6.02,.7-7.73,1.17-.47-1.88-1.02-3.52-1.64-4.92,1.09-.47,2.77-2.15,5.04-5.04,2.26-2.89,4.1-5.98,5.51-9.26,.78,.63,1.64,1.09,2.58,1.41,.94,.31,1.95,.7,3.05,1.17-1.25,.94-2.54,2.34-3.87,4.22-1.33,1.88-3.48,4.53-6.45,7.97,6.56-.31,11.4-.55,14.53-.7-1.88-2.5-3.2-4.14-3.98-4.92,1.09-.62,2.34-1.48,3.75-2.58,1.25,1.72,2.46,3.28,3.63,4.69s2.7,3.2,4.57,5.39c-1.72,1.25-3.13,2.27-4.22,3.05-.47-.78-1.09-1.64-1.88-2.58Zm-2.81,31.99c.31-.55,.47-1.37,.47-2.46v-3.28h-12.66v11.02h-4.45c.15-3.13,.23-5.94,.23-8.44v-15.7c0-2.81-.08-5.31-.23-7.5h21.56c-.16,2.34-.23,4.92-.23,7.73v19.69c-.16,1.72-.86,2.81-2.11,3.28-1.25,.47-3.05,.86-5.39,1.17-.31-1.41-.94-2.97-1.88-4.69,2.81,0,4.37-.27,4.69-.82Zm.47-18.16v-4.45h-12.66v4.45h12.66Zm0,8.67v-4.92h-12.66v4.92h12.66Zm14.3-29.53c2.19-.94,4.3-1.91,6.33-2.93,2.03-1.01,4.06-2.3,6.09-3.87,1.25,1.56,2.34,2.89,3.28,3.98-.94,.31-2.93,1.21-5.98,2.7-3.05,1.49-6.29,2.78-9.73,3.87v3.52c0,1.88,1.09,2.81,3.28,2.81h6.8c1.56,0,2.58-2.03,3.05-6.09,1.56,.78,3.12,1.49,4.69,2.11-1.09,5-3.05,7.5-5.86,7.5h-10.55c-3.75,0-5.62-1.72-5.62-5.16v-11.95c0-1.88-.08-3.9-.23-6.09h4.69c-.16,1.09-.23,3.36-.23,6.8v2.81Zm10.43,25.55c-3.05,1.41-6.53,2.74-10.43,3.98v6.56c0,1.88,.86,2.81,2.58,2.81h8.44c1.25-.31,2.11-2.26,2.58-5.86,1.25,.63,2.81,1.25,4.69,1.88-1.09,5-2.89,7.5-5.39,7.5h-12.66c-2.97,0-4.45-1.49-4.45-4.45v-15.23c0-2.34-.08-4.45-.23-6.33h4.69c-.16,1.88-.23,3.91-.23,6.09v3.05c1.56-.47,3.63-1.33,6.21-2.58,2.58-1.25,4.65-2.58,6.21-3.98,1.41,1.88,2.58,3.28,3.52,4.22-.63,.16-2.46,.94-5.51,2.34Z"/><path class="t" d="M518.59,648.45c-.63,.47-1.64,1.8-3.05,3.98-1.56,2.34-3.52,5.16-5.86,8.44-1.41-.94-2.81-1.79-4.22-2.58,2.03-1.88,3.79-4.06,5.27-6.56,1.48-2.5,2.54-4.61,3.16-6.33,1.72,.94,3.28,1.96,4.69,3.05Zm2.81,16.41c1.25-2.03,2.11-4.61,2.58-7.73,1.56,.78,3.12,1.41,4.69,1.88-1.41,3.6-2.66,6.56-3.75,8.91l6.56,6.56c-1.41,1.09-2.74,2.27-3.98,3.52-1.09-1.72-2.81-3.75-5.16-6.09-1.25,1.41-2.74,3.01-4.45,4.8-1.72,1.8-4.38,4.1-7.97,6.91-1.25-1.56-2.66-2.81-4.22-3.75,2.03-.94,4.22-2.26,6.56-3.98,2.34-1.72,4.61-4.14,6.8-7.27-2.19-1.88-4.77-4.06-7.73-6.56l2.34-3.28c2.66,2.19,5.23,4.22,7.73,6.09Zm5.39-24.61c2.34,0,4.45-.08,6.33-.23v3.98c-1.88-.15-3.91-.23-6.09-.23h-14.3c-2.5,0-4.77,.08-6.8,.23v-3.98c2.03,.16,4.3,.23,6.8,.23h14.06Zm-3.05-2.58c-1.41,.63-2.89,1.25-4.45,1.88-.94-2.34-2.03-4.84-3.28-7.5,1.41-.47,2.89-1.01,4.45-1.64,1.25,2.34,2.34,4.77,3.28,7.27Zm6.33,12.89c1.41,1.88,2.66,3.52,3.75,4.92-1.41,.78-2.74,1.72-3.98,2.81-3.13-4.53-5.47-7.81-7.03-9.84,1.25-.62,2.5-1.56,3.75-2.81,.94,1.41,2.11,3.05,3.52,4.92Zm6.09,6.56c-.63-1.72-1.56-3.28-2.81-4.69,1.88-2.81,3.59-6.33,5.16-10.55,1.56-4.22,2.66-8.2,3.28-11.95,1.88,.94,3.9,1.64,6.09,2.11-.78,.78-1.56,1.99-2.34,3.63-.78,1.64-1.64,3.71-2.58,6.21,9.84,0,15.86-.08,18.05-.23v3.98c-1.88-.15-3.98-.23-6.33-.23-.16,4.53-.7,9.26-1.64,14.18s-2.42,9.1-4.45,12.54c.47,1.41,1.99,3.05,4.57,4.92s5.27,3.28,8.09,4.22c-1.88,1.09-3.13,2.58-3.75,4.45-2.66-1.41-4.92-2.93-6.8-4.57s-3.6-3.48-5.16-5.51c-2.03,1.88-4.1,3.56-6.21,5.04s-5.2,3.32-9.26,5.51c-.78-1.72-2.11-3.13-3.98-4.22,2.03-.31,4.84-1.52,8.44-3.63,3.59-2.11,6.33-4.18,8.2-6.21-1.25-2.66-2.23-5.39-2.93-8.2s-1.37-6.01-1.99-9.61l-1.64,2.81Zm6.68,1.99c.7,3.2,1.68,6.21,2.93,9.02,1.56-2.97,2.7-6.87,3.4-11.72,.7-4.84,.97-8.51,.82-11.02h-8.2c-1.25,3.28-2.42,5.78-3.52,7.5,1.09,0,2.19-.31,3.28-.94,.15,1.56,.59,3.95,1.29,7.15Z"/><path class="t" d="M591.24,684.54c.15-2.81,.23-6.25,.23-10.31v-9.61h-.94c-1.09,2.03-2.34,3.91-3.75,5.62-1.41,1.72-3.01,3.24-4.8,4.57-1.8,1.33-3.75,2.62-5.86,3.87s-4.26,2.34-6.45,3.28c-.63-1.72-1.49-3.36-2.58-4.92,1.88-.47,3.67-1.13,5.39-1.99,1.72-.86,3.44-1.79,5.16-2.81,1.72-1.01,3.2-2.15,4.45-3.4,1.25-1.25,2.42-2.66,3.52-4.22h-9.38c-2.34,0-5.24,.16-8.67,.47v-4.69c3.12,.31,6.01,.47,8.67,.47h15.23v-4.22h-17.34c.15-3.75,.23-7.89,.23-12.42s-.08-8.36-.23-11.48h39.14c-.16,3.13-.23,6.95-.23,11.48s.08,8.67,.23,12.42h-17.34v4.22h14.77c3.12,0,5.86-.08,8.2-.23v4.45c-2.66-.31-5.24-.47-7.73-.47h-9.14c2.03,3.28,4.53,5.78,7.5,7.5,2.97,1.72,6.48,3.05,10.55,3.98-1.09,1.41-1.96,3.13-2.58,5.16-5.31-2.03-9.53-4.3-12.66-6.8-3.13-2.5-5.47-5.78-7.03-9.84h-1.88v9.84c0,3.44,.08,6.8,.23,10.08h-4.92Zm.23-41.25v-7.03h-12.42v7.03h12.42Zm0,9.84v-6.33h-12.42v6.33h12.42Zm17.11-9.84v-7.03h-12.66v7.03h12.66Zm0,9.84v-6.33h-12.66v6.33h12.66Z"/><path class="t" d="M638.35,672.36v-4.22h-6.56v7.73h-4.22c.15-4.22,.23-10.62,.23-19.22s-.08-14.77-.23-18.52h15c-.16,4.84-.23,10.55-.23,17.11s.08,12.27,.23,17.11h-4.22Zm0-7.73v-22.97h-6.56v22.97h6.56Zm32.58-32.11c2.81,0,5.62-.08,8.44-.23v3.75c-2.66-.15-5.39-.23-8.2-.23h-8.2c-.47,1.25-.78,2.58-.94,3.98h12.89c-.16,2.66-.23,6.25-.23,10.78s.08,7.81,.23,10.31h-6.8c.62,.94,1.48,2.03,2.58,3.28-.94,.47-2.11,1.09-3.52,1.88,.62-.15,1.56-.31,2.81-.47,1.25-.15,4.06-.62,8.44-1.41l1.17,3.98c-1.25,0-3.67,.2-7.27,.59-3.6,.39-7.81,.9-12.66,1.52,.62,1.56,1.88,3.28,3.75,5.16,2.5-1.25,5-3.12,7.5-5.62,1.09,.94,2.42,1.96,3.98,3.05-1.88,1.09-3.48,2.07-4.8,2.93-1.33,.86-2.62,1.6-3.87,2.23,2.81,1.56,4.96,2.5,6.45,2.81,1.48,.31,2.46,.27,2.93-.12,.47-.39,.86-1.91,1.17-4.57,1.25,1.09,2.81,1.8,4.69,2.11-1.09,5.31-3.56,7.65-7.38,7.03-3.83-.63-7.7-2.34-11.6-5.16-2.34,.94-4.69,1.72-7.03,2.34-2.34,.62-5.55,1.41-9.61,2.34-.94-1.88-1.88-3.36-2.81-4.45,2.03-.16,4.57-.47,7.62-.94s5.98-1.25,8.79-2.34c-1.56-1.41-2.97-3.44-4.22-6.09-3.44,.47-6.72,.94-9.84,1.41l-.7-3.98c2.81-.15,5.94-.39,9.38-.7-.47-1.25-.94-3.05-1.41-5.39,1.72,0,3.28-.08,4.69-.23,.31,2.66,.62,4.3,.94,4.92,3.59-.31,6.41-.62,8.44-.94-.78-1.41-1.64-2.66-2.58-3.75,.94-.31,2.03-.78,3.28-1.41h-19.45c.15-2.5,.23-5.94,.23-10.31s-.08-8.12-.23-10.78h9.38c.31-1.25,.62-2.58,.94-3.98h-5.62c-2.66,0-5.39,.08-8.2,.23v-3.75c2.81,.16,5.54,.23,8.2,.23h18.28Zm-.23,13.59v-2.81h-18.52v2.81h18.52Zm0,5.62v-2.81h-18.52v2.81h18.52Zm0,5.86v-2.81h-18.52v2.81h18.52Z"/><path class="t" d="M698.35,672.36v-4.22h-6.56v7.73h-4.22c.15-4.22,.23-10.62,.23-19.22s-.08-14.77-.23-18.52h15c-.16,4.84-.23,10.55-.23,17.11s.08,12.27,.23,17.11h-4.22Zm0-7.73v-22.97h-6.56v22.97h6.56Zm32.58-32.11c2.81,0,5.62-.08,8.44-.23v3.75c-2.66-.15-5.39-.23-8.2-.23h-8.2c-.47,1.25-.78,2.58-.94,3.98h12.89c-.16,2.66-.23,6.25-.23,10.78s.08,7.81,.23,10.31h-6.8c.62,.94,1.48,2.03,2.58,3.28-.94,.47-2.11,1.09-3.52,1.88,.62-.15,1.56-.31,2.81-.47,1.25-.15,4.06-.62,8.44-1.41l1.17,3.98c-1.25,0-3.67,.2-7.27,.59-3.6,.39-7.81,.9-12.66,1.52,.62,1.56,1.88,3.28,3.75,5.16,2.5-1.25,5-3.12,7.5-5.62,1.09,.94,2.42,1.96,3.98,3.05-1.88,1.09-3.48,2.07-4.8,2.93-1.33,.86-2.62,1.6-3.87,2.23,2.81,1.56,4.96,2.5,6.45,2.81,1.48,.31,2.46,.27,2.93-.12,.47-.39,.86-1.91,1.17-4.57,1.25,1.09,2.81,1.8,4.69,2.11-1.09,5.31-3.56,7.65-7.38,7.03-3.83-.63-7.7-2.34-11.6-5.16-2.34,.94-4.69,1.72-7.03,2.34-2.34,.62-5.55,1.41-9.61,2.34-.94-1.88-1.88-3.36-2.81-4.45,2.03-.16,4.57-.47,7.62-.94s5.98-1.25,8.79-2.34c-1.56-1.41-2.97-3.44-4.22-6.09-3.44,.47-6.72,.94-9.84,1.41l-.7-3.98c2.81-.15,5.94-.39,9.38-.7-.47-1.25-.94-3.05-1.41-5.39,1.72,0,3.28-.08,4.69-.23,.31,2.66,.62,4.3,.94,4.92,3.59-.31,6.41-.62,8.44-.94-.78-1.41-1.64-2.66-2.58-3.75,.94-.31,2.03-.78,3.28-1.41h-19.45c.15-2.5,.23-5.94,.23-10.31s-.08-8.12-.23-10.78h9.38c.31-1.25,.62-2.58,.94-3.98h-5.62c-2.66,0-5.39,.08-8.2,.23v-3.75c2.81,.16,5.54,.23,8.2,.23h18.28Zm-.23,13.59v-2.81h-18.52v2.81h18.52Zm0,5.62v-2.81h-18.52v2.81h18.52Zm0,5.86v-2.81h-18.52v2.81h18.52Z"/><path class="t" d="M760.23,638.02c-.47,2.11-.94,4.18-1.41,6.21h11.72c-.78,4.69-1.64,8.91-2.58,12.66s-2.42,7.66-4.45,11.72c2.5,2.19,5.39,4.84,8.67,7.97-1.41,1.09-2.66,2.27-3.75,3.52-2.34-2.97-4.77-5.54-7.27-7.73-2.03,2.5-4.06,4.73-6.09,6.68-2.03,1.95-4.14,3.79-6.33,5.51-.63-1.09-1.8-2.27-3.52-3.52,2.34-1.41,4.57-3.01,6.68-4.8,2.11-1.79,4.1-4.02,5.98-6.68-2.81-2.19-5.86-4.3-9.14-6.33,2.03-4.69,3.67-9.76,4.92-15.23-2.5,0-4.69,.08-6.56,.23v-4.22c1.88,.16,4.37,.23,7.5,.23,.94-3.75,1.72-8.2,2.34-13.36,1.56,.47,3.36,.94,5.39,1.41-.94,1.72-1.64,3.63-2.11,5.74Zm-.23,27.77c1.09-1.88,2.11-4.37,3.05-7.5,.94-3.12,1.72-6.56,2.34-10.31h-7.27c-1.41,5.16-2.81,9.69-4.22,13.59,2.34,1.56,4.37,2.97,6.09,4.22Zm38.67-29.3v4.22c-1.56,1.25-3.28,2.62-5.16,4.1-1.88,1.49-3.83,3.09-5.86,4.8v7.27h6.33c2.03,0,4.3-.08,6.8-.23v4.45c-2.5-.15-4.77-.23-6.8-.23h-6.33v16.88c0,2.97-.9,4.84-2.7,5.62-1.8,.78-4.26,1.41-7.38,1.88-.47-1.72-1.17-3.52-2.11-5.39,3.44,0,5.58-.2,6.45-.59,.86-.39,1.29-1.52,1.29-3.4v-15h-3.52c-3.28,0-6.49,.08-9.61,.23v-4.45c3.12,.16,6.09,.23,8.91,.23h4.22c0-2.34-.04-4.18-.12-5.51-.08-1.33-.27-2.38-.59-3.16,1.41-.94,3.05-2.15,4.92-3.63,1.88-1.48,3.52-2.93,4.92-4.34h-14.06c-1.56,0-3.67,.08-6.33,.23v-4.22c2.66,.16,4.76,.23,6.33,.23h20.39Z"/><path class="t" d="M818.12,636.96h7.03l-1.64,28.12h-3.75l-1.64-28.12Zm0,35.62h6.8v7.03h-6.8v-7.03Z"/></g></svg>