<?xml version="1.0" encoding="UTF-8"?><svg id="g" xmlns="http://www.w3.org/2000/svg" xmlns:xlink="http://www.w3.org/1999/xlink" viewBox="0 0 1366 768"><defs><style>.j{fill:#fff;}.k{fill:url(#h);}</style><linearGradient id="h" x1="864.83" y1="904.15" x2="779.04" y2="659.04" gradientUnits="userSpaceOnUse"><stop offset="0" stop-color="#120605"/><stop offset=".27" stop-color="#daccba"/><stop offset=".64" stop-color="#120605"/><stop offset=".76" stop-color="#daccba"/><stop offset=".99" stop-color="#120605"/></linearGradient></defs><rect class="k" x="-.15" y=".71" width="1366" height="767"/><g><path class="j" d="M796.54,221.79c4.48,0,7.76,.07,9.84,.21,2.07,.14,3.42,.37,4.03,.71,.61,.33,1.4,.9,2.37,1.7,.97,.8,1.7,1.58,2.2,2.32,.5,.75,.75,1.48,.75,2.2,0,1.44-.64,2.16-1.91,2.16-.55,0-1.23-.18-2.03-.54-.8-.36-2.12-.54-3.94-.54-3.49,0-6.86,.72-10.13,2.16,.11,.72,.17,1.36,.17,1.91,.94-.17,1.92-.25,2.95-.25s1.76,.37,2.2,1.12c.44,.75,.66,1.78,.66,3.11,0,.83-.36,1.43-1.08,1.78-.72,.36-2.44,.82-5.15,1.37,.05,1,.08,2.41,.08,4.23,3.04-.05,5.24,.22,6.6,.83,1.36,.61,2.35,1.61,2.99,2.99,.63,1.38,.95,2.32,.95,2.82,0,.83-.42,1.25-1.25,1.25-1.55,0-2.66-.19-3.32-.58-.66-.39-1.52-.58-2.57-.58s-2.32,.11-3.82,.33c.05,4.54-.39,10.13-1.33,16.77-.94,6.64-1.65,9.96-2.12,9.96s-.95-1.47-1.45-4.4c-.5-2.93-.75-6.31-.75-10.13s.05-7.66,.17-11.54c-2.27,.44-4.07,1.77-5.4,3.98-1,1.72-2.41,2.57-4.23,2.57-1.44,0-2.5-.61-3.2-1.83-.69-1.22-1.04-2.53-1.04-3.94s.17-2.54,.5-3.4c.33-.86,.88-2.12,1.66-3.78,.77-1.66,1.44-2.82,1.99-3.49,.55-.66,1.35-1.27,2.41-1.83-.55-1.05-.83-1.98-.83-2.78s.14-1.4,.41-1.79c.28-.39,.59-.58,.96-.58s.68,.08,.95,.25c.28,.17,.58,.25,.91,.25,.77,0,2.35-.44,4.73-1.33-.06-1.22-.08-2.18-.08-2.9,0-2.21,.47-3.49,1.41-3.82,.94-.33,1.6-.5,1.99-.5,1.44,0,2.35,.89,2.74,2.66,2.93-1.83,4.95-2.97,6.06-3.44,1.11-.47,1.66-.84,1.66-1.12,0-.61-1.11-.91-3.32-.91s-4.93,.2-8.13,.58c-4.54,4.81-8.04,8.36-10.5,10.62-2.46,2.27-4.26,3.69-5.4,4.27-1.13,.58-2.23,.87-3.28,.87s-2.14-.19-3.28-.58c-1.13-.39-1.95-.88-2.45-1.49-.39,.33-1.02,.72-1.91,1.16-1.11,3.27-2.1,6.99-2.99,11.16-.89,4.18-1.24,6.68-1.08,7.51,.05,.33,.08,.66,.08,1s-.19,1.01-.58,2.03c-.39,1.02-.8,2.81-1.25,5.35-.17,.77-.48,1.16-.95,1.16s-1.07-.32-1.78-.95c-.72-.64-1.32-1.54-1.78-2.7-.47-1.16-.86-2.17-1.16-3.03-.3-.86-.46-3-.46-6.43,0-5.7,.19-9.89,.58-12.57,.39-2.68,.59-5.6,.62-8.76,.03-3.15,.18-5.85,.46-8.09,.28-2.24,.61-3.65,1-4.23,.39-.58,.97-.87,1.74-.87,1.88,0,2.82,1.3,2.82,3.9,0,.78-.06,1.85-.17,3.24,.5,1.22,1.15,2.13,1.95,2.74,.8,.61,1.54,.91,2.2,.91,.94,0,1.41-.72,1.41-2.16,0-.88-.22-1.63-.66-2.24-1.55-2.21-2.38-5.45-2.49-9.71,0-.55-.37-.88-1.12-1-.75-.11-1.84-.87-3.28-2.28-1.44-1.41-2.16-2.31-2.16-2.7s.22-.53,.66-.42c.44,.11,.83,.17,1.16,.17,1.11,0,2.27-.43,3.49-1.29,1.22-.86,1.99-1.81,2.32-2.86,.17-.5,.58-.75,1.25-.75,2.49,0,4.32,.44,5.48,1.33,1.16,.89,1.74,1.95,1.74,3.2s-.51,2.64-1.54,4.19c-1.02,1.55-1.67,2.73-1.95,3.53-.28,.8-.42,1.49-.42,2.08s.08,.93,.25,1.04c.17,.11,.48,.64,.95,1.58,.47,.94,.84,1.83,1.12,2.66,3.37-9.02,6.6-15.76,9.67-20.21s5.21-6.68,6.43-6.68c.5,0,1.51,.44,3.03,1.33,1.52,.89,2.49,1.55,2.91,1.99,.42,.44,.62,1.05,.62,1.83,0,1.99-.36,3.43-1.08,4.32,2.71,1,4.33,1.98,4.86,2.95,.52,.97,.79,1.91,.79,2.82s-.26,1.88-.79,2.91c-.53,1.02-1.31,2.34-2.37,3.94Zm-30.63,19.09c-1.55-1.33-2.9-4.09-4.07-8.3-2.05,8.13-3.07,14.61-3.07,19.42,0,1.72,.05,2.96,.17,3.73,.11,.78,.32,1.16,.62,1.16s.55-.12,.75-.37c.19-.25,.72-1.51,1.58-3.78,.86-2.27,2.2-6.23,4.03-11.87Zm20.17-13.86c-2.49,.5-4.23,.75-5.23,.75s-1.77-.07-2.32-.21c-.55-.14-1.18-.21-1.87-.21s-1.95,.22-3.78,.66c-.17,3.27-1.13,6.7-2.9,10.29,2.05,.28,4.36-.53,6.93-2.41,2.57-1.88,5.63-4.84,9.17-8.88Zm5.48-13.7c-1.49,1.16-4.29,3.68-8.38,7.55-.72,.66-1.22,1-1.49,1-.61,0-.91-1.77-.91-5.31,0-.94,.1-1.7,.29-2.28,.19-.58,.83-1.26,1.91-2.03,1.08-.77,2.24-2.09,3.49-3.94,1.25-1.85,1.87-3.31,1.87-4.36s-.36-1.58-1.08-1.58c-1.22,0-3.2,2.39-5.93,7.18-2.74,4.79-5.3,10.31-7.68,16.56,3.93-2.66,9.24-4.07,15.94-4.23,2.16-3.93,3.24-6.42,3.24-7.47,0-.61-.42-.97-1.24-1.08Zm0,29.22c-.89,.11-1.88,.17-2.99,.17s-2.3-.28-3.57-.83c-1.05,.28-1.58,1.47-1.58,3.57,0,1.11,.14,2.46,.42,4.07,1.44-.55,3.98-1.47,7.64-2.74,0-1.99,.03-3.4,.08-4.23Z"/><path class="j" d="M798.37,338.74c-1.99-3.65-6.28-6.03-12.86-7.14-3.76-.66-7.22-1.65-10.38-2.95-3.15-1.3-5.09-2.37-5.81-3.2-.72-.83-1.08-1.69-1.08-2.57,0-4.04,.97-7.68,2.91-10.92,1.94-3.24,5.84-5.75,11.7-7.55,5.86-1.8,12.23-2.7,19.09-2.7,2.88,0,5.16,.21,6.85,.62,1.69,.42,2.82,.86,3.4,1.33,.58,.47,.87,1.15,.87,2.03,0,1.66-.24,3.06-.71,4.19-.47,1.13-1.02,1.9-1.66,2.28-.64,.39-1.84,.91-3.61,1.58-1.66,.55-2.89,1.02-3.69,1.41-.8,.39-2.12,1.16-3.94,2.32-.78,.5-1.33,.8-1.66,.91-.28,0-.42-.11-.42-.33,0-.5,.44-1.17,1.33-2.03,.88-.86,2.1-1.7,3.65-2.53,1.49-.77,2.24-1.3,2.24-1.58s-1.02-.42-3.07-.42c-7.36,0-13.7,.97-19.01,2.9-5.31,1.94-7.97,4.07-7.97,6.39,0,.44,.15,.87,.46,1.29,.3,.42,.65,.68,1.04,.79l9.3,2.74c3.1,.89,5.89,1.91,8.38,3.07s4.45,2.32,5.89,3.49c1.44,1.16,2.46,2.31,3.07,3.44,.61,1.13,.91,2.34,.91,3.61,0,2.38-.96,4.9-2.86,7.55-1.91,2.66-5.67,4.72-11.29,6.18-5.62,1.47-11.39,2.2-17.31,2.2-4.87,0-8.67-.47-11.41-1.41-2.74-.94-4.11-2.27-4.11-3.98s.79-3.4,2.37-5.23c1.58-1.83,3.42-2.74,5.52-2.74,1.38,0,2.07,.14,2.07,.42,0,.11-.33,.28-1,.5-.94,.39-1.55,.65-1.83,.79-.28,.14-.42,.35-.42,.62,0,.55,2.41,.83,7.22,.83,6.25,0,10.87-.19,13.86-.58,2.99-.39,5.6-1.05,7.84-1.99,2.24-.94,4.27-2.16,6.1-3.65Z"/><path class="j" d="M780.44,415.1c-.22-6.69-.44-10.8-.66-12.33-.22-1.52-.8-2.81-1.74-3.86-1.61-1.77-2.41-4.12-2.41-7.05,0-1.16,.43-1.74,1.29-1.74s2.78,.66,5.77,1.99,4.94,2.42,5.85,3.28c.91,.86,1.37,1.66,1.37,2.41s-.1,1.73-.29,2.95c-.19,1.22-.39,3.5-.58,6.85-.19,3.35-.29,6.14-.29,8.38s.07,5.06,.21,8.47c.14,3.4,.26,5.42,.37,6.06,.11,.64,.17,1.54,.17,2.7s-.25,2.67-.75,4.52c-.5,1.85-1.23,3.24-2.2,4.15-.97,.91-1.76,1.37-2.37,1.37s-1.33-.35-2.16-1.04c-.83-.69-2.32-1.87-4.48-3.53l-5.81-4.56c-1.77-1.38-3.11-2.71-4.03-3.98-.91-1.27-1.45-2.43-1.62-3.49-.17-.11-.36-.17-.58-.17s-.4,.35-.54,1.04c-.14,.69-.31,1.15-.5,1.37-.19,.22-.61,.55-1.25,1-.64,.44-1.16,1-1.58,1.66s-.76,1.25-1.04,1.74c.11,.61-.29,1.7-1.2,3.28s-1.4,2.42-1.45,2.53c-.39,1.11-.78,1.83-1.16,2.16-.39,.33-.89,.5-1.49,.5-1.11,0-2.24-1.19-3.4-3.57-1.16-2.38-1.74-4.84-1.74-7.39,0-1.44,.29-2.23,.87-2.37,.58-.14,1.01-.39,1.29-.75,.28-.36,.62-1.15,1.04-2.37,.42-1.22,1.08-2.95,1.99-5.19,.91-2.24,1.44-3.46,1.58-3.65,.14-.19,.26-.29,.37-.29,.33,0,.75,.72,1.25,2.16,.5,1.44,.69,3.49,.58,6.14,6.36-3.76,13.47-6.89,21.33-9.38Zm.25,1.99c-4.1,1.72-8.36,4.57-12.78,8.55,1.11,.94,2.82,1.83,5.15,2.66s3.91,1.25,4.77,1.25,1.44-.12,1.74-.37c.3-.25,.5-.61,.58-1.08,.08-.47,.19-2,.33-4.61,.14-2.6,.21-4.73,.21-6.39Zm15.94-4.23c1,.11,1.89,.07,2.7-.12,.8-.19,2.06-.29,3.78-.29s3.62,.3,5.73,.91c2.1,.61,3.85,2.16,5.23,4.65,1.38,2.49,2.07,4.76,2.07,6.81s-.69,3.93-2.07,5.64c-1.38,1.72-2.48,2.57-3.28,2.57s-1.56-.58-2.28-1.74c-.72-1.16-1.88-2.27-3.49-3.32-2.21-1.38-3.96-2.85-5.23-4.4-1.27-1.55-1.91-2.5-1.91-2.86s.25-.54,.75-.54,1.25,.08,2.24,.25l2.66,.5c.39,0,.73-.15,1.04-.46,.3-.3,.46-.69,.46-1.16s-.43-1.25-1.29-2.32c-.86-1.08-1.67-1.88-2.45-2.41-.78-.53-1.74-.83-2.91-.91s-1.74-.34-1.74-.79Z"/><path class="j" d="M775.3,502.83c0,.94-.66,3.02-1.99,6.22-1.33,3.21-2.64,6.88-3.94,11-1.3,4.12-2.01,6.93-2.12,8.42-.22,2.71-.76,4.07-1.62,4.07s-1.99-1.02-3.4-3.07c-1.41-2.05-2.12-4.86-2.12-8.42s.61-8.81,1.83-15.73c.05-.33,.08-.64,.08-.91,0-.72-.11-1.08-.33-1.08s-.42,.14-.58,.42c-1.11,1.77-2.35,3.14-3.73,4.11-1.38,.97-2.75,1.45-4.11,1.45s-2.88-.76-4.57-2.28c-1.69-1.52-2.53-3.58-2.53-6.18,0-1,.14-1.49,.42-1.49s.53,.17,.75,.5c.77,1.16,1.88,1.74,3.32,1.74,.72,0,1.44-.15,2.16-.46,.72-.3,1.92-.98,3.61-2.03,1.69-1.05,2.81-1.83,3.36-2.32,.55-.5,.9-1.04,1.04-1.62,.14-.58,.57-1.08,1.29-1.49,.72-.42,1.55-.62,2.49-.62,1.66,0,2.96,.48,3.9,1.45,.94,.97,1.41,2.28,1.41,3.94s-.39,3.1-1.16,4.32c-.78,1.22-1.61,3.62-2.49,7.22-.89,3.6-1.33,6.75-1.33,9.46,0,.28,.11,.42,.33,.42s.47-.14,.75-.42,1.33-2.13,3.15-5.56c1.83-3.43,3.51-6.92,5.06-10.46,.33-.72,.59-1.08,.79-1.08s.29,.17,.29,.5Zm-10.21-25.48c.22,0,.59,.08,1.12,.25,.53,.17,1.6,.25,3.24,.25s3.17,.76,4.61,2.28c1.44,1.52,2.16,2.98,2.16,4.36,0,.66-.22,1.23-.66,1.7-.44,.47-.95,.76-1.54,.87-.58,.11-1.65,.17-3.2,.17s-2.68,.28-3.4,.83c-1.49,1.16-2.49,1.74-2.99,1.74s-.86-.25-1.08-.75c-.06-.17-.24-.25-.54-.25s-.94,.22-1.91,.66c-.97,.44-1.59,.66-1.87,.66s-.42-.11-.42-.33,.5-.66,1.49-1.33c1-.66,2.2-1.59,3.61-2.78,1.41-1.19,2.12-2,2.12-2.45s-.3-1.16-.91-2.16c-.61-1-.91-1.87-.91-2.61s.36-1.12,1.08-1.12Zm16.93,8.47c2.93-5.15,9.77-7.72,20.5-7.72,2.49,0,4.98,1.13,7.47,3.4,2.49,2.27,3.73,4.21,3.73,5.81,0,.83-.28,1.72-.83,2.66-1.22,2.27-1.83,6.94-1.83,14.03,0,2.1,.12,5.93,.37,11.5,.25,5.56,.55,9.49,.91,11.79,.36,2.3,.54,4.22,.54,5.77s-.42,3.25-1.24,5.1c-.83,1.85-1.63,2.78-2.41,2.78-.89,0-1.78-.78-2.7-2.32-.91-1.55-2.23-3.22-3.94-5.02-1.72-1.8-3.2-3.17-4.44-4.11-1.25-.94-1.87-1.49-1.87-1.66s.11-.25,.33-.25c.44,0,1.44,.35,2.99,1.04,1.55,.69,2.96,1.04,4.23,1.04s2.05-.25,2.32-.75c.22-4.37,.33-7.91,.33-10.62s-.1-5.88-.29-9.5c-.19-3.62-.29-8.81-.29-15.56,0-4.04-.33-6.9-1-8.59-.66-1.69-1.99-2.53-3.98-2.53-2.55,0-4.98,.3-7.3,.91,2.32,1.72,3.79,3,4.4,3.86,.61,.86,1,2.06,1.16,3.61,2.49,1.44,3.73,2.71,3.73,3.82,0,.72-.51,1.3-1.54,1.74-1.02,.44-2.03,1.03-3.03,1.74-.17,.5-.33,1.08-.5,1.74,.55-.11,1-.17,1.33-.17,.77,0,1.8,.53,3.07,1.58,1.27,1.05,1.91,1.9,1.91,2.53s-.61,1.09-1.83,1.37c-2.44,.55-5.15,1.94-8.13,4.15-.44,.66-.97,1-1.58,1-.83,0-1.41-.53-1.74-1.58-1.88,.89-3.32,1.44-4.32,1.66-.28,.28-.42,.69-.42,1.25s.47,1.47,1.41,2.74c4.54-2.71,7.76-4.07,9.67-4.07s3.46,.55,4.65,1.66c1.19,1.11,1.78,2.27,1.78,3.49,0,.78-.25,1.38-.75,1.83-.5,.44-1.13,1.25-1.91,2.41-.78,1.16-1.36,2.17-1.74,3.03-.39,.86-.55,1.41-.5,1.66,.05,.25,.08,.53,.08,.83s-.35,.44-1.04,.42c-.69-.03-1.2-.04-1.54-.04-1.38,0-3.82,.53-7.3,1.58-.33,.44-.78,.66-1.33,.66s-1.12-.48-1.7-1.45c-.58-.97-.96-2.09-1.12-3.36-.17-1.27-.54-2.64-1.12-4.11-.58-1.47-.87-2.75-.87-3.86,0-1.99,.8-3.62,2.41-4.9-1.77-.55-2.93-1-3.49-1.33-.11,4.43-.53,9.31-1.24,14.65-.72,5.34-1.44,8.4-2.16,9.17-.72,.77-1.54,1.16-2.45,1.16s-1.37-.25-1.37-.75,.17-1.05,.5-1.66c.88-1.6,1.4-3.42,1.54-5.44,.14-2.02,.3-6.16,.5-12.41,.19-6.25,.66-11.77,1.41-16.56,.75-4.79,1.33-7.73,1.74-8.84,.42-1.11,1.01-1.77,1.78-1.99Zm.33,18.51c.66,.06,1.31-.04,1.95-.29,.64-.25,1.71-.98,3.24-2.2,1.52-1.22,2.35-1.94,2.49-2.16,.14-.22,.21-.4,.21-.54s-.03-.21-.08-.21c-.44-.17-1.37-.65-2.78-1.45-1.41-.8-2.64-1.59-3.69-2.37l-1.33,9.21Zm8.55-13.2c-.33-1.94-.82-3.43-1.45-4.48-.64-1.05-1.31-1.58-2.03-1.58-1.72,.28-3.15,1.3-4.32,3.07,.39,2.05,.84,3.28,1.37,3.69,.53,.42,1.2,.62,2.03,.62s2.3-.44,4.4-1.33Zm-1.66,30.88c2.05-.33,3.44-.64,4.19-.91,.75-.28,1.42-.84,2.03-1.7,.61-.86,.91-1.56,.91-2.12,0-.83-.5-1.13-1.49-.91-2.6,.66-4.56,1.05-5.89,1.16,0,.94,.08,2.44,.25,4.48Z"/><path class="j" d="M694.04,102.4c3.76-.39,6.65-.58,8.67-.58s3.53,.4,4.52,1.2c1,.8,1.92,1.69,2.78,2.66,.86,.97,1.29,2.13,1.29,3.49s-.28,2.23-.83,2.61c-.44,.33-.97,1.41-1.58,3.24-.61,1.83-2.2,4.05-4.77,6.68-2.57,2.63-4.22,3.94-4.94,3.94s-1.47-.47-2.24-1.41c-.78-.94-2.05-2.27-3.82-3.98-1.77-1.71-3.38-3.07-4.81-4.07,.11,4.59,.17,8.49,.17,11.7s-.3,5.81-.91,7.8c-.61,1.99-1.2,2.99-1.78,2.99s-1.16-.9-1.74-2.7c-.58-1.8-.87-4.62-.87-8.47s.17-7.57,.5-11.16c-5.04,5.64-9.49,9.45-13.36,11.41-3.87,1.96-6.89,2.95-9.05,2.95-.44,0-.66-.08-.66-.25,0-.33,.69-.97,2.08-1.91,3.15-2.1,6.64-4.86,10.46-8.26,3.82-3.4,7.25-6.88,10.29-10.42-.06-.33-.06-.75,0-1.25-2.66,.55-5.38,1.49-8.18,2.82-2.79,1.33-5.08,2.67-6.85,4.03-1.77,1.36-3.03,2.03-3.78,2.03s-1.27-.55-1.58-1.66c-.31-1.11-.46-2.08-.46-2.91,0-1.83,.47-3.35,1.41-4.56,1.83-2.32,2.74-3.91,2.74-4.77s-.5-1.95-1.49-3.28c-.33-.5-.5-.97-.5-1.41,0-1.27,.8-1.91,2.41-1.91,1,0,2.16,.3,3.49,.91,5.31-.61,9.74-1.55,13.28-2.82v-4.32c-1.61,.72-2.92,1.08-3.94,1.08s-2.6-.23-4.73-.71c-2.13-.47-3.2-1.05-3.2-1.74s.32-1.19,.95-1.49c.64-.3,1.95-.59,3.94-.87-2.77-.94-4.59-1.88-5.48-2.82-2.71,2.21-4.3,3.68-4.77,4.4-.47,.72-1.02,1.08-1.66,1.08s-1.2-.59-1.7-1.78c-.5-1.19-.75-2.67-.75-4.44,0-3.26,.94-5.2,2.82-5.81,.61-.17,1.54-1.22,2.78-3.15,1.25-1.94,1.87-3.51,1.87-4.73,0-.5-.19-.98-.58-1.45-.39-.47-.58-.86-.58-1.16s.26-.46,.79-.46,1.58,.4,3.15,1.2c1.58,.8,2.93,1.95,4.07,3.44,1.13,1.49,1.7,2.78,1.7,3.86s-1,2.42-2.99,4.03c.17,.11,.36,.17,.58,.17,1.33,0,4.01-3.01,8.05-9.05-.28,4.59-1.8,9.91-4.57,15.94l.91-.25c.55-1.71,1.74-2.57,3.57-2.57,.72,0,1.44,.22,2.16,.66,3.65-.94,6.58-3.54,8.8-7.8-1.99,1.05-3.62,2.13-4.9,3.24-.39,.33-.83,.5-1.33,.5-1.55,0-2.32-1.46-2.32-4.4,0-1.49,.1-2.7,.29-3.61,.19-.91,.71-1.79,1.54-2.62s1.59-1.92,2.28-3.28c.69-1.36,1.04-2.43,1.04-3.24s-.18-1.46-.54-1.99c-.36-.53-.54-1.05-.54-1.58s.58-.79,1.74-.79c1.88,0,3.5,.72,4.86,2.16,1.36,1.44,2.03,3.07,2.03,4.9,0,.94-.19,1.83-.58,2.66,.83-.05,1.77-.08,2.82-.08s2.25,.15,3.61,.46c1.36,.3,2.25,.66,2.7,1.08,.44,.42,.66,1.02,.66,1.83s-.4,1.44-1.2,1.91c-.8,.47-1.65,.65-2.53,.54-.89-.11-1.83-.17-2.82-.17s-2.07,.28-3.24,.83c1.71,2.38,2.57,4.07,2.57,5.06s-.37,1.88-1.12,2.66c-.75,.78-1.26,1.19-1.54,1.25,2.77,2.66,4.15,4.79,4.15,6.39,0,.61-.32,1.2-.95,1.79-.64,.58-1.48,1.23-2.53,1.95,.11,.61,.17,1.13,.17,1.58,0,1.66-.78,2.49-2.32,2.49-1.05,0-1.94,.19-2.66,.58-1.49,.89-2.73,1.33-3.69,1.33s-1.73-.05-2.28-.17c0,1.72-.03,2.99-.08,3.82,.66-.22,1.13-.33,1.41-.33,.66-1.49,1.3-2.24,1.91-2.24s1.38,.53,2.32,1.58Zm-10.46-2.24c-3.82,1.11-6.27,1.99-7.35,2.66s-2.31,1.05-3.69,1.16c-.17,.22-.4,.76-.71,1.62-.3,.86-.54,1.4-.71,1.62,4.65-1.38,8.74-2.35,12.28-2.91,.17-2.27,.22-3.65,.17-4.15Zm4.9,13.7c2.21,1.88,4.79,2.82,7.72,2.82,2.21,0,3.71-.26,4.48-.79,.77-.53,1.52-1.66,2.24-3.4,.72-1.74,1.08-2.97,1.08-3.69,0-1.71-1.52-2.57-4.56-2.57-1.66,0-3.76,.25-6.31,.75-1.22,1.77-2.77,3.46-4.65,5.06,.11,.61,.11,1.22,0,1.83Zm4.73-26.81c-1.55-.05-2.74,.39-3.57,1.33,.33,.44,.5,1,.5,1.66s-.39,1.83-1.16,3.49c3.1-1.94,4.65-3.68,4.65-5.23,0-.44-.14-.86-.42-1.24Z"/><path class="j" d="M703.83,176.93c1.27,0,2.61,.33,4.03,1,1.41,.66,2.66,1.4,3.74,2.2,1.08,.8,1.83,1.62,2.24,2.45s.62,1.96,.62,3.4-.33,2.46-1,3.07c-.66,.61-2.19,.91-4.56,.91l-8.96-.42c-1.88,0-3.71,.2-5.48,.58-1.77,.39-3.76,.98-5.98,1.79-2.21,.8-3.44,1.2-3.69,1.2s-.37-.03-.37-.08c0-.28,1.38-1.19,4.15-2.74,2.77-1.55,4.15-2.48,4.15-2.78s-.47-.46-1.41-.46c-3.04,0-7.44,.44-13.2,1.33-5.76,.89-9.68,2.44-11.79,4.65-1.61,1.72-3.4,2.57-5.4,2.57-1.38,0-3.02-.86-4.9-2.57-1.88-1.71-3.22-3.4-4.03-5.06-.8-1.66-1.2-2.92-1.2-3.78s.23-1.29,.71-1.29,.93,.19,1.37,.58c.44,.39,.94,.58,1.49,.58s1.19-.05,1.91-.17c9.57-1.71,19.41-3.31,29.51-4.77,10.1-1.47,16.12-2.2,18.05-2.2Z"/><path class="j" d="M685.24,263.83c1.44-1.27,2.7-2.17,3.78-2.7,1.08-.53,3.26-1.26,6.56-2.2,3.29-.94,5.85-1.41,7.68-1.41s3.91,.58,6.27,1.74c2.35,1.16,3.9,2.24,4.65,3.24s1.12,2.6,1.12,4.81l-.17,6.64c0,3.15,.22,8.6,.66,16.35,.44,7.75,.66,12.46,.66,14.15s-.25,3.21-.75,4.56c-.5,1.36-1.13,2.63-1.91,3.82-.78,1.19-1.36,1.78-1.74,1.78-.28,0-.93-.51-1.95-1.54s-2.26-1.96-3.69-2.82c-1.44-.86-2.55-2.12-3.32-3.78-.66-1.38-1.63-2.71-2.91-3.98-.39-.39-.58-.77-.58-1.16s.21-.58,.62-.58,.87,.11,1.37,.33c3.71,1.77,6.23,2.66,7.55,2.66,.88,0,1.33-.53,1.33-1.58,0-3.37-.08-7.83-.25-13.36l-.5-14.11c-.11-3.87-.36-6.52-.75-7.93-.39-1.41-.91-2.54-1.58-3.4-.66-.86-1.23-1.47-1.7-1.83-.47-.36-1.04-.54-1.7-.54s-1.55,.19-2.66,.58c-1.11,.39-3.32,1.37-6.64,2.95-3.32,1.58-5.53,2.39-6.64,2.45-2.05,.17-3.18,.69-3.4,1.58,2.82,1.27,4.23,2.85,4.23,4.73,0,.5-.17,1.15-.5,1.95-.33,.8-.72,2.31-1.16,4.52,1.27-.17,2.35-.25,3.24-.25,1.88,0,4.15,.53,6.81,1.58,.61-2.99,.91-5.12,.91-6.39,0-.77-.22-1.62-.66-2.53-.44-.91-.66-1.79-.66-2.62,0-1.49,.19-2.24,.58-2.24s1.54,.55,3.44,1.66c1.91,1.11,3.21,2.37,3.9,3.78,.69,1.41,1.04,2.66,1.04,3.73s-.78,3.61-2.32,7.59c3.1,1.77,4.65,4.29,4.65,7.55,0,.83-.12,1.7-.37,2.62-.25,.91-.75,1.37-1.49,1.37s-2.95-1.47-6.6-4.4c-3.87,3.87-8.44,5.95-13.69,6.23,0,3.82-.06,6.29-.17,7.43-.11,1.13-.36,1.7-.75,1.7s-1.2-.58-2.45-1.74c-1.24-1.16-1.87-2.83-1.87-5.02s.3-5.69,.91-10.5c-.5-.11-.89,.39-1.16,1.49-.78,3.15-2.42,7.18-4.94,12.08-2.52,4.9-4.41,7.35-5.69,7.35-.66,0-1.51-.61-2.53-1.83-1.02-1.22-1.54-2.52-1.54-3.9s.37-2.97,1.12-4.77c.75-1.8,1.2-3.97,1.37-6.52-3.38,2.55-5.92,3.82-7.64,3.82s-2.57-1.11-2.57-3.32c0-1.6,.15-2.68,.46-3.24,.3-.55,.9-.88,1.78-1,1.33-.22,2.53-.79,3.61-1.7,1.08-.91,2.67-2.81,4.77-5.69-3.04,.55-5.23,.83-6.56,.83s-1.99-.39-1.99-1.16,.23-1.74,.71-2.9c.47-1.16,1.29-1.88,2.45-2.16,.55-.11,1.08-.29,1.58-.54s1.22-.76,2.16-1.54c.94-.77,2.12-1.81,3.53-3.11,1.41-1.3,2.17-2.02,2.28-2.16,.11-.14,.17-.29,.17-.46,0-.66-1.11-1.41-3.32-2.24-6.86,7.8-12.33,13.47-16.39,17.01-4.07,3.54-6.85,5.31-8.34,5.31-.66,0-1-.24-1-.71s.22-.87,.66-1.2c1.44-1.22,3.04-2.91,4.81-5.06,1.77-2.16,4.15-5.39,7.14-9.71,2.99-4.32,6.25-8.88,9.79-13.7,3.54-4.81,5.4-7.36,5.56-7.64,.17-.28,.25-.63,.25-1.08s-.21-1.02-.62-1.74c-.41-.72-.62-1.26-.62-1.62s.15-.54,.46-.54,.62,.11,.95,.33c1.49,1.05,3.04,1.87,4.65,2.45,1.6,.58,2.66,1.55,3.15,2.91,.5,1.36,.75,2.3,.75,2.82s-.18,.98-.54,1.37c-.36,.39-1.05,.82-2.08,1.29-1.02,.47-1.91,1.07-2.66,1.78-.75,.72-1.7,1.99-2.86,3.82,3.32-1.66,5.85-2.49,7.59-2.49s2.72,.86,2.95,2.57c.88,.28,1.52,.61,1.91,1Zm-6.23,24.98c-2.05,.17-4.15,.8-6.31,1.91-.06,1.99-.19,3.46-.42,4.4-.22,.94-.33,1.49-.33,1.66s.05,.25,.17,.25c.5,0,2.79-2.74,6.89-8.22Zm-5.4-5.15c2.27-.55,3.73-.83,4.4-.83s1.15,.07,1.45,.21c.3,.14,.5,.62,.58,1.45s.23,1.25,.46,1.25,.64-.66,1.25-1.99c.61-1.33,1.13-3.11,1.58-5.35,.44-2.24,.66-3.93,.66-5.06s-.21-2.01-.62-2.62c-.42-.61-.62-1.27-.62-1.99s.08-1.6,.25-2.66c-3.6,2.44-6.56,4.62-8.88,6.56,.72-.05,1.55-.08,2.49-.08s1.66,.3,2.16,.91c.5,.61,.75,1.16,.75,1.66,0,1-.75,2.12-2.24,3.36-1.49,1.25-2.41,2.16-2.74,2.74s-.64,1.4-.91,2.45Zm20.75,3.82c-2.55-1.66-5.06-3.18-7.55-4.57-.44,2.27-.69,6.25-.75,11.95,1.71-.39,3.12-1.11,4.23-2.16,1.11-1.05,2.46-2.79,4.07-5.23Z"/><path class="j" d="M683.33,383.27c4.26-1.33,8.44-1.99,12.53-1.99,1.05,0,1.91,.39,2.57,1.16,.66,.78,1,1.54,1,2.28s-.44,1.41-1.33,1.99c-.89,.58-2.27,.87-4.15,.87l-3.15-.08c-1.22,0-2.73,.21-4.52,.62-1.8,.42-3.04,.86-3.73,1.33-.69,.47-1.12,1.23-1.29,2.28-.17,1.05-.25,2.09-.25,3.11s.33,1.8,1,2.32c.66,.53,2.02,1,4.07,1.41,2.05,.42,4.47,.62,7.26,.62s5.75-.26,8.88-.79c3.12-.53,5.41-1.16,6.85-1.91,1.44-.75,2.72-2.09,3.86-4.03,1.13-1.94,1.87-3.71,2.2-5.31,.33-1.6,.57-2.41,.71-2.41s.26,.24,.37,.71c.11,.47,.39,.96,.83,1.45,.44,.5,.69,1.52,.75,3.07,.17,3.82,.52,6,1.08,6.56,.39,.39,.58,1.01,.58,1.87s-.42,1.85-1.25,2.99c-.83,1.13-3.22,1.98-7.18,2.53-3.96,.55-7.51,.83-10.67,.83s-6.78-.22-10.87-.66c-4.1-.44-6.75-.82-7.97-1.12-1.22-.3-2.28-1-3.2-2.08s-1.51-2.2-1.78-3.36c-.44-1.99-.66-3.87-.66-5.64-3.65,1.72-7,3.57-10.04,5.56-.83,.55-1.58,.83-2.24,.83s-1.63-.55-2.91-1.66c-1.27-1.11-1.91-2.08-1.91-2.91s.97-1.6,2.91-2.32c1.94-.72,4.77-2.06,8.51-4.03,3.73-1.96,5.6-3.42,5.6-4.36,0-.39-.26-.51-.79-.37-.53,.14-1.01,.21-1.45,.21-1.99,0-3.61-.79-4.86-2.37s-1.87-2.75-1.87-3.53c0-.28,.19-.42,.58-.42l1.58,.25c1,0,2.52-.34,4.57-1.04,2.05-.69,3.93-1.59,5.64-2.7-.39-1.38-1.72-2.16-3.98-2.32-1.72,.5-3.4,.75-5.06,.75-.5,0-1.25-.07-2.24-.21-1-.14-1.49-.32-1.49-.54s.72-.52,2.16-.91c2.27-.61,4.79-1.71,7.55-3.32-1.49-2.16-2.49-5.01-2.99-8.55-.5,1.38-1.73,2.71-3.69,3.98-1.96,1.27-3.33,1.91-4.11,1.91s-1.47-.9-2.08-2.7c-.61-1.8-.91-3.17-.91-4.11s.48-1.62,1.45-2.03c.97-.42,2.43-1.71,4.4-3.9,1.96-2.19,2.95-3.89,2.95-5.1,0-.5-.12-1.13-.37-1.91-.25-.77-.37-1.42-.37-1.95s.3-.79,.91-.79c1.05,0,2.39,.51,4.03,1.54,1.63,1.02,2.95,2.78,3.94,5.27,.5,1.33,1.04,1.99,1.62,1.99s1.23-1,1.95-2.99c1.44-3.87,2.89-6.72,4.36-8.55,1.47-1.83,3.03-2.74,4.69-2.74s3.37,.48,5.15,1.45c1.77,.97,2.66,2.09,2.66,3.36,0,.61-.42,1.3-1.25,2.08-.83,.78-1.33,1.69-1.49,2.74,1.05-.39,2.29-.73,3.73-1.04,1.44-.3,2.6-.46,3.49-.46s1.94,.57,3.15,1.7c1.22,1.13,1.83,1.99,1.83,2.57s-.36,1.12-1.08,1.62c-.72,.5-1.36,.79-1.91,.87-.55,.08-1.78,.12-3.69,.12s-2.86,.28-2.86,.83c0,.39,.37,.86,1.12,1.41,.75,.55,1.12,1.55,1.12,2.99,0,.78-.14,1.4-.42,1.87-.28,.47-1.05,1.04-2.32,1.7-1.27,.66-2.44,1.13-3.49,1.41,.61,.66,.91,1.41,.91,2.24s-.35,1.56-1.04,2.2c-.69,.64-1.54,.96-2.53,.96-4.15,0-7.05,.44-8.71,1.33,.66,.78,1.13,1.52,1.41,2.24,.5-.11,1.05-.17,1.66-.17,1.55,0,3.03,.37,4.44,1.12,1.41,.75,2.12,1.58,2.12,2.49s-.37,1.66-1.12,2.24c-.75,.58-2.59,1.48-5.52,2.7-2.16,.89-3.46,2.49-3.9,4.81Zm8.3-24.9c1.38-.77,2.34-1.58,2.86-2.41,.52-.83,.79-1.42,.79-1.78s-.26-.54-.79-.54-1.48,.5-2.86,1.49c-1.38,1-2.28,1.49-2.7,1.49s-.98-.39-1.7-1.16c-.72-.77-1.08-1.96-1.08-3.57s.1-2.57,.29-2.9c.19-.33,.59-.68,1.2-1.04,.61-.36,1.41-1.55,2.41-3.57,1-2.02,1.49-3.5,1.49-4.44,0-.5-.26-.75-.79-.75s-1.37,.5-2.53,1.49-2.1,2.88-2.82,5.64c-.5,1.88-1.04,3.29-1.62,4.23-.58,.94-1.4,3.07-2.45,6.39-1.05,3.32-1.58,5.34-1.58,6.06s.08,1.13,.25,1.25c3.93-2.99,6.42-4.86,7.47-5.6,1.05-.75,1.77-1.12,2.16-1.12s1.05,.28,1.99,.83Z"/><path class="j" d="M689.64,454.32c2.71,1.11,5.7,3.38,8.96,6.81,1.94,1.99,4.54,4.05,7.8,6.18,3.26,2.13,6.25,3.71,8.96,4.73,2.71,1.02,4.94,2.1,6.68,3.24,1.74,1.13,2.75,1.9,3.03,2.28,.28,.39,.42,.83,.42,1.33s-.33,.87-1,1.12-2.55,.37-5.64,.37-5.3-.15-6.6-.46c-1.3-.3-2.75-1-4.36-2.08-1.61-1.08-3.54-2.75-5.81-5.02-2.27-2.27-5.09-5.37-8.47-9.3-1.99-2.27-3.56-3.75-4.69-4.44-1.13-.69-3.09-1.29-5.85-1.78-2.93,1.61-5.48,3.1-7.64,4.48-.61,1.49-1.08,2.52-1.41,3.07,1.94,0,4.37-1.05,7.3-3.15,.77-.5,2.05-.75,3.82-.75s3.37,.44,4.81,1.33c1.44,.89,2.16,1.74,2.16,2.57,0,.72-.57,1.26-1.7,1.62-1.13,.36-2.81,1.34-5.02,2.95,0,.61-.08,1.25-.25,1.91,1.83-.28,3.67-.42,5.52-.42s3.28,.5,4.27,1.49,1.49,1.77,1.49,2.32c0,.83-1.3,1.34-3.9,1.54-2.6,.2-4.62,.65-6.06,1.37-1.44,.72-2.99,1.8-4.65,3.24-.55,4.48-2.02,7.93-4.4,10.33-2.38,2.41-5.23,3.61-8.55,3.61-1.94,0-2.9-.3-2.9-.91s.26-1.38,.79-2.32c.53-.94,.95-1.41,1.29-1.41s.52,.12,.58,.37c.05,.25,.19,.37,.41,.37,.66,0,1.6-.55,2.82-1.66,1.22-1.11,2.41-2.77,3.57-4.98-2.16,.11-4.1-.36-5.81-1.41-1.72-1.05-2.57-2.09-2.57-3.11s.61-1.81,1.83-2.37c1.22-.55,2.93-1.76,5.15-3.61,2.21-1.85,3.32-3.08,3.32-3.69,0-.22-.17-.47-.5-.75-1-.72-2.19-1.66-3.57-2.82-3.71,5.98-7,10.21-9.88,12.7-2.88,2.49-5.77,4.15-8.67,4.98-2.9,.83-4.65,1.25-5.23,1.25s-.87-.05-.87-.17c0-.22,.72-.64,2.16-1.25,3.26-1.38,6.47-3.8,9.63-7.26,3.15-3.46,5.89-7.68,8.22-12.66-2.16-.33-3.81-.75-4.94-1.25-1.13-.5-1.7-1.17-1.7-2.03s.17-1.47,.5-1.83c.33-.36,1.02-.59,2.08-.71,1.05-.11,2.46-.5,4.23-1.16,1.77-.66,3.08-1.38,3.94-2.16,.86-.77,1.29-1.37,1.29-1.78s-.36-.73-1.08-.96c-1.77-.5-3.06-1-3.86-1.49-.8-.5-1.2-1.06-1.2-1.7s.1-1.15,.29-1.54c.19-.39,.42-.61,.66-.66,.25-.05,.91-.08,1.99-.08s2.31-.44,3.69-1.33c1.38-.88,2.07-1.44,2.07-1.66s-.08-.36-.25-.42c-3.32-.88-5.85-2.03-7.59-3.44s-2.61-2.27-2.61-2.57,.61-.46,1.83-.46c3.15,0,7.22-1.36,12.2-4.07,0-2.82,.08-4.84,.25-6.06,.17-1.22,.46-2.02,.87-2.41,.41-.39,1.23-.58,2.45-.58s2.37,.5,3.44,1.49,1.54,2.16,1.37,3.49c.61-.05,1.22-.08,1.83-.08,1.88,0,3.68,.42,5.4,1.24,1.71,.83,2.57,1.73,2.57,2.7s-.75,1.58-2.24,1.83c-1.49,.25-3.22,1.23-5.19,2.95-1.96,1.72-2.95,2.67-2.95,2.86s.48,.36,1.45,.5c.97,.14,1.87,.57,2.7,1.29,.83,.72,1.25,1.4,1.25,2.03s-.25,1.07-.75,1.29c-3.71,1.99-5.67,3.43-5.89,4.32,3.49-.72,5.8-1.08,6.93-1.08s2.28,.5,3.44,1.49c1.16,1,1.74,1.8,1.74,2.41,0,.89-1.13,1.22-3.4,1-.55-.05-1.05-.08-1.49-.08-1.55,0-2.99,.3-4.32,.91Zm8.8,38.1c0,1.49-.33,2.24-1,2.24-.83,0-2.45-1-4.86-2.99-2.41-1.99-4.44-4.07-6.1-6.22-1.66-2.16-2.49-3.49-2.49-3.98s.53-.75,1.58-.75c4.15,0,7.33,1.01,9.54,3.03,2.21,2.02,3.32,4.91,3.32,8.67Z"/><path class="j" d="M680.92,530.93c-.5,3.21-1.19,6.81-2.07,10.79-.61,2.38-1.41,4.34-2.41,5.89l-6.31,8.55c-.66,.94-1.2,1.55-1.62,1.83-.42,.28-.9,.42-1.45,.42-1.05,0-1.84-.62-2.37-1.87-.53-1.24-.79-2.48-.79-3.69,0-2.05,.58-3.22,1.74-3.53,1.16-.3,2.37-1.4,3.61-3.28,1.25-1.88,1.87-3.02,1.87-3.4s-.12-.58-.37-.58-.65,.21-1.2,.62c-.55,.42-1.38,.82-2.49,1.2-1.11,.39-1.91,.96-2.41,1.7-.5,.75-1.44,2.67-2.82,5.77,0,2.6,.05,4.39,.17,5.35,.11,.97,.28,1.74,.5,2.32,.22,.58,.33,1.07,.33,1.45s-.3,.91-.91,1.58c-.61,.66-1.13,1-1.58,1s-1.07-.3-1.87-.91c-.8-.61-1.59-1.81-2.37-3.61-.78-1.8-1.16-4.11-1.16-6.93,0-4.15-.89-8.69-2.66-13.61-.17-.44-.25-.79-.25-1.04s.08-.37,.25-.37c.28,0,1.48,.8,3.61,2.41,2.13,1.61,3.67,3.18,4.61,4.73,1.55-2.93,3.57-5.52,6.06-7.76,2.49-2.24,4.34-3.36,5.56-3.36,.77,0,1.83,.51,3.15,1.54,1.33,1.02,2.05,1.92,2.16,2.7,1.66-2.43,2.82-4.4,3.49-5.89Zm14.77,27.14c3.54,0,6.25,.12,8.13,.37,1.88,.25,3.69,.87,5.44,1.87,1.74,1,3.15,2.12,4.23,3.36,1.08,1.25,1.62,2.25,1.62,3.03,0,1.16-1.05,4.07-3.15,8.71-2.1,4.65-4.25,7.75-6.43,9.3-2.19,1.55-4.14,2.32-5.85,2.32-.66,0-1.19-.11-1.58-.33-3.49-1.94-7.64-4.04-12.45-6.31-.89-.39-1.33-.8-1.33-1.25s.44-.66,1.33-.66c.28,0,.58,.03,.91,.08,3.43,.55,6.15,.83,8.17,.83s3.79-.25,5.31-.75c1.52-.5,3.15-2.2,4.9-5.1,1.74-2.91,2.61-5.3,2.61-7.18s-.78-3.1-2.32-3.65c-1.55-.55-3.76-.83-6.64-.83-6.7,0-12.31,1.74-16.85,5.23-.06,.66-.08,1.23-.08,1.7s.03,.84,.08,1.12c7.69-2.16,12.39-3.24,14.11-3.24s3.1,.3,4.15,.91c1.05,.61,1.58,1.33,1.58,2.16,0,1.49-.17,2.41-.5,2.74s-1.19,.5-2.57,.5c-4.43,0-8.6,.53-12.53,1.58-3.93,1.05-8.22,2.74-12.87,5.06-1.22,.61-2.28,.91-3.2,.91s-1.45-.33-1.62-1c-.33-1.44-.78-2.68-1.33-3.74-.11-.17-.17-.46-.17-.87s.28-.88,.83-1.41c.55-.53,1-.71,1.33-.54,.33,.17,.69,.25,1.08,.25s1.29-.28,2.7-.83c1.41-.55,2.56-.97,3.44-1.24,.88-.28,2.27-.53,4.15-.75-.22-1.49-.57-2.77-1.04-3.82-.47-1.05-.71-3.02-.71-5.89,0-5.15,.54-10.28,1.62-15.4s1.7-8.98,1.87-11.58c.05-1.44,.37-2.2,.95-2.28s1.91-1.67,3.98-4.77c2.08-3.1,3.11-5.06,3.11-5.89s-.54-1.63-1.62-2.41c-1.08-.77-1.81-1.16-2.2-1.16l-.5,.17c-.39,0-.58-.18-.58-.54s.22-.77,.66-1.25c.44-.47,1.52-.71,3.24-.71s3.65,.69,5.81,2.08c2.16,1.38,3.24,2.61,3.24,3.69s-.42,2.06-1.24,2.95l-8.8,9.54c-.06,.33-.08,.57-.08,.71s.05,.21,.17,.21,.33-.11,.66-.33c3.04-2.27,4.98-3.65,5.81-4.15s1.66-.75,2.49-.75c2.27,0,4.45,1.19,6.56,3.57,.94,1.11,1.6,1.69,1.99,1.74,.66,.11,1,.75,1,1.91,0,.78-.3,2.01-.91,3.69-.61,1.69-1.2,3.94-1.78,6.76s-1.37,4.95-2.37,6.39c-1,1.44-2.99,3.15-5.98,5.15Zm-5.48,.75c-1-1.05-1.65-1.83-1.95-2.32-.3-.5-.53-1.12-.66-1.87-.14-.75-.53-1.83-1.16-3.24-.64-1.41-1.18-2.48-1.62-3.2-1.22,5.2-2.02,9.43-2.41,12.7,2.82-.88,5.42-1.58,7.8-2.08Zm0-12.7c-.22-.44-.75-.88-1.58-1.33-.83-.44-1.38-.66-1.66-.66-.66,0-1,.36-1,1.08,0,.55,.64,1.69,1.91,3.4,.61-1.05,1.38-1.88,2.32-2.49Zm6.56-2.16c1.11-2.49,1.66-5.09,1.66-7.8,0-1.27-.14-1.91-.42-1.91s-.55,.17-.83,.5c-1.11,1.27-2.53,1.91-4.27,1.91s-3.78-.28-6.1-.83c-.06,1.33-.22,2.77-.5,4.32,1.6-.39,2.96-.58,4.07-.58,2.93,0,5.06,1.47,6.39,4.4Zm-1,3.07c-2.38,.17-4.26,1.19-5.64,3.07,1.27,.66,2.28,1,3.03,1s1.62-1.35,2.61-4.07Z"/><path class="j" d="M693.79,631.27c.94-.17,1.94-.25,2.99-.25,4.2,0,7.55,1.01,10.04,3.03,2.49,2.02,3.73,3.92,3.73,5.69,0,.61-.22,1.33-.66,2.16-.44,.83-.75,1.63-.91,2.41-.17,.78-.33,2.03-.5,3.78-.17,1.74-.91,4.32-2.24,7.72-1.33,3.4-2.84,6.38-4.52,8.92-1.69,2.55-2.92,3.82-3.69,3.82-.5,0-1-.47-1.49-1.41-1-1.88-1.9-3.11-2.7-3.69-.8-.58-2.52-.87-5.15-.87s-4.62,.21-5.98,.62c-1.36,.42-3.13,1.11-5.31,2.08-2.19,.97-3.67,1.74-4.44,2.32-.78,.58-1.36,.87-1.74,.87-1,0-2.66-1.26-4.98-3.78-2.32-2.52-3.82-6.13-4.48-10.83-.17-1.27-.73-3.44-1.7-6.52-.97-3.07-1.73-5.3-2.28-6.68-.17-.44-.25-.86-.25-1.25s.21-.58,.62-.58,1.47,.43,3.15,1.29c1.69,.86,3.08,1.9,4.19,3.11,1.27-3.04,2.52-5.01,3.73-5.89,1.22-.88,3.04-1.41,5.48-1.58,.05-1.99-.25-4.23-.91-6.72-.66-2.49-1.23-4.03-1.7-4.61-.47-.58-.71-1.11-.71-1.58s.15-.88,.46-1.25c.3-.36,.71-.54,1.2-.54s1.59,.51,3.28,1.54c1.69,1.02,2.91,2.14,3.65,3.36,.75,1.22,1,2.41,.75,3.57s-.43,2.85-.54,5.06c1.11-.11,2.23-.4,3.36-.87,1.13-.47,2.25-.82,3.36-1.04,.17-2.99,.25-5.49,.25-7.51s-.22-3.55-.66-4.61c-.83-1.88-1.25-3.46-1.25-4.73,0-1,.5-1.49,1.49-1.49s2.64,.87,4.94,2.61c2.29,1.74,3.44,3.47,3.44,5.19,0,.22-.44,3.27-1.33,9.13Zm-16.35,28.8c-1-1.71-1.69-3.51-2.07-5.4-2.6,.11-4.46-.61-5.56-2.16-1.11-1.55-1.66-2.77-1.66-3.65,0-.44,.29-.76,.87-.96,.58-.19,2.37-.59,5.35-1.2,0-3.21,.05-5.37,.17-6.47-1,.17-1.99,.25-2.99,.25-3.1,0-4.65,.94-4.65,2.82,0,.39,.08,.97,.25,1.74,.17,.78,.26,1.69,.29,2.74,.03,1.05,.04,2.19,.04,3.4s.21,2.79,.62,4.73c.42,1.94,.79,3.24,1.12,3.9s1.05,1,2.16,1,3.13-.25,6.06-.75Zm8.22-9.21c-1.77,.44-3.49,1.05-5.15,1.83-.17,2.44-.58,4.79-1.25,7.06,1.05-.17,1.83-.25,2.32-.25,.94-.33,1.77-.79,2.49-1.37,.72-.58,1.17-1.7,1.37-3.36,.19-1.66,.26-2.96,.21-3.9Zm1.08-14.19c-1.44,.33-3.68,1.11-6.72,2.32-.06,.78-.08,1.84-.08,3.2s.17,2.59,.5,3.69c2.38-.55,4.32-.91,5.81-1.08,.22-4.81,.39-7.52,.5-8.13Zm7.64,22.08c1,.33,1.74,.5,2.24,.5s.88-.21,1.16-.62c.28-.42,.98-3.29,2.12-8.63,1.13-5.34,1.7-9,1.7-11s-.51-3.18-1.54-3.57c-1.02-.39-1.96-.58-2.82-.58s-2.2,.11-4.03,.33c-.44,3.27-.75,6.28-.91,9.05,1.33,.44,2.31,.89,2.95,1.33,.64,.44,.96,.94,.96,1.49s-.29,1.12-.87,1.7-1.23,.87-1.95,.87-1.3-.03-1.74-.08c-.5,3.04-1.19,6-2.08,8.88,.77-.11,1.55-.11,2.32,0,.22-.66,.51-1,.87-1s.9,.44,1.62,1.33Z"/><path class="j" d="M586.89,177.26c2.66-.44,5.53-.66,8.63-.66,6.58,0,11.09,1.07,13.53,3.2,2.43,2.13,3.65,3.97,3.65,5.52,0,.78-.29,1.4-.87,1.87-.58,.47-1.24,.71-1.99,.71s-1.43-.05-2.03-.17c-1.66-.39-3.86-.58-6.6-.58s-4.5,.03-5.27,.08c.72,1.49,1.08,2.5,1.08,3.03s-.35,1.47-1.04,2.82c-.69,1.36-1.55,2.86-2.57,4.52-1.02,1.66-1.77,2.75-2.24,3.28-.47,.53-.87,.79-1.2,.79s-.73-.14-1.2-.42c-.47-.28-1.26-.42-2.37-.42s-2.44,.36-3.98,1.08c-1.55,.72-2.75,1.08-3.61,1.08s-1.76-.11-2.7-.33c-.44,1.55-.58,3.35-.42,5.4,4.54-1.27,8.09-2.23,10.67-2.86,2.57-.63,4.5-.95,5.77-.95,1.94,0,3.75,.61,5.44,1.83,1.69,1.22,2.53,2.63,2.53,4.23,0,.61-.19,1.16-.58,1.66-2.05,2.6-3.28,4.23-3.69,4.9s-.62,1.2-.62,1.62,.15,.82,.46,1.2c.3,.39,.46,.77,.46,1.16s-.26,.76-.79,1.12c-.53,.36-1.05,.54-1.58,.54s-.95-.03-1.29-.08c-2.05-.39-3.98-.58-5.81-.58-3.15,0-5.33,.55-6.52,1.66-1.19,1.11-2.17,1.66-2.95,1.66s-1.37-.51-1.78-1.54c-.42-1.02-1-2.75-1.74-5.19-.75-2.44-1.12-5.33-1.12-8.67s.18-7.59,.54-12.74c.36-5.15,.72-8.24,1.08-9.3,.36-1.05,.73-1.58,1.12-1.58,.66,0,1.33,1.47,1.99,4.4,3.6-2.05,6.45-3.58,8.55-4.61,2.1-1.02,3.71-1.54,4.81-1.54s2.27,.44,3.49,1.33c1.22-.22,2.96-.77,5.23-1.66,2.27-.88,3.53-1.44,3.78-1.66,.25-.22,.37-.5,.37-.83,0-.72-.62-1.3-1.87-1.74-1.25-.44-3.06-.66-5.44-.66s-5.09,.39-8.13,1.16c-1.44,1.38-2.64,2.39-3.61,3.03-.97,.64-1.88,.95-2.74,.95s-2.01-.25-3.44-.75c-3.32,.44-5.78,.82-7.39,1.12-1.61,.3-2.75,.58-3.44,.83-.69,.25-1.18,.58-1.45,1-.28,.42-.89,1.84-1.83,4.27-.94,2.44-1.58,4.23-1.91,5.4s-.53,2.19-.58,3.07c-.11,1.22-.55,1.83-1.33,1.83-.94,0-1.8-1.08-2.57-3.24-.78-2.16-1.16-3.65-1.16-4.48s.3-1.54,.91-2.12c.61-.58,1.13-1.47,1.58-2.66,.44-1.19,.66-2.27,.66-3.24s-.11-1.77-.33-2.41c-.22-.64-.33-1.08-.33-1.33s.15-.37,.46-.37,.88,.15,1.74,.46c.86,.3,1.62,1.01,2.28,2.12,2.82-1.88,7.97-3.46,15.44-4.73,.11-.39-.33-1.08-1.33-2.07-1.44-.05-2.38-.19-2.82-.42-.44-.22-.98-.93-1.62-2.12-.64-1.19-1.34-1.78-2.12-1.78s-2.63,1.36-5.56,4.07c-.78,.72-1.38,1.08-1.83,1.08-.83,0-1.25-1.36-1.25-4.07,0-1,.14-1.83,.42-2.49,.28-.66,.61-1.02,1-1.08,1.33-.22,2.56-1.16,3.69-2.82,1.13-1.66,1.7-2.79,1.7-3.4s-.14-1.11-.42-1.49c-.28-.39-.42-.66-.42-.83,0-.61,.54-.91,1.62-.91s2.28,.44,3.61,1.33c1.33,.89,1.99,2.02,1.99,3.4,0,.66-.22,1.36-.66,2.08,.17,1.05,.47,1.58,.91,1.58,.88,0,2.35-1.91,4.4-5.73,.77-1.44,1.26-2.16,1.45-2.16s.29,.17,.29,.5-.33,1.59-1,3.78c-.66,2.19-1.13,3.86-1.41,5.02-.28,1.16-.39,2.27-.33,3.32,1.66,.22,2.96,.53,3.9,.91,.94,.39,2.16,1.22,3.65,2.49Zm-8.3,41.42c3.98-.28,6.81-.84,8.47-1.7,1.66-.86,2.81-2.09,3.44-3.69,.64-1.6,.95-2.75,.95-3.44s-.32-1.04-.95-1.04-2.46,.37-5.48,1.12c-3.02,.75-5.88,1.62-8.59,2.61,.39,1.72,1.11,3.76,2.16,6.14Zm-1.41-20.17c3.49-.22,6.54-1.13,9.17-2.74,2.63-1.6,3.94-3.49,3.94-5.64,0-.44-.18-.66-.54-.66s-1.51,.66-3.44,1.99c-.83,.61-1.87,.91-3.11,.91s-3.17-.33-5.77-1c.11,1.27,.17,2.42,.17,3.44s-.14,2.26-.42,3.69Zm19.51-38.35c1.66-.28,3.04-.42,4.15-.42s2.27,.3,3.49,.91c1.22,.61,1.83,1.26,1.83,1.95s-.21,1.24-.62,1.66-1.29,.69-2.61,.83c-1.33,.14-2.37,.33-3.11,.58-.75,.25-1.48,.65-2.2,1.2,1.22,1.16,1.83,2.44,1.83,3.82,0,.72-.19,1.3-.58,1.74-.39,.44-1.42,.97-3.11,1.58-1.69,.61-2.93,.91-3.73,.91s-1.55-.15-2.24-.46c-.69-.3-1.04-.71-1.04-1.2s.62-1,1.87-1.49c1.25-.5,1.87-1.05,1.87-1.66s-.28-1.41-.83-2.41c-.94,.66-1.69,1.27-2.24,1.83-.55,.55-1.02,.83-1.41,.83-1.05,0-1.58-1.08-1.58-3.24s.18-3.62,.54-4.4c.36-.77,1.17-1.49,2.45-2.16,.17-2.32-.25-4.04-1.25-5.15-.66-.66-1-1.11-1-1.33s.14-.33,.41-.33c.83,0,2.39,.68,4.69,2.03,2.3,1.36,3.78,2.81,4.44,4.36Z"/><path class="j" d="M561.57,292.8c-1.99,1.99-3.6,2.99-4.81,2.99-1.83,0-2.74-2.02-2.74-6.06,0-2.16,.18-3.53,.54-4.11,.36-.58,1.15-.95,2.37-1.12,2.05-.33,4.15-1.54,6.31-3.61,2.16-2.08,3.24-3.31,3.24-3.69s-.11-.58-.33-.58-2.16,1.19-5.81,3.57c-.5,.33-.97,.5-1.41,.5-1,0-1.78-.94-2.37-2.82-.58-1.88-.87-3.53-.87-4.94s.75-2.48,2.24-3.2c1.66-.77,3.31-1.89,4.94-3.36,1.63-1.46,2.67-2.49,3.11-3.07,.44-.58,.66-1.09,.66-1.54s-.11-.75-.33-.91c-.94-.83-2.01-1.94-3.2-3.32-1.19-1.38-1.78-2.19-1.78-2.41s.25-.33,.75-.33l1.66,.17c1.16,0,2.96-.55,5.39-1.66,2.43-1.11,4-2.02,4.69-2.74,.69-.72,1.6-1.08,2.74-1.08s2.24,.53,3.32,1.58c1.08,1.05,1.62,2.09,1.62,3.11s-.42,1.9-1.25,2.62c-3.15,2.6-6.34,6-9.54,10.21,1.77-.11,3.22,.32,4.36,1.29,1.13,.97,1.7,2.09,1.7,3.36s-.44,2.66-1.33,4.15c-.89,1.49-2.57,3.51-5.06,6.06-.22,.22-.33,.47-.33,.75s.3,.5,.91,.66c3.43,.78,5.15,3.4,5.15,7.88,0,1.94-.47,4.81-1.41,8.63-.94,3.82-2.28,7.19-4.03,10.13-1.74,2.93-3.11,4.4-4.11,4.4-1.33,0-2.53-1.8-3.61-5.39-1.08-3.6-1.54-8.96-1.37-16.1Zm2.66-1.58c-.22,1.72-.33,3.35-.33,4.9s.37,3.02,1.12,4.4c.75,1.38,1.34,2.08,1.78,2.08,.22,0,.47-.36,.75-1.08,.28-.72,.64-2.34,1.08-4.86,.44-2.52,.66-4.47,.66-5.85,0-1.16-.22-1.74-.66-1.74s-1.15,.17-2.12,.5c-.97,.33-1.73,.89-2.28,1.66Zm35.86,5.56c-.28-1.55-.6-2.71-.95-3.49-.36-.77-.54-1.36-.54-1.74s.33-.58,1-.58,2.25,.69,4.77,2.08c2.52,1.38,4.23,2.88,5.15,4.48,.91,1.61,1.37,3.47,1.37,5.6s-.3,3.9-.91,5.31c-.61,1.41-1.26,2.12-1.95,2.12s-1.43-.47-2.2-1.41c-.78-.94-1.33-2.05-1.66-3.32s-.66-2.16-1-2.66-.8-.75-1.41-.75c-3.54,1.16-6.32,2.21-8.34,3.15-2.02,.94-3.87,2.13-5.56,3.57-1.69,1.44-3.07,2.16-4.15,2.16s-1.94-.61-2.57-1.83c-.64-1.22-.95-2.95-.95-5.19s.29-3.96,.87-5.15c.58-1.19,1.73-2.31,3.44-3.36,1.16-.77,2.85-2.16,5.06-4.15,2.21-1.99,3.32-3.12,3.32-3.4s-.21-.42-.62-.42-1.25,.29-2.49,.87c-1.25,.58-2.23,1.12-2.95,1.62-.72,.5-1.36,.75-1.91,.75s-.95-.43-1.2-1.29c-.25-.86-.37-2.32-.37-4.4s.83-3.36,2.49-3.86c.94-.28,2.32-1.34,4.15-3.2,1.83-1.85,2.74-2.89,2.74-3.11,0-.17-.1-.25-.29-.25s-.57,.11-1.12,.33c-2.27,.83-4.23,1.25-5.89,1.25s-3.13-.76-4.4-2.28c-1.27-1.52-1.91-3.1-1.91-4.73s.76-3.4,2.28-5.31c1.52-1.91,5.55-4.52,12.08-7.84,.88-.44,1.33-.93,1.33-1.45s-.4-.98-1.2-1.37c-.8-.39-1.56-.58-2.28-.58s-1.36,.17-1.91,.5c-1.33,.78-2.25,1.16-2.78,1.16s-.79-.08-.79-.25c0-.5,1.09-1.4,3.28-2.7,2.19-1.3,4.36-1.95,6.52-1.95s3.82,.32,4.98,.96c1.16,.64,2.23,1.65,3.2,3.03,.97,1.38,1.45,2.6,1.45,3.65,0,1.27-.75,1.8-2.24,1.58-1.49-.22-2.55-.33-3.15-.33s-1.29,.25-2.03,.75-1.69,.79-2.82,.87c-1.13,.08-2.46,.49-3.98,1.2-1.52,.72-2.56,1.08-3.11,1.08l-1.08-.17c-.89,0-2.05,.49-3.49,1.45-1.44,.97-2.16,2.26-2.16,3.86,0,.55,.29,1,.87,1.33,.58,.33,1.4,.5,2.45,.5s2.13-.22,3.24-.66l5.15-2.08c2.32-1,4.08-1.8,5.27-2.41,1.19-.61,1.92-1.13,2.2-1.58,.55-.88,1.49-1.33,2.82-1.33s2.6,.47,3.82,1.41c1.22,.94,1.83,1.99,1.83,3.15,0,.94-.64,1.73-1.91,2.37-1.27,.64-2.56,1.62-3.86,2.95-1.3,1.33-3.5,4.01-6.6,8.05,1.55-.55,2.89-.83,4.03-.83s2.19,.37,3.15,1.12c.97,.75,1.45,1.72,1.45,2.91s-.68,2.31-2.03,3.36c-1.36,1.05-3,2.64-4.94,4.77-1.94,2.13-3.5,3.72-4.69,4.77-1.19,1.05-3.22,2.63-6.1,4.73-.17,.11-.25,.29-.25,.54s.22,.37,.66,.37c.72,0,4.84-1.44,12.37-4.32Z"/><path class="j" d="M588.38,381.44c1.71-.94,3.9-1.6,6.56-1.99,2.66-.39,4.65-.58,5.98-.58,2.21,0,4.14,1.07,5.77,3.2,1.63,2.13,2.45,4,2.45,5.6s-.36,3.27-1.08,4.98c-.72,1.72-1.74,2.57-3.07,2.57-.72,0-2.27-.4-4.65-1.2-2.38-.8-4.7-1.71-6.97-2.74-2.27-1.02-3.4-1.69-3.4-1.99s.36-.43,1.08-.37h1c1.66,0,3.29-.29,4.9-.87,1.6-.58,2.6-1.09,2.99-1.54,.39-.44,.58-1.06,.58-1.87s-.1-1.58-.29-2.32c-.19-.75-.71-1.12-1.54-1.12-2.27,0-5.62,1.11-10.04,3.32,.17,2.16,.25,4.66,.25,7.51s-.3,5.57-.91,8.18c-.61,2.6-1.22,3.9-1.83,3.9-.28,0-.69-.19-1.25-.58-2.88-2.1-5.64-4.1-8.3-5.98-2.66-1.88-4.16-2.91-4.52-3.07-.36-.17-.75-.25-1.16-.25s-.84,.17-1.29,.5c-.44,.33-1.72,2.41-3.82,6.22-.83,1.49-1.37,2.38-1.62,2.66-.25,.28-.6,.42-1.04,.42-1.05,0-2.21-1-3.49-2.99-1.27-1.99-1.91-3.64-1.91-4.94s.44-2.97,1.33-5.02c.88-2.05,1.65-3.32,2.28-3.82,.64-.5,1.37-.75,2.2-.75,1.27,0,2.13,.44,2.57,1.33,.33,.61,.77,.91,1.33,.91,1.33,0,6.31-1.91,14.94-5.73,0-5.2,.08-8.88,.25-11.04-9.3,6.31-14.82,10.13-16.56,11.45s-2.74,2.08-2.99,2.24-.57,.25-.95,.25c-.94,0-1.77-.69-2.49-2.08-.72-1.38-1.08-3.03-1.08-4.94s.18-3.22,.54-3.94c.36-.72,.91-1.12,1.66-1.2,.75-.08,1.31-.24,1.7-.46,.39-.22,.83-.68,1.33-1.37,.5-.69,1.34-2.12,2.53-4.27,1.19-2.16,1.95-3.57,2.28-4.23s.5-1.19,.5-1.58c0-1.05-.79-1.67-2.37-1.87-1.58-.19-2.7-.59-3.36-1.2-.66-.61-1-1.62-1-3.03s.47-2.74,1.41-3.98c.94-1.25,1.98-1.89,3.11-1.95,1.13-.05,2.34-.48,3.61-1.29,1.27-.8,3.04-2.14,5.31-4.03,2.27-1.88,3.6-3,3.98-3.36,.39-.36,.58-.69,.58-1s-.08-.58-.25-.83-.25-.54-.25-.87,.3-.64,.91-.91c.61-.28,1.59-.42,2.95-.42s2.74,.36,4.15,1.08c1.41,.72,2.38,1.63,2.9,2.74,.52,1.11,.79,2.09,.79,2.95s-.68,1.79-2.03,2.78c-1.36,1-6.82,4.01-16.39,9.05,1.11,1.99,1.66,4.11,1.66,6.35s-.61,4.88-1.83,7.93l9.79-4.56c.05-2.21-.01-3.6-.21-4.15-.19-.55-.86-1.16-1.99-1.83-1.13-.66-1.7-1.41-1.7-2.24,0-.28,.15-.64,.46-1.08,.3-.44,.66-.72,1.08-.83,.42-.11,1.35-.17,2.82-.17s2.75,.68,3.86,2.03c1.11,1.36,2.41,2.56,3.9,3.61,1.16-.39,2.06-.58,2.7-.58s1.56,.28,2.78,.83c1.22,.55,1.96,1.41,2.24,2.57,.28,1.16,.42,2.05,.42,2.66s-.36,1.05-1.08,1.33c-.72,.28-1.8,.42-3.24,.42s-3.38,.44-5.81,1.33c-.5,4.65-.72,8.69-.66,12.12Zm-5.98,6.31c-3.98,1.33-6.97,2.99-8.96,4.98,.39,.83,2.46,1.25,6.22,1.25,.88,0,1.49-.14,1.83-.42,.33-.28,.59-.86,.79-1.74,.19-.88,.24-2.24,.12-4.07Z"/><path class="j" d="M573.11,445.02c1.11,.39,1.88,.78,2.32,1.16,.44,.39,.75,1.18,.91,2.37,.17,1.19,.25,2.13,.25,2.82s-.39,1.23-1.16,1.62c-.94,.44-2.27,1.38-3.98,2.82-.39,2.32-.61,5.09-.66,8.3,1.16-1.16,2.02-1.74,2.57-1.74,.88,0,1.33,.28,1.33,.83s-.37,1.38-1.12,2.49c-.75,1.11-1.7,2.19-2.86,3.24-.06,1.16-.08,2.66-.08,4.48s.14,4.07,.42,6.72c.28,2.66,.42,5.12,.42,7.39,0,6.75-.39,10.13-1.16,10.13-.33,0-.83-.66-1.49-1.99s-1.77-3.08-3.32-5.27c-1.55-2.19-2.7-3.62-3.44-4.32-.75-.69-1.12-1.12-1.12-1.29s.21-.25,.62-.25,1.16,.32,2.24,.96c1.08,.64,1.87,.95,2.37,.95,.83,0,1.24-.5,1.24-1.49,0-5.98-.14-10.26-.42-12.87-5.59,4.7-8.83,7.58-9.71,8.63-.39,.5-.8,.75-1.24,.75-.89,0-1.66-.91-2.32-2.74-.66-1.83-1-3.29-1-4.4,0-1.71,.64-2.57,1.91-2.57l1.08,.17c.5,0,1.47-.36,2.9-1.08,1.44-.72,4.18-2.21,8.22-4.48l-.25-6.56c-1.27,1.55-2.19,2.5-2.74,2.86-.55,.36-1.3,.54-2.24,.54s-2.37-.66-4.27-1.99c-1.91-1.33-3.2-2.6-3.86-3.82-.66-1.22-1-2.09-1-2.61s.36-.75,1.08-.66c.72,.08,1.35,.12,1.91,.12,4.48,0,8.19-2.08,11.12-6.22,.17-2.71,.3-5.42,.42-8.13,0-1.6-.39-3.37-1.16-5.31-.78-1.94-1.16-3.07-1.16-3.4s.15-.5,.46-.5,.73,.26,1.29,.79c.55,.53,1.74,.98,3.57,1.37,.94,.22,1.83,1.16,2.66,2.82s1.25,3.13,1.25,4.4c0,.44-.06,.78-.17,1-.39,.78-.58,2.1-.58,3.98Zm24.48,37.52c-.33,1.22-1.05,2.68-2.16,4.4-.11,.11-.17,.28-.17,.5,0,1.16,.9,1.96,2.7,2.41,1.8,.44,4,.66,6.6,.66s5.03-.46,7.3-1.37c2.27-.91,3.4-2.92,3.4-6.02l-.08-2.9c0-1.38,.25-2.08,.75-2.08,.33,0,.62,.54,.87,1.62s.77,2.96,1.58,5.64c.8,2.68,1.37,4.25,1.7,4.69,.33,.44,.5,.83,.5,1.16,0,.83-1.54,1.76-4.61,2.78-3.07,1.02-6.18,1.54-9.34,1.54s-5.82-.24-8.01-.71c-2.19-.47-3.75-.97-4.69-1.49-.94-.53-1.61-1.45-1.99-2.78-.39-1.33-.58-2.52-.58-3.57,0-2.27,.66-4.59,1.99-6.97,.11-.22,.17-.44,.17-.66,0-.66-.42-1-1.25-1-.44,0-.78,.17-1,.5-1.61,3.1-4.03,6.02-7.26,8.76-3.24,2.74-5.66,4.11-7.26,4.11-.5,0-.75-.17-.75-.5s.3-.75,.91-1.25c2.27-1.94,5.26-5.87,8.96-11.79-.72-1.05-1.19-1.83-1.41-2.32-.22-.5-.33-1.34-.33-2.53s.21-3.07,.62-5.64c.42-2.57,.79-4.47,1.12-5.69-.61-1-.91-1.8-.91-2.41s.1-1.38,.29-2.32c.19-.94,.37-3.04,.54-6.31,.17-3.26,.25-6.15,.25-8.67s-.11-4.23-.33-5.15c-.22-.91-.58-1.37-1.08-1.37l-.75,.08c-.55,0-.83-.18-.83-.54s.29-.82,.87-1.37c.58-.55,1.25-.83,1.99-.83s1.52,.37,2.32,1.12c.8,.75,1.45,1.84,1.95,3.28,1.16-3.6,2.32-6.28,3.49-8.05,1.16-1.77,2.48-2.66,3.94-2.66s2.67,.53,3.61,1.58c.94,1.05,1.41,2.31,1.41,3.78s-.22,2.86-.66,4.19c1.38-.11,2.38-.17,2.99-.17,1.6,0,2.74,.72,3.4,2.16,.66,1.44,1,2.38,1,2.82,0,1.11-.84,2.21-2.53,3.32-1.69,1.11-3.42,1.69-5.19,1.74,2.82,3.54,4.23,5.7,4.23,6.47,0,.94-.35,1.61-1.04,1.99-.69,.39-2.23,.69-4.61,.91,.88,1.77,1.52,3.68,1.91,5.73,.39,2.05,.58,4.81,.58,8.3,0,4.09-.24,6.99-.71,8.67-.47,1.69-.97,2.74-1.49,3.15-.53,.42-1.51,.76-2.95,1.04Zm-16.43-35.03c.5-2.32,.91-5.15,1.25-8.47,.05-.66,.19-1,.42-1,.44,0,.66,1.38,.66,4.15s-.25,4.84-.75,6.23c.17,1.72,.25,3.17,.25,4.36s-.11,2.12-.33,2.78c-.83,2.66-1.25,5.51-1.25,8.55,0,1.88-.19,2.82-.58,2.82s-1.16-.98-2.32-2.95c-1.16-1.96-1.74-3.25-1.74-3.86s.05-1.08,.17-1.41c.44-1.49,.66-3.24,.66-5.23s-.19-3.67-.58-5.02c-.39-1.36-.58-2.24-.58-2.66s.15-.62,.46-.62,.9,.25,1.78,.75c.88,.5,1.71,1.02,2.49,1.58Zm6.81,26.97c.94-1.49,1.73-3.1,2.37-4.81,.64-1.71,.95-3.08,.95-4.11s-.37-1.54-1.12-1.54-1.43,.97-2.03,2.91c-.61,1.94-.91,3.69-.91,5.27s.17,2.37,.5,2.37c.05,0,.14-.03,.25-.08Zm1.08-16.85c.44,.17,.82,.25,1.12,.25s.62-.17,.95-.5c1.6-1.55,2.71-2.54,3.32-2.99,.61-.44,1.19-.66,1.74-.66l1,.08c.5,0,1.01-.32,1.54-.95,.52-.64,.79-1.17,.79-1.62,0-.33-.5-.8-1.49-1.41-1-.61-1.74-1.23-2.24-1.87-.5-.64-1.09-1.85-1.78-3.65-.69-1.8-1.04-2.92-1.04-3.36s.22-.94,.66-1.49c1.22-1.49,1.98-2.63,2.28-3.4,.3-.77,.46-1.88,.46-3.32s-.15-2.16-.46-2.16-.8,.39-1.49,1.16c-.69,.78-1.41,1.76-2.16,2.95-.75,1.19-1.09,2.86-1.04,5.02l.08,2.08c0,1.77-.75,7.06-2.24,15.85Zm8.3,17.18c.66-.17,1-.72,1-1.66,0-1.83-.15-4.36-.46-7.59-.3-3.24-.58-5.2-.83-5.89-.25-.69-.73-1.04-1.45-1.04s-1.95,.33-3.69,1c-1.74,.66-2.7,1.74-2.86,3.24,.28,.17,.69-.03,1.25-.58,.55-.55,1.36-.83,2.41-.83s1.77,.24,2.16,.71c.39,.47,.71,1.19,.95,2.16,.25,.97,.37,1.62,.37,1.95,0,.94-.75,3.54-2.24,7.8,2.05,.11,3.18,.36,3.4,.75Z"/><path class="j" d="M573.44,542.8c.61-4.87,.91-8.47,.91-10.79,0-.88-.12-1.33-.37-1.33s-.55,.32-.91,.96c-.36,.64-1.26,.95-2.7,.95-1.05,0-2.1-.19-3.15-.58-1.05-.39-1.58-.82-1.58-1.29s.9-1.49,2.7-3.07c1.8-1.58,2.93-2.59,3.4-3.03,.47-.44,1.08-.66,1.83-.66s2.19,.39,4.32,1.16c2.13,.78,3.2,2.1,3.2,3.98,0,.72-.28,2.38-.83,4.98-.55,2.6-.97,5.01-1.25,7.22-.28,2.21-.53,5.53-.75,9.96,1.71-2.27,2.74-3.4,3.07-3.4,.05,0,.08,.06,.08,.17,0,.61-1.16,2.85-3.49,6.72-.17,2.27-.25,4.66-.25,7.18s.19,5.46,.58,8.84c.39,3.38,.58,6.24,.58,8.59s-.3,4.32-.91,5.89c-.61,1.58-1.16,2.37-1.66,2.37-.28,0-.61-.24-1-.71-.39-.47-2.02-3.04-4.9-7.72-2.88-4.67-5.31-8.84-7.3-12.49-.17,3.1-.87,5.93-2.12,8.51-1.25,2.57-2.06,4.22-2.45,4.94-.39,.72-1.05,1.08-1.99,1.08s-1.41-.14-1.41-.42,.21-.79,.62-1.54,.88-2.23,1.41-4.44c.52-2.21,.95-4.63,1.29-7.26,.33-2.63,.55-6.07,.66-10.33l.5-23.41c0-1.05-.28-1.94-.83-2.66-.55-.72-.83-1.24-.83-1.58s.15-.5,.46-.5,1.2,.22,2.7,.66c1.49,.44,2.72,1.11,3.69,1.99,.97,.89,1.45,1.85,1.45,2.91,0,.55-.18,1.33-.54,2.32-.36,1-.61,1.87-.75,2.61-.14,.75-.18,2.01-.12,3.78,2.1-1.05,3.71-1.58,4.81-1.58s2.38,.33,3.82,1Zm-.42,19.84c-1.77,2.27-3.57,3.4-5.4,3.4-.61,0-1.11-.12-1.49-.37-.39-.25-.64-.62-.75-1.12l-.42-2.41c-.17-1.11-.25-1.96-.25-2.57s.19-1.11,.58-1.49c1-1,1.91-2.41,2.74-4.23s1.25-2.96,1.25-3.4-.32-.75-.95-.91c-.64-.17-1.87-.28-3.69-.33-.06,2.6-.28,5.89-.66,9.88l-.58,5.48c0,1,1.2,2.99,3.61,5.98,2.41,2.99,4.38,4.76,5.93,5.31,.17-3.21,.19-7.61,.08-13.2Zm.08-13.45c-.5,0-.82,.59-.96,1.78-.14,1.19-1.04,3-2.7,5.44-.22,.33-.33,.61-.33,.83s.23,.33,.71,.33,1.51-.55,3.11-1.66c.17-1.77,.22-4.01,.17-6.72Zm25.23,22.58c1.83,.11,3.43-.01,4.81-.37,1.38-.36,2.35-.54,2.9-.54,1.6,0,3.18,.58,4.73,1.74,1.55,1.16,2.32,2.71,2.32,4.65,0,1-.17,1.7-.5,2.12s-.83,.62-1.49,.62-1.36-.06-2.08-.17c-3.54-.72-6.57-1.08-9.09-1.08s-5.27,.53-8.26,1.58c-.28,.11-.64,.17-1.08,.17-1.55,0-3.06-.49-4.52-1.45-1.47-.97-2.2-2.2-2.2-3.69,0-.83,.22-1.55,.66-2.16,.44-.61,1.05-1,1.83-1.16,2.93-.61,4.4-1.38,4.4-2.32,0-.22-.4-.83-1.2-1.83-.8-1-1.91-2.03-3.32-3.11s-2.12-2.12-2.12-3.11c0-.5,.15-.95,.46-1.37,.3-.42,1.22-1.11,2.74-2.08,1.52-.97,3.69-2.2,6.52-3.69,.17-1.11,.25-2.38,.25-3.82-2.38,1.11-4.34,1.66-5.89,1.66s-2.6-.15-3.15-.46c-.55-.3-1.01-1.29-1.37-2.95-.36-1.66-.54-2.74-.54-3.24s.05-.86,.17-1.08c1-1.55,1.49-3.54,1.49-5.98,0-.83-.06-1.55-.17-2.16-.11-.61-.17-1.04-.17-1.29s.08-.37,.25-.37c.22,0,1.37,.83,3.44,2.49,2.07,1.66,3.33,2.89,3.78,3.69,.44,.8,.82,1.2,1.12,1.2s.62-.05,.96-.17c1-7.86,1.49-12.78,1.49-14.77s-.36-3.4-1.08-4.23c-.28-.33-.42-.68-.42-1.04s.23-.66,.71-.91c.47-.25,1.06-.37,1.78-.37,1.49,0,3.02,.51,4.56,1.54,1.55,1.02,2.32,2.45,2.32,4.27,0,.78-.18,1.59-.54,2.45-.36,.86-.68,2.73-.95,5.6,.28,1.33,2.02,2.41,5.23,3.24,.83,.22,1.48,.69,1.95,1.41,.47,.72,.71,1.51,.71,2.37s-.18,1.55-.54,2.08c-.36,.53-.84,.82-1.45,.87-1.61,.17-2.92,.46-3.94,.87-1.02,.41-2.31,1.18-3.86,2.28-.17,.72-.39,2.63-.66,5.73,4.43,1.27,6.64,3.1,6.64,5.48,0,1.38-.93,3.13-2.78,5.23-1.85,2.1-3.06,3.58-3.61,4.44-.55,.86-.97,1.92-1.25,3.2Zm-5.23-7.8c-.55-.11-1.27,.03-2.16,.42,.44,.5,.93,.75,1.45,.75s.76-.39,.71-1.16Z"/></g></svg>