<?xml version="1.0" encoding="UTF-8"?><svg id="uuid-48dd0a43-0d89-4719-aa4a-682dc8154f8b" xmlns="http://www.w3.org/2000/svg" viewBox="0 0 1368.45 769.56"><defs><style>.uuid-5a866bd2-cef3-4a63-b6f7-48882095e017{fill:#e76409;}.uuid-57c5094b-73ff-43db-8896-5dd7204dcfbc{fill:#6e596d;}.uuid-ec3d6748-327d-46f5-b1bb-ee6a89103e6a{fill:#580714;}.uuid-07f58f62-18f4-403b-a829-140820145ff6{fill:#fdfaf2;}.uuid-99a6453d-3d08-4005-a868-ced508828ec9{fill:#b7763c;}.uuid-56a38dd5-f6c3-48dd-86cd-d6f200574503{fill:#9a1830;}.uuid-79d22650-e976-4957-981e-9584d53eca18{fill:#302641;}.uuid-6f68c4d2-b3a0-42b6-b189-50e3429980d8{fill:#270e0b;}.uuid-4a7d8e0c-b742-481f-827e-5264562cc7c4{fill:#77481c;}.uuid-368d29b3-aff9-4f08-9d33-b2ad2c683c8a{fill:#fbd865;}.uuid-829cb834-b507-4eac-8ef5-93b7099b3657{fill:#1d192a;}.uuid-c361cd7a-c91b-4765-9649-04452a85a54c{fill:#51425c;}.uuid-0792a0aa-8a07-4488-b9f4-16ef2ec87081{fill:#fdfd9c;}.uuid-22d4e2bd-ab81-4ca3-b19f-10bf87214b4e{fill:#eac9ac;}.uuid-fc144ccf-d82c-4efe-98fc-8a05aab8f156{fill:#8b6d77;}</style></defs><rect class="uuid-0792a0aa-8a07-4488-b9f4-16ef2ec87081" x=".02" width="1368" height="768"/><path class="uuid-0792a0aa-8a07-4488-b9f4-16ef2ec87081" d="M624.01,459.91c-7.29-.02-9.42,6.92-14.01,10.5-8.1,6.31-13.9,15.24-22.98,20.49v-172.01c5.34-1.61,7.73,2.88,10.8,5.52,24.83,21.43,49.55,42.99,74.3,64.51-.4,4.09-4.28,4.38-6.77,6.18-6.68,4.83-13.42,9.58-20.03,14.5-3.47,2.58-5.4,5.34,.58,7.31,6.27,5.66,12.53,11.33,18.8,16.99-2.75,4.39-6.7,8.07-7.9,13.37-3.87,5.14-7.74,10.29-11.61,15.43-2.61-2.45-5.24-4.88-7.81-7.37-7.96-7.69-10.19-6.93-13.35,4.57Z"/><g><path class="uuid-6f68c4d2-b3a0-42b6-b189-50e3429980d8" d="M239.67,767.56H74.19c-14.92,.24-29.98,.38-45.18,.44-9.72,.04-19.39,.04-29,0,11.37-21.42,26.83-45.89,47.85-70.73,9.67-11.43,19.36-21.57,28.73-30.52,6.88,1.04,10.46,7.94,17.01,9.58,.97,.93,1.93,1.86,2.9,2.79,.3-.43,.61-.85,.91-1.28-1.08-.72-2.15-1.44-3.23-2.16-8.19-12.35-19.31-22.19-28.68-33.5-12.37-14.91-28.37-26.74-37.67-44.24,2.13-3.12,7.56-4.99,2.49-10.36-10.3-10.9-20.12-22.25-30.14-33.42,0-4.35,0-8.71,0-13.06,13.53,10.47,23.46,24.43,35.15,36.68,5.11,5.35,7.93,5.16,12.69,0,7.59-8.24,15.91-15.81,23.93-23.67,2.97,2.6,6.17,4.97,8.87,7.83,21.36,22.62,42.52,45.44,63.93,68,27.14,28.59,54.46,57.01,81.7,85.5,4.42,17.37,8.83,34.74,13.25,52.12Z"/><path class="uuid-4a7d8e0c-b742-481f-827e-5264562cc7c4" d="M226.43,715.44c-27.24-28.49-54.56-56.91-81.7-85.5-21.42-22.57-42.58-45.38-63.93-68-2.7-2.85-5.9-5.23-8.87-7.83-1.52-1.99-2.89-4.11-4.58-5.94-22.37-24.15-44.79-48.26-67.19-72.39,0-3.63,0-7.26,0-10.89,9.08-5.25,14.88-14.17,22.98-20.49,4.6-3.58,6.73-10.53,14.01-10.5-1.77,6.43-3.55,12.85-5.46,19.77,7.96,.51,14.25-4.76,21.97-3.77-1.57,7.37-3.01,14.12-4.4,20.66,7.36,2.7,13.48-3.28,19.99-.37-1.15,6.42-2.26,12.64-3.81,21.34,15.28-12.25,24.4-3.8,33.23,6.1,2.4,2.69,5.17,5.06,7.8,7.54,31.25,29.58,62.5,59.15,93.75,88.72,8.72,23.33,15.52,47.26,22.48,71.13-2.43,17.07,1.98,33.64,3.73,50.4Zm-108.49-124.06c3.02,.07,4.78-1.57,4.95-4.39,.2-3.3-1.71-5.51-4.99-5.58-2.67-.05-4.79,1.53-4.9,4.53-.12,3.29,1.31,5.44,4.94,5.45Zm28.72,17.24c-2.73,.28-4.56,1.78-4.84,4.69-.34,3.64,2.11,5.62,5.13,5.58,3.07-.04,5.4-2.35,5.02-5.76-.3-2.75-2.24-4.38-5.31-4.51Zm28.58,30.46c-.52-2.92-2.02-4.57-5.05-4.54-3.67,.03-5.11,2.26-5.02,5.5,.08,2.95,2.2,4.66,4.91,4.57,3.25-.11,5-2.31,5.16-5.53Z"/><path class="uuid-829cb834-b507-4eac-8ef5-93b7099b3657" d="M76.59,666.75c-9.36,8.95-19.06,19.09-28.73,30.52C26.84,722.11,11.39,746.58,.02,768c-.02-11.96-.02-23.96,0-36,.02-12.87,.07-25.69,.14-38.47v-106.69c2.89-.36,4.77,1.37,6.51,3.24,13.78,14.8,28.09,29.16,41.11,44.6,9.29,11.01,21.54,19.31,28.81,32.08Z"/><path class="uuid-ec3d6748-327d-46f5-b1bb-ee6a89103e6a" d="M85.26,362.92c-24.75-21.52-49.47-43.09-74.3-64.51-3.06-2.64-5.45-7.12-10.8-5.52v-6.53c3.14,.14,3.71-2.3,4.53-4.49,5.57-.25,9.2,3.71,13.32,6.4,15.24,9.94,30.34,20.11,46.89,31.12-1.52-13.97-2.82-25.94-4.12-37.91,.47-1.71,.94-3.43,1.42-5.14,.99-1.16,1.99-2.32,2.98-3.49,1.64,13.9,3.01,27.85,5.07,41.69,.78,5.24,2.77,10.06,8.03,13.39,16.12,10.2,31.93,20.91,47.77,31.56,3.12,2.1,6.01,4.05,9.92,2.42,0,0-.05,.15-.05,.15-1.17,2.18-.36,3.71,1.58,4.88,2.06,1.19,4.13,2.39,6.19,3.58l-.41,.61,.45,.59c-.15,6.54-5.48,10.08-8.64,14.87-1.77,.03-3.34,.44-4.26,2.15,0,0,0,0,0,0-14.03,.18-24.27-8.26-35.07-15.43-2.45-4.53-6.46-7.49-10.51-10.39Z"/><path class="uuid-99a6453d-3d08-4005-a868-ced508828ec9" d="M.16,475.79c22.4,24.12,44.82,48.23,67.19,72.39,1.69,1.83,3.06,3.95,4.58,5.94-8.01,7.86-16.34,15.43-23.93,23.67-4.76,5.17-7.58,5.36-12.69,0-11.69-12.25-21.62-26.21-35.15-36.68,0-21.77,0-43.55,0-65.32Z"/><path class="uuid-57c5094b-73ff-43db-8896-5dd7204dcfbc" d="M226.43,715.44c-1.75-16.76-6.16-33.33-3.73-50.4,6.08-.65,8.21,4.16,10.15,8.16,14.56,29.91,23.78,61.48,28.6,94.36h-21.77c-4.42-17.37-8.83-34.74-13.25-52.12Z"/><path class="uuid-c361cd7a-c91b-4765-9649-04452a85a54c" d="M76.59,666.75c-7.27-12.76-19.52-21.06-28.81-32.08-13.02-15.44-27.33-29.8-41.11-44.6-1.74-1.87-3.63-3.6-6.51-3.24,0-5.08,0-10.16,0-15.24,2.79,2.76,5.62,5.49,8.35,8.3,6.14,6.33,10.56,14.51,19.3,18.06,9.31,17.5,25.31,29.32,37.67,44.24,9.38,11.31,20.49,21.15,28.68,33.5l-.57,.65c-6.54-1.65-10.12-8.55-17-9.59Z"/><path class="uuid-99a6453d-3d08-4005-a868-ced508828ec9" d="M27.81,597.95c-8.75-3.55-13.16-11.72-19.3-18.06-2.73-2.82-5.56-5.54-8.35-8.3,0-5.81,0-11.61,0-17.42,10.02,11.17,19.84,22.52,30.14,33.42,5.07,5.37-.36,7.25-2.49,10.36Z"/><path class="uuid-c361cd7a-c91b-4765-9649-04452a85a54c" d="M135.09,386.59c3.16-4.79,8.49-8.32,8.64-14.87,17.22,.05,29.73,9.47,41.14,20.89,13.05,13.07,22.5,28.86,32.7,44.06,6.73,19.17,4.74,39.36,6.3,59.07,1.54,19.42,.47,39.05,.57,58.59,.04,7.18-1.37,11.55-8.81,4.71,1.45-17.36-3.06-34.46-2.21-51.8,.25-5.13-2.73-7.61-9.02-8.3,4.56,18.74,.8,37.27,4.65,55.33-3.49-2.78-6.97-5.56-10.46-8.34-.43-18.37-2.24-36.62-4.63-54.83-.53-4.03-2.57-7.9-6.27-7.45-4.31,.53-2.36,5.38-2.17,8.17,1.1,15.77,2.6,31.52,3.97,47.28-2.04-1.48-4.07-2.96-6.11-4.45-5.02-2.3-7.77-6.48-8.7-11.66-1.14-6.35-1.04-12.98-2.72-19.15-2.39-8.77,.47-19.23-7.91-26.12-5.55-4.56-11.39-8.78-16.81-13.49-17.61-15.28-36.88-28.58-53.47-45.06,12.69-9.73,26.75-17.81,37.07-30.44,0,0,0,0,0,0,1.75-.06,3.36-.4,4.26-2.15Zm17.82,10.79c-4.87,2.32-1.83,5.48-.64,8.12,5.94,13.25,13.11,25.78,23.6,36.02,8.41,8.22,15.9,18.01,29.08,19.02,2.03,.69,4.28,1.94,3.95-2.05-2.24-27.35-28.21-55.71-55.98-61.12Zm-6.64,45.47c-1.2,11.23,6.75,14.55,12.04,19.25,1.83,1.63,4.56,6.42,7.75,2.9,3.63-4.02-1.34-6.36-3.66-8.55-4.66-4.39-9.77-8.3-16.13-13.6Z"/><path class="uuid-368d29b3-aff9-4f08-9d33-b2ad2c683c8a" d="M37.15,433.91c3.16-11.51,5.39-12.26,13.35-4.57,2.57,2.49,5.21,4.91,7.81,7.37,.89,1.53,1.49,3.35,2.7,4.55,34.7,34.22,69.46,68.38,104.22,102.56,6.6,5.68,10.15,15,20.03,16.76,6.17,10.58,15.56,19.72,14.95,33.34-31.25-29.57-62.5-59.14-93.75-88.72-2.63-2.49-5.4-4.85-7.8-7.54-8.84-9.89-17.96-18.35-33.23-6.1,1.55-8.7,2.67-14.92,3.81-21.34-6.51-2.91-12.63,3.07-19.99,.37,1.39-6.54,2.83-13.29,4.4-20.66-7.72-.99-14,4.28-21.97,3.77,1.91-6.92,3.68-13.35,5.46-19.77Z"/><path class="uuid-829cb834-b507-4eac-8ef5-93b7099b3657" d="M185.27,560.56c-9.88-1.76-13.43-11.08-20.03-16.76-1.02-14.06-5.9-27.38-7.92-41.22-.74-5.1-2.71-8.73-6.36-11.96-19.44-17.19-38.46-34.9-58.47-51.4-7.38-6.09-12.89-14.74-22.57-17.96,1.21-5.3,5.15-8.98,7.9-13.37,6.31,2.35,8.49,10.55,15.95,11.27,16.58,16.49,35.86,29.79,53.47,45.06,5.42,4.71,11.26,8.92,16.81,13.49,8.38,6.89,5.52,17.36,7.91,26.12,1.68,6.17,1.58,12.8,2.72,19.15,.93,5.17,3.68,9.36,8.7,11.66-1.48,8.79,2.6,17.17,1.89,25.91Z"/><path class="uuid-56a38dd5-f6c3-48dd-86cd-d6f200574503" d="M135.97,361.91c-3.91,1.63-6.8-.32-9.92-2.42-15.84-10.65-31.64-21.36-47.77-31.56-5.26-3.33-7.26-8.16-8.03-13.39-2.06-13.84-3.42-27.79-5.07-41.69,3.46-9.02,7.25-17.87,13.17-25.63,7.23,26.72,14.46,53.44,22.2,82.04,2.46-4.37,3.98-7.07,5.51-9.77,4.74-6.31,9.48-12.62,14.22-18.93,6.05,20.24,11.56,40.62,15.7,61.35Z"/><path class="uuid-fc144ccf-d82c-4efe-98fc-8a05aab8f156" d="M217.57,436.67c-10.2-15.21-19.65-31-32.7-44.06-11.41-11.42-23.92-20.84-41.14-20.89,0,0-.44-.59-.44-.59,0,0,.41-.61,.41-.61-.92-4.81-1.84-9.62-2.76-14.43,40.86,5.3,70.94,36.93,76.64,80.58Z"/><path class="uuid-829cb834-b507-4eac-8ef5-93b7099b3657" d="M189.49,539.1c-1.36-15.76-2.86-31.5-3.97-47.28-.19-2.79-2.14-7.64,2.17-8.17,3.71-.45,5.74,3.42,6.27,7.45,2.39,18.21,4.2,36.46,4.63,54.83-3.03-2.28-6.07-4.55-9.1-6.83Z"/><path class="uuid-07f58f62-18f4-403b-a829-140820145ff6" d="M34.6,231.76c1.56-2.47,4.08-3.51,6.64-4.49,7.25,16.24,10.74,34.08,20.96,49.05-.48,1.72-.95,3.44-1.42,5.15-2.2,1.12-3.78,7.69-6.62-.23-5.98-16.69-12.98-33.01-19.56-49.48Z"/><path class="uuid-07f58f62-18f4-403b-a829-140820145ff6" d="M106.05,319.49c-1.52,2.7-3.05,5.41-5.51,9.77-7.74-28.61-14.97-55.32-22.2-82.04,1.18-4.19,1.82-2.7,2.78,.16,6.78,20.41,13.61,40.8,20.51,61.17,1.26,3.72,2.93,7.29,4.42,10.94Z"/><path class="uuid-829cb834-b507-4eac-8ef5-93b7099b3657" d="M209.05,554.27c-3.85-18.06-.09-36.6-4.65-55.33,6.29,.69,9.27,3.17,9.02,8.3-.85,17.34,3.65,34.44,2.21,51.8-2.19-1.59-4.38-3.18-6.58-4.77Z"/><path class="uuid-07f58f62-18f4-403b-a829-140820145ff6" d="M140.93,356.09c.92,4.81,1.84,9.62,2.76,14.43-2.06-1.19-4.13-2.39-6.19-3.58-.3-1.7,.23-3.67-1.58-4.88,0,0,.05-.15,.05-.15-4.13-20.73-9.65-41.11-15.7-61.35,.05-1.06-.28-2.78,.22-3.08,3.28-1.92,3.24,1.28,3.72,2.91,3.73,12.76,7.24,25.59,10.98,38.34,1.72,5.84,3.82,11.57,5.74,17.35Z"/><path class="uuid-c361cd7a-c91b-4765-9649-04452a85a54c" d="M94.17,675.69c1.08,.72,2.15,1.44,3.23,2.16-.3,.43-.61,.85-.91,1.28-.96-.93-1.93-1.86-2.9-2.79,0,0,.57-.65,.57-.65Z"/><path class="uuid-368d29b3-aff9-4f08-9d33-b2ad2c683c8a" d="M117.94,591.39c-3.63-.01-5.06-2.16-4.94-5.45,.11-3,2.22-4.58,4.9-4.53,3.28,.07,5.19,2.28,4.99,5.58-.17,2.82-1.93,4.47-4.95,4.4Z"/><path class="uuid-368d29b3-aff9-4f08-9d33-b2ad2c683c8a" d="M146.67,608.61c3.07,.12,5.01,1.76,5.31,4.51,.37,3.42-1.95,5.72-5.02,5.76-3.01,.04-5.47-1.93-5.13-5.58,.27-2.91,2.1-4.41,4.84-4.69Z"/><path class="uuid-368d29b3-aff9-4f08-9d33-b2ad2c683c8a" d="M175.25,639.07c-.16,3.22-1.91,5.42-5.16,5.53-2.71,.09-4.82-1.61-4.91-4.57-.09-3.25,1.35-5.47,5.02-5.5,3.03-.03,4.53,1.62,5.05,4.54Z"/><path class="uuid-4a7d8e0c-b742-481f-827e-5264562cc7c4" d="M69.92,421.27c9.68,3.22,15.19,11.87,22.57,17.96,20.01,16.5,39.02,34.21,58.47,51.4,3.65,3.23,5.62,6.86,6.36,11.96,2.02,13.84,6.89,27.16,7.92,41.22-34.75-34.17-69.52-68.33-104.22-102.56-1.21-1.2-1.82-3.02-2.7-4.55,3.87-5.14,7.74-10.28,11.6-15.43Z"/><path class="uuid-79d22650-e976-4957-981e-9584d53eca18" d="M93.78,419.17c-7.46-.72-9.64-8.92-15.95-11.27-6.27-5.66-12.53-11.33-18.8-16.99,10.81-8.87,22.59-15.71,36.75-17.6,10.8,7.17,21.04,15.61,35.07,15.43-10.31,12.63-24.37,20.7-37.07,30.44Z"/><path class="uuid-fc144ccf-d82c-4efe-98fc-8a05aab8f156" d="M95.77,373.31c-14.15,1.89-25.93,8.73-36.75,17.6-5.98-1.97-4.05-4.73-.58-7.31,6.61-4.92,13.35-9.68,20.03-14.5,2.49-1.8,6.37-2.09,6.77-6.18,4.06,2.91,8.07,5.86,10.52,10.4Z"/><path class="uuid-56a38dd5-f6c3-48dd-86cd-d6f200574503" d="M34.6,231.76c6.58,16.47,13.58,32.79,19.56,49.48,2.84,7.92,4.42,1.35,6.62,.23,1.3,11.97,2.6,23.94,4.12,37.91-16.55-11.01-31.65-21.18-46.89-31.12-4.12-2.68-7.74-6.65-13.32-6.4,3.86-20.35,13.41-37.3,29.91-50.1Z"/><path class="uuid-56a38dd5-f6c3-48dd-86cd-d6f200574503" d="M135.92,362.06c1.82,1.21,1.28,3.18,1.58,4.88-1.94-1.17-2.75-2.7-1.58-4.88Z"/><path class="uuid-79d22650-e976-4957-981e-9584d53eca18" d="M135.09,386.59c-.9,1.75-2.51,2.09-4.26,2.15,.92-1.71,2.49-2.12,4.26-2.15Z"/><path class="uuid-829cb834-b507-4eac-8ef5-93b7099b3657" d="M152.91,397.38c27.77,5.4,53.74,33.77,55.98,61.12,.33,3.99-1.93,2.74-3.95,2.05-.51-2.38-2.52-3.31-4.26-4.56-21.19-15.24-37.07-34.82-47.77-58.61Z"/><path class="uuid-fc144ccf-d82c-4efe-98fc-8a05aab8f156" d="M152.91,397.38c10.7,23.79,26.58,43.37,47.77,58.61,1.74,1.25,3.75,2.19,4.26,4.56-13.17-1.01-20.67-10.81-29.08-19.02-10.48-10.24-17.66-22.77-23.6-36.02-1.19-2.65-4.23-5.8,.64-8.12Z"/><path class="uuid-fc144ccf-d82c-4efe-98fc-8a05aab8f156" d="M146.27,442.85c6.35,5.3,11.47,9.21,16.13,13.6,2.31,2.18,7.29,4.53,3.66,8.55-3.19,3.53-5.92-1.27-7.75-2.9-5.29-4.7-13.23-8.02-12.04-19.25Z"/></g><g><path class="uuid-ec3d6748-327d-46f5-b1bb-ee6a89103e6a" d="M708.87,231c-6.06,9.23-13.67,17.21-21.46,24.89-4.65,4.59-4.08,8.03-.28,12.18-10.24,9.58-20.48,19.16-30.72,28.75-4.41-2.63-1.11-4.76,.56-6.79,5.96-7.26,11.5-14.96,18.21-21.46,5.72-5.54,4.23-8.94-.5-13.84-7.22-7.48-14.73-14.78-20.25-23.74h54.43Z"/><path class="uuid-fc144ccf-d82c-4efe-98fc-8a05aab8f156" d="M702,629.34c0,13.15,.02,26.29,.02,39.44-.23,.16-.68,.35-.66,.48,.07,.47,.29,.92,.45,1.38-5.7,18.69-11.39,37.39-17.1,56.08-.08,.25-.39,.43-.6,.65-.57-.72-1.13-1.44-1.7-2.17,.04-42.79,.07-85.59,.11-128.38,.02-21.04,.04-42.09,.06-63.13,0-5.81-.01-11.63-.02-17.44-.06-9.34-.12-18.68-.18-28.03,.13-18.98,.33-37.96,.32-56.94,0-2.98,1.44-6.57-2.17-8.75,7.14-6.5,14.29-13.01,21.43-19.51,.12,66.15,.24,132.31,.36,198.46,0,2.87,.31,5.73-2.58,7.77-8.56,6.05-5.77,11.92,.49,17.63,.59,.82,1.17,1.65,1.76,2.47Z"/><path class="uuid-22d4e2bd-ab81-4ca3-b19f-10bf87214b4e" d="M682.52,596.81c-.04,42.79-.07,85.59-.11,128.38-10.83-28.73-20.81-57.15-19.64-89.07,1.76-47.81,.48-95.73,.45-143.6,0-5.09-.53-10.11,5.08-13.2,2.12-1.17,4.6-4.34,2.04-6.25-12.79-9.52-5.41-22.51-6.47-34.02,5.56-5.51,11.12-11.02,16.67-16.53,3.61,2.19,2.17,5.78,2.17,8.75,.01,18.98-.19,37.96-.32,56.94-13.99,8.65-6.44,21.63-8.62,34.98,4.37-3.45,6.58-5.2,8.8-6.95,0,5.81,.01,11.63,.02,17.44-4.5,.45-8.1,3.18-8.18,7.26-.4,20.9-.19,41.8-.19,63.65,3.65-3.42,5.98-5.59,8.31-7.77Z"/><path class="uuid-ec3d6748-327d-46f5-b1bb-ee6a89103e6a" d="M756.53,302.78c-2.07-6.75-4.14-13.5-6.97-22.72,8.99,9.95,15.96,18.22,23.56,25.86,4.15,4.18,2.37,6.2-1.09,9.23-23.35,20.48-46.55,41.12-69.8,61.71q-20.19,16.62-38.6,.01c-22.8-20.12-45.5-40.37-68.49-60.28-4.91-4.25-6.88-7.51-1.02-12.28,2.22-1.81,3.8-4.37,5.82-6.44,2.67-2.73,5.12-7.91,9.35-5.66,4.51,2.41,.07,6.95-.08,10.57-3.37,3.82-2.64,6.43,1.58,9.47,23.08,16.68,46.02,33.58,68.84,50.62,3.72,2.77,6.06,3.18,10.08,.07,21.66-16.79,43.55-33.3,65.61-49.57,4.89-3.61,4.49-6.65,1.22-10.61Z"/><path class="uuid-07f58f62-18f4-403b-a829-140820145ff6" d="M756.53,302.78c3.27,3.96,3.67,7-1.22,10.61-22.06,16.27-43.94,32.78-65.61,49.57-4.01,3.11-6.36,2.7-10.08-.07-22.83-17.03-45.76-33.93-68.84-50.62-4.22-3.05-4.95-5.66-1.58-9.47,17.09,8.49,30.89,21.88,47.1,31.69,3.06,1.85,6.06,3.81,9.1,5.71,1.95,3.34,4.95,5.23,8.59,6.23,5.41,7.6,11.25,7.29,17.56,1.07,2-1.97,4.36-3.59,6.55-5.37,15.79-11.04,31.51-22.17,47.41-33.04,3.46-2.37,6.46-5.77,11.02-6.31Z"/><path class="uuid-56a38dd5-f6c3-48dd-86cd-d6f200574503" d="M656.41,296.82c10.24-9.58,20.48-19.16,30.72-28.75,1.25,1.28,2.66,2.45,3.72,3.86,5.81,7.72,17.71,14.4,16.7,22.67-.98,8.02-11.64,14.84-18.03,22.2-.94,1.08-1.79,2.24-2.67,3.37-3.48,3.85-6.95,3.76-10.41-.03-6.67-7.77-13.35-15.55-20.02-23.32Zm29.42-15.58c-1.64,1.26-3.76,2.55-3.01,4.3,2,4.67,5.84,7.98,10.31,10.12,1.24,.59,3.45-1.95,2.58-3.71-2.21-4.46-5.84-7.82-9.88-10.7Z"/><path class="uuid-57c5094b-73ff-43db-8896-5dd7204dcfbc" d="M663.62,376.88q18.41,16.61,38.6-.01c-.08,8.71-.16,17.43-.25,26.14-7.14,6.51-14.29,13.01-21.43,19.51-5.56,5.51-11.12,11.02-16.67,16.53-.08-20.73-.17-41.45-.25-62.18Z"/><path class="uuid-56a38dd5-f6c3-48dd-86cd-d6f200574503" d="M698.11,342.14c-2.19,1.78-4.55,3.4-6.55,5.37-6.32,6.22-12.15,6.53-17.56-1.07,2.27-8.86,11.54-12.14,15.62-19.55,2.83,5.08,5.66,10.17,8.49,15.25Z"/><path class="uuid-ec3d6748-327d-46f5-b1bb-ee6a89103e6a" d="M689.61,326.89c-4.08,7.42-13.35,10.69-15.62,19.55-3.64-1-6.64-2.9-8.59-6.23,3.68-6.68,7.35-13.37,11.03-20.06,3.46,3.79,6.93,3.88,10.41,.03,.92,2.23,1.85,4.47,2.77,6.71Z"/><path class="uuid-57c5094b-73ff-43db-8896-5dd7204dcfbc" d="M701.81,670.63c-.16-.46-.38-.91-.45-1.38-.02-.13,.43-.32,.66-.48,.18,.65,.11,1.27-.21,1.86Z"/><path class="uuid-57c5094b-73ff-43db-8896-5dd7204dcfbc" d="M702,629.34c-.59-.82-1.17-1.65-1.76-2.47,.59,.82,1.17,1.65,1.76,2.47Z"/><path class="uuid-07f58f62-18f4-403b-a829-140820145ff6" d="M682.52,596.81c-2.33,2.18-4.66,4.36-8.31,7.77,0-21.84-.22-42.75,.19-63.65,.08-4.08,3.68-6.81,8.18-7.26-.02,21.04-.04,42.09-.06,63.13Z"/><path class="uuid-07f58f62-18f4-403b-a829-140820145ff6" d="M682.57,516.24c-2.22,1.75-4.43,3.5-8.8,6.95,2.19-13.35-5.37-26.33,8.62-34.98,.06,9.34,.12,18.68,.18,28.03Z"/><path class="uuid-22d4e2bd-ab81-4ca3-b19f-10bf87214b4e" d="M685.83,281.24c4.04,2.88,7.67,6.24,9.88,10.7,.87,1.76-1.34,4.31-2.58,3.71-4.47-2.14-8.31-5.45-10.31-10.12-.75-1.75,1.37-3.04,3.01-4.3Z"/></g><g><path class="uuid-829cb834-b507-4eac-8ef5-93b7099b3657" d="M1293.54,769.56h-115.4c.08-29.03-1.43-57.98-4.79-86.82-2.5-16.02-3.76-32.32-10.22-47.48-1.38-3.24-2.5-7.29-6.96-7.43-4.72-.15-7.1,3.47-8.54,7.2-2.47,6.39-4.87,12.87-6.44,19.52-8.91,37.81-11.04,76.41-13.12,115.01h-6.53c.06-44.64,2.59-89.03,15.27-132.17,3.04-10.33,7.46-20.25,11.25-30.36,2.52-3.64,6.9-6.28,6.27-11.62l-.1,.09c2.33,.81,2.7-.33,2.27-2.27l-.07,.12c11.08-6.85,22.29-11.13,34.23-1.83,.11,.63,.26,1.25,.47,1.86-1.92,10.1-7.35,18.83-13.15,26.69-9.25,12.54-5.35,23.54,.19,35.91,5.23-5.07,7.32-10.93,10.51-16.09,5.23-8.45,8.13-18.4,15.97-25.2,7.06,8.23,8.82,18.79,12.39,28.52,7.32,19.93,11.71,39.65-5.34,57.5-2.2,2.31-4.84,5.99,.09,9.47,5.05-5.84,10.08-11.66,15.56-17.99,1.45,4.03,.94,7.85,4.87,9.13-3.04,8.66-1.34,17.01,1.43,28.14,6.57-14.85,15.02-25.45,22.81-36.47,17.08-24.15,34.81-47.79,57.32-67.33l6.07-6.47c3.47-2.55,6.87-5.21,10.43-7.63,11.57-7.86,22.58-16.89,37.3-18.35,0,33.39-.75,66.78,0,100.16,.44,19.65,1.44,71.13,.44,74.65"/><path class="uuid-5a866bd2-cef3-4a63-b6f7-48882095e017" d="M1190.65,591.51c-11.94-9.3-23.15-5.03-34.23,1.83-.07-5.67-1.43-10.28-8.43-10.23-.04-9.54-.08-19.08-.12-28.62,4.49-.22,10.37,.78,10.31-5.91-.06-6.76-5.58-5.91-10.27-5.3-.21-14.65-.42-29.31-.63-43.96,5.17-4.02,10.34-8.05,15.51-12.07,2.7,3.34,6.02,5.3,9.87,2.29,3.77-2.95,3.1-6.62,.22-10.04,11.22-10.05,22.93-19.47,35.24-28.14,.73,3.86,2.61,6.67,6.97,6.17,2.53-.29,4.61-1.97,5.28-4.55,1.09-4.16-1.31-6.52-4.77-8.14,4.43-5.78,7.05-12.36,8.67-19.39,4.52-.16,6.72-2.65,6.21-6.99-.61-5.22-4.5-5.92-8.85-5.56-1.32-2.4-2.65-4.81-3.97-7.21-1.9-5-7.17-4.19-10.78-6.24-.56-4.1-2.67-7.25-7.01-6.16-4.04,1.01-7.21,3.7-4.24,8.73-7.11,4.52-13.57,10.13-21.79,12.75-.06-2.08-.11-4.16-.19-6.23-.15-4.26-2.25-6.8-6.62-6.74-3.32,.04-5.62,2.23-5.82,5.29-.28,4.16,2.47,6.52,6.47,7.19,2.03,.34,4.12,.33,6.18,.48-3.91,5.72-11.42,6.7-15.69,11.95-.57,.41-1.17,.78-1.78,1.12-6.36,3.38-8.67,2.6-7.53-5.53,2.54-18.19,9.14-34.46,20.3-48.95,.19,5.04,1.15,9.56,7.73,8.9,3.25-.32,5.51-2.67,5.17-5.77-.75-6.76-6.17-5.47-10.7-5.43-.35,0-.7-.11-1.06-.17,8.89-15.51,17.78-31.02,27.49-47.93,3.6,8.97,.63,16.99,3.07,24.26-.21,1.97,.39,4.11,2.61,2.85,6.15-3.49,12.32-7.29,10.89-16.06,3.92,4.67,7.77,5.33,12.46,.65,2.71-2.7,6.34-4.46,9.56-6.65-6.13,13.24-8.92,26.61-.51,39.93,7.06,11.18,18.04,17.01,30.25,20.9,5.21,4.4,12.11,6.53,16.36,12.21,3.21,2.08,6.1,5.08,10.53,3.58,5.38,4.07,10.76,8.14,16.14,12.21-2.89,3.51-2.29,6.6,1.39,8.97,3.93,2.53,6.66,.21,9.08-2.71,6.69,2.47,13.15,5.33,17.77,11.12-3.39,3.04-4.35,6.63-1.09,10.08,2.14,2.27,5.47,2.14,7.74,.1,3.87-3.46,1.78-6.95-.78-10.17,.06-.75,.13-1.49,.19-2.24,6.58,7.3,13.15,14.61,19.73,21.91-5.21,.49-9.68,2.71-7.86,8.51,2.16,6.87,7.58,4.29,12.22,2.35v10.89c-10.38-.48-20.62-3.21-31.11-2.05-.08-4.9-2.25-8.55-7.41-7.72-5.31,.85-5.74,5.29-4.72,9.84-7.15,2.51-14.3,5.01-21.46,7.52-.06-4.12-.68-8.06-5.57-9.03-2.72-.54-4.9,1.09-6.09,3.4-2.25,4.4-.12,7.39,3.7,9.59-13.67,8.23-26.6,17.48-38.76,27.82-.56-.1-1.12-.18-1.68-.25-8.86-2.46-10.61-.63-8.37,8.72-10.97,12.29-21.94,24.58-32.91,36.88-.28-4.81-2.86-7.04-7.59-6.39-3.35,.46-5,3.19-4.73,6.03,.55,5.99,5.59,5.11,9.69,5.42-6.63,8.71-13.26,17.42-19.9,26.13Zm46.33-130.96c-3.64,.49-6.15,2.47-6.18,6.16-.03,4.23,2.63,6.71,6.84,6.42,3.67-.26,5.81-2.78,5.62-6.53-.19-3.77-2.67-5.59-6.29-6.04Zm-54.02,69.77c-3.63,.17-6.27,1.86-6.7,5.56-.42,3.65,1.48,6.39,5.17,6.9,4.17,.57,6.99-1.64,7.28-5.88,.25-3.74-2.21-5.77-5.75-6.58Zm75.41-109.22c3.64-.3,6.36-2.01,6.39-5.89,.03-3.75-2.56-6.09-6.12-6.4-3.83-.34-6.2,2.01-6.27,5.84-.06,3.76,2.15,5.94,5.99,6.46Zm-43.2,113.38c3.3-.27,5.91-1.93,6.4-5.63,.49-3.74-1.62-6.46-5.14-6.98-4.17-.62-6.89,2.14-7.33,6.05-.43,3.71,2.19,5.74,6.07,6.56Zm19.85-137.72c3.61-.33,5.97-2.16,6.22-5.99,.25-3.88-1.81-6.16-5.61-6.49-3.99-.35-6.2,2.29-6.51,5.73-.34,3.69,2.35,5.74,5.9,6.75Zm-33.26,72.99c-3.51,.95-6.28,2.61-6.06,6.57,.21,3.82,2.57,5.93,6.4,5.81,3.82-.12,6.21-2.38,5.99-6.17-.22-3.65-2.86-5.58-6.33-6.21Zm70.37-5.6c3.4-.96,6.22-2.47,5.99-6.53-.22-3.87-2.56-5.97-6.35-5.86-3.75,.11-6.27,2.3-6.02,6.14,.24,3.61,2.82,5.63,6.37,6.24Zm-23.44-27.83c-3.76,.31-5.96,2.35-5.79,6.14,.17,3.64,2.35,6.19,6.08,5.9,3.42-.27,6.07-2.43,5.89-6.28-.17-3.68-2.25-5.83-6.18-5.76Zm-90.79,74.16c-2.93,.39-5.45,2.03-5.82,5.77-.37,3.73,1.65,6.38,5.21,6.77,4.14,.46,6.89-2.24,7.08-6.18,.17-3.43-2.09-5.84-6.47-6.36Zm59.39-142.93c-.14-4.12-2.62-6.33-6.15-6.42-3.64-.1-6.19,2.46-6.34,6.13-.16,3.83,2.29,5.99,6.13,6.08,3.91,.09,5.92-2.14,6.36-5.78Zm91.06,76.29c-3.38,1.04-6.04,2.86-5.87,6.68,.17,3.85,2.68,5.77,6.46,5.58,3.78-.19,6.13-2.41,5.86-6.2-.27-3.65-2.91-5.51-6.44-6.06Zm-75.61,54.87c-.21-3.51-2.1-5.75-6-5.8-3.95-.04-6.08,2.56-6.2,6.03-.13,3.67,2.45,6.17,6.09,6.15,3.55-.02,5.98-2.14,6.11-6.39Zm-32.96,8.72c-.57-3.81-2.67-5.92-6.54-5.78-3.82,.14-6.24,2.28-6,6.13,.22,3.66,2.76,6.17,6.39,6.01,3.55-.16,5.74-2.66,6.15-6.37Zm-21.66,60.92c-.6-3.06-2.23-5.57-6.2-5.63-3.84-.06-6.37,1.96-6.44,5.75-.07,3.68,2.43,6.27,6,6.44,3.67,.18,5.76-2.43,6.64-6.56Zm83.66-72.39c3.53-.8,5.85-2.89,5.49-6.63-.37-3.78-3.04-5.51-6.72-5.19-3.74,.32-5.95,2.65-5.57,6.37,.39,3.71,3.21,5.24,6.8,5.46Zm27.22-64.96c-.54-3.14-2.19-5.65-6.14-5.73-3.85-.08-6.32,1.99-6.41,5.76-.07,3.25,2.12,5.36,5.42,5.63,3.71,.31,6.2-1.39,7.13-5.67Z"/><path class="uuid-22d4e2bd-ab81-4ca3-b19f-10bf87214b4e" d="M1256.15,514.99c12.16-10.34,25.09-19.59,38.75-27.81,2.65-1.32,5.3-2.64,7.96-3.97,7.15-2.51,14.3-5.01,21.46-7.52,4.05-.71,8.09-1.42,12.14-2.13,10.49-1.16,20.73,1.57,31.11,2.05v100.16c-4.56-.32-9.13-.68-13.08,2.39-12.75,2.35-20.51,13.93-32.55,17.59,.19-5.2-2.4-4.1-5.14-2.18-9.51,6.65-18.62,13.79-27.14,21.71-1.83,1.7-3.66,5.64-7,2.55-3.83-3.53-.12-5.86,2.18-7.83,11.27-9.66,22.25-19.77,34.9-27.62,5.89-3.66,7.88-8.95,9.53-15.03,1.27-4.68-.93-5.21-4.36-4.28-4.88,1.32-9.67,3-14.47,4.62-2.34,.79-4.87,2.71-7.07,.72-2.42-2.19-.09-4.67,.72-6.92,2.82-7.76,5.71-15.48,8.97-24.28-9.13,1.36-17.24,2.58-25.35,3.78-5.61,.83-8.47-.56-6.23-6.99,1.78-5.12,3.02-10.42,4.5-15.64,.68-2.4,2.22-5.28-.11-7.06-2.52-1.92-5.6-.55-8.07,1.02-1.82,1.15-3.37,2.72-5.02,4.14-22.31,19.29-41.45,41.48-59.7,64.54-2.74,3.46-4.83,12.27-9.05,9.11-5.87-4.39,1.9-9.21,4.72-13.21,15.32-21.72,35.39-39.21,52.87-59.02,.78-.64,1.57-1.28,2.35-1.91-1.42-1.34-2.47-.47-3.48,.59-1.65,0-3.43,.39-4.37-1.57Z"/><path class="uuid-99a6453d-3d08-4005-a868-ced508828ec9" d="M1367.57,305.77c-11.28,4.11-16.65,14.86-24.98,22.28-9.99,2.72-20.02,8.5-29.83-.47,5.01-.24,8.82-1.05,2.81-6.24-5.2-4.49-10.49-8.87-15.61-13.45-3.56-3.18-3.86-5.96,.33-9.52,7.44-6.34,14.06-13.63,21.45-20.03,4.27-3.7,4.25-6.07,.58-10.42-12.62-14.94-24.77-30.28-36.95-45.59-2.35-2.95-6.3-5.35-4.9-10.19h13.06c-1.92,4.16,1.63,3.68,3.7,4.2,35.29,8.82,57.32,30.85,66.13,66.13,.52,2.06,.04,5.62,4.2,3.7v19.6Z"/><path class="uuid-57c5094b-73ff-43db-8896-5dd7204dcfbc" d="M1128.06,769.56c2.08-38.6,4.21-77.21,13.12-115.01,1.57-6.65,3.98-13.13,6.44-19.52,1.44-3.74,3.83-7.35,8.54-7.2,4.46,.14,5.58,4.19,6.96,7.43,6.46,15.16,7.72,31.46,10.22,47.48-15.04,28.28-28.33,57.39-40.94,86.82h-4.35Z"/><path class="uuid-07f58f62-18f4-403b-a829-140820145ff6" d="M1280.48,212.14c-1.4,4.84,2.55,7.25,4.9,10.19,12.18,15.31,24.33,30.65,36.95,45.59,3.67,4.35,3.69,6.72-.58,10.42-7.39,6.4-14.01,13.69-21.45,20.03-4.18,3.56-3.88,6.34-.33,9.52,5.12,4.57,10.41,8.96,15.61,13.45,6,5.19,2.2,6-2.81,6.24-9.79-5.21-17.57-12.64-23.01-22.23-5.9-10.4-5.96-10.77-6.82-9.81-5.05,5.71,.88,9.68,2.45,14.34,.22,.67,.74,1.23,1.12,1.85-3.59,3.54-7.16,7.11-10.77,10.62-11.7,11.35-11.65,11.28-.14,22.65,2.35,2.32,7.96,4.28,2.38,8.92-19.1-13.44-24.35-26.64-18.96-47.66,16.95-12.41,31.57-27.42,46.7-41.86,3.62-3.46,2.44-5.83-.3-9.1-9.04-10.8-17.7-21.91-26.66-32.78-2.56-3.1-5.6-5.8-4.83-10.37h6.53Z"/><path class="uuid-fc144ccf-d82c-4efe-98fc-8a05aab8f156" d="M1132.42,769.56c12.61-29.43,25.9-58.54,40.94-86.82,3.36,28.84,4.86,57.79,4.79,86.82h-45.73Z"/><path class="uuid-5a866bd2-cef3-4a63-b6f7-48882095e017" d="M1321.94,595.75c12.04-3.66,19.8-15.24,32.55-17.59,.34,10.43,6.2,9.42,13.08,6.32v8.71c-14.72,1.46-25.73,10.49-37.3,18.35-3.56,2.42-6.96,5.08-10.43,7.63-.32-8.18-3.89-10.96-11.54-6.93-.7-.66-1.39-1.33-2.09-1.99,5.24-4.83,10.49-9.67,15.73-14.5Z"/><path class="uuid-c361cd7a-c91b-4765-9649-04452a85a54c" d="M1363.21,453.86c1.51,.61,2.12,3.04,4.37,2.15v8.71c-4.64,1.93-10.06,4.52-12.22-2.35-1.82-5.8,2.65-8.02,7.86-8.51Z"/><path class="uuid-57c5094b-73ff-43db-8896-5dd7204dcfbc" d="M1367.57,584.48c-6.88,3.1-12.74,4.11-13.08-6.32,3.94-3.07,8.52-2.71,13.08-2.39v8.71Z"/><path class="uuid-79d22650-e976-4957-981e-9584d53eca18" d="M1217.68,405.67c1.32,2.4,2.65,4.81,3.97,7.21,.06,2.85,.12,5.69,.18,8.54-2.45,8.94-6.9,16.66-14.43,22.24-14.48,10.73-29.12,21.25-43.61,31.98-6.76,5.01-7.7,.02-8.86-4.86,2.82-10.65,.38-21.61,1.9-32.34,7.24-2.4,12.48-9.71,21.15-8.6,3.28,6.82,6.36,14.11,15.9,13.02,6.2-.71,10.81-4.14,12.37-10.37,2.06-8.19-1.76-13.82-8.74-17.74,7.09-2.21,12.19-8.85,20.17-9.08Z"/><path class="uuid-07f58f62-18f4-403b-a829-140820145ff6" d="M1266.14,388.81c-12.21-3.89-23.19-9.72-30.25-20.9-8.41-13.31-5.63-26.69,.51-39.93,4.48-3.73,8.96-7.47,13.45-11.2-.28,9,3.66,16.91,6.55,25.09-19.49,15.31-19.53,17.41-.38,33.01,2.5,2.04,5.2,3.88,7.95,5.57,3.18,1.96,4.66,4.41,3.16,8.11l-.99,.25Z"/><path class="uuid-07f58f62-18f4-403b-a829-140820145ff6" d="M1154.93,470.78c1.16,4.88,2.1,9.86,8.86,4.86,14.48-10.73,29.12-21.25,43.61-31.98,7.53-5.58,11.98-13.29,14.43-22.24,2.64,.22,2.1,2.39,2.45,4.01-1.63,7.03-4.25,13.62-8.67,19.39-2.5,2.17-4.99,4.35-7.49,6.53-12.32,8.67-24.03,18.1-35.24,28.14-3.36,2.58-6.73,5.17-10.09,7.75-5.17,4.02-10.34,8.05-15.51,12.07-2.49-4.44-3.45-9.66,.95-12.59,6.21-4.14,6.71-9.7,6.7-15.94Z"/><path class="uuid-829cb834-b507-4eac-8ef5-93b7099b3657" d="M1217.68,405.67c-7.98,.24-13.08,6.87-20.17,9.08-11.51-1.45-17.56,4.18-19.53,15.08-8.67-1.11-13.91,6.21-21.15,8.6,0-1.41,0-2.82,.01-4.22,2.24-2.19,1.67-4.89,1.36-7.54,4.26-5.25,11.78-6.23,15.69-11.95h-.02c8.22-2.6,14.68-8.22,21.79-12.74,3.75-.86,7.5-1.71,11.25-2.56,3.61,2.05,8.87,1.25,10.78,6.24Z"/><path class="uuid-c361cd7a-c91b-4765-9649-04452a85a54c" d="M1256.4,341.86c-2.9-8.17-6.83-16.08-6.55-25.08,3.76-2.9-1.17-13.38,9.18-10.53-5.39,21.02-.14,34.23,18.96,47.67,.64,4.86,.06,7.28-5.57,3.89-6.73-4.05-10.09-11.24-16.02-15.95Z"/><path class="uuid-c361cd7a-c91b-4765-9649-04452a85a54c" d="M1170.32,370.85c.35,.06,.7,.17,1.06,.17,4.53-.04,9.95-1.33,10.7,5.43,.34,3.1-1.92,5.44-5.17,5.77-6.57,.66-7.53-3.86-7.73-8.9,.38-.82,.76-1.64,1.14-2.47Z"/><path class="uuid-57c5094b-73ff-43db-8896-5dd7204dcfbc" d="M1147.91,543.27c4.69-.61,10.21-1.46,10.27,5.3,.06,6.68-5.82,5.69-10.31,5.91,.01-3.73,.03-7.47,.04-11.21Z"/><path class="uuid-56a38dd5-f6c3-48dd-86cd-d6f200574503" d="M1214.38,333.97c1.43,8.77-4.74,12.57-10.89,16.06-2.21,1.26-2.81-.88-2.61-2.85,4.5-4.4,9-8.81,13.5-13.21Z"/><path class="uuid-c361cd7a-c91b-4765-9649-04452a85a54c" d="M1147.99,583.1c7-.04,8.36,4.57,8.43,10.23,0,0,.07-.12,.07-.12-1.59-.07-2.21,.82-2.27,2.27,0,0,.1-.09,.1-.09-2.12,.06-4.25,.12-6.37,.18,.01-4.16,.03-8.33,.04-12.49Z"/><path class="uuid-5a866bd2-cef3-4a63-b6f7-48882095e017" d="M1147.95,595.59c2.12-.06,4.25-.12,6.37-.18,.63,5.34-3.75,7.98-6.27,11.62-.03-3.81-.06-7.63-.09-11.44Z"/><path class="uuid-79d22650-e976-4957-981e-9584d53eca18" d="M1158.2,426.68c.31,2.65,.89,5.35-1.36,7.54-.14-2.14-.29-4.28-.43-6.42,.62-.34,1.21-.71,1.78-1.12Z"/><path class="uuid-fc144ccf-d82c-4efe-98fc-8a05aab8f156" d="M1321.94,595.75c-5.24,4.83-10.49,9.67-15.73,14.5-14.22,12.03-25.83,26.35-36.5,41.5-3.95,1.65-4.84,5.68-6.88,8.82-6.01,4.28-8.79,10.98-12.64,16.87-1.61,3.66-5.43,6.37-4.7,11.03-6.67,1.95-9.37,8.01-13.28,12.82-3.92-1.27-3.41-5.1-4.87-9.13-5.47,6.33-10.51,12.16-15.56,17.99-4.94-3.48-2.3-7.17-.09-9.47,17.04-17.85,12.65-37.56,5.34-57.5-3.57-9.73-5.33-20.29-12.39-28.52-1.58-8.96-7.81-14.97-13.52-21.3-.21-.61-.37-1.23-.47-1.86,6.63-8.71,13.26-17.42,19.89-26.13,.88-1.68,1.76-3.37,2.64-5.05,10.97-12.29,21.94-24.58,32.9-36.88,3.43-2.29,6.4-5.03,8.38-8.72,.56,.07,1.13,.15,1.68,.25,.94,1.96,2.73,1.57,4.37,1.57,.38,.44,.76,.88,1.13,1.33-17.49,19.8-37.57,37.29-52.88,59.01-2.82,4-10.59,8.83-4.72,13.21,4.23,3.16,6.31-5.65,9.05-9.11,18.25-23.06,37.4-45.25,59.7-64.54,1.64-1.42,3.2-2.99,5.02-4.14,2.48-1.58,5.55-2.95,8.07-1.02,2.33,1.78,.78,4.66,.11,7.06-1.48,5.22-2.72,10.52-4.5,15.64-2.24,6.44,.62,7.83,6.23,6.99,8.11-1.2,16.22-2.42,25.35-3.78-3.26,8.8-6.15,16.53-8.97,24.28-.82,2.25-3.14,4.73-.72,6.92,2.19,1.99,4.72,.06,7.07-.72,4.8-1.61,9.59-3.29,14.47-4.62,3.43-.93,5.63-.4,4.36,4.28-1.65,6.08-3.64,11.37-9.53,15.03-12.65,7.86-23.63,17.96-34.9,27.62-2.3,1.97-6.01,4.3-2.18,7.83,3.35,3.08,5.18-.85,7-2.55,8.51-7.92,17.62-15.06,27.14-21.71,2.74-1.91,5.33-3.02,5.14,2.18Zm-59.39,46.52c2.69-2.66,6.57-4.7,6.81-9.08,.1-1.81-1.25-5.09-3.78-3.46-3.13,2.02-6.91,4.44-6.49,9.15,.15,1.65,.98,3.44,3.46,3.39Z"/><path class="uuid-5a866bd2-cef3-4a63-b6f7-48882095e017" d="M1232.22,701.29c3.91-4.81,6.6-10.88,13.28-12.82,3.58,1.26,6.64,.45,8.2-3.03,1.62-3.62-.34-6.2-3.5-8,3.85-5.9,6.63-12.59,12.64-16.87,3.25,3.62,7.33,4.21,10.11,.43,2.59-3.52,2.06-7.64-3.23-9.25,10.67-15.15,22.29-29.47,36.5-41.5,.69,.66,1.39,1.33,2.08,1.99-4.7,7.13,3.5,8.99,5.47,13.4-22.51,19.54-40.24,43.18-57.32,67.33-7.79,11.02-16.24,21.62-22.81,36.47-2.77-11.13-4.47-19.48-1.43-28.14Z"/><path class="uuid-79d22650-e976-4957-981e-9584d53eca18" d="M1191.13,593.37c5.71,6.34,11.94,12.35,13.52,21.3-7.84,6.8-10.74,16.74-15.97,25.2-3.19,5.16-5.28,11.02-10.51,16.09-5.54-12.37-9.44-23.37-.19-35.91,5.8-7.86,11.23-16.59,13.15-26.69Z"/><path class="uuid-c361cd7a-c91b-4765-9649-04452a85a54c" d="M1313.77,625.64c-1.97-4.41-10.18-6.27-5.47-13.4,7.65-4.02,11.22-1.25,11.54,6.93-2.02,2.16-4.04,4.31-6.07,6.47Z"/><path class="uuid-5a866bd2-cef3-4a63-b6f7-48882095e017" d="M1154.22,595.49c.06-1.45,.69-2.34,2.27-2.27,.43,1.94,.06,3.09-2.27,2.27Z"/><path class="uuid-56a38dd5-f6c3-48dd-86cd-d6f200574503" d="M1266.14,388.81s.99-.25,.99-.25c11.33,1.74,20.42-2.54,28.14-10.48,16.07,17.96,32.14,35.92,48.21,53.88-.07,.74-.13,1.49-.19,2.23-1.96,0-3.92,0-5.88-.01-4.62-5.79-11.07-8.65-17.77-11.12-2.4-3.91-5.42-6.78-10.48-6.26-5.38-4.07-10.76-8.14-16.14-12.2,2.02-4.9,1.68-9.56-4.04-10.89-5.12-1.19-6.28,3.09-6.49,7.3-4.25-5.68-11.16-7.8-16.36-12.21Z"/><path class="uuid-57c5094b-73ff-43db-8896-5dd7204dcfbc" d="M1236.98,460.55c3.62,.45,6.1,2.27,6.29,6.04,.19,3.75-1.95,6.27-5.62,6.53-4.21,.29-6.87-2.19-6.84-6.42,.03-3.68,2.54-5.67,6.18-6.16Z"/><path class="uuid-57c5094b-73ff-43db-8896-5dd7204dcfbc" d="M1182.97,530.31c3.54,.81,6.01,2.84,5.75,6.58-.29,4.24-3.11,6.45-7.28,5.88-3.69-.5-5.6-3.25-5.17-6.9,.43-3.7,3.07-5.39,6.7-5.56Z"/><path class="uuid-57c5094b-73ff-43db-8896-5dd7204dcfbc" d="M1302.86,483.21c-2.66,1.33-5.31,2.65-7.96,3.97-3.81-2.21-5.94-5.2-3.69-9.6,1.18-2.31,3.37-3.95,6.09-3.4,4.88,.98,5.5,4.91,5.57,9.03Z"/><path class="uuid-57c5094b-73ff-43db-8896-5dd7204dcfbc" d="M1173.89,414.73c-2.06-.15-4.15-.14-6.18-.48-4-.67-6.75-3.03-6.47-7.19,.21-3.07,2.51-5.25,5.82-5.29,4.37-.05,6.47,2.48,6.62,6.74,.07,2.08,.13,4.15,.19,6.23,0,0,.02-.01,.02-.01Z"/><path class="uuid-57c5094b-73ff-43db-8896-5dd7204dcfbc" d="M1258.38,421.09c-3.84-.51-6.05-2.7-5.99-6.46,.06-3.83,2.44-6.18,6.27-5.84,3.56,.32,6.15,2.65,6.12,6.4-.03,3.89-2.75,5.59-6.39,5.89Z"/><path class="uuid-c361cd7a-c91b-4765-9649-04452a85a54c" d="M1215.18,534.47c-3.89-.82-6.5-2.86-6.07-6.56,.45-3.9,3.16-6.67,7.33-6.05,3.51,.52,5.63,3.25,5.14,6.98-.49,3.7-3.1,5.36-6.4,5.63Z"/><path class="uuid-57c5094b-73ff-43db-8896-5dd7204dcfbc" d="M1235.03,396.75c-3.55-1.01-6.24-3.06-5.9-6.75,.31-3.44,2.52-6.08,6.51-5.73,3.8,.33,5.87,2.61,5.61,6.49-.25,3.83-2.61,5.67-6.22,5.99Z"/><path class="uuid-57c5094b-73ff-43db-8896-5dd7204dcfbc" d="M1201.77,469.74c3.47,.63,6.11,2.56,6.33,6.21,.23,3.79-2.16,6.05-5.99,6.17-3.84,.12-6.2-1.99-6.4-5.81-.21-3.96,2.55-5.63,6.06-6.57Z"/><path class="uuid-57c5094b-73ff-43db-8896-5dd7204dcfbc" d="M1272.14,464.14c-3.55-.62-6.13-2.63-6.37-6.24-.26-3.84,2.27-6.03,6.02-6.14,3.79-.11,6.14,1.99,6.35,5.86,.23,4.06-2.6,5.56-5.99,6.53Z"/><path class="uuid-79d22650-e976-4957-981e-9584d53eca18" d="M1248.71,436.32c3.92-.08,6.01,2.07,6.17,5.75,.17,3.86-2.48,6.01-5.89,6.28-3.73,.3-5.91-2.26-6.08-5.9-.17-3.79,2.02-5.83,5.79-6.13Z"/><path class="uuid-c361cd7a-c91b-4765-9649-04452a85a54c" d="M1157.91,510.47c4.38,.52,6.64,2.94,6.47,6.36-.19,3.94-2.94,6.64-7.08,6.18-3.56-.39-5.58-3.04-5.21-6.77,.37-3.74,2.89-5.38,5.82-5.77Z"/><path class="uuid-c361cd7a-c91b-4765-9649-04452a85a54c" d="M1217.3,367.54c-.44,3.64-2.45,5.87-6.36,5.78-3.84-.09-6.29-2.26-6.13-6.08,.15-3.67,2.7-6.22,6.34-6.13,3.53,.09,6.01,2.3,6.15,6.42Z"/><path class="uuid-57c5094b-73ff-43db-8896-5dd7204dcfbc" d="M1308.36,443.83c3.53,.55,6.17,2.41,6.44,6.06,.28,3.79-2.07,6.01-5.86,6.2-3.78,.19-6.29-1.73-6.46-5.58-.17-3.81,2.49-5.64,5.87-6.68Z"/><path class="uuid-c361cd7a-c91b-4765-9649-04452a85a54c" d="M1232.75,498.7c-.13,4.24-2.56,6.37-6.11,6.39-3.64,.02-6.22-2.48-6.09-6.15,.12-3.47,2.25-6.07,6.2-6.03,3.9,.04,5.79,2.29,6,5.8Z"/><path class="uuid-57c5094b-73ff-43db-8896-5dd7204dcfbc" d="M1199.8,507.41c-.41,3.71-2.61,6.21-6.15,6.37-3.63,.16-6.17-2.35-6.39-6.01-.24-3.86,2.18-5.99,6-6.13,3.87-.15,5.97,1.97,6.54,5.78Z"/><path class="uuid-57c5094b-73ff-43db-8896-5dd7204dcfbc" d="M1178.13,568.33c-.88,4.13-2.98,6.74-6.64,6.56-3.57-.18-6.07-2.76-6-6.44,.07-3.79,2.61-5.81,6.44-5.75,3.97,.06,5.59,2.58,6.2,5.63Z"/><path class="uuid-57c5094b-73ff-43db-8896-5dd7204dcfbc" d="M1261.79,495.92c-3.58-.21-6.4-1.73-6.79-5.45-.39-3.71,1.83-6.04,5.57-6.37,3.68-.32,6.35,1.42,6.72,5.19,.36,3.74-1.95,5.84-5.5,6.62Z"/><path class="uuid-57c5094b-73ff-43db-8896-5dd7204dcfbc" d="M1208.12,451.35c2.5-2.18,4.99-4.35,7.49-6.53,3.46,1.63,5.85,3.98,4.76,8.14-.68,2.58-2.76,4.26-5.28,4.55-4.36,.51-6.24-2.31-6.97-6.17Z"/><path class="uuid-57c5094b-73ff-43db-8896-5dd7204dcfbc" d="M1289.02,430.98c-.93,4.27-3.42,5.98-7.13,5.67-3.3-.28-5.49-2.39-5.42-5.63,.09-3.78,2.56-5.84,6.41-5.76,3.95,.08,5.59,2.59,6.14,5.73Z"/><path class="uuid-c361cd7a-c91b-4765-9649-04452a85a54c" d="M1282.5,401.01c.21-4.22,1.37-8.5,6.49-7.3,5.72,1.33,6.05,6,4.04,10.89-4.43,1.49-7.32-1.51-10.53-3.59Z"/><path class="uuid-57c5094b-73ff-43db-8896-5dd7204dcfbc" d="M1213.19,560.33c-.88,1.68-1.76,3.37-2.64,5.05-4.1-.3-9.14,.58-9.69-5.41-.26-2.84,1.38-5.57,4.73-6.03,4.74-.65,7.32,1.58,7.59,6.39Z"/><path class="uuid-57c5094b-73ff-43db-8896-5dd7204dcfbc" d="M1337.41,434.18c1.96,0,3.92,0,5.88,.01,2.56,3.23,4.64,6.71,.78,10.17-2.27,2.03-5.6,2.17-7.74-.1-3.26-3.45-2.31-7.04,1.09-10.08Z"/><path class="uuid-57c5094b-73ff-43db-8896-5dd7204dcfbc" d="M1336.46,473.56c-4.05,.71-8.09,1.42-12.14,2.13-1.02-4.55-.58-8.99,4.73-9.84,5.17-.83,7.34,2.82,7.41,7.72Z"/><path class="uuid-57c5094b-73ff-43db-8896-5dd7204dcfbc" d="M1309.17,416.8c5.05-.52,8.08,2.35,10.48,6.26-2.43,2.93-5.15,5.24-9.08,2.71-3.68-2.37-4.28-5.46-1.39-8.97Z"/><path class="uuid-c361cd7a-c91b-4765-9649-04452a85a54c" d="M1162.79,487.24c3.36-2.58,6.73-5.17,10.09-7.75,2.88,3.42,3.55,7.09-.22,10.04-3.85,3.01-7.17,1.05-9.87-2.29Z"/><path class="uuid-57c5094b-73ff-43db-8896-5dd7204dcfbc" d="M1224.29,425.43c-.36-1.62,.19-3.79-2.45-4.01-.06-2.85-.12-5.7-.18-8.54,4.35-.36,8.23,.34,8.85,5.56,.51,4.34-1.69,6.83-6.21,6.99Z"/><path class="uuid-57c5094b-73ff-43db-8896-5dd7204dcfbc" d="M1206.91,399.43c-3.75,.85-7.5,1.71-11.25,2.56-2.98-5.02,.2-7.72,4.24-8.73,4.35-1.09,6.45,2.06,7.01,6.16Z"/><path class="uuid-57c5094b-73ff-43db-8896-5dd7204dcfbc" d="M1254.47,514.74c-1.97,3.69-4.95,6.42-8.38,8.72-2.24-9.35-.48-11.18,8.38-8.72Z"/><path class="uuid-fc144ccf-d82c-4efe-98fc-8a05aab8f156" d="M1260.52,516.56c1.01-1.07,2.06-1.94,3.48-.59-.79,.63-1.57,1.27-2.35,1.91-.37-.44-.75-.88-1.13-1.32Z"/><path class="uuid-99a6453d-3d08-4005-a868-ced508828ec9" d="M1295.27,378.07c-7.72,7.95-16.81,12.23-28.14,10.48,1.49-3.7,.02-6.14-3.17-8.11-2.75-1.7-5.45-3.53-7.95-5.57-19.15-15.6-19.11-17.71,.38-33.01,5.93,4.7,9.3,11.89,16.03,15.94,5.63,3.39,6.21,.97,5.57-3.89,5.58-4.64-.03-6.6-2.38-8.92-11.51-11.37-11.57-11.3,.14-22.65,3.62-3.51,7.18-7.08,10.77-10.62,11.75,14.34,24.28,27.38,44.85,27.15-12.03,13.07-24.06,26.13-36.09,39.2Z"/><path class="uuid-c361cd7a-c91b-4765-9649-04452a85a54c" d="M1331.37,338.88c-20.57,.24-33.1-12.81-44.85-27.15-.38-.61-.9-1.18-1.12-1.85-1.57-4.66-7.5-8.63-2.45-14.34,.85-.96,.91-.59,6.82,9.81,5.45,9.59,13.22,17.02,23.01,22.23,9.8,8.97,19.84,3.19,29.83,.47,.45,7.96-5.99,8.77-11.23,10.82Z"/><path class="uuid-07f58f62-18f4-403b-a829-140820145ff6" d="M1177.98,429.84c1.97-10.91,8.02-16.54,19.53-15.08,6.98,3.91,10.8,9.55,8.74,17.74-1.57,6.23-6.18,9.67-12.37,10.37-9.54,1.09-12.62-6.2-15.9-13.02Z"/><path class="uuid-22d4e2bd-ab81-4ca3-b19f-10bf87214b4e" d="M1262.56,642.27c-2.48,.06-3.31-1.73-3.46-3.39-.42-4.71,3.36-7.14,6.49-9.15,2.53-1.63,3.87,1.65,3.78,3.46-.23,4.37-4.11,6.41-6.81,9.08Z"/><path class="uuid-57c5094b-73ff-43db-8896-5dd7204dcfbc" d="M1269.72,651.75c5.3,1.62,5.82,5.74,3.23,9.25-2.78,3.78-6.87,3.19-10.11-.43,2.04-3.14,2.94-7.17,6.88-8.82Z"/><path class="uuid-57c5094b-73ff-43db-8896-5dd7204dcfbc" d="M1250.2,677.44c3.16,1.8,5.12,4.38,3.5,8-1.56,3.48-4.62,4.29-8.2,3.03-.73-4.66,3.1-7.37,4.7-11.03Z"/></g><g><path d="M795.4,455.8c-.42,.72-1.02,.96-2.58,1.14-2.22,5.82-5.34,11.1-9.66,15.6,4.86,2.7,10.32,4.56,15.84,5.94l-.12,.72c-3.78,.66-6.48,3.42-7.8,7.56-5.28-2.46-9.78-5.4-13.5-9.36-5.64,4.2-12.78,7.38-21.78,9.36l-.36-.66c7.5-3.3,13.68-7.92,18.36-13.44-3.06-4.56-5.4-10.26-6.9-17.52h-3.84l-.54-1.68h10.74v-10.68h-10.92c.72,.78,1.44,1.56,1.98,2.22-.18,.66-.78,.96-1.62,.96h-7.26v8.22c2.4-.66,4.92-1.38,7.38-2.1l.12,.48c-1.86,1.62-4.32,3.72-7.5,6.12v19.02c0,5.52-1.14,8.46-9.54,9.18-.12-2.58-.36-4.5-1.14-5.76-.72-1.2-1.74-2.04-4.32-2.58v-.78s4.68,.3,5.82,.3c.84,0,1.08-.24,1.08-.9v-12.6l-2.16,1.44c-.24,.84-.9,1.56-1.68,1.8l-3.48-9.66c1.56-.3,4.14-.96,7.32-1.8v-10.38h-6.18l-.48-1.68h6.66v-14.46l10.32,.96c-.12,.9-.72,1.5-2.22,1.74v11.28l3-4.98s1.62,1.62,3.3,3.36l-.3-1.08h11.82v-10.62l10.92,.84c-.12,.9-.54,1.44-2.22,1.74v8.04h4.02l4.26-5.7s4.86,3.84,7.74,6.42c-.18,.66-.9,.96-1.74,.96h-14.28v10.68h.78l4.86-4.68,7.8,7.02Zm-27.54-.66c2.04,5.52,5.22,9.78,9.24,13.2,2.7-4.08,4.68-8.52,6.06-13.2h-15.3Z"/><path d="M768.88,524.62c-4.32,2.88-11.34,6.66-22.56,11.76-.36,.78-1.08,1.38-1.86,1.56l-4.5-10.8c1.86-.12,4.86-.42,8.46-.78v-26.52h-7.68l-.48-1.68h15.54l3.72-4.8s4.2,3.24,6.66,5.52c-.18,.66-.78,.96-1.62,.96h-7.26v25.56c3.66-.42,7.62-.84,11.52-1.38l.06,.6Zm12.66-26.82c-1.32,4.38-3.72,11.88-5.28,16.56h8.7l4.56-4.44,7.5,6.48c-.48,.6-1.26,1.02-2.64,1.2-1.08,15.48-2.88,23.82-6.72,26.82-2.4,1.92-5.16,2.46-10.32,2.46,.06-2.4-.36-4.14-1.68-5.34-1.44-1.38-4.2-2.46-7.74-3.12l.06-.6c3.78,.24,9.18,.54,10.86,.54,1.08,0,1.68-.12,2.34-.66,2.04-1.56,3.48-9.72,4.32-21.66h-9.42l-3.06,3.78-8.34-4.56c.54-.54,1.26-1.08,2.1-1.56,1.74-4.5,3.9-11.94,4.86-15.9h-6.24l-.48-1.68h20.88l4.32-5.88s4.92,3.96,7.8,6.6c-.18,.66-.84,.96-1.74,.96h-14.64Z"/><path d="M750.1,586.18c3.48,7.98,1.26,13.62-2.16,15.48-2.34,1.32-5.4,.54-6.3-1.98-.72-2.46,.72-4.32,2.82-5.34,2.46-1.14,5.04-4.38,4.92-8.16h.72Zm8.16-4.02c0,.84-3.84,2.7-7.38,2.7h-1.26v-25.38l9.18,3.48h13.68c1.44-3.96,2.94-9.48,3.66-13.26l11.58,3.6c-.3,.72-.96,1.2-2.34,1.08-2.7,2.46-6.54,5.94-10.44,8.58h4.8l3.72-4.02,7.62,5.76c-.3,.42-.96,.9-2.1,1.14v16.14c-.06,.48-4.32,1.92-7.14,1.92h-1.5v-3.18h-22.08v1.44Zm-3.6-31.8c19.14,.72,12.66,15.72,4.92,10.5-.6-3.72-2.94-7.68-5.34-10.14l.42-.36Zm29.04,46.92c2.46,.9,3.06,1.86,3.06,3.3,0,3.6-3.3,4.5-15.42,4.5h-7.38c-7.56,0-9.48-1.2-9.48-6.66v-13.32l10.62,.78c-.12,.84-.66,1.32-1.92,1.56v9.54c0,.78,.3,1.08,2.22,1.08h7.02c1.92,0,4.02,0,5.04-.06,1.02-.06,1.44-.3,1.98-.9,.84-1.02,1.98-3.3,3.48-6.9h.6l.18,7.08Zm-25.44-32.64v14.4h22.08v-14.4h-22.08Zm8.7,18c17.46,2.46,10.56,15.78,3.72,10.5-.3-3.6-2.16-7.56-4.2-10.2l.48-.3Zm15.84,2.64c20.46,3.48,13.44,19.44,5.64,13.5-.42-4.74-3.06-9.84-6.12-13.14l.48-.36Z"/><path d="M740.26,641.86s1.8-.36,2.52-.9c2.28-1.5,5.1-4.8,7.62-8.52-1.62,.9-3.42,1.74-5.28,2.64-.42,.42-.84,.78-1.26,.96l-3.78-9.12s1.56-.36,2.22-.78c3-2.46,7.32-11.16,8.4-15.9l10.5,4.2c-.24,.54-.9,1.02-2.04,.96-3.12,3.9-8.52,8.7-13.26,11.76,2.28-.06,5.1-.18,8.04-.36,1.2-2.16,2.16-4.2,2.76-5.94l9.84,5.16c-.3,.54-1.08,.96-2.28,.84-3.72,4.62-10.92,10.86-17.28,14.88,4.38-.42,10.26-1.02,16.14-1.68l.06,.66c-3.42,2.04-9.72,5.52-17.64,9-.42,.6-.96,1.02-1.5,1.26l-3.78-9.12Zm0,13.2c4.2-.6,14.76-2.7,24.6-4.98l.12,.48c-3.78,3.12-9.96,7.5-19.2,12.9-.3,.84-1.02,1.5-1.8,1.74l-3.72-10.14Zm42.72-31.26v10.74h3l3.84-5.04s4.32,3.42,6.9,5.76c-.12,.66-.78,.96-1.62,.96h-30.12l-.48-1.68h10.08v-10.74h-11.7l-.48-1.68h12.18v-12.12l10.56,.84c-.06,.9-.48,1.44-2.16,1.74v9.54h4.26l3.9-5.16s4.5,3.48,7.14,5.88c-.18,.66-.84,.96-1.68,.96h-13.62Zm5.22,14.94l7.14,5.46c-.42,.54-1.02,.96-2.4,1.2v19.44c0,.3-2.58,1.74-6.9,1.74h-1.5v-5.04h-10.8v3.66c0,.54-2.46,1.86-6.54,1.86h-1.44v-27.18l8.64,3.24h9.9l3.9-4.38Zm-3.66,21.12v-15.06h-10.8v15.06h10.8Z"/></g><g><path d="M601.58,462.12c-2.46,1.98-7.02,5.52-12.96,9.24-.48,.84-1.08,1.5-1.74,1.86,3.6,.66,8.04,.9,13.74,.9,6.24-.06,11.52-.12,17.82-.54v.72c-3.18,.78-5.04,3.84-5.34,7.26h-15.18c-12.48,0-17.46-3.36-22.02-10.8-.84-1.32-1.5-1.14-2.28,.06-1.14,2.1-4.14,6.66-6.12,10.38,.12,.6-.18,1.08-.72,1.44l-5.46-8.64c2.28-1.08,5.16-2.7,7.68-4.08v-20.34h-6.54l-.3-1.74h5.88l3.96-5.22,8.34,6.66c-.54,.6-1.44,1.08-3.18,1.38v18.18c2.4,2.22,5.4,3.6,9.72,4.38l-5.1-7.8c2.16-1.5,2.46-2.16,2.46-3.72v-34.56l8.64,3.18h10.02l3.72-4.08,7.68,5.82c-.42,.48-1.14,1.02-2.4,1.26v16.02c0,.18-.6,.54-1.5,.9l7.86,6.06c-.3,.48-.9,.66-2.22,.3-1.68,.6-4.74,1.26-7.44,1.8,9.48,6.72,5.46,15.54-.96,12-2.52-5.82-8.22-12.48-12.96-16.86l.54-.42c4.56,.96,8.1,2.22,10.86,3.72,1.14-1.98,2.4-4.38,3.24-6.12-1.38,.42-3,.84-4.38,.84h-1.44v-1.8h-10.92v13.5c2.76-.54,5.82-1.14,8.88-1.74l.12,.6Zm-36.6-34.86c19.98,3.96,13.32,19.02,5.58,13.38-.9-4.56-3.54-9.54-6.06-13.08l.48-.3Zm27.6,11.82h10.92v-7.08h-10.92v7.08Zm10.92,9v-7.32h-10.92v7.32h10.92Z"/><path d="M585.5,519.84c-3.54,2.94-9.42,7.02-18.3,12.36-.3,.78-.96,1.44-1.74,1.68l-4.38-9.72c1.56-.24,4.02-.72,7.08-1.26v-18.12h-6.3l-.48-1.68h6.78v-16.2l10.56,.9c-.12,.84-.54,1.44-2.22,1.74v13.32l3.06-5.46s3.6,3.96,5.4,6.42c-.18,.66-.78,.96-1.62,.96h-6.84v16.44c2.88-.6,5.94-1.26,8.94-1.92l.06,.54Zm31.68,13.26c1.68,.9,1.98,1.74,1.98,3.24,0,3-2.58,4.68-8.46,4.68h-2.82c-5.1,0-5.82-1.56-5.82-6.42v-25.74h-7.02v8.04c0,8.64-1.98,20.1-21.48,26.1l-.36-.54c11.94-7.32,13.8-16.68,13.8-25.5v-12.96l9.24,3.18h5.1l3.78-4.32,6.96,5.64c-.36,.48-.96,.84-2.16,1.02v22.86c0,.72,.18,1.02,.78,1.02h1.02c.36,0,.72,0,.96-.06,.36,0,.66-.06,1.02-.66,.6-1.08,1.68-4.56,2.64-7.98h.6l.24,8.4Zm-35.1-33.54l-.48-1.68h25.08l4.5-6.3s5.04,4.2,7.92,7.02c-.18,.66-.84,.96-1.74,.96h-35.28Zm9.54-13.56c18.54,1.68,10.44,15.9,3.06,9.96-.06-3.48-1.62-7.2-3.48-9.66l.42-.3Z"/><path d="M610.94,592.79s4.8,3.66,7.62,6.18c-.18,.66-.84,.96-1.68,.96h-54.12l-.48-1.68h44.46l4.2-5.46Zm-38.64-36.84c.54,4.44-.96,7.56-3.18,8.94-2.1,1.32-5.34,.6-6.24-2.04-.78-2.52,.72-4.44,2.82-5.4,1.98-1.08,4.44-3.84,4.38-6.84h.72c.54,1.26,.9,2.52,1.2,3.66h15.72c-.24-.12-.42-.24-.66-.36-.24-2.88-1.92-5.82-3.9-7.44l.36-.3c13.2-1.62,13.2,5.82,9.24,8.1h14.4l4.08-4.14,7.14,6.72c-.48,.54-1.02,.72-2.28,.78-2.04,1.86-5.28,4.26-7.98,5.58l.36,.3c-.12,.66-.78,.96-1.68,.96h-34.62l-.48-1.68h25.68l3.9-4.86s3.66,2.64,6.36,4.86c.12-1.92,.18-4.68,.18-6.84h-35.52Zm24.96,38.34v-3.24h-15.66v2.58c0,.54-2.58,1.92-6.9,1.92h-1.56v-28.38l9.06,3.36h14.82l4.08-4.62,7.38,5.7c-.36,.54-.96,.96-2.34,1.2v19.68c0,.36-2.7,1.8-7.32,1.8h-1.56Zm-15.66-22.08v7.8h15.66v-7.8h-15.66Zm15.66,17.16v-7.68h-15.66v7.68h15.66Z"/><path d="M610.58,610.88s4.98,3.78,8.04,6.42c-.18,.66-.9,.96-1.74,.96h-54.72l-.48-1.68h44.46l4.44-5.7Zm-7.74,27.54l8.4,6.3c-.42,.54-1.26,1.14-2.64,1.44v14.1c-.06,.42-4.68,1.8-7.56,1.8h-1.56v-3.48h-19.08v1.32c0,.78-3.9,2.7-7.5,2.7h-1.2v-23.22l9.18,3.48h17.94l4.02-4.44Zm-.78-18.24s4.56,3.3,7.38,5.64c-.12,.66-.78,.96-1.68,.96h-35.46l-.48-1.68h26.22l4.02-4.92Zm.36,8.82s4.56,3.3,7.38,5.64c-.18,.66-.84,.96-1.68,.96h-35.76l-.48-1.68h26.52l4.02-4.92Zm-2.94,27.9v-12.36h-19.08v12.36h19.08Zm-16.38-50.94c18.96-.54,11.52,14.4,3.6,8.94-.3-3.24-2.04-6.6-3.96-8.64l.36-.3Z"/></g><g><path d="M477.5,141.32c10.58,4.76,14.48,9.02,14.48,17.04,0,9.44-7.17,15.9-20.52,15.9-5.82,0-12.28-1.49-16.54-4.26l.5-12.21h4.12l3.76,12.35c2.13,.78,4.26,1.07,6.96,1.07,7.03,0,10.93-3.34,10.93-8.88,0-4.83-2.06-7.38-7.74-9.87l-3.41-1.49c-9.51-4.26-14.55-9.02-14.55-17.54,0-9.58,7.74-15.05,19.31-15.05,5.54,0,10.51,1.49,14.41,4.05l-.64,11.57h-4.12l-3.62-11.79c-1.42-.64-2.84-.85-4.61-.85-6.18,0-10.15,3.12-10.15,8.45,0,4.9,2.7,7.53,7.67,9.8l3.76,1.7Z"/><path d="M522.87,168.15c-2.13,3.83-5.68,5.89-11.15,5.89-7.24,0-11.15-3.27-11.08-11.15,0-2.7,.07-4.76,.07-7.74v-18.18h-5.75v-2.27l6.32-.71,3.69-11.36h7.31l-.14,11.43h8.8v2.91h-8.8v26.84c0,3.83,1.85,5.47,4.69,5.47,1.77,0,2.98-.71,4.83-2.27l1.21,1.14Z"/><path d="M524.93,153.24c0-12.57,8.95-20.38,20.09-20.38s20.16,7.67,20.16,20.38-8.09,20.8-20.16,20.8-20.09-8.31-20.09-20.8Zm27.97,.14c0-12.42-2.77-18.03-7.88-18.03s-7.95,5.61-7.95,18.03,2.84,18.18,7.95,18.18,7.88-5.82,7.88-18.18Z"/><path d="M586.35,143.8c2.13-7.24,6.96-10.93,11.22-10.93,3.34,0,6.18,1.35,6.89,5.61-.28,3.12-1.7,5.75-5.25,5.75-2.7,0-4.4-1.7-6.32-4.26l-.64-.85c-2.84,2.63-4.54,5.68-5.89,10.93v5.89c0,3.91,.07,9.87,.14,14.06l6.53,.64v2.2h-23.08v-2.2l4.83-.5c.07-4.12,.14-10.22,.14-14.2v-5.89c0-4.62-.07-6.96-.21-10.37l-5.33-.57v-1.7l15.41-4.47,.99,.71,.57,10.15Z"/><path d="M675.52,170.64v2.2h-20.09v-2.2l4.26-.43c.07-4.12,.14-10.15,.14-14.27v-9.58c0-6.25-1.56-8.09-4.97-8.09-2.63,0-5.25,1.49-7.95,4.19,.21,1.28,.28,2.63,.28,4.12v9.37c0,4.19,.07,10.22,.21,14.34l3.98,.36v2.2h-20.09v-2.2l4.54-.43c.07-4.12,.14-10.15,.14-14.27v-9.58c0-5.82-1.49-8.09-4.9-8.09-2.56,0-5.25,1.63-7.81,4.12v13.56c0,3.98,.07,10.15,.14,14.34l4.05,.36v2.2h-20.52v-2.2l4.76-.43c.07-4.19,.14-10.29,.14-14.27v-5.89c0-4.69-.07-6.96-.21-10.44l-5.33-.57v-1.63l15.41-4.47,.99,.71,.5,6.32c4.12-4.9,7.95-7.1,12.78-7.1,5.33,0,8.95,2.41,10.44,7.38,4.69-5.61,8.52-7.38,13.13-7.38,7.95,0,11.57,4.47,11.57,14.13v8.95c0,4.19,.07,10.22,.14,14.27l4.26,.43Z"/><path d="M696.04,137.84c3.48-3.41,7.6-4.97,12-4.97,8.88,0,15.76,7.17,15.76,20.45,0,11.71-6.6,20.73-16.61,20.73-4.26,0-8.24-1.56-11.29-5.04l-1.49,4.9-14.48-1.06v-2.2l4.69-.43c.07-4.12,.14-10.29,.14-14.27v-36.35l-5.18-.5v-1.85l15.69-3.05,.99,.64-.21,11.43v11.57Zm.14,29.18c1.85,1.42,3.83,1.99,5.96,1.99,4.97,0,9.44-2.98,9.44-15.97,0-11.08-3.91-15.27-9.23-15.27-2.2,0-4.05,.28-6.18,2.13v27.12Z"/><path d="M729.27,153.24c0-12.57,8.95-20.38,20.09-20.38s20.16,7.67,20.16,20.38-8.09,20.8-20.16,20.8-20.09-8.31-20.09-20.8Zm27.97,.14c0-12.42-2.77-18.03-7.88-18.03s-7.95,5.61-7.95,18.03,2.84,18.18,7.95,18.18,7.88-5.82,7.88-18.18Z"/><path d="M819.08,170.78v2.13l-15.62,.92-.35-7.1c-3.27,4.12-7.95,7.31-13.13,7.31-7.1,0-11.57-3.83-11.43-14.63l.28-21.09-4.97-.99v-1.92l15.76-2.13,.92,.71-.43,11.57v14.91c0,5.68,2.2,7.46,5.61,7.46,2.7,0,5.25-1.35,7.31-3.41l.28-26.27-4.76-.92v-1.56l15.41-2.49,.92,.71-.28,11.57v24.85l4.47,.35Z"/><path d="M868.71,170.64v2.2h-20.59v-2.2l4.47-.43c.07-4.12,.14-10.15,.14-14.27v-10.22c0-5.54-1.56-7.53-4.9-7.53-2.13,0-5.04,1.35-8.09,4.05v13.7c0,3.98,.07,10.15,.14,14.34l4.05,.36v2.2h-20.52v-2.2l4.76-.43c.07-4.19,.14-10.29,.14-14.27v-5.89c0-4.62-.07-6.96-.21-10.37l-5.33-.57v-1.7l15.41-4.47,.99,.71,.43,6.25c4.69-5.4,8.59-7.03,13.28-7.03,6.75,0,11.36,4.4,11.36,13.7v9.37c0,4.19,.07,10.22,.21,14.34l4.26,.36Z"/><path d="M916.42,170.64v2.2l-15.19,.85-.57-4.4c-2.98,2.98-6.67,4.76-11,4.76-9.3,0-16.61-7.46-16.61-20.31s7.88-20.87,17.61-20.87c4.12,0,7.38,1.56,10.15,4.83v-18.03l-5.82-.57v-1.85l16.12-3.05,.99,.64-.28,11.36v44.16l4.61,.28Zm-16.05-31.03c-1.7-1.35-3.48-1.85-5.25-1.85-5.4,0-9.87,3.62-9.87,15.55s4.12,15.69,9.58,15.69c1.99,0,3.83-.5,5.54-1.85v-27.55Z"/></g></svg>