<?xml version="1.0" encoding="UTF-8"?><svg id="g" xmlns="http://www.w3.org/2000/svg" viewBox="0 0 1366 768"><defs><style>.i{fill:#fff;}.j{fill:#003e56;}</style></defs><rect class="j" x="-.15" y=".71" width="1366" height="767"/><g><path class="i" d="M696.45,195.72c2.27-.39,4.09-.58,5.48-.58s2.72,.54,4.03,1.62c1.3,1.08,1.95,2.02,1.95,2.82s-.44,1.2-1.33,1.2c-.22,0-.44-.03-.66-.08-4.26-1.11-7.22-1.66-8.88-1.66s-3.38,.2-5.15,.58c-1.49,.89-3.04,2.24-4.65,4.07,1.33-.44,2.57-.66,3.73-.66s2.16,.25,2.99,.75,1.56,1.29,2.2,2.37c.64,1.08,1.06,2.21,1.29,3.4,.22,1.19,.33,3.72,.33,7.59s-.12,6.57-.37,8.09c-.25,1.52-.87,3.33-1.87,5.44-1,2.1-1.72,3.43-2.16,3.98-.44,.55-.87,.83-1.29,.83s-.79-.36-1.12-1.08c-1-2.05-2.57-4.54-4.73-7.47-1.66,0-2.88,.26-3.65,.79-.78,.53-2.02,.79-3.73,.79,0,1.38-.26,2.07-.79,2.07s-1.38-1.29-2.57-3.86c-1.19-2.57-1.78-5.33-1.78-8.26,0-.94,.08-1.88,.25-2.82-9.19,9.24-15.77,13.86-19.75,13.86-1.33,0-1.99-.25-1.99-.75,0-.33,.33-.66,1-1,2.21-1,9.16-7.22,20.83-18.68-.11-.77-.17-1.49-.17-2.16s.22-1,.66-1,1.08,.22,1.91,.66c1.77-1.49,3.62-3.21,5.56-5.15-4.1,.83-8.09,1.91-11.99,3.24-3.9,1.33-8.81,3.46-14.73,6.39-2.66,1.27-4.84,1.91-6.56,1.91s-2.57-.71-2.57-2.12,.26-2.53,.79-3.36c.53-.83,1.06-1.25,1.62-1.25s.94,.11,1.16,.33c.22,.22,.5,.33,.83,.33s.95-.24,1.87-.71c.91-.47,2.14-.94,3.69-1.41,1.55-.47,3.03-.8,4.44-1,1.41-.19,4.55-1.06,9.42-2.61,4.87-1.55,7.69-3.4,8.47-5.56-2.05,.5-3.6,1.08-4.65,1.74-1.05,.66-2.06,1-3.03,1s-2.05-.4-3.24-1.2c-1.19-.8-1.78-2.17-1.78-4.11,0-1.11,.69-1.83,2.07-2.16,1.77-.44,4.4-1.69,7.89-3.73-1.44,.11-2.99-.96-4.65-3.2-1.66-2.24-2.49-4.37-2.49-6.39s-.1-3.4-.29-4.15c-.19-.75-.68-1.65-1.45-2.7-.22-.33-.33-.69-.33-1.08s.39-.58,1.16-.58,1.83,.5,3.15,1.49,2.37,2.52,3.11,4.57c.75,2.05,1.04,4.4,.87,7.05,6.03-1.66,9.52-2.49,10.46-2.49s1.6,.22,1.99,.66c.39,.44,.75,.66,1.08,.66s.76-.37,1.29-1.12c.53-.75,1.08-1.63,1.66-2.66,.58-1.02,1.3-2.83,2.16-5.44,.86-2.6,1.29-4.12,1.29-4.57,0-.72-.39-1.08-1.16-1.08-.17,0-.33,.03-.5,.08-.66,.39-2.71,.98-6.14,1.78-3.43,.8-5.56,1.2-6.39,1.2s-1.62-.1-2.37-.29c-.75-.19-1.31-.48-1.7-.87-.39-.39-.86-.59-1.41-.62-.55-.03-.83-.18-.83-.46,0-.83,1.96-1.78,5.89-2.86,3.93-1.08,7.41-1.62,10.46-1.62,4.59,0,7.59,1.09,9.01,3.28,1.41,2.19,2.12,4.01,2.12,5.48s-.26,2.49-.79,3.07c-.53,.58-1.26,1.65-2.2,3.2-.94,1.55-1.63,2.79-2.07,3.74-.44,.94-1.3,2.02-2.57,3.24-1.27,1.22-2.32,1.83-3.15,1.83s-1.88-.42-3.15-1.25c-1.05,.11-2.27,.53-3.65,1.25,.17,.5,.33,1.16,.5,1.99,1.99-.33,3.51-.5,4.56-.5s1.89,.2,2.53,.58c.64,.39,1.29,1.11,1.95,2.16,2.38-2.38,4.03-4.05,4.94-5.02,.91-.97,1.48-1.62,1.7-1.95,.22-.33,.33-.75,.33-1.25,0-.94,.39-1.41,1.16-1.41s1.52,.51,2.24,1.54c.72,1.03,1.08,2.37,1.08,4.03,0,1-.4,1.92-1.2,2.78-.8,.86-3.28,3-7.43,6.43Zm-17.35-5.81c-.28-.72-.83-1.36-1.66-1.91-2.49,.72-4.39,1.4-5.69,2.03-1.3,.64-1.95,1.08-1.95,1.33s.33,.37,1,.37,1.87-.19,3.61-.58c1.74-.39,3.31-.8,4.69-1.25Zm6.89-19.5c.94,0,1.99,.6,3.15,1.78,1.16,1.19,1.74,2.01,1.74,2.45s-.29,.9-.87,1.37c-.58,.47-2.34,1.13-5.27,1.99-2.93,.86-4.62,1.29-5.06,1.29-1,0-2.06-.66-3.2-1.99-1.13-1.33-1.7-2.39-1.7-3.2s.47-1.25,1.41-1.33c.94-.08,2.32-.36,4.15-.83,1.83-.47,3.1-.84,3.82-1.12,.72-.28,1.33-.42,1.83-.42Zm-7.06,52.71c2.6-.94,4.47-1.41,5.6-1.41s2.24,.54,3.32,1.62c1.08,1.08,1.78,1.62,2.12,1.62s.57-.21,.71-.62c.14-.42,.3-1.67,.5-3.78,.19-2.1,.29-4.12,.29-6.06l-.17-6.14c0-.77-.36-1.16-1.08-1.16-.39,0-.8,.14-1.24,.42-1.16,.78-3.51,1.08-7.06,.91-1.49,1.16-2.66,2.19-3.49,3.07-.06,.33-.08,.66-.08,1s.03,.78,.08,1.33c3.15-1.55,5.41-2.32,6.76-2.32s2.48,.57,3.36,1.7c.88,1.13,1.33,1.99,1.33,2.57s-.36,.96-1.08,1.12c-.72,.17-1.96,.51-3.73,1.04-1.77,.53-2.89,.79-3.36,.79s-.93-.18-1.37-.54c-.44-.36-1.02-.93-1.74-1.7l.33,6.56Zm12.2-29.96c-.72-.05-1.51-.08-2.37-.08s-1.73,.08-2.61,.25c-1.27,1.16-2.13,2.52-2.57,4.07l3.73-.83c2.21-1.94,3.49-3.07,3.82-3.4Z"/><path class="i" d="M690.3,294c4.09,4.04,7.41,6.96,9.96,8.76,2.54,1.8,6.39,3.72,11.54,5.77,1.71,.66,3.43,1.84,5.15,3.53,1.71,1.69,2.57,2.66,2.57,2.9s-.58,.37-1.74,.37c-5.09,0-9.7-1.16-13.82-3.49-4.12-2.32-7.35-5.17-9.67-8.55-.28,1.72-.42,3.13-.42,4.23l.33,7.55c0,1.94-.18,3.67-.54,5.19-.36,1.52-.89,2.93-1.58,4.23-.69,1.3-1.16,2.07-1.41,2.32s-.6,.37-1.04,.37-.91-.21-1.41-.62-.89-.9-1.16-1.45c-1.55-3.32-3.02-4.98-4.4-4.98-1.99,0-3.68,.61-5.06,1.83-.17,.11-.36,.17-.58,.17-.94,0-1.98-.61-3.11-1.83-1.13-1.22-1.73-2.66-1.78-4.32-.11-6.97-.42-10.6-.91-10.87-1.72,4.43-4.65,7.98-8.8,10.67-4.15,2.68-7.17,4.03-9.05,4.03-.44,0-.66-.11-.66-.33s.36-.58,1.08-1.08c4.87-3.27,8.29-6.13,10.25-8.59,1.96-2.46,4-5.8,6.1-10-3.65,1.94-6,2.91-7.05,2.91s-1.95-.3-2.7-.91c-.75-.61-1.12-1.38-1.12-2.32s1.05-1.66,3.15-2.16c4.09-.88,7.58-1.85,10.46-2.91,.11-.17,.17-.36,.17-.58s-.28-.5-.83-.83c-1.22,1.11-2.27,1.87-3.15,2.28-.89,.42-1.47,.62-1.74,.62s-.42-.07-.42-.21,.47-.47,1.41-1c.94-.52,2.1-1.23,3.49-2.12-.94-.88-1.58-1.73-1.91-2.53-.33-.8-.5-2.05-.5-3.74s-.12-2.85-.37-3.49c-.25-.64-.82-1.09-1.7-1.37-1.44-.44-2.16-1.05-2.16-1.83,0-.39,.14-.65,.42-.79,.28-.14,1.01-.21,2.2-.21s2.1,.15,2.74,.46c.64,.3,1.37,1.01,2.2,2.12,2.88-.17,6.06-.97,9.54-2.41,1-.44,1.96-.66,2.91-.66,2.1,0,3.15,.64,3.15,1.91,0,.39-.12,.75-.37,1.08s-.97,.73-2.16,1.2c-1.19,.47-2.37,.91-3.53,1.33s-2.2,.72-3.11,.91c-.91,.2-1.78,.26-2.61,.21-.72,.94-1.16,1.69-1.33,2.24,.55,.11,1.56-.01,3.03-.37,1.47-.36,2.71-.82,3.73-1.37,1.02-.55,1.84-.83,2.45-.83s1.09,.07,1.45,.21c.36,.14,.62,.21,.79,.21,.77,0,1.55-1.13,2.32-3.4,.77-2.27,1.16-3.75,1.16-4.44s-.19-1.04-.58-1.04c-2.21,0-5.37,.64-9.46,1.91-1.44,.39-2.96,.58-4.56,.58-2.71,0-4.07-.28-4.07-.83,0-.44,1.33-1.22,3.98-2.32-.44-.88-.91-1.74-1.41-2.57-1,1-2.3,1.94-3.9,2.82-1.61,.89-2.74,1.33-3.4,1.33s-1.45-.59-2.37-1.79c-.91-1.19-1.37-2.23-1.37-3.11s.07-1.76,.21-2.61c.14-.86,.35-1.29,.62-1.29s.64,.26,1.08,.79c.44,.53,.88,.79,1.33,.79s.94-.11,1.49-.33c2.54-1.16,4.48-1.94,5.81-2.32,.33-1.55,.5-2.63,.5-3.24s-.12-1.12-.37-1.54c-.25-.42-.82-.93-1.7-1.54-.94-.66-1.41-1.58-1.41-2.74s.66-1.74,1.99-1.74c1.66,0,3.37,.69,5.15,2.07,1.77,1.38,2.66,3.13,2.66,5.23,0,.5-.06,1-.17,1.49,1.88-.11,4.29-.69,7.22-1.74,.17-.77,.51-2.02,1.04-3.74,.53-1.71,.79-2.72,.79-3.03s-.18-.55-.54-.75c-.36-.19-1.07-.4-2.12-.62-.61-.11-.91-.39-.91-.83s.47-.83,1.41-1.16c.94-.33,2.05-.5,3.32-.5s2.54,.47,3.82,1.41c1.27,.94,1.91,1.85,1.91,2.74,0,.33-.19,.71-.58,1.12-.39,.42-.91,1.54-1.58,3.36,.39-.11,.83-.17,1.33-.17,1.33,0,2.63,.43,3.9,1.29,1.27,.86,1.91,1.61,1.91,2.24s-.39,1.01-1.16,1.12c-1.83,.33-4.76,1.08-8.8,2.24l-1.25,2.74c2.54-.11,4.55,.5,6.02,1.83,1.47,1.33,2.2,2.77,2.2,4.32,0,1-.35,1.67-1.04,2.03-.69,.36-1.45,1.59-2.28,3.69-.83,2.1-1.81,3.8-2.95,5.1-1.13,1.3-2.21,1.95-3.24,1.95s-2.15-.44-3.36-1.33c-.66-.17-1.9,.21-3.69,1.12-1.8,.91-3.81,1.56-6.02,1.95,.11,.55,.22,1.3,.33,2.24l2.57-.75c-.06-.11-.08-.25-.08-.42,0-.83,1.19-1.25,3.57-1.25,.88,0,1.85,.06,2.91,.17,2.93-.39,5.2-.97,6.81-1.74,.28-.11,.75-.17,1.41-.17s1.58,.32,2.74,.96c1.16,.64,1.74,1.23,1.74,1.78,0,.94-1.36,1.41-4.07,1.41-1.27,0-2.32,.11-3.15,.33Zm-1.58,3.15c-1.38-1.05-3.29-1.74-5.73-2.08-3.32,.89-6.09,1.8-8.3,2.74l-2.16,4.4c.44,.44,.94,1,1.49,1.66,5.2-4.54,9.68-6.81,13.45-6.81,.39,0,.8,.03,1.25,.08Zm-13.11-12.53c-.39-.05-1.08-.25-2.08-.58,.05,.89,.08,1.77,.08,2.66,1.44-.61,2.1-1.3,1.99-2.08Zm1.24,28.22c.11,1.44,.23,2.39,.37,2.86,.14,.47,.34,.71,.62,.71s.9-.12,1.87-.37c.97-.25,1.81-.37,2.53-.37s1.3,.17,1.74,.5c1.22,.94,1.98,1.41,2.28,1.41s.5-.04,.58-.12,.12-.59,.12-1.54l.33-10.04c0-2.16-.55-3.24-1.66-3.24-.28,0-.58,.08-.91,.25-2.6,1.16-5.26,1.74-7.97,1.74-.66,0-1.22,.28-1.66,.83,.39,.89,.72,1.8,1,2.74l6.14-1.49c.83-.17,1.62,.12,2.37,.87,.75,.75,1.12,1.37,1.12,1.87s-.28,.93-.83,1.29c-.55,.36-1.58,.76-3.07,1.2-1.49,.44-3.15,.75-4.98,.91Zm9.13-44.57c-.5,0-1.33-.26-2.49-.79-1.16-.53-1.87-.79-2.12-.79s-.5,.19-.75,.58c-.25,.39-.62,1.11-1.12,2.16-.22,1.55-.3,2.96-.25,4.23l2.16-.75c.61-.22,1.19-.55,1.74-1,.55-.44,1.02-.91,1.41-1.41,.39-.5,.86-1.25,1.41-2.24Z"/><path class="i" d="M700.76,374.92c5.31-1.22,8.45-1.83,9.42-1.83s2.06,.53,3.28,1.58c1.22,1.05,1.83,1.85,1.83,2.41,0,.78-1.13,1.16-3.4,1.16-1.11,0-2.13-.07-3.07-.21-.94-.14-1.83-.21-2.66-.21s-1.8,.25-2.91,.75c1.71,1.55,2.57,3.18,2.57,4.9,0,.66-.08,1.3-.25,1.91-.17,.61-.25,1.69-.25,3.24,0,4.54,.19,7.77,.58,9.71,.11,.55,.17,1.36,.17,2.41,0,3.27-.37,7.12-1.12,11.58-.75,4.45-1.56,6.68-2.45,6.68-.39,0-1.02-.64-1.91-1.91-.89-1.27-2.05-2.24-3.49-2.91-.33-.17-.83-.57-1.49-1.2-.66-.64-1.26-1.36-1.78-2.16-.53-.8-1.23-1.37-2.12-1.7-.89-.33-1.7-.96-2.45-1.87s-1.12-1.49-1.12-1.74,.15-.37,.46-.37,.9,.22,1.78,.66c3.26,1.55,6.25,2.32,8.96,2.32,1.11,0,1.8-1.13,2.07-3.4,.28-2.27,.42-4.65,.42-7.14s-.14-5.45-.42-8.88c-.28-3.43-.68-5.6-1.2-6.52-.53-.91-1.29-1.4-2.28-1.45-.11,.33-.17,.91-.17,1.74s.12,1.87,.37,3.11,.5,3.28,.75,6.1c.25,2.82,.37,4.55,.37,5.19s-.5,1.19-1.49,1.66c-1,.47-2.39,1.08-4.19,1.83-1.8,.75-3.43,1.12-4.9,1.12s-2.39-.33-2.78-1c-.5,1.22-.97,1.83-1.41,1.83s-1.09-1-1.95-2.99c-.86-1.99-1.29-3.68-1.29-5.06s.61-3.87,1.83-7.47c-2.05,1.38-3.4,4.29-4.07,8.71-.66,4.43-1.81,8.25-3.44,11.45-1.63,3.21-3.14,4.81-4.52,4.81s-2.71-1.27-3.98-3.82c-.39-.78-1.47-1.73-3.24-2.86-1.77-1.13-3.1-1.7-3.98-1.7-.44,0-1.29,.26-2.53,.79-1.25,.53-2.13,.79-2.66,.79s-1.15-.3-1.87-.91c-.72-.61-1.15-1.47-1.29-2.57-.14-1.11-.3-1.87-.5-2.28-.19-.42-.29-.73-.29-.95,0-.94,.77-1.41,2.32-1.41,.39,0,.94,.15,1.66,.46,.72,.3,1.24,.46,1.58,.46,.83,0,2.73-.84,5.69-2.53,2.96-1.69,5.62-3.57,7.97-5.64,2.35-2.08,3.53-3.53,3.53-4.36,0-.28-.17-.5-.5-.66-4.32,1.66-7.97,3.62-10.96,5.89-.89,.66-1.55,1-1.99,1s-.97-.9-1.58-2.7c-.61-1.8-.91-3.17-.91-4.11s.3-2,.91-3.2c.61-1.19,1.11-2.54,1.49-4.07,.39-1.52,.66-3.17,.83-4.94,.17-1.77,.44-3.14,.83-4.11,.39-.97,.97-1.48,1.74-1.54,.39-.61,.77-.91,1.16-.91,1.22,0,1.92,.44,2.12,1.33,.19,.89,.73,1.85,1.62,2.9,.88,1.05,1.66,1.74,2.32,2.08,.5-2.77,.75-4.94,.75-6.52s-.03-2.53-.08-2.86c-.94,.5-1.81,.75-2.61,.75s-1.87-.28-3.2-.83c-1.33-.55-2.48-1.3-3.44-2.24-.97-.94-1.45-1.6-1.45-1.99s.62-.58,1.87-.58,2.34-.25,3.28-.75c.94-.5,1.66-1.13,2.16-1.91,1.27-2.05,2.79-3.07,4.56-3.07s3.47,.6,5.1,1.78c1.63,1.19,2.45,3,2.45,5.44,0,.5-.79,3.18-2.37,8.05s-2.37,8.19-2.37,9.96c1.05,.17,1.99,.53,2.82,1.08,.55-.94,1.19-2.6,1.91-4.98,1.33-4.54,2.67-7.61,4.03-9.21,1.35-1.6,3.91-3.24,7.68-4.9,.77-1.66,1.42-4.18,1.95-7.55,.52-3.37,.69-5.74,.5-7.1-.19-1.35-.29-2.48-.29-3.36s.22-1.33,.66-1.33c.55,0,1.29,.62,2.2,1.87,.91,1.24,1.87,3.86,2.86,7.84,1.6,2.38,3.15,3.9,4.65,4.57,1.05,.11,1.92,.44,2.61,1,.69,.55,1.04,1,1.04,1.33s-.3,.79-.91,1.37c-.61,.58-1.54,1.04-2.78,1.37-1.25,.33-2.89,1.07-4.94,2.2-2.05,1.13-3.1,2.25-3.15,3.36,.88-.17,1.6-.25,2.16-.25,1.27,0,2.56,.59,3.86,1.78,1.3,1.19,1.95,2.24,1.95,3.15s-.37,1.69-1.12,2.32c-.75,.64-1.45,1.62-2.12,2.95Zm-27.47,14.19c-.78,2.38-1.58,4.12-2.41,5.23-.83,1.11-3.62,3.71-8.38,7.8,.94,.22,2.24,.33,3.9,.33s2.92-.25,3.78-.75c.86-.5,1.6-2.02,2.24-4.56,.64-2.54,.95-4.4,.95-5.56s-.03-1.99-.08-2.49Zm-3.49-10.21c-.72-2.66-1.24-4.44-1.58-5.35-.33-.91-1.13-2.64-2.41-5.19-.44-.11-.72,.17-.83,.83,.28,.83,.42,2.05,.42,3.65s-.22,4.21-.66,7.8l5.06-1.74Zm18.43,.08c.83-.88,3.18-3.01,7.06-6.39,.66-.61,1-1.06,1-1.37s-.17-.46-.5-.46-.8,.22-1.41,.66c-1.66,1.27-3.29,1.91-4.9,1.91-.89,0-1.33-.55-1.33-1.66,0-1.55,.33-2.79,1-3.73-2.93,.83-5.04,1.52-6.31,2.07-.39,1.44-.91,2.82-1.58,4.15s-1.16,2.77-1.49,4.32c.61,.83,1.16,1.83,1.66,2.99,1.99-.33,4.26-1.16,6.81-2.49Zm8.55,5.48c-.06-1.16-.33-2.43-.83-3.82-2.66,.83-5.09,1.98-7.3,3.44-2.21,1.47-3.32,2.81-3.32,4.03,0,.39,.11,.8,.33,1.24,4.15-3.65,7.03-5.48,8.63-5.48,.61,0,1.44,.19,2.49,.58Zm-10.13,11.79c.88-.83,1.81-1.34,2.78-1.54,.97-.19,1.63-.77,1.99-1.74,.36-.97,.54-1.6,.54-1.91s-.07-.46-.21-.46-.55,.3-1.25,.91c-.69,.61-1.56,1.25-2.61,1.91-.55,.33-.97,1.27-1.24,2.82Zm13.28-40.59c.05-.33,.08-.66,.08-1,0-1.11-.41-2.19-1.24-3.24,0,.61-.17,1.43-.5,2.45-.33,1.03-.47,1.79-.42,2.28,.61,.06,1.3-.11,2.07-.5Z"/><path class="i" d="M668.39,455.1c-1.33,.28-2.53,.69-3.61,1.25-1.08,.55-1.94,.83-2.57,.83s-1.04-.58-1.2-1.74-.25-2.31-.25-3.44,.23-2.14,.71-3.03c.47-.88,1.04-1.35,1.7-1.41,1.44-.11,3.02-.8,4.73-2.08,1.71-1.27,2.57-2.91,2.57-4.9,0-.94,.39-1.41,1.16-1.41,1.88,0,3.72,.86,5.52,2.57,1.8,1.72,2.7,3.56,2.7,5.52s-.72,2.98-2.16,3.03c-2.38,.17-4.29,.91-5.73,2.24,2.93,3.21,4.4,6.03,4.4,8.47,0,1.11-.42,1.92-1.25,2.45-.83,.53-1.55,1.09-2.16,1.7s-1.8,2.02-3.57,4.23c.05,2.1,.08,3.76,.08,4.98s-.11,2.24-.33,3.07c-.94,3.71-1.41,6.58-1.41,8.63,0,.44,.1,.84,.29,1.2,.19,.36,.39,.54,.58,.54s.32-.28,.37-.83c1.22-7.14,2.16-10.71,2.82-10.71,.17,0,.25,.15,.25,.46s-.18,1.25-.54,2.82c-.36,1.58-.54,2.89-.54,3.94l.17,1.91c0,1.99-.21,4.04-.62,6.14-.42,2.1-.6,3.42-.54,3.94,.05,.53,.08,1.01,.08,1.45,0,1.44-.39,2.16-1.16,2.16s-1.77-1.16-2.99-3.49c-1.22-2.32-1.83-4.79-1.83-7.39,0-.66,.05-1.3,.17-1.91,.5-2.99,.83-7,1-12.04-4.65,4.93-7.93,7.79-9.84,8.59-1.91,.8-3.1,1.2-3.57,1.2s-.71-.33-.71-1,.14-1.69,.42-3.07c.28-1.38,.68-2.5,1.2-3.36,.52-.86,.98-1.29,1.37-1.29,.17,0,.25,.24,.25,.71s.05,.71,.17,.71c.39,0,1.65-1.19,3.78-3.57,2.13-2.38,3.83-4.38,5.1-6.02,1.27-1.63,2.61-3.49,4.03-5.56s2.12-3.55,2.12-4.44-.39-1.58-1.16-2.08Zm21.66,7.47c9.13-3.32,15.36-4.98,18.68-4.98,2.32,0,4.14,.73,5.44,2.2,1.3,1.47,1.95,2.67,1.95,3.61,0,1.33-1.25,1.99-3.74,1.99l-8.3-.25c-.94,0-1.99,.03-3.15,.08,.72,.39,1.2,.75,1.45,1.08,.25,.33,.37,.91,.37,1.74l-.17,3.98c-.11,1.55-.17,3.9-.17,7.06s.07,6.35,.21,9.59c.14,3.24,.21,5.08,.21,5.52,0,2.54-.33,4.4-1,5.56-.66,1.16-1.27,2.12-1.83,2.86-.55,.75-1.07,1.12-1.54,1.12s-1.33-.47-2.57-1.41c-1.24-.94-3.35-2.74-6.31-5.39-2.96-2.66-4.94-4.5-5.93-5.52-1-1.02-1.49-1.6-1.49-1.74s.05-.21,.17-.21c.17,0,.53,.19,1.08,.58,1.83,1.11,3.68,1.98,5.56,2.61,1.88,.64,3.4,.95,4.56,.95,2.38,0,3.57-1.19,3.57-3.57,0-.5-.14-3.22-.42-8.18-.28-4.95-.42-8.45-.42-10.5,0-.88-.32-1.51-.96-1.87-.64-.36-2.17-.79-4.61-1.29-4.87,3.27-8.22,4.9-10.04,4.9s-2.74-1.58-2.74-4.73c0-2.43,.97-3.87,2.9-4.32,1-.22,2.57-1.29,4.73-3.2,2.16-1.91,4.65-4.58,7.47-8.01-1.27-1.55-2.27-2.66-2.99-3.32-.72-.66-1.38-1-1.99-1s-1.43,.41-2.45,1.24c-1.02,.83-1.62,1.25-1.78,1.25s-.25-.05-.25-.17c0-.33,.72-1.35,2.16-3.07,1.44-1.71,2.35-2.68,2.74-2.91,.39-.22,.87-.3,1.45-.25,.58,.06,1.23,.08,1.95,.08s1.65-.3,2.78-.91c1.13-.61,2.31-.91,3.53-.91s2.41,.5,3.57,1.49,1.74,1.95,1.74,2.86-.66,2.01-1.99,3.28c-7.36,7.14-11.18,11.15-11.45,12.04Z"/><path class="i" d="M688.23,573.88c5.86-2.05,9.66-3.44,11.37-4.19,1.71-.75,3.04-1.59,3.98-2.53,.5-.5,1.38-.75,2.66-.75,2.16,0,4.14,.65,5.93,1.95,1.8,1.3,2.7,2.84,2.7,4.61,0,1-.4,2.23-1.2,3.69-.8,1.47-1.65,2.2-2.53,2.2-.22,0-1.73-.33-4.52-1-2.79-.66-4.41-1.09-4.86-1.29-.44-.19-.66-.34-.66-.46s.08-.19,.25-.25c1.16-.33,2.34-.95,3.53-1.87,1.19-.91,1.78-1.65,1.78-2.2s-.22-1.22-.66-1.99c-.44-.77-.86-1.16-1.25-1.16s-.6,.18-.62,.54c-.03,.36-.18,.68-.46,.96s-1.85,1.34-4.73,3.2c-2.88,1.85-4.87,3.36-5.98,4.52,6.75,5.81,11.21,9.38,13.36,10.71,2.16,1.33,3.24,2.68,3.24,4.07,0,.77-.35,1.42-1.04,1.95-.69,.52-2.46,1.04-5.31,1.54-2.85,.5-5.85,.75-9.01,.75s-6.36-.35-9.63-1.04c-3.27-.69-6.13-1.88-8.59-3.57-2.46-1.69-4.21-3.56-5.23-5.6-1.02-2.05-1.76-5.06-2.2-9.05-.11-.94-.42-1.41-.91-1.41s-1.27,.83-2.32,2.49c-1.05,1.66-1.8,3.07-2.24,4.23-.44,1.16-.91,4.73-1.41,10.71-.22,2.16-.78,3.24-1.66,3.24-.33,0-.68-.25-1.04-.75-.36-.5-1.04-2.17-2.03-5.02-1-2.85-1.49-4.7-1.49-5.56s.19-1.56,.58-2.12l1.58-2.49c.66-1.05,1.24-1.83,1.74-2.32s1.49-1.94,2.99-4.32c.17-.28,.36-.42,.58-.42s.33,.14,.33,.42-.11,.72-.33,1.33c-.22,.61-.33,1.18-.33,1.7s.11,.79,.33,.79c.17,0,.64-.5,1.41-1.49,.77-1,1.49-1.78,2.16-2.37,.66-.58,1.38-.87,2.16-.87s1.63,.53,2.57,1.58c.94,1.05,1.81,2.88,2.61,5.48,.8,2.6,1.66,4.45,2.57,5.56s2.56,2.08,4.94,2.91c2.38,.83,5.45,1.25,9.21,1.25,4.54,0,6.81-.33,6.81-1,0-.33-.61-1.43-1.83-3.28-1.22-1.85-2.93-4.03-5.15-6.51-1.38,1-2.46,2.16-3.24,3.49-.33,.61-.78,.91-1.33,.91s-1.44-.39-2.66-1.16c-1.22-.77-2.2-1.77-2.95-2.99-.75-1.22-1.12-2.08-1.12-2.57s.08-.8,.25-.91c.61-.39,.91-1.74,.91-4.07,0-1.71-.17-2.57-.5-2.57s-.5-.17-.5-.5,.22-.61,.66-.83c.44-.22,.94-.33,1.49-.33,1.33,0,2.64,.53,3.94,1.58,1.3,1.05,2.25,2.54,2.86,4.48Zm1-36.19c2.77-.22,4.77,.58,6.02,2.41,1.25,1.83,1.87,3.13,1.87,3.9s-.36,1.22-1.08,1.33c-2.6,.5-5.29,1.61-8.05,3.32-.72,3.54-1.16,5.51-1.33,5.89,2.77-.55,4.74-.83,5.93-.83s2.14,.6,2.86,1.78c.72,1.19,1.08,2.17,1.08,2.95,0,1.83-1.44,3.04-4.32,3.65-1.94,.44-4.93,1.38-8.96,2.82-4.04,1.44-7.94,2.99-11.7,4.65-.28,.11-.53,.17-.75,.17-.39,0-1.74-.62-4.07-1.87s-3.49-2.5-3.49-3.78c0-.66,.23-1.26,.71-1.78,.47-.53,.96-.79,1.45-.79s.88,.12,1.16,.37c.28,.25,.8,.37,1.58,.37s1.35-.14,1.74-.42c2.88-1.77,5.7-3.24,8.47-4.4l.66-3.15c-1.05,.78-2.17,1.16-3.36,1.16s-2.7-.51-4.52-1.54c-1.83-1.02-3.58-2.56-5.27-4.61-1.69-2.05-2.53-3.2-2.53-3.45s.17-.37,.5-.37,.9,.11,1.7,.33c.8,.22,1.67,.33,2.61,.33s1.94-.3,2.99-.91c2.82-1.6,6.03-3.1,9.63-4.48,0-7.97-.24-12.38-.71-13.24-.47-.86-1.15-1.62-2.03-2.28-.89-.66-1.33-1.22-1.33-1.66s.28-.76,.83-.95c.55-.19,1.95-.29,4.19-.29s4.16,.54,5.77,1.62c1.6,1.08,2.41,2.64,2.41,4.69,0,.61-.11,1.38-.33,2.32-.22,.94-.33,3.18-.33,6.72Z"/></g></svg>