<?xml version="1.0" encoding="UTF-8"?><svg id="uuid-06a46a88-3a36-45ca-bce9-2f81f82d9648" xmlns="http://www.w3.org/2000/svg" xmlns:xlink="http://www.w3.org/1999/xlink" viewBox="0 0 1368.45 769.56"><defs><style>.uuid-c833a156-f1ac-4f06-8ae5-ca6eefa91bc9{fill:#fff;}.uuid-b7eb6c29-e246-4d0d-826f-4589b948be25{fill:#00933a;}.uuid-45875297-a2c3-49e0-9ecd-985ab80eb8ba{fill:url(#uuid-d5adcacb-053f-4fa5-b80d-c4bce8879698);}.uuid-59fb5d67-c062-4c2d-9615-cb30f378cbbc{fill:#fafcfb;}.uuid-1465ffee-e956-4339-afc4-b0be95bb9bd7{filter:url(#uuid-22729db3-8f92-4b41-8022-bf6304ccc1e1);}.uuid-ecbf0dc0-629b-4d0c-a90a-a91ed30783dc{fill:#facf2a;}</style><linearGradient id="uuid-d5adcacb-053f-4fa5-b80d-c4bce8879698" x1=".02" y1="384" x2="1366.02" y2="384" gradientUnits="userSpaceOnUse"><stop offset="0" stop-color="#00933a"/><stop offset=".2" stop-color="#3e7331"/><stop offset=".4" stop-color="#75582a"/><stop offset=".59" stop-color="#a14224"/><stop offset=".76" stop-color="#c03220"/><stop offset=".9" stop-color="#d4291d"/><stop offset="1" stop-color="#db261d"/></linearGradient><filter id="uuid-22729db3-8f92-4b41-8022-bf6304ccc1e1" filterUnits="userSpaceOnUse"><feOffset dx="13" dy="11"/><feGaussianBlur result="uuid-7fb539d7-289c-4f74-9d45-40f7c2d9cb1e" stdDeviation="5"/><feFlood flood-color="#000" flood-opacity=".75"/><feComposite in2="uuid-7fb539d7-289c-4f74-9d45-40f7c2d9cb1e" operator="in"/><feComposite in="SourceGraphic"/></filter></defs><rect class="uuid-45875297-a2c3-49e0-9ecd-985ab80eb8ba" x=".02" width="1366" height="768"/><g class="uuid-1465ffee-e956-4339-afc4-b0be95bb9bd7"><g><path class="uuid-c833a156-f1ac-4f06-8ae5-ca6eefa91bc9" d="M646.52,191.17c2.03-11.09,4.11-22.18,6.06-33.28,.37-2.09,.29-4.26,.33-6.4,.07-3.36,1.01-6.31,4.13-8.5,.16,.04,.65,.18,1.13,.29q5.98,1.39,6.75,7.61c.32,2.65,.58,5.3,1.62,8.28,1.34-2.31,2.52-4.74,4.06-6.91,1.82-2.57,1.21-4.79,.09-7.43-2.47-5.82-1.49-7.24,3.42-12.15,3.03-3.04,5.16-7.09,7.26-10.93,4.1-7.48,7.94-15.11,11.79-22.72,1.25-2.47,2.23-5.08,3.23-7.66,.29-.74,.6-1.94,.23-2.37-1.92-2.31,.18-3.4,1.12-4.93,1.44,.44,2.89,.61,4.04,1.28,4.44,2.64,5.53,6.14,3,11.98-2.52,5.82-5.7,11.37-8.57,17.04-.34,.68-.61,1.4-.65,2.32,8.08-4.02,13.82-11,20.55-16.02,2.06,1.12,3.59,2.21,5.28,2.8,4.55,1.59,5.76,5.54,2.81,9.51-2.14,2.88-4.22,5.82-6.29,8.75-.47,.67-.97,1.39-1.19,2.16-1.49,5.19-4.44,9.4-9.44,13.3,4.81,2,8.83,3.94,13.04,5.33,3.2,1.05,6.61,1.72,9.97,2,7.64,.64,14.29,3.66,20.56,7.77,1.05,.69,1.88,1.73,3.53,3.29-3.94,.27-6.94,.56-9.94,.66-4.81,.16-9.62,.17-14.44,.3-7.47,.19-14.03-2.63-20.38-6.11-2.79-1.53-5.4-3.43-8.27-4.75-.98-.45-2.84-.02-3.79,.68-5.78,4.29-11.35,8.87-17.12,13.18-4.28,3.19-8.79,6.07-13.15,9.16-.68,.48-1.51,1.28-1.58,2-.51,5.16-3.07,9.31-6.74,13.73-1.56-2.56-3.09-5.07-5.04-8.27-.4,2.25-.95,4.03-.98,5.83-.06,3.28-.08,6.6,.39,9.84,.43,3.01-.99,5.15-2.4,7.41-2.48,3.97-5.13,7.83-7.42,11.91-1.19,2.12-2.28,2.35-4.09,.99-3.61-2.69-5.4-8.52-3.97-12.77,.32-.96,.49-2,.55-3.02,1.07-17.47,2.13-34.94,3.12-52.41,.11-1.93-.03-3.92-.34-5.83-.31-1.91-1.18-3.45-3.75-1.89,.7-1.58,1.25-2.82,1.8-4.06-.24-.16-.48-.32-.73-.48-3.21,4.18-8.61,6.22-10.11,12.28-.6,2.43-3.53,4.41-5.65,6.31-2.68,2.4-5.51,4.65-8.46,6.71-3.36,2.35-6.05,.96-6.45-3.08-.35-3.57,.33-6.52,3.43-8.97,2.37-1.87,3.95-4.68,6.13-6.84,2.62-2.59,5.64-4.77,8.21-7.4,4.82-4.91,9.53-9.93,14.11-15.07,3.25-3.65,6.62-7.3,9.16-11.43,1.74-2.82,2.29-6.42,3.08-9.75,.48-2,4.5-4.32,6.68-3.44,5.62,2.26,6.88,3.04,4.63,9.95-2.77,8.51-8.7,14.78-14.81,20.92-2.58,2.59-5.16,5.18-7.73,7.77,.1,.25,.21,.51,.31,.76,1.06-.25,2.17-.37,3.16-.78,1.67-.68,3.23-1.46,4.73,.3,1.3,1.53,1.29,2.83-.25,4.27-.48,.44-.48,1.52-.49,2.31-.14,7.29-.33,14.58-.3,21.87,.03,7.61,.38,15.22,.4,22.83,0,3.27-.47,6.53-.73,9.8,.44,.05,.87,.11,1.31,.16Zm47.13-60.81c5.78,2.75,6.34,2.75,9.46-1.04,2.08-2.53,4.04-5.21,5.68-8.04,1.34-2.32,2.14-4.96,3.17-7.46-.4-.27-.8-.53-1.2-.8-5.63,5.7-11.26,11.41-17.11,17.34Zm-22.4,27.01c.68-.45,1.42-.82,2.02-1.35,5.46-4.84,10.92-9.7,16.34-14.59,2.72-2.46,2.6-3.68-.32-5.92-8.31,5.31-13.8,12.99-18.04,21.86Z"/><path class="uuid-c833a156-f1ac-4f06-8ae5-ca6eefa91bc9" d="M638.58,236.25c10.96-7.54,21.81-15.25,32.93-22.54,6.6-4.33,13.61-8.04,20.5-11.93,12.81-7.24,23.46-16.67,30.45-29.81,.94-1.77,1.55-3.72,2.38-5.76-1.27-.4-2.11-.67-2.94-.94-.14-.27-.28-.55-.42-.82,1.66-1.02,3.31-2.03,5.34-3.28,1.77,1.05,3.92,2.18,5.92,3.55,1.79,1.23,2.97,2.71,1.62,5.17-1.71,3.13-2.75,6.67-4.75,9.57-5.1,7.44-10.16,14.98-16.01,21.82-7.35,8.59-17.35,12.87-28.23,15.76-7.79,2.07-15.32,5.3-22.74,8.54-7.99,3.48-15.72,7.56-23.56,11.38-.17-.24-.33-.48-.5-.71Z"/><path class="uuid-c833a156-f1ac-4f06-8ae5-ca6eefa91bc9" d="M696.77,192.88c-1.43,.3-2.87,.61-4.46,.94-2.93-1.93-4.26-4.37-2.95-8.35,1.06-3.22,2.26-5.88,5.33-7.63,2.05-1.17,3.81-2.85,5.7-4.3l-.65-.99c-2.42,1.36-4.75,2.93-7.28,4.04-4.78,2.1-9.66,3.98-14.54,5.85-1.81,.69-2.91,.13-3-2.08-.17-4.33,.68-8.14,4.46-10.86,2.07-1.49,4.01-3.16,5.98-4.78,.47-.39,1.08-.85,1.19-1.38,1.09-5.2,5.64-4.52,9.17-5.19,1.14-.22,2.58,1.18,3.88,1.83-.55,.98-.96,2.09-1.68,2.93-2.24,2.6-4.59,5.1-6.6,7.99,5.05-1.1,10.21-1.66,13.23-6.58,1.63-2.65,3.43-2.58,6.01-.18,1.84,1.7,3.91,3.16,6.59,5.29-.89,1.39-1.83,3.46-3.3,5.04-4.14,4.43-8.56,8.61-12.76,12.99-1.62,1.69-2.94,3.66-4.33,5.42Z"/></g><g><path class="uuid-c833a156-f1ac-4f06-8ae5-ca6eefa91bc9" d="M633.86,325.86c-4.18,2.07-7.43,3.71-10.71,5.28-4.65,2.22-9.22,4.64-14.02,6.48-3.23,1.23-5.79-.86-7.66-5.36-.96-2.29,.09-6.05,2.22-7.26,.84-.48,2.02-.62,3.01-.53,2.18,.18,3.48-.67,3.86-2.78,.27-1.5,.9-1.89,2.51-1.78,5.72,.4,10.28-2.84,14.89-5.48,1.24-.71,1.81-3.3,1.95-5.08,.2-2.65-.26-5.35-.44-7.99,5.91-2.49,6.46-3.46,5.38-9.87-3.91,2.89-7.78,5.68-9.81,9.96-.83,1.76-.26,4.31,.07,6.44,.3,1.95,1.12,3.82,1.71,5.73-.26,.19-.53,.38-.79,.57-1.06-.76-2.25-1.4-3.16-2.32-1.92-1.95-3.7-4.03-5.49-6.09-.35-.4-.77-1.09-.65-1.49,1.43-4.57-1.32-8.17-2.73-12.07,.19-.2,.38-.39,.57-.59,.9,.91,1.85,1.79,2.7,2.75,.98,1.11,1.87,2.29,2.04,2.27,3.27-2.68,6.51-5.41,9.84-8.02,1.7-1.34,3.47-2.64,5.37-3.64,1.44-.76,2.14-1.59,2.08-3.26-.11-3.19-.03-6.38-.03-9.58-2.97-.65-4.25,1.25-5.7,2.81-1.22,1.31-2.33,2.74-3.67,3.9-3.22,2.8-5.73,2.78-8.09-.76-2.09-3.13-4.52-3.2-7.55-2.36-.54,.15-1.1,.27-1.66,.36-2.59,.42-5.19,.83-7.91,.87,2.85-1.23,5.76-2.33,8.53-3.72,4.43-2.22,4.39-2.3,2.47-6.87-.14-.33-.2-.68-.33-1.14,2.84,.26,5.74,.06,6.5,4.17,5.28-2.59,10.3-4.92,15.17-7.54,.95-.51,1.71-2.12,1.82-3.3,.24-2.43,0-4.91-.06-7.37-.09-3.67,.06-7.43-3.53-9.87-.36-.25-.56-.75-.79-1.16-.08-.14-.03-.36-.08-1.29,3.22,.72,6.41,1.06,9.29,2.2,2.49,.99,2.55,3.78,2.61,6.17,.07,3.08,.02,6.17,.02,9.18,4.9-1.11,9.46-2.14,14.03-3.17,3.4-.77,10.72,3.29,11.8,6.55,1.18,3.56-1.76,8.3-5.52,8.67-2.05,.2-4.15-.1-6.21,.1-4.2,.41-8.38,1.03-12.57,1.53-1.53,.18-2.14,.96-1.94,2.49,.34,2.52,.61,5.04,.96,7.98,2.11-.76,4.06-1.57,6.08-2.15,3.33-.96,6.6-2.08,10.21-.69,3.86,1.49,5.04,2.98,4.52,7.2-.52,4.21-1.03,8.4-3.39,12.15-1.17,1.86-1.85,4.04-3.11,6.89,6.29-1.92,11.79-3.6,17.69-5.4-.8-.85-1.26-1.32-1.7-1.79,3.68-.35,7.21-.68,11.61-1.1-1.37,1.64-2.13,3.03-3.29,3.87-5.27,3.81-10.62,7.5-16,11.15-1.55,1.05-3.23,2.2-5,2.57-3.85,.8-5.38,3.4-6.3,6.77-.26,.95-.67,1.85-1.14,3.12-2.23-1.62-4.1-2.98-6.09-4.42-5.35,1.27-7.39,3.89-7.2,9.48,.03,.85,.1,1.7,.19,2.55,.55,5.01,1.17,10.02,1.64,15.04,.45,4.87,.88,9.76,1.09,14.65,.19,4.52-.92,8.81-3.13,12.79-.32,.58-.6,1.18-.84,1.8-1.64,4.33-3.27,8.66-5.22,13v-13.11c-.89,.23-1.42,.37-1.82,.48-3.56-16.21,.19-32.4,.88-49.51Zm20.42-30.1c1.12-4.54,2.1-8.33,2.9-12.16,.06-.3-1.28-1.37-1.72-1.23-2.94,.88-5.88,1.85-8.7,3.06-2.94,1.27-4.51,5.27-3.61,8.75,3.58-.85,7.3-2.47,11.13,1.58Zm-.97,1.87c-.24-.24-.49-.49-.73-.73-2.79,1.77-5.7,3.39-8.31,5.4-.9,.69-1.8,2.99-1.41,3.44,1.06,1.23,2.74,2.34,4.32,2.57,1.17,.17,3.29-.8,3.7-1.79,1.17-2.81,1.67-5.9,2.43-8.88Zm-24.53,21.47c-.11-.24-.22-.48-.32-.72-2.7,1.36-5.41,2.71-8.11,4.07,.17,.34,.35,.68,.52,1.02,2.64-1.46,5.28-2.91,7.91-4.37Zm-21.96,10.22c1.65,1.2,3.73,.7,6.58-2.15-2.16,.71-4.32,1.41-6.58,2.15Z"/><path class="uuid-c833a156-f1ac-4f06-8ae5-ca6eefa91bc9" d="M702.15,369.04c-1.17,2.18-2.21,4.11-3.25,6.05-.27-.01-.54-.03-.81-.04-.25-3.61-.43-7.23-.76-10.83-.26-2.77-.72-5.53-1.07-8.13-.16-.06,.47,.18,1.14,.45,.92-7.17,1.81-14.2,2.72-21.27-5.46,1.11-7.83,3.48-7.91,8.66-.05,3.12,.52,6.27,1.07,9.36,.35,2-2.74,9.35-4.69,9.79-.84,.19-2.29-.48-2.85-1.22-2.58-3.38-4.37-6.99-3.29-11.55,.59-2.48,.54-5.1,.81-7.96-2.92,.73-5.26,1.36-7.62,1.9-1.55,.35-1.72,1.17-1.57,2.68,.49,4.77,.82,9.56,1.01,14.35,.09,2.25-4.51,4.45-6.86,3.24-2.37-1.21-5.15-2.16-6.1-5-.53-1.57-.69-3.32-.71-4.99-.02-1.97,.48-3.95,.44-5.91-.14-6.23-.46-12.46-.63-18.69-.05-1.79-.12-3.66,.36-5.34,.34-1.21,1.52-3.01,2.43-3.07,2.59-.19,3.89-2,5.71-3.26,9.83-6.76,19.69-13.47,32.2-14.25,1.96-.12,4.02-.45,5.81-1.22,4.22-1.8,8.54-1.33,12.86-1.05,5.28,.34,9.89,6.99,8.75,12.12-.52,2.36-.53,4.83-.86,7.24-.42,3.05-.55,6.21-1.48,9.1-1.65,5.11-1.32,10.19-.81,15.35,.12,1.2,.02,2.44-.14,3.65-1.1,8.22-2.32,16.42-3.3,24.65-.24,2.03-1.21,2.66-2.78,3.83-4.3,3.2-6.84-.14-9.72-1.91-2.23-1.37-4.06-3.37-6.07-5.09-.55-.47-1.13-.93-2.01-1.65Zm-31.91-31.97c.26-.27,.52-.53,.78-.8,1.87-.26,3.79-.93,5.6-.7,4.97,.63,8.17-2.04,7.89-7.01-.06-1.04-.15-2.08-.33-3.1-.36-2.1-.75-4.23-4.47-2.98,1.68-2.69,3.18-4.34,5.57-4.49,.92-.06,2.32,.7,2.79,1.5,1.38,2.33,2.55,4.82,3.52,7.36,.64,1.66,1.4,2.06,2.93,1.26,.67-.35,1.41-.55,2.11-.83,5.49-2.18,5.47-2.18,5.39-8.21-.04-2.95,0-5.91,0-9.33,1.57,.64,2.41,.98,3.56,1.45,0,3.88-.1,7.71,.1,11.52,.03,.61,1.34,1.5,2.18,1.66,3.91,.74,7.86,1.26,12.09,1.91,.09-.27,.51-1.13,.64-2.02,.61-4.01,1.24-8.02,1.66-12.05,.59-5.65-3.16-8.9-8.64-7.23-7.49,2.28-14.92,4.79-22.29,7.43-4.97,1.78-9.79,3.96-14.69,5.95-2.26,.92-4.82,1.43-6.71,2.83-1.64,1.22-3.78,3.65-3.52,5.18,.61,3.68,2.49,7.16,3.86,10.72Zm49.58-8.59c-4.03,.84-7.38,1.4-10.63,2.32-.88,.25-1.73,1.51-2.08,2.49-.52,1.49-.76,3.13-.82,4.71-.24,6.2-.35,12.41-.53,18.62-.05,1.6-.61,3.38-.09,4.75,.46,1.2,2,2.15,3.28,2.78,.33,.16,1.89-1.19,2.16-2.07,1.15-3.79,2.04-7.66,3.02-11.5,1.85-7.2,3.7-14.4,5.68-22.1Z"/><path class="uuid-c833a156-f1ac-4f06-8ae5-ca6eefa91bc9" d="M698.9,235.66c1.11-.23,2.82-1.08,4.34-.82,3.82,.64,4.87,3.42,3.98,7.2-1.58,6.76-4.27,12.95-8.6,19.25,1.67,.29,2.92,.87,4.01,.64,3.67-.76,6.4,.36,8.67,3.29,5.2,6.74,13.06,9.77,20.04,14.01,1.67,1.01,3.9-.72,5.73,1.18,2.99,3.1,7.2,3.01,11.12,3.22,9.4,.5,18.64,1.76,27.52,5.04,2.17,.8,4.3,1.73,6.44,2.6,.04,.38,.07,.75,.11,1.13-1.72,.64-3.41,1.69-5.17,1.84-8.09,.7-16.2,1.26-24.31,1.67-6.64,.33-12.95-1.25-18.9-4.18-3.31-1.63-6.41-3.67-9.78-5.16-1.81-.8-3.97-.81-5.96-1.18,.44-.27,1.1-.67,1.94-1.18-.38-.47-.64-.97-1.05-1.25-5.4-3.82-10.83-7.6-16.24-11.42-1.39-.98-2.71-2.05-4.05-3.1-2.15-1.68-4.15-1.61-5.98,.42-5.5,6.08-10.97,12.19-16.4,18.33-1.5,1.69-2.74,3.61-4.28,5.24-.7,.74-1.85,1.05-2.75,1.53-3.01-4.59-2.31-10.48,2.25-13.42,5.25-3.38,8.57-8.4,12.56-12.83,7.04-7.81,11.7-17.04,14.53-27.15,.37-1.32,.17-2.8,.26-4.91Z"/><path class="uuid-c833a156-f1ac-4f06-8ae5-ca6eefa91bc9" d="M711.6,287.03c.73,3.7-3.55,2.36-4.24,4.59v-2.2c-.48-.08-.87-.26-1.18-.17-2.88,.86-5.81,1.61-8.61,2.68-5.32,2.04-11.57,1.48-16.54-1.96,10.1-3.62,20.02-5.3,30.57-2.94Z"/></g><g><path class="uuid-c833a156-f1ac-4f06-8ae5-ca6eefa91bc9" d="M613.9,604.19c-2.44-1.82-4.69-3.49-6.93-5.17-.23-.17-.57-.4-.58-.61-.07-2.85-.78-5.94,.09-8.48,.86-2.52,3.12-4.72,5.15-6.65,4.39-4.17,9.08-8.03,13.54-12.13,2.05-1.89,3.85-4.05,6.01-6.36,.92,1.14,1.7,2.11,2.06,2.56,2.29-.38,4.88-1.64,6.2-.83,1.96,1.21,1.66,3.85-.14,5.64,.31,.36,.47,.63,.53,.61,4.12-1.37,6.87,1.64,10.06,3.17,1.99,.95,2.57,2.23,1.09,4.3-5.75,8.06-11.4,16.21-17.07,24.33-.68,.98-1.3,2.01-2.06,3.19,3.77,2.41,2.76,6.08,3.07,9.62,.74,8.43-1.14,16.54-2.06,24.79-.73,6.52-.22,13.18-1.02,19.69-.71,5.71-1.73,11.55-5.86,16.17-1.64,1.84-3.04,3.89-4.6,5.91,0-11.41-.64-22.89,.18-34.26,.82-11.44,3.08-22.77,4.84-35.03-12.61,9.66-22.78,21.29-37.38,26.38l.07-.86c-1.19-.97-2.59-1.78-3.49-2.97-.83-1.09-1.2-2.56-1.61-3.91-.82-2.66,1.25-8.18,3.76-9.24,10.03-4.23,18.15-11.37,26.91-17.52,8.61-6.05,16.06-13.32,21.97-22.09,.45-.66,.91-1.31,1.34-1.99,.1-.15,.06-.39,.22-1.46-2.87,1.59-5.74,2.5-7.67,4.37-3.34,3.24-6.06,7.12-9.12,10.66-2.25,2.6-4.64,5.09-7.47,8.18Z"/><path class="uuid-c833a156-f1ac-4f06-8ae5-ca6eefa91bc9" d="M668.76,612.39c-5.71,1.81-11.47,3.19-15.36,8.18-1.44,1.84-2.83,1.08-4.14,.05-3.54-2.79-6.17-6.05-4.85-11.3,2.09-.91,3.94-.85,4.81,2.07,.55,1.85,1.64,2.34,3.43,1.47,4.88-2.36,9.85-4.55,14.66-7.05,.96-.5,1.87-2.07,1.91-3.19,.27-6.82,.15-13.66,.45-20.48,.09-2.08,.9-4.2,1.76-6.14,.66-1.49,4.78-.88,6.37,1.15,.97,1.24,1.52,2.93,1.87,4.5,.89,4.01,1.48,8.09,2.37,12.11,.62,2.79,2.78,4.26,5.25,5.38,1.07,.49,2.2,1,3.04,1.78,.86,.79,2.16,2.27,1.91,2.83-.54,1.22-1.83,2.31-3.07,2.94-.98,.49-2.36,.11-3.54,.29-3.03,.47-6.1,.84-9.03,1.68-.89,.26-1.86,1.85-1.98,2.92-.33,2.98-.16,6.02-.31,9.03-.09,1.87,.78,2.11,2.4,2.01,7.01-.4,14.02-.76,21.03-.91,1.06-.02,2.89,.99,3.07,1.81,.38,1.71-.42,3.34-2.6,3.65-3.97,.58-7.97,1.03-11.9,1.83-3.33,.68-6.57,1.85-9.88,2.67-2.03,.5-2.79,1.63-2.62,3.67,.82,9.49,1.78,18.98,2.29,28.49,.25,4.67-.28,9.4-.67,14.09-.18,2.2-1.87,2.92-3.92,1.96-2.13-1-3.65-2.42-4.73-4.7-1.83-3.86-2.7-7.75-3.22-12-.75-6.14-2.64-12.14-4.04-18.19-.09-.39-.18-.78-.24-1.18q-.8-5.06-5.61-3.64c-1.65,.48-3.84-1.05-3.6-2.99,.38-3.08-.25-6.45,2.74-8.93,2.53-2.11,4.59-4.86,6.78-7.25,2.38-2.6,4.57-4.06,7.77-4.66,2.25-.43,2.13-1.94,1.4-3.94Zm-1.51,22.47c-4.6,.9-5.14,1.52-4.98,5.82,.07,1.89,0,3.83,.39,5.66,1.19,5.59,2.57,11.14,3.87,16.71,.24-.07,.48-.14,.72-.22v-27.97Zm13.37-32.19c-1.93-4.35-3.6-8.14-5.28-11.93-.57,3.66-.63,7.29-.5,10.92,.02,.46,.97,1.2,1.55,1.27,1.15,.13,2.34-.12,4.23-.26Z"/><path class="uuid-c833a156-f1ac-4f06-8ae5-ca6eefa91bc9" d="M717.67,604.06c-3.42,2.41-5.97,4.48-8.78,6.13-3.45,2.02-7.02,3.88-10.71,5.39-1.3,.53-3.61,.35-4.58-.5-1.48-1.3-3.07-3.47-3.04-5.26,.03-2.35,2.15-4.06,4.84-4.01,2.02,.04,3.36-.79,4.51-2.37,.44-.6,1.58-1.31,2.1-1.12,2.66,.97,4.08-.71,5.78-2.17,.89-.78,1.64-3.04,3.51-.98,.15,.17,1.08-.32,1.63-.56,7.82-3.35,15.73-6.5,23.43-10.12,5.8-2.73,11.96-3.22,18.12-3.88,1.54-.17,3.16,.41,4.74,.65,.08,.45,.15,.9,.23,1.34-3.12,1.29-6.19,2.71-9.36,3.84-6.51,2.31-13.13,4.29-19.58,6.73-3.16,1.2-6.07,3.09-9.02,4.79-.76,.44-1.67,1.32-1.73,2.06-.04,.55,1.2,1.19,1.87,1.78,.78,.69,1.75,1.26,2.28,2.11,.57,.9,.95,2.05,1.01,3.12,.55,9.48,2.85,18.8,1.91,28.44-.9,9.21-.95,18.51-1.48,27.77-.16,2.78-.74,5.53-.96,8.31-.32,3.99-3.87,3.64-6.26,4.5-1.89,.68-4.08,.52-5.2-2.13-2.66-6.33-9.1-8.12-14.27-11.4-2.08-1.32-4.35-2.35-6.31-4.08,5.44,1,10.87,2.01,16.31,2.99,7,1.26,5.79,1.31,6.97-4.52,2.97-14.69,5.18-29.5,4.34-44.56-.21-3.82-1.38-7.58-2.29-12.3Z"/><path class="uuid-c833a156-f1ac-4f06-8ae5-ca6eefa91bc9" d="M738.49,577.8c-5.69,7.28-13.96,9.73-20.39,14.13-1.39-.09-2.78-.28-4.17-.24-3.2,.09-4.86-2.11-3.56-4.96,.65-1.43,1.4-2.52,3.48-1.53,1.05,.5,2.82,.19,3.98-.35,3.99-1.87,7.83-4.07,11.78-6,2.56-1.25,5.22-2.39,8.88-1.04Z"/><path class="uuid-c833a156-f1ac-4f06-8ae5-ca6eefa91bc9" d="M695.52,598.17c-1.43-4.14-2.77-8.03-4.16-12.06,1.74-1.29,5.97,.58,8.57,4.23,1.3,1.82-.12,4.43-4.4,7.83Z"/></g><g><path class="uuid-c833a156-f1ac-4f06-8ae5-ca6eefa91bc9" d="M692.65,486.58c-.75,1.7-1.41,3.43-2.26,5.08-.88,1.72-1.66,3.61-2.98,4.97-2.14,2.2-4.47,4.23-7.03,6.05-1.74,1.24-2.87,3.32-4.16,5.09-.75,1.03-1.28,2.22-2.03,3.54,.84,.51,1.85,1.2,2.93,1.76,3.02,1.59,6.05,3.16,9.12,4.67,1.04,.51,2.17,.9,3.29,1.23,1.89,.55,3.1,1.75,4.05,3.38,.8,1.37,1.82,2.62,2.79,3.99-.96,.82-1.25,1.45-.46,2.5,.51,.68,.37,1.83,.42,2.77,.01,.26-.27,.67-.53,.8-2.28,1.15-4.66,1.46-7.17,.69-6.35-1.96-11.6-5.81-17.08-9.26-1.01-.64-1.83-1.57-2.74-2.36-1.72-1.49-2.8-1.57-4.82-.4-.39,.22-.84,.37-1.27,.5-1.89,.56-3.85,.98-5.68,1.69-2.37,.92-4.65,2.05-6.94,3.14-1.11,.52-2.07,.62-3.4,.48-1.7-.18-3.52,.89-5.33,1.29-1.25,.28-2.56,.33-3.84,.51-1.15,.17-2.35,.23-3.43,.6-1.82,.63-3.56,1.45-5.33,2.2-1.93,.82-3.86,1.66-5.74,2.46-.91-.26-2.01-.57-3.21-.91,1-.9,2.05-1.9,3.16-2.83,2.64-2.22,5.26-4.46,7.97-6.6,2.67-2.11,5.14-4.45,8.27-6.03,1.65-.83,2.88-2.39,4.41-3.48,2.22-1.58,4.51-3.07,6.8-4.53,1.36-.87,2.82-1.58,4.15-2.48,.22-.15,.16-1.1-.1-1.41-1.6-1.87-3.31-3.66-4.96-5.5-.9-1-1.71-2.08-2.61-3.08-.62-.69-1.3-1.01-2.07-.1-.17,.2-.55,.34-.83,.33-1.35-.07-2.55-.14-3.4,1.33-.38,.65-1.71,.61-2-.39-.47-1.57-1.14-3.08-.3-4.91,.73-1.58,.74-3.48,1.09-5.36-1.31,0-2.66-.15-3.96,.03-2.66,.38-5.34,.77-7.92,1.48-1.63,.45-3.04,1.58-4.61,2.25-1.58,.67-3.21,1.44-4.89,1.65-3.1,.4-5.85,2.2-9.17,1.85-1.52-.16-2.56-.77-3.43-1.74-1.8-2.02-3.67-4.02-5.15-6.26-.94-1.41-1.19-3.25-1.8-4.87-.27-.72-.71-1.37-1.03-2.08-.13-.3-.29-.71-.18-.96,.09-.2,.64-.38,.89-.29,1.47,.51,3.12,.85,4.32,1.73,1.65,1.2,3.35,1.69,5.32,1.55,5.27-.36,10.53-.77,15.8-1.1,7.34-.45,14.69-.83,22.03-1.26,1.84-.11,2.83-1.48,3.91-2.64,3.02-3.25,5.73-6.73,7.57-10.74,.8-1.74,1.24-3.64,1.75-5.5,.26-.95,1.9-1.61,3.08-1.01,1.98,1.02,3.9,2.14,5.86,3.18,1.31,.69,1.96,1.7,1.82,3.16-.02,.2,.02,.4,0,.6-.14,.98,.92,2.15-.62,2.93-.92,.47-1.72,1.18-2.55,1.8-.4,.29-.86,.56-1.12,.95-.96,1.45-1.85,2.93-2.75,4.42-.09,.15-.04,.38-.08,.83,1.42-.14,2.73-.23,4.03-.42,1.93-.29,3.86-.65,5.78-.98,1.52-.25,3.07-.44,4.57-.79,.34-.08,.62-.7,.77-1.12,.16-.46,.05-1.36,.23-1.41,.55-.13,1.32-.14,1.76,.15,1.74,1.13,3.67,1.34,5.63,1.16,4.58-.43,9.13-1.26,13.72-1.4,5.64-.18,11.33-.16,16.93,.39,4.69,.46,9.3,1.74,13.9,2.82,2.73,.64,4.71,2.45,6.3,4.64,.79,1.09,1.73,2.12,2.33,3.3,.95,1.85,1.79,3.77,2.46,5.73,.44,1.28-1.12,3.34-2.53,3.96-1.08,.48-2.08,1.12-3.06,1.78-1.29,.87-1.96-.29-2.74-.79-.69-.44-1.1-1.27-1.73-1.83-.95-.84-1.94-1.62-3.42-1.36-.53,.09-1.27,.06-1.66-.23-1.5-1.11-3.25-.63-4.87-.84-.63-.08-1.4,.57-1.99,.43-2.41-.59-4.8-1.28-7.12-2.13-.72-.26-1.11-1.28-1.81-1.7-1.44-.86-2.93-2.02-4.51-2.21-3.73-.43-7.52-.48-11.18,.79-.61,.21-1.31,.18-1.97,.25,.1,.12,.2,.24,.3,.36Zm-17.61-2.4c-.11-.17-.22-.33-.32-.5-2.07,.33-4.17,.54-6.2,1.03-3.48,.84-6.87,2.48-10.54,1.82-3.61-.65-5.97,.99-8.23,3.24-1.88,1.87-4.04,3.34-6.62,4.19-.46,.15-.83,.54-1.25,.82,.06,.13,.13,.26,.19,.39,.54-.08,1.1-.1,1.62-.25,1.24-.37,2.41-.38,3.73-.1,5.1,1.1,9.96,2.65,14.13,5.85,.77,.59,1.62,.79,2.36-.28,1.49-2.15,3.32-4.12,4.57-6.39,1.45-2.62,2.95-5.17,4.93-7.45,.63-.72,1.09-1.57,1.63-2.36Z"/><path class="uuid-c833a156-f1ac-4f06-8ae5-ca6eefa91bc9" d="M637.82,420.81c-.1-.56-.18-.98-.25-1.37,.14-.11,.22-.23,.31-.24,3.37-.31,4.86,.73,5.75,3.72,.57,1.9,1.24,3.81,2.19,5.57,1.16,2.11,.94,4.41,1.52,6.58,.26,.98,.93,1.86,1.26,2.83,.35,1.04,.55,2.13,.76,3.2,.11,.56,.1,1.13,.14,1.7h.62c0-1.19,.14-2.39-.03-3.56-.35-2.37,.91-4.01,2.87-5.08,4.22-2.3,7.57-5.34,10.27-9.59-1.12,.07-2.06-.04-2.88,.21-1.57,.47-3.01,1.38-4.6,1.69-2.83,.55-5.69,1.48-8.62,.68-.54-.15-1.04-.9-1.28-1.47-.55-1.34-.92-2.75-1.61-4.09,.38-1.28,1.27-1.69,3.1-1.6,1.89,.09,3.87-.81,5.76-1.41,3.46-1.11,6.87-2.33,10.31-3.48,1.17-.39,2.43-.6,3.56-1.06,.4-.16,.78-.81,.8-1.25,.09-2.65,.05-5.31,.12-7.96,.04-1.37-.76-1.8-2.06-1.96-2.57-.31-4.62,.78-6.65,1.97-1.48,.86-2.88,1.98-4.82,.94-.33-.18-.93-.27-1.22-.11-2.72,1.46-4.81-.05-6.7-1.4-2.81-2.02-5.44-4.28-8.01-6.56-.48-.43-.53-1.52-.35-2.22,.08-.33,1.15-.54,1.8-.63,2.44-.32,4.58,.31,6.42,1.85,.27,.22,.77,.4,1.1,.33,6.53-1.44,13.05-2.92,19.58-4.38,.7-.16,1.43-.17,2.13-.29,5.62-.97,11.32-1.68,16.83-3.02,4.56-1.1,9.11-.97,13.7-1.12,.98-.03,1.94-.49,2.92-.56,.76-.05,1.58,.1,2.3,.35,2.43,.83,4.94,1.57,7.2,2.7,1.33,.67,2.38,1.93,3.31,3.09,.31,.39,.06,1.36-.24,1.93-.51,.96-1.26,1.81-1.93,2.69-.37,.49-.69,1.27-1.17,1.38-1.96,.45-1.8,1.69-1.72,3.08,.13,2.43-1.54,3.33-3.83,2.16-3.57-1.82-7.39-2.96-11.45-3.16-1.57-.08-3.16,.44-4.75,.49-2.61,.09-5.23,.02-8.13,.02,.15,.68,.26,1.34,.44,1.99,.46,1.7,1.13,3.37,1.38,5.09,.2,1.38,.8,1.91,2.19,1.67,1.44-.25,2.85-.64,4.29-.92,3.6-.7,7.21-1.01,10.75,.19,1.65,.56,3.47,1.03,4.78,2.03,2,1.51,3.64,3.43,5.4,5.2,.64,.65,1.23,1.34,1.82,2.03,2.4,2.81,1.39,6.91-2.19,8.33-2.67,1.06-3.98,2.69-4.05,5.43-.02,.83-1.03,1.97-1.9,2.37-1.3,.59-2.19,1.27-2.47,2.56-.39,1.77-.58,3.58-1.17,5.29-.56,1.64-1.53,3.16-2.28,4.75-.31,.66-.76,1.35-.78,2.03-.11,3.25-.02,6.51-.14,9.76-.09,2.41-2.43,3.52-4.68,2.32-.72-.38-1.41-.85-2.01-1.38-1.62-1.42-3.22-2.86-4.77-4.35-1.54-1.48-3.1-2.96-4.46-4.57-1.4-1.66-2.95-1.48-4.76-.83-2.21,.79-4.47,1.44-6.69,2.2-4.36,1.5-8.93,1.4-13.46,1.62-.84,.04-1.68,.05-2.52,.11-3.8,.27-7.61,.53-11.41,.83-2.28,.18-4.53,.37-6.6-.86-.98-.58-1.52-1.19-1.3-2.42,.18-.97-.21-2.01-.27-3.03-.03-.46,.04-.96,.19-1.4,.67-1.93,.83-3.7-.15-5.73-1.14-2.38-1.76-5-2.31-7.58-.49-2.25-.35-4.63-.91-6.86-.34-1.35-1.44-2.56-2.3-3.77-.48-.66-1.22-1.16-1.75-1.8-.17-.21-.17-.84-.05-.89,1.2-.52,2.41-1.27,3.67-1.35,1.94-.14,3.93,.19,6.14,.33Zm54.38-4.56c-.97,.35-1.99,.62-2.91,1.07-1.14,.56-2.11,1.53-3.31,1.84-3.26,.84-3.77,2.83-3.36,5.53,.18,1.18-.06,2.42-.12,3.63-.08,1.71-1.19,2.85-2.59,3.76-2.55,1.66-3.58,4.04-3.77,6.76-.04,.59,.52,1.45,1.08,1.81,1.88,1.21,3.82,2.37,5.87,3.31,1.85,.84,3.84,1.44,5.83,1.97,.52,.14,1.67-.21,1.78-.55,.76-2.24,1.32-4.55,1.94-6.83,.16-.58,.31-1.17,.46-1.75,.56-2.19,1.32-4.37,1.62-6.59,.43-3.17,.53-6.38,.76-9.57,.16-2.18-1.36-4.13-3.3-4.38Zm-32.87,26.71c.12,.25,.24,.49,.37,.74,2.99-.35,6.01-.57,8.96-1.08,1.76-.3,2.58-1.37,2.57-3.28-.01-2.78,.34-5.6,.92-8.34,.52-2.45,1.59-4.81,2.37-7.22,.29-.9,.42-1.84,.63-2.77-.19-.12-.39-.24-.58-.36-.8,.56-2.04,.96-2.33,1.69-1.02,2.57-2,5.2-2.47,7.89-.78,4.5-3.47,7.65-7.26,10.25-1.12,.76-2.12,1.66-3.18,2.49Zm12.49-35.45c-.02,.28-.05,.55-.06,.83-.22,4.55-.02,4.71,4.74,3.86,.18-.03,.39-.01,.52-.09,.39-.23,.97-.44,1.08-.77,.92-2.67,1.74-5.37,1.17-8.23-.28-1.41-1.24-1.77-2.63-1.51q-4.6,.86-4.8,5.26c-.01,.22-.02,.44-.03,.66Z"/></g></g><path class="uuid-59fb5d67-c062-4c2d-9615-cb30f378cbbc" d="M250.28,296.63c12.53-17.33,21.59-36.42,28.57-56.63-.58,9.86,.93,19.25,5.04,28.15,15.34,33.17,58.01,42.57,85.96,18.95,.66-.56,1.4-1.02,2.11-1.53,.14,.15,.28,.3,.43,.44-14.7,25.43-18.79,52.47-11.73,80.98,5.9,23.82,18.88,43.19,38.16,58.37,.66,.52,1.62,.75,1.89,1.97-6.33-.33-12.58-.75-18.83-.95-33.99-1.11-67.23,2.98-99.55,13.97-35.22,11.98-63.94,32.71-86.81,62.06-17.01,21.82-31.52,44.98-41.98,70.62-.13,.33-.42,.59-.5,.7-32.52-45.24-74.98-58.76-127.8-40.21,59.58-46.72,68.49-133.72,22.31-189.3,11.1,4.05,21.96,7.35,33.12,9.53,39.69,7.74,78.44,4.7,116.04-10.47,12.1-4.88,22.88-11.96,32.18-21.18,.54,.3,1.1,.59,1.63,.91,8.21,4.98,17.22,3.62,22.61-3.43,5.45-7.13,4.3-16.43-2.85-22.97ZM100.03,504.37c28.27-15.21,56.54-30.42,85.3-45.89-.03,3.46-1.47,5.61-3.21,7.6-2.97,3.4-6.79,5.65-10.7,7.76-15.38,8.31-30.75,16.62-46.12,24.94-1.09,.59-2.37,.96-3.02,2.19-2.18,4.19-4.37,8.37-6.66,12.76,.72,0,1,.09,1.18-.01,22.95-12.39,45.95-24.7,68.82-37.23,8.11-4.44,12.12-11.63,12.2-20.9,.05-5.83,0-11.66,0-17.49,0-4.85,0-9.71,0-15.06-26.11,14.04-51.63,27.75-77.14,41.49-.64,.35-1.32,.88-1.66,1.5-2.24,4.16-4.38,8.38-6.89,13.23,1.19-.51,1.64-.66,2.05-.87,16.06-8.63,32.12-17.27,48.18-25.9,6.81-3.66,13.6-7.33,20.44-10.92,.74-.39,1.9-1.91,2.53,.25,1.01,3.45-.2,6.31-3.43,8.06-24.29,13.13-48.58,26.25-72.86,39.37-1.44,.78-3,1.35-3.8,2.98-1.89,3.86-3.84,7.69-5.76,11.53-.12,.26-.24,.53-.36,.79,.3-.06,.6-.11,.9-.17Zm79.75-76.39c9.57-4.09,15.33-11.16,17.16-21.25,1.84-10.14,.48-20.36,.97-31.07-1.2,.58-1.86,.86-2.5,1.21-10.14,5.47-20.27,10.96-30.44,16.38-.9,.48-1.96,1.89-2.93,.86-.6-.64-.29-2.15-.35-3.27-.09-1.84,1.48-2.19,2.64-2.83,6.78-3.7,13.34-7.95,20.44-10.88,9.5-3.91,10.35-13.33,14.95-20.37-.99,.09-1.68,.42-2.34,.78-25.96,14.02-51.8,28.25-77.96,41.89-5.69,2.97-8.5,6.02-7.6,12.55,.58,4.25,.1,4.28,3.91,2.22,10.22-5.53,20.45-11.02,30.79-16.59,.72,5.21,.78,5.33-3.26,7.35-7.23,3.62-14,7.71-17.87,15.25-.05,.09-.43,.01-.64,.01-.6-1.5,.29-3.23-.68-4.84-3.66,1.91-7.06,3.85-10.61,5.48-1.75,.81-1.52,2.09-1.52,3.45,0,6.59,0,13.18,0,19.77,0,6.65,0,13.3,0,20.51,3.73-1.99,6.88-3.8,10.15-5.38,1.84-.89,2.54-2.03,2.49-4.12-.15-6.33-.04-12.66-.09-19-.03-4.29,1.33-8.08,4.51-10.89,5.15-4.54,11.65-6.75,17.89-10.56,0,9.81,.12,18.8-.07,27.78-.07,3.25,.82,3.36,3.28,1.91,3.05-1.8,6.19-3.47,9.37-5.02,1.73-.84,2.28-1.94,2.25-3.85-.11-8.49,.02-16.98-.09-25.47-.03-2.29,.54-3.69,2.74-4.74,4-1.89,7.79-4.22,11.73-6.24,2.96-1.52,5.69-3.56,9.2-4.49-.04,11.65,1.2,23.15-5.56,33.47Zm57.06-10.23c1.66-5.52,4.96-8.35,9.35-10.66,20.29-10.68,40.42-21.65,60.61-32.52,5.45-2.93,10.59-10.06,11.97-16.74-2.44,1.32-4.76,2.58-7.09,3.84-33.9,18.26-67.8,36.51-101.69,54.78-1.05,.57-2.65,.78-2.61,2.41,.07,2.95-.43,5.95,.34,9.06,3.4-1.78,6.57-3.43,10.59-5.53-3.81,7.43-7.15,13.95-10.94,21.34,5.13-2.72,9.33-4.95,14.13-7.5v20.3c1.56,.18,2.34-.57,3.2-1.03,19.09-10.23,38.07-20.67,57.28-30.67,17.03-8.86,17.36-21.84,15.5-39.67-20.1,10.8-40.13,21.57-60.63,32.59Zm-29.61-4.26c15.24-8.24,29.83-16.13,44.42-24.02,.99-.54,2.12-.93,2.12-2.38-.02-3.5,0-7,0-11.09-4.73,2.53-8.91,4.79-13.13,6.99-.79,.41-2.18,1.94-2.34-.37-.22-3.15-.57-6.46,.16-9.45,.57-2.33,3.77-2.63,5.79-3.85,2.27-1.37,4.61-2.67,7.01-3.8,1.82-.86,2.7-1.93,2.5-4.07-.27-2.99-.21-6.01-.29-9.01-3.22,.42-5.51,2.81-8.39,3.97-.12,.05-.23,.11-.34,.17-6.52,3.57-6.45,3.57-6.54-3.79-.04-2.88-.24-5.59,3.38-6.59,6.6-1.83,8.46-6.33,7.62-12.83-.36-2.76-.36-3.6-3.22-2-9.62,5.37-19.12,11.05-29.12,15.62-9.02,4.12-9.96,13.13-14.18,20.26,6.08-3.27,12.17-6.55,18.8-10.12,0,2.82-.2,5.08,.05,7.29,.39,3.44-.62,5.66-4.04,6.99-2.81,1.1-5.37,2.84-8.03,4.31-.85,.47-2.06,.69-2.08,1.96-.05,3.71-.02,7.41-.02,11.53,4.32-2.34,7.99-4.34,11.68-6.3,.77-.41,2.13-1.57,2.3,.06,.34,3.25,.4,6.61-.04,9.85-.25,1.8-2.68,2.05-4.18,2.92-2.63,1.52-5.3,2.98-8.02,4.35-1.28,.65-1.91,1.45-1.88,2.94,.08,3.26,.03,6.53,.03,10.47Zm51.37-27.58c5.54-3.02,10.55-5.43,15.23-8.35,14.45-9.02,23.16-21.95,24.22-39.08,.71-11.35,.14-22.78,.12-34.18,0-.16-.31-.31-.65-.63-8.23,4.42-16.53,8.87-25.4,13.63,0-4.5,.03-8.37-.03-12.24-.01-.72,.56-1.91-.96-1.96-1.68-.06-6.24,3.68-6.54,5.46-.95,5.64-2.87,11.06-7.18,14.77-5.61,4.85-3,10.67-3.7,16.33,2.09-.36,3.01-2.03,4.89-1.66v47.9Zm-91.99,31.05c3.8-2.03,7.33-4.21,11.1-5.85,3.25-1.41,3.78-3.49,2.75-6.79-3.78,2.02-7.33,4.19-11.1,5.85-3.22,1.42-3.76,3.5-2.75,6.79Zm-.02,11.96c3.81-2.04,7.26-4.15,10.91-5.78,3.11-1.39,4.04-3.4,2.98-6.92-3.58,1.92-6.99,4.02-10.63,5.61-3.2,1.39-4.5,3.32-3.26,7.09Zm-24.39-3.93c-3.9,2.09-7.57,4.05-11.22,6.02q-3.58,1.93-2.47,6.59c3.59-1.94,7.04-4.09,10.72-5.69,3.17-1.38,4.15-3.33,2.97-6.91Zm-13.97,24.58c3.81-2.01,7.38-4.15,11.17-5.81,3.21-1.41,3.88-3.49,2.83-6.85-3.75,2.01-7.29,4.19-11.06,5.83-3.22,1.39-3.82,3.49-2.93,6.84Z"/><path class="uuid-ecbf0dc0-629b-4d0c-a90a-a91ed30783dc" d="M250.28,296.63c7.15,6.54,8.3,15.84,2.85,22.97-5.39,7.05-14.4,8.42-22.61,3.43-.53-.32-1.09-.61-1.63-.91-4.07-4.73-6.47-10-4.87-16.38,2.94-11.75,15.52-16.09,26.26-9.12Z"/><path class="uuid-59fb5d67-c062-4c2d-9615-cb30f378cbbc" d="M372.61,284.73c.09-.07,.17-.15,.27-.2,.04-.02,.11,.04,.17,.07-.19,.01-.37,.02-.56,.03l.11,.1Z"/><path class="uuid-59fb5d67-c062-4c2d-9615-cb30f378cbbc" d="M372.5,284.64c.42,.5,.22,.94-.11,1.38-.15-.14-.29-.29-.43-.44,.22-.28,.45-.55,.66-.84,0,0-.12-.1-.12-.1Z"/><path class="uuid-b7eb6c29-e246-4d0d-826f-4589b948be25" d="M179.78,427.98c6.76-10.32,5.52-21.82,5.56-33.47-3.52,.93-6.25,2.98-9.2,4.49-3.94,2.02-7.73,4.35-11.73,6.24-2.21,1.05-2.78,2.44-2.74,4.74,.12,8.49-.01,16.98,.09,25.47,.02,1.91-.52,3.01-2.25,3.85-3.19,1.55-6.32,3.22-9.37,5.02-2.46,1.45-3.35,1.35-3.28-1.91,.19-8.98,.07-17.97,.07-27.78-6.24,3.81-12.74,6.02-17.89,10.56-3.19,2.81-4.55,6.6-4.51,10.89,.05,6.33-.06,12.67,.09,19,.05,2.09-.66,3.23-2.49,4.12-3.26,1.58-6.42,3.39-10.15,5.38,0-7.21,0-13.86,0-20.51,0-6.59,0-13.18,0-19.77,0-1.36-.23-2.64,1.52-3.45,3.54-1.63,6.95-3.57,10.61-5.48,.97,1.61,.08,3.33,.68,4.84,.22,0,.6,.08,.64-.01,3.87-7.54,10.63-11.63,17.87-15.25,4.04-2.02,3.98-2.13,3.26-7.35-10.34,5.57-20.57,11.07-30.79,16.59-3.82,2.06-3.33,2.03-3.91-2.22-.9-6.53,1.92-9.58,7.6-12.55,26.15-13.64,52-27.87,77.96-41.89,.67-.36,1.35-.69,2.34-.78-4.6,7.04-5.45,16.46-14.95,20.37-7.1,2.92-13.66,7.18-20.44,10.88-1.17,.64-2.74,.99-2.64,2.83,.06,1.12-.25,2.63,.35,3.27,.96,1.03,2.02-.38,2.93-.86,10.17-5.42,20.29-10.91,30.44-16.38,.63-.34,1.3-.63,2.5-1.21-.5,10.71,.87,20.93-.97,31.07-1.83,10.09-7.59,17.17-17.16,21.25Z"/><path class="uuid-b7eb6c29-e246-4d0d-826f-4589b948be25" d="M236.84,417.75c20.5-11.02,40.53-21.79,60.63-32.59,1.86,17.84,1.54,30.81-15.5,39.67-19.21,9.99-38.19,20.44-57.28,30.67-.86,.46-1.64,1.21-3.2,1.03v-20.3c-4.8,2.54-8.99,4.77-14.13,7.5,3.79-7.39,7.13-13.91,10.94-21.34-4.02,2.1-7.18,3.75-10.59,5.53-.77-3.11-.27-6.1-.34-9.06-.04-1.63,1.55-1.84,2.61-2.41,33.89-18.27,67.79-36.52,101.69-54.78,2.33-1.25,4.65-2.52,7.09-3.84-1.37,6.68-6.52,13.81-11.97,16.74-20.19,10.86-40.32,21.83-60.61,32.52-4.39,2.31-7.69,5.14-9.35,10.66Zm-.78,21.03c15.43-8.37,30.6-16.4,45.55-24.83,4.48-2.53,6-7.26,6.55-12.92-15.62,8.4-30.34,16.8-45.53,24.24-6.13,3-8.13,6.68-6.58,13.51Z"/><path class="uuid-b7eb6c29-e246-4d0d-826f-4589b948be25" d="M99.49,503.75c1.92-3.84,3.87-7.67,5.76-11.52,.8-1.63,2.37-2.21,3.8-2.98,24.29-13.12,48.58-26.25,72.86-39.37,3.23-1.75,4.44-4.61,3.43-8.06-.63-2.16-1.79-.64-2.53-.25-6.84,3.59-13.64,7.27-20.44,10.92-16.06,8.63-32.12,17.27-48.18,25.9-.41,.22-.85,.37-2.05,.87,2.51-4.85,4.66-9.06,6.89-13.23,.33-.62,1.02-1.15,1.66-1.5,25.51-13.74,51.02-27.45,77.14-41.49,0,5.35,0,10.21,0,15.06,0,5.83,.04,11.66,0,17.49-.08,9.28-4.1,16.46-12.2,20.9-22.88,12.53-45.87,24.85-68.82,37.23-.18,.1-.47,.01-1.18,.01,2.29-4.39,4.48-8.57,6.66-12.76,.64-1.24,1.92-1.6,3.02-2.19,15.37-8.32,30.74-16.63,46.12-24.94,3.91-2.11,7.73-4.36,10.7-7.76,1.74-2,3.18-4.15,3.21-7.6-28.76,15.47-57.03,30.68-85.3,45.89-.18-.21-.36-.41-.54-.62Z"/><path class="uuid-b7eb6c29-e246-4d0d-826f-4589b948be25" d="M207.24,413.49c0-3.95,.06-7.21-.03-10.47-.04-1.49,.6-2.29,1.88-2.94,2.71-1.37,5.39-2.83,8.02-4.35,1.49-.86,3.93-1.12,4.18-2.92,.44-3.23,.38-6.59,.04-9.85-.17-1.62-1.53-.46-2.3-.06-3.69,1.96-7.35,3.96-11.68,6.3,0-4.12-.03-7.82,.02-11.53,.02-1.27,1.22-1.49,2.08-1.96,2.66-1.47,5.22-3.21,8.03-4.31,3.42-1.33,4.43-3.56,4.04-6.99-.25-2.21-.05-4.46-.05-7.29-6.63,3.57-12.71,6.84-18.8,10.12,4.22-7.13,5.17-16.14,14.18-20.26,10-4.57,19.5-10.24,29.12-15.62,2.86-1.6,2.87-.76,3.22,2,.84,6.5-1.02,11-7.62,12.83-3.61,1-3.41,3.71-3.38,6.59,.09,7.36,.03,7.36,6.54,3.79,.11-.06,.22-.13,.34-.17,2.88-1.15,5.16-3.55,8.39-3.97,.08,3,.02,6.02,.29,9.01,.19,2.14-.68,3.22-2.5,4.07-2.4,1.13-4.73,2.43-7.01,3.8-2.02,1.22-5.22,1.52-5.79,3.85-.73,2.99-.38,6.3-.16,9.45,.16,2.31,1.55,.78,2.34,.37,4.22-2.2,8.4-4.46,13.13-6.99,0,4.09-.01,7.59,0,11.09,0,1.45-1.12,1.84-2.12,2.38-14.59,7.89-29.17,15.77-44.42,24.02Z"/><path class="uuid-b7eb6c29-e246-4d0d-826f-4589b948be25" d="M258.6,385.91v-47.9c-1.87-.36-2.79,1.3-4.89,1.66,.7-5.67-1.91-11.48,3.7-16.33,4.3-3.72,6.23-9.13,7.18-14.77,.3-1.78,4.85-5.52,6.54-5.46,1.52,.05,.95,1.25,.96,1.96,.06,3.87,.03,7.74,.03,12.24,8.87-4.76,17.17-9.22,25.4-13.63,.34,.32,.65,.47,.65,.63,.02,11.4,.59,22.83-.12,34.18-1.07,17.13-9.77,30.06-24.22,39.08-4.68,2.92-9.69,5.33-15.23,8.35Zm12.07-41.74c5.27-2.84,9.78-5.31,14.33-7.71,1.16-.61,1.55-1.44,1.52-2.73-.07-3.02-.06-6.05,.03-9.08,.06-1.94-.56-2.18-2.18-1.27-3.95,2.22-7.96,4.36-11.96,6.5-1.07,.57-1.78,1.23-1.76,2.6,.07,3.63,.02,7.27,.02,11.68Zm0,27.11c8.26-6.81,12.06-15.16,14.53-25.26-4.96,2.66-9.25,4.97-13.54,7.26-.78,.42-.99,1.09-.99,1.89,0,5.12,0,10.23,0,16.11Z"/><path class="uuid-b7eb6c29-e246-4d0d-826f-4589b948be25" d="M166.61,416.96c-1.01-3.28-.47-5.37,2.75-6.79,3.77-1.66,7.31-3.82,11.1-5.85,1.03,3.3,.5,5.38-2.75,6.79-3.77,1.63-7.3,3.81-11.1,5.85Z"/><path class="uuid-b7eb6c29-e246-4d0d-826f-4589b948be25" d="M166.59,428.92c-1.24-3.77,.06-5.7,3.26-7.09,3.64-1.58,7.05-3.69,10.63-5.61,1.07,3.53,.13,5.54-2.98,6.92-3.66,1.63-7.1,3.73-10.91,5.78Z"/><path class="uuid-b7eb6c29-e246-4d0d-826f-4589b948be25" d="M142.21,424.99c1.18,3.58,.2,5.53-2.97,6.91-3.68,1.6-7.12,3.75-10.72,5.69q-1.11-4.65,2.47-6.59c3.65-1.97,7.32-3.92,11.22-6.02Z"/><path class="uuid-b7eb6c29-e246-4d0d-826f-4589b948be25" d="M128.24,449.57c-.89-3.35-.29-5.44,2.93-6.84,3.77-1.63,7.31-3.82,11.06-5.83,1.05,3.36,.38,5.45-2.83,6.85-3.79,1.66-7.36,3.8-11.17,5.81Z"/><path class="uuid-b7eb6c29-e246-4d0d-826f-4589b948be25" d="M100.03,504.37c-.3,.06-.6,.11-.9,.17,.12-.26,.24-.53,.36-.79,.18,.21,.36,.41,.54,.62Z"/><path class="uuid-59fb5d67-c062-4c2d-9615-cb30f378cbbc" d="M236.06,438.77c-1.55-6.83,.45-10.5,6.58-13.51,15.19-7.44,29.9-15.84,45.53-24.24-.56,5.67-2.07,10.4-6.55,12.92-14.95,8.42-30.12,16.46-45.55,24.83Z"/><path class="uuid-59fb5d67-c062-4c2d-9615-cb30f378cbbc" d="M270.67,344.17c0-4.41,.05-8.05-.02-11.68-.03-1.37,.69-2.03,1.76-2.6,4-2.14,8-4.27,11.96-6.5,1.62-.91,2.24-.67,2.18,1.27-.09,3.02-.1,6.05-.03,9.08,.03,1.29-.36,2.12-1.52,2.73-4.54,2.4-9.05,4.86-14.33,7.71Z"/><path class="uuid-59fb5d67-c062-4c2d-9615-cb30f378cbbc" d="M270.68,371.28c0-5.88,0-11,0-16.11,0-.8,.21-1.48,.99-1.89,4.29-2.29,8.58-4.6,13.54-7.26-2.47,10.11-6.27,18.46-14.53,25.26Z"/><g><path class="uuid-c833a156-f1ac-4f06-8ae5-ca6eefa91bc9" d="M1244.59,395.85c22.96-.61,37.86,11.15,47.53,30.95,2.19,4.49,4.58,8.88,6.75,13.38,7.49,15.59,20.38,22.77,37.15,23.6,6.6,.33,13.24-.03,19.57-.07-6.18,4.74-21.11,7.82-33.95,6.78-13.27-1.08-24.53-5.81-32.08-17.48-.6-.93-2.51-1.82-3.5-1.56-14.43,3.88-28.8,7.95-44.47,12.34,4.04,2.83,6.97,5.19,10.22,6.99,1.13,.63,3.18,.25,4.55-.31,5.39-2.21,10.59-4.91,16.05-6.91,1.8-.66,4.55-.39,6.22,.57,4.31,2.49,8.25,5.6,13.28,9.12-7.52,3.49-14.32,6.64-21.9,10.15,9.52,6.66,18.53,12.98,27.63,19.35-5.46,5.35-8.36,5.69-13.62,2.02-6.83-4.77-13.78-9.39-20.45-14.36-2.82-2.1-5.06-2.13-8.15-.62-7.03,3.43-14.24,6.5-21.45,9.55-14.49,6.12-30.72-1.53-34.19-16.66,1.41,1.23,2.38,2.12,3.39,2.95,4.39,3.61,9.26,4.47,14.48,2.18,8.23-3.61,16.4-7.36,25.64-11.52-4.69-3.29-8.81-6.17-12.93-9.05-3.55-2.48-7.18-4.87-10.61-7.5-1.2-.92-1.93-2.44-2.87-3.69,1.33-.89,2.54-2.17,4-2.59,10.87-3.16,21.8-6.15,32.71-9.2,9.75-2.73,19.49-5.47,30.17-8.47-3.16-7.4-5.66-14.67-9.26-21.34-5.11-9.45-14.23-13.59-24.2-16.21-2.01-.53-3.86-1.66-5.78-2.51l.08,.1Z"/><path class="uuid-c833a156-f1ac-4f06-8ae5-ca6eefa91bc9" d="M1143.13,342.16c8.73,6.12,17.48,12.21,26.2,18.36,4.79,3.38,4.72,5.07-.61,7.47-20.8,9.36-41.65,18.61-62.48,27.9-3.96,1.77-7.7,1.5-11.33-1.05-17.72-12.45-35.5-24.82-53.22-37.27-4.37-3.07-4.21-5.17,.59-7.32,20.81-9.33,41.67-18.58,62.51-27.85,4.32-1.92,8.22-1.47,12.16,1.42,8.61,6.29,17.43,12.29,26.16,18.4l.03-.04Zm-80.83,18.41c9.73,6.81,18.99,13.16,28.09,19.75,2.49,1.8,4.51,1.92,7.24,.66,12.23-5.62,24.55-11.05,36.83-16.56,4.63-2.08,9.26-4.17,14.77-6.64-10.7-7.49-20.55-14.47-30.54-21.24-.89-.61-2.86-.23-4.06,.29-16.13,7.09-32.21,14.28-48.29,21.47-1.16,.52-2.23,1.24-4.04,2.26Z"/><path class="uuid-c833a156-f1ac-4f06-8ae5-ca6eefa91bc9" d="M1244.51,395.75c1.43,1.73,2.58,3.84,4.34,5.12,9.02,6.52,18.19,12.83,27.36,19.26-5.03,5.26-8.31,5.87-13.32,1.86-3.81-3.06-6.95-3.3-11.53-1.16-20.36,9.52-40.9,18.68-61.49,27.69-17.38,7.6-34.83,8.84-51.75-1.36-7.2-4.34-13.05-10.08-16.63-19.69,18.66,17.76,38.18,15.65,58.31,6.7,20.06-8.92,40.09-17.93,60.98-27.28-18.08-12.66-35.66-24.96-53.39-37.38,6.84-5.53,8.51-5.62,14.68-1.31,12.28,8.6,24.54,17.24,36.91,25.73,1.59,1.09,3.76,1.34,5.64,1.96-.01-.03-.09-.13-.09-.13Z"/><path class="uuid-c833a156-f1ac-4f06-8ae5-ca6eefa91bc9" d="M1080.29,294.03c-18.41-12.89-35.94-25.17-53.57-37.51,6.74-5.32,8.14-5.4,14.43-1,23.33,16.32,46.65,32.64,69.97,48.98,1.44,1.01,2.78,2.16,4.25,3.3-6.31,5.26-8.2,5.58-13.62,1.35-3.49-2.73-6.34-3.24-10.67-1.22-20.67,9.62-41.48,18.95-62.39,28.03-17.38,7.54-34.84,8.63-51.7-1.62-7.03-4.28-12.85-9.85-16.26-19.27,2.43,2.07,3.77,3.32,5.22,4.43,13.79,10.6,29.15,11.28,44.47,5.15,20.84-8.34,41.18-17.94,61.73-27,2.41-1.06,4.82-2.14,8.14-3.62Z"/><path class="uuid-c833a156-f1ac-4f06-8ae5-ca6eefa91bc9" d="M1200.38,393.08c4.23,2.96,8.49,5.86,12.66,8.89,3.96,2.88,3.97,4.77-.34,6.74-14.97,6.84-30.02,13.52-45.09,20.14-3.77,1.66-7.45,.99-10.86-1.42-8.28-5.87-16.65-11.62-24.92-17.51-4.29-3.05-4.06-5.1,.84-7.31,14.4-6.51,28.84-12.92,43.26-19.37,4.51-2.02,8.64-1.58,12.63,1.46,3.83,2.92,7.88,5.57,11.83,8.34l-.03,.04Zm-51.42,16.48c9.24,8.98,9.85,9.1,20.52,4.28,4.23-1.91,8.47-3.82,12.71-5.73,4.47-2.01,8.95-4.01,14.35-6.43-4-2.8-7-5.09-10.21-7.03-.92-.55-2.62-.49-3.66-.03-11.08,4.82-22.1,9.78-33.7,14.94Z"/><path class="uuid-c833a156-f1ac-4f06-8ae5-ca6eefa91bc9" d="M983.5,306.08c-4.37-3.06-8.79-6.04-13.08-9.2-3.58-2.64-3.5-4.74,.47-6.54,15-6.83,29.98-13.74,45.22-19.99,2.84-1.17,7.54-.54,10.23,1.12,8.92,5.5,17.34,11.81,25.89,17.9,4.05,2.89,3.79,4.87-.88,6.97-14.43,6.49-28.88,12.92-43.32,19.37-4.47,2-8.64,1.77-12.68-1.28-3.85-2.91-7.89-5.57-11.85-8.34Zm4.5-9.16c9.44,8.96,10.03,9.07,20.62,4.29,3.94-1.78,7.91-3.49,11.84-5.29,4.78-2.18,9.53-4.42,15.03-6.97-3.84-2.69-6.86-4.98-10.08-6.95-.92-.56-2.61-.57-3.64-.12-11.1,4.85-22.13,9.83-33.76,15.04Z"/><path class="uuid-c833a156-f1ac-4f06-8ae5-ca6eefa91bc9" d="M955.32,314.13c7.57,22.89,27.57,31.76,46.88,40.91,17.58,8.33,35.86,15.16,53.58,23.2,20.08,9.11,33.52,24.24,39.06,45.89,.65,2.54,1.07,5.13,1.26,7.9-9.47-13.32-17.65-28.25-37.85-25.63-1.88-15.59-14.13-22.17-25.98-28.46-14.84-7.88-30.35-14.48-45.3-22.15-11.96-6.14-23.14-13.62-28.99-26.43-2.1-4.59-2.82-9.81-4.17-14.75,.5-.16,1.01-.31,1.51-.47Z"/><path class="uuid-c833a156-f1ac-4f06-8ae5-ca6eefa91bc9" d="M1231.24,475.69c-22.81,4.24-43.15,1.17-62.29-10.04,10.65,.17,21.04,.35,31.43,.49,.99,.01,2.07,.07,2.97-.27,11.49-4.37,18.98,2.81,27.9,9.82Z"/><path class="uuid-c833a156-f1ac-4f06-8ae5-ca6eefa91bc9" d="M1273.06,504.61c-7.27,6.56-21.59,5.27-19.68,19.83-5.24-1.06-11.97-7.51-12.62-12.56-.81-6.31,3.39-9.54,7.9-12.68,6.03-4.2,11.71-5.63,17.51,.48,1.85,1.95,4.44,3.21,6.89,4.93Z"/></g></svg>