<?xml version="1.0" encoding="UTF-8"?><svg id="uuid-ad9e5725-7bce-4756-908d-f24f2dd6ab77" xmlns="http://www.w3.org/2000/svg" xmlns:xlink="http://www.w3.org/1999/xlink" viewBox="0 0 1366 768"><defs><style>.uuid-3c27934f-c8bd-4291-a25b-4ca213f8a8ca{fill:#fff;}.uuid-43bdca1a-4837-46ec-b5a1-b91669f7161d{fill:#fff051;}.uuid-061b1d85-d63c-4c2c-ae62-0c5637cafcef{fill:url(#uuid-52d489ae-ff8d-4195-942d-62c6009fd333);}.uuid-fb8530d2-7022-46f4-aad1-34b8fc6c5d5e{fill:#fff598;}.uuid-b26fd9ba-a086-4bf1-8f8e-1b2217f16285{fill:#ffe100;}.uuid-6140cb8d-a50e-4760-8899-2c935c445cd5{fill:#f4c900;}</style><linearGradient id="uuid-52d489ae-ff8d-4195-942d-62c6009fd333" x1=".5" y1="384.5" x2="1365.5" y2="384.5" gradientUnits="userSpaceOnUse"><stop offset="0" stop-color="#5784b7"/><stop offset=".11" stop-color="#4d80b4"/><stop offset=".29" stop-color="#3475ad"/><stop offset=".53" stop-color="#0b65a2"/><stop offset=".58" stop-color="#0061a0"/><stop offset="1" stop-color="#004a8e"/></linearGradient></defs><g><rect class="uuid-061b1d85-d63c-4c2c-ae62-0c5637cafcef" x=".5" y="1.5" width="1365" height="766"/><path d="M1365,2V767H1V2H1365m1-1H0V768H1366V1h0Z"/></g><g><path class="uuid-3c27934f-c8bd-4291-a25b-4ca213f8a8ca" d="M698.84,206.99c4.82,0,9.09,2.13,12.82,6.39,3.73,4.26,5.59,7.31,5.59,9.16,0,.46-.36,.79-1.09,.99-1.32,.33-2.72,.74-4.21,1.24-1.48,.5-3.32,.74-5.49,.74s-3.93-.1-5.25-.3l-3.17-.4c-.46,0-.73,.2-.79,.59-.26,1.12-1.16,1.92-2.67,2.38-1.52,.53-2.52,1.24-3.02,2.13-.49,.89-.74,2.1-.74,3.61,0,.53,.13,.89,.4,1.09,.26,.2,.89,.23,1.88,.1,7.46-.99,12.64-1.49,15.54-1.49,.99,0,1.68,.28,2.08,.84,.4,.56,1.2,1.96,2.43,4.21,1.22,2.25,1.83,3.93,1.83,5.05s-.41,1.68-1.24,1.68-2.03-.26-3.61-.79c-2.44-.92-6.27-1.39-11.48-1.39-1.98,0-3.68,.07-5.1,.2-1.42,.13-2.26,.31-2.52,.54-.26,.23-.4,.68-.4,1.34,0,3.7-.1,7.76-.3,12.18-.2,4.42-.4,6.9-.59,7.42-.2,.53-.3,2.97-.3,7.33l.1,3.96c0,.86-.28,1.44-.84,1.73-.56,.3-1.44,.45-2.62,.45-4.49,0-8.8-.64-12.92-1.93-4.13-1.29-7.28-2.97-9.45-5.05-2.18-2.08-3.27-3.68-3.27-4.8,0-.26,.16-.4,.5-.4s.89,.2,1.68,.59c2.77,1.52,6.37,2.28,10.79,2.28,1.85,0,3.78-.18,5.79-.54,2.01-.36,3.35-1.58,4.01-3.66,.66-2.08,.99-4.57,.99-7.47s-.12-5.63-.35-8.17c-.23-2.54-.43-3.93-.59-4.16-.17-.23-.48-.35-.94-.35-1.39,0-5.79,.59-13.22,1.78-7.43,1.19-11.83,2.24-13.22,3.17-.59,.4-1.25,.59-1.98,.59s-1.37-.61-1.93-1.83c-.56-1.22-.84-2.13-.84-2.72s.43-.94,1.29-1.04c.86-.1,1.95-.28,3.27-.54,1.32-.26,2.26-.5,2.82-.69,.56-.2,2.09-.59,4.6-1.19,2.51-.59,4.78-1.06,6.83-1.39,2.04-.33,4.29-.89,6.73-1.68,2.44-.79,3.89-1.37,4.36-1.73,.46-.36,.69-.81,.69-1.34s-.12-1.27-.35-2.23c-.23-.96-.56-1.44-.99-1.44s-1.22,.12-2.38,.35c-1.16,.23-2.01,.5-2.57,.79-.56,.3-.94,.45-1.14,.45-.59,0-1.42-.91-2.48-2.72-1.06-1.81-1.58-3.07-1.58-3.76s.25-1.22,.74-1.58c.5-.36,3.75-1.32,9.75-2.87,6-1.55,10.01-2.33,12.03-2.33s3.35,.56,4.01,1.68c.26,.53,.63,.79,1.09,.79,1.06,0,2.84-.56,5.35-1.68,2.51-1.12,3.76-2.61,3.76-4.46,0-1.39-.51-2.66-1.53-3.81-1.02-1.15-2.48-1.73-4.36-1.73s-3.81,.33-5.79,.99c-6.01,2.11-10.15,3.45-12.42,4.01-2.28,.56-4.85,.91-7.72,1.04-2.87,.13-5.07,.63-6.58,1.49-.46,.26-.83,.4-1.09,.4-.73,0-1.09-.92-1.09-2.77,0-1.25,.48-1.88,1.44-1.88s2.29-.35,4.01-1.04c1.72-.69,4.46-1.52,8.22-2.47,3.76-.96,7.03-1.67,9.8-2.13,2.77-.46,4.72-.87,5.84-1.24,1.12-.36,2.18-.54,3.17-.54Zm-36.33,15.25c0,1.06,.31,2.23,.94,3.51,.63,1.29,.94,2.26,.94,2.92,0,1.39-.59,2.08-1.78,2.08-1.58,0-3.38-.5-5.4-1.49-2.01-.99-3.02-1.85-3.02-2.57s1.04-2.51,3.12-5.35c2.08-2.84,3.53-4.26,4.36-4.26s1.24,.53,1.24,1.58c0,.33-.07,.86-.2,1.58-.13,.73-.2,1.39-.2,1.98Zm27.13-19.01c0,1.06-.31,1.92-.94,2.57-.63,.66-1.57,.99-2.82,.99s-3.02-1.01-5.3-3.02c-2.28-2.01-3.42-3.78-3.42-5.3s.58-3.25,1.73-5.2c1.15-1.95,2.33-2.92,3.51-2.92,1.45,0,2.51,1.02,3.17,3.07,.26,.73,.73,1.82,1.39,3.27,.66,1.45,1.09,2.31,1.29,2.57,.92,1.25,1.39,2.57,1.39,3.96Z"/><path class="uuid-3c27934f-c8bd-4291-a25b-4ca213f8a8ca" d="M657.66,330.94c0,1.45,.2,2.72,.59,3.81,.4,1.09,.59,1.95,.59,2.57s-.22,1.19-.64,1.68c-.43,.5-.88,.74-1.34,.74s-.86-.06-1.19-.2c-2.84-1.05-4.84-1.58-5.99-1.58s-2.05-.31-2.67-.94c-.63-.63-.94-1.2-.94-1.73s.13-.92,.4-1.19c.73-.53,2.34-2.14,4.85-4.85,2.51-2.71,4.06-4.06,4.65-4.06s1.1,.21,1.53,.64c.43,.43,.64,.84,.64,1.24s-.08,.89-.25,1.49c-.17,.59-.25,1.39-.25,2.38Zm54.85,14.95c0,.4-.18,.81-.54,1.24-.36,.43-.89,2.28-1.58,5.54-.69,3.27-1.73,6.72-3.12,10.34l-3.86,9.9c-1.19,2.97-1.87,4.57-2.03,4.8-.17,.23-.41,.35-.74,.35s-.81-.18-1.44-.54c-.63-.36-1.44-.74-2.43-1.14-2.84-1.06-4.82-2.31-5.94-3.76-.53-.79-1.11-1.19-1.73-1.19s-2.79,.31-6.48,.94c-3.7,.63-6.19,1.1-7.47,1.43-1.29,.33-2.24,.66-2.87,.99-.63,.33-1.25,.5-1.88,.5s-1.44-.92-2.43-2.77c-.99-1.85-2.16-3.71-3.51-5.59-1.35-1.88-2.54-4.07-3.56-6.58-1.02-2.51-1.65-4.64-1.88-6.38-.23-1.75-.5-3.17-.79-4.26-.3-1.09-.45-1.8-.45-2.13,0-.99,.79-1.55,2.38-1.68,2.71-.26,4.92-.72,6.63-1.39,3.63-1.25,7.19-2.28,10.69-3.07,.73-.2,1.17-.54,1.34-1.04,.16-.5,.23-2.34,.2-5.54-.03-3.2-.07-5.23-.1-6.09-.03-.86-.05-1.39-.05-1.58,0-.99,.35-1.55,1.04-1.68,.69-.13,1.37-.2,2.03-.2s1.78,.17,3.37,.5c1.58,.33,2.49,.63,2.72,.89,.23,.26,.35,.61,.35,1.04s-.13,.81-.4,1.14c-.26,.33-.51,1.27-.74,2.82-.23,1.55-.35,2.97-.35,4.26s.13,2.16,.4,2.62c.26,.46,.92,.69,1.98,.69l3.27-.1c3.17,0,6.72,.71,10.64,2.13,3.93,1.42,6.47,2.34,7.62,2.77,1.15,.43,1.73,1.04,1.73,1.83Zm-12.18-33.56c3.23,0,5.99,.92,8.27,2.77,2.28,1.85,4.9,4.98,7.87,9.41,2.97,4.42,4.46,7.05,4.46,7.87s-.59,1.24-1.78,1.24-2.77,.15-4.75,.45-4.18,.45-6.58,.45-4.7-.18-6.88-.54c-2.18-.36-3.5-.68-3.96-.94-.46-.26-.69-.61-.69-1.04s.77-.69,2.33-.79c1.55-.1,3.38-.58,5.49-1.44,2.11-.86,3.43-1.58,3.96-2.18,.53-.59,.79-1.47,.79-2.62s-.66-2.69-1.98-4.6c-1.32-1.91-4.09-2.87-8.32-2.87-3.7,0-7.92,1.02-12.67,3.07-4.36,1.72-9.67,2.94-15.94,3.66-2.31,.2-4.29,.96-5.94,2.28-.26,.2-.66,.3-1.19,.3s-.97-.38-1.34-1.14c-.36-.76-.54-1.57-.54-2.43s.16-1.4,.49-1.63c.33-.23,1.09-.48,2.28-.74,7.46-1.45,13.13-3,17.03-4.65,3.89-1.65,7.8-2.71,11.73-3.17,3.93-.46,6.55-.69,7.87-.69Zm-30.59,43.26c0-.66,.53-.99,1.58-.99s2.13-.18,3.22-.54c1.09-.36,1.95-.61,2.57-.74,.63-.13,.94-.63,.94-1.49l.1-3.07c0-1.05-.23-1.58-.69-1.58s-1.37,.25-2.72,.74c-1.35,.5-2.46,.97-3.32,1.44-.86,.46-1.95,.74-3.27,.84-1.32,.1-1.98,1.11-1.98,3.02,0,2.25,.66,5.1,1.98,8.56,1.32,3.46,2.71,5.2,4.16,5.2,.46,0,1.37-.2,2.72-.59,1.35-.4,2.09-.91,2.23-1.53,.13-.63,.2-1.37,.2-2.23,0-1.39-.25-2.08-.74-2.08s-1.11,.17-1.83,.5c-.73,.33-1.32,.5-1.78,.5s-1.14-.86-2.03-2.57c-.89-1.72-1.34-2.84-1.34-3.37Zm19.9-50.29c0,1.98-.69,2.97-2.08,2.97-1.92,0-3.2-.36-3.86-1.09-.53-.59-1.5-.94-2.92-1.04-1.42-.1-2.36-.38-2.82-.84-.46-.46-.69-1.32-.69-2.57,0-3.1,.1-5.15,.3-6.14,.2-.99,.69-1.85,1.48-2.57,.79-.72,1.47-1.09,2.03-1.09s.97,.3,1.24,.89c.86,2.57,1.81,4.26,2.87,5.05,2.97,2.24,4.46,4.39,4.46,6.43Zm5.15,64.55c.66,0,1.86-2.57,3.61-7.72,1.75-5.15,2.62-8.71,2.62-10.69s-.71-3.55-2.13-4.7c-1.42-1.15-3.19-1.73-5.3-1.73-.2,0-1.07,.05-2.62,.15-1.55,.1-2.51,.25-2.87,.45-.36,.2-.64,.54-.84,1.04-.2,.5-.3,1.17-.3,2.03s.13,1.45,.4,1.78c.26,.33,.96,.43,2.08,.3,1.12-.13,1.98-.2,2.57-.2s1.01,.15,1.24,.45c.23,.3,.5,1.07,.79,2.33,.3,1.25,.45,2.21,.45,2.87s-.18,1.11-.54,1.34c-.36,.23-.92,.35-1.68,.35s-1.8,.08-3.12,.25c-1.32,.17-2.13,.38-2.43,.64-.3,.26-.53,.64-.69,1.14-.17,.5-.25,1.24-.25,2.23s.59,1.49,1.78,1.49l3.07-.3c.86,0,1.48,.69,1.88,2.08l.79,2.18c.59,1.52,1.09,2.28,1.49,2.28Z"/><path class="uuid-3c27934f-c8bd-4291-a25b-4ca213f8a8ca" d="M714.19,455.18c.73,0,1.25,.15,1.58,.45,.33,.3,.97,1.49,1.93,3.56,.96,2.08,1.44,3.48,1.44,4.21s-.33,1.09-.99,1.09-1.42-.23-2.28-.69c-.86-.46-2.38-.94-4.55-1.44-2.18-.5-4.09-.81-5.74-.94-1.65-.13-4.97-.2-9.95-.2s-9.03,.08-12.13,.25c-3.1,.17-4.89,.33-5.35,.5-.46,.17-1.47,1.07-3.02,2.72-1.55,1.65-2.89,3.56-4.01,5.74-1.12,2.18-1.73,3.86-1.83,5.05-.1,1.19-.35,2.04-.74,2.57-.4,.53-1.47,1.25-3.22,2.18-1.75,.92-3.42,1.57-5,1.93-1.58,.36-3.19,.54-4.8,.54s-2.43-.18-2.43-.54,.23-.78,.69-1.24c.46-.46,1.68-1.57,3.66-3.32,1.98-1.75,3.61-3.09,4.9-4.01,1.29-.92,3.07-2.59,5.35-5,2.28-2.41,3.42-3.93,3.42-4.55s-.5-.84-1.48-.64c-6.53,1.19-10.71,1.9-12.52,2.13-1.82,.23-3.47,.54-4.95,.94-1.48,.4-2.61,.74-3.37,1.04-.76,.3-1.4,.45-1.93,.45-1.72,0-2.57-1.58-2.57-4.75,0-.4,.08-.63,.25-.69,.16-.07,.59-.1,1.29-.1s2.23-.25,4.6-.74,4.19-.96,5.44-1.39c1.25-.43,3.23-.96,5.94-1.58,2.71-.63,4.16-1.02,4.36-1.19,.2-.16,.26-.54,.2-1.14-.53-4.69-.79-9.78-.79-15.3s.28-9.62,.84-12.33c.56-2.71,1.57-4.29,3.02-4.75,.2-.07,1.02-.33,2.48-.79,1.45-.46,2.46-1.4,3.02-2.82,.56-1.42,.84-2.47,.84-3.17s-.31-1.04-.94-1.04-2.23,.1-4.8,.3c-2.57,.2-4.06,.46-4.46,.79-.13,.07-.3,.1-.5,.1-1.19,0-2-.71-2.43-2.13-.43-1.42-.66-2.43-.69-3.02-.03-.59,.11-.91,.45-.94,.33-.03,.99-.05,1.98-.05s1.96-.15,2.92-.45c.96-.3,3.94-.74,8.96-1.34,1.12-.13,1.78-.56,1.98-1.29l2.77-13.46c.26-1.39,1.12-2.08,2.57-2.08,.66,0,1.63,.25,2.92,.74s1.93,1.32,1.93,2.47-.79,4.6-2.38,10.35c-.13,.53-.2,1.01-.2,1.44s.36,.64,1.09,.64l5.35-.4c1.98-.13,3.38-.28,4.21-.45,.82-.16,1.65-.45,2.48-.84,.82-.4,1.5-.59,2.03-.59s1.1,.25,1.73,.74c.63,.5,1.06,1.32,1.29,2.48,.23,1.16,.35,1.93,.35,2.33s-.17,.79-.5,1.19c-.33,.4-.68,.64-1.04,.74-.36,.1-1.25,.15-2.67,.15s-3.22,.07-5.4,.2c-2.18,.13-4.41,.4-6.68,.79-2.28,.4-3.56,.66-3.86,.79-.3,.13-.63,.59-.99,1.39-.36,.79-.54,1.4-.54,1.83s.3,.64,.89,.64c5.28,0,8.96,.38,11.04,1.14,2.08,.76,3.12,1.54,3.12,2.33,0,.2-.03,.43-.1,.69-.2,.99-.4,3.3-.59,6.93l-.99,21.78c0,.99,.26,1.57,.79,1.73,.53,.17,2.62,.45,6.29,.84,3.66,.4,6.39,.59,8.17,.59l2.87-.1Zm-42.47,1.49h.3c4.22-.79,9.07-1.49,14.55-2.08,1.39-.13,2.13-.69,2.23-1.68,.1-.99,.15-3.81,.15-8.46s-.13-8.76-.4-12.33c-.26-3.56-.74-5.86-1.44-6.88-.69-1.02-1.62-1.54-2.77-1.54s-2.61,.23-4.36,.69c-1.75,.46-3.28,1.04-4.6,1.73-1.32,.69-2.11,1.22-2.38,1.58-.26,.36-.4,.97-.4,1.83s.13,1.29,.4,1.29,1.1-.2,2.52-.59c1.42-.4,2.52-.76,3.32-1.09,.79-.33,1.39-.5,1.78-.5s.79,.3,1.19,.89c.4,.59,.59,1.16,.59,1.68s-.56,1.17-1.68,1.93c-1.12,.76-3.86,2.1-8.22,4.01-.73,.33-1.09,.83-1.09,1.48s.15,.99,.45,.99,.96-.13,1.98-.4c1.02-.26,2.06-.59,3.12-.99,1.06-.4,1.9-.59,2.52-.59s1.01,.36,1.14,1.09c.13,.73,.2,1.34,.2,1.83s-.08,.86-.25,1.09c-.17,.23-.73,.51-1.68,.84-.96,.33-2.48,.89-4.55,1.68-2.08,.79-3.17,1.25-3.27,1.39-.1,.13-.15,.45-.15,.94s.2,.74,.59,.74c1.98,0,3.75-.23,5.3-.69,1.55-.46,2.62-.69,3.22-.69,1.12,0,1.68,.46,1.68,1.39s-.18,1.6-.54,2.03c-.36,.43-1.47,1.01-3.32,1.73-1.85,.73-3.93,1.35-6.24,1.88-.53,.13-.79,.79-.79,1.98s.3,1.78,.89,1.78Zm18.91,12.28c.73,0,2.71,.5,5.94,1.49,3.23,.99,5.61,1.91,7.13,2.77,1.52,.86,2.52,1.8,3.02,2.82,.5,1.02,.74,2.92,.74,5.69,0,.86-.05,1.44-.15,1.73s-.45,.66-1.04,1.09c-.59,.43-1.02,.64-1.29,.64-.79,0-2.59-1.65-5.4-4.95-2.81-3.3-5.83-6.4-9.06-9.31-.53-.46-.79-.91-.79-1.34s.3-.64,.89-.64Z"/><path class="uuid-3c27934f-c8bd-4291-a25b-4ca213f8a8ca" d="M677.36,524.78c1.32,0,1.98,1.39,1.98,4.16,0,.53-.08,.92-.25,1.19-.17,.26-.78,.81-1.83,1.63-1.06,.83-2.06,1.53-3.02,2.13-.96,.59-1.57,1.22-1.83,1.88-.26,.66-.4,1.52-.4,2.57s.5,1.78,1.48,2.18c2.64,.99,3.96,2.44,3.96,4.36,0,1.12-.21,1.96-.64,2.52-.43,.56-.91,.84-1.44,.84-2.11,0-3.32,.07-3.61,.2-.3,.13-.48,.36-.54,.69-.07,.33-.17,2.36-.3,6.09-.13,3.73-.2,7.71-.2,11.93s.08,7.08,.25,8.56c.16,1.48,.25,2.52,.25,3.12,0,2.04-.59,3.07-1.78,3.07-.53,0-1.14-.15-1.83-.45-.69-.3-1.58-.76-2.67-1.39-1.09-.63-1.68-1.01-1.78-1.14-.1-.13-.15-.38-.15-.74s.18-.99,.54-1.88c.36-.89,.68-2.79,.94-5.69,.26-2.9,.4-5.18,.4-6.83l.2-11.09c0-.66-.18-.99-.54-.99s-.79,.17-1.29,.5c-.5,.33-2.54,2.23-6.14,5.69-3.6,3.46-5.94,5.86-7.03,7.18-1.09,1.32-2.01,1.98-2.77,1.98s-1.5-.25-2.23-.74c-.73-.5-1.09-1.01-1.09-1.53s.15-1.06,.45-1.58c.3-.53,1.72-2.19,4.26-5,2.54-2.8,4.92-5.41,7.13-7.82,2.21-2.41,4.01-4.62,5.4-6.63,1.39-2.01,2.08-3.25,2.08-3.71s-.18-.69-.54-.69-.96,.1-1.78,.3c-.83,.2-2.06,.36-3.71,.5-1.72,0-3,.33-3.86,.99-.86,.59-1.6,.89-2.23,.89s-1.07-.64-1.34-1.93c-.26-1.29-.64-2.87-1.14-4.75-.5-1.88-.74-2.95-.74-3.22,0-.73,.35-1.09,1.04-1.09s1.4,.07,2.13,.2c.73,.13,1.48,.2,2.28,.2,2.44,0,4.83-.41,7.18-1.24,2.34-.82,3.84-1.44,4.5-1.83,.66-.4,1.07-.89,1.24-1.48,.16-.59,.36-2.95,.59-7.08,.23-4.12,.41-8.4,.54-12.82,.06-3.04,.89-4.55,2.48-4.55,.79,0,1.73,.12,2.82,.35,1.09,.23,1.86,.46,2.33,.69,.46,.23,.69,.59,.69,1.09s-.25,1.02-.74,1.58c-.5,.56-.94,1.67-1.34,3.32-.4,1.65-.59,3.58-.59,5.79s-.03,3.94-.1,5.2l-.1,3.37c0,.86,.53,1.29,1.58,1.29l2.87-.3Zm39.6,4.75c0,.59-.2,1.5-.59,2.72-.4,1.22-.59,2.79-.59,4.7l.1,3.56-.3,15.15c0,2.05,.08,3.83,.25,5.35,.16,1.52,.25,3.76,.25,6.73l-.1,4.65,.1,2.67c0,1.12-.53,1.68-1.58,1.68s-3.15-.92-6.29-2.77c-3.14-1.85-5.46-3.51-6.98-5-1.52-1.48-2.46-2.23-2.82-2.23s-1.24,.28-2.62,.84c-1.39,.56-2.67,1.17-3.86,1.83-1.19,.66-2.57,.99-4.16,.99s-2.54-.15-2.87-.45c-.33-.3-.68-1.29-1.04-2.97-.36-1.68-.71-4.87-1.04-9.55-.33-4.69-.5-9.12-.5-13.32s.18-7.04,.54-8.56c.36-1.52,.54-2.54,.54-3.07s.16-.94,.5-1.24c.33-.3,1.77-.96,4.31-1.98,2.54-1.02,5.16-1.85,7.87-2.47,2.71-.63,5.23-.94,7.57-.94s4.98,.23,7.92,.69c2.94,.46,4.57,.92,4.9,1.39,.33,.46,.5,.99,.5,1.58Zm-9.8,33.86l-.1-7.62c-.07-2.24-.1-5.84-.1-10.79s-.4-8.73-1.19-11.33c-.79-2.61-2.19-3.91-4.21-3.91s-4.32,.61-6.93,1.83c-2.61,1.22-3.91,2.82-3.91,4.8,0,.46,.15,.83,.45,1.09,.3,.26,.71,.36,1.24,.3,2.9-.53,5.06-.79,6.48-.79s2.28,.13,2.57,.4c.3,.26,.45,.86,.45,1.78s-.53,1.72-1.58,2.38c-1.06,.66-2.84,1.49-5.35,2.48-2.51,.99-3.91,1.68-4.21,2.08-.3,.4-.45,.96-.45,1.68s.36,1.09,1.09,1.09c.2,0,.4-.03,.59-.1,3.23-.92,5.49-1.39,6.78-1.39s2,.33,2.13,.99c.13,.66,.2,1.24,.2,1.73s-.2,.96-.59,1.39c-.4,.43-1.3,.96-2.72,1.58-1.42,.63-3.19,1.52-5.3,2.67-2.11,1.16-3.3,1.95-3.56,2.38-.26,.43-.4,1.12-.4,2.08s.48,1.44,1.44,1.44,2.39-.26,4.31-.79c1.91-.53,3.1-.79,3.56-.79,1.39,0,2.23,.83,2.52,2.47,.3,1.65,.53,2.67,.69,3.07,.16,.4,.59,.76,1.29,1.09,.69,.33,1.4,.5,2.13,.5,1.78,0,2.67-1.25,2.67-3.76Z"/></g><g><polygon class="uuid-b26fd9ba-a086-4bf1-8f8e-1b2217f16285" points="721.04 512.53 732.29 501.02 724.82 486.77 739.24 493.91 750.49 482.41 748.15 498.33 762.57 505.47 746.71 508.17 744.37 524.09 736.9 509.84 721.04 512.53"/><polygon class="uuid-43bdca1a-4837-46ec-b5a1-b91669f7161d" points="715.98 513.39 727.24 501.88 719.77 487.63 724.82 486.77 732.29 501.02 721.04 512.53 715.98 513.39"/><polygon class="uuid-6140cb8d-a50e-4760-8899-2c935c445cd5" points="739.31 524.95 731.85 510.69 736.9 509.84 744.37 524.09 739.31 524.95"/><polygon class="uuid-fb8530d2-7022-46f4-aad1-34b8fc6c5d5e" points="736.4 492.51 745.44 483.27 750.49 482.41 739.24 493.91 736.4 492.51"/></g><g><polygon class="uuid-b26fd9ba-a086-4bf1-8f8e-1b2217f16285" points="567.47 332.86 578.72 321.35 571.25 307.09 585.67 314.24 596.92 302.73 594.58 318.66 609 325.8 593.14 328.5 590.8 344.42 583.33 330.16 567.47 332.86"/><polygon class="uuid-43bdca1a-4837-46ec-b5a1-b91669f7161d" points="562.41 333.71 573.67 322.21 566.2 307.95 571.25 307.09 578.72 321.35 567.47 332.86 562.41 333.71"/><polygon class="uuid-6140cb8d-a50e-4760-8899-2c935c445cd5" points="585.74 345.27 578.28 331.02 583.33 330.16 590.8 344.42 585.74 345.27"/><polygon class="uuid-fb8530d2-7022-46f4-aad1-34b8fc6c5d5e" points="582.83 312.83 591.87 303.59 596.92 302.73 585.67 314.24 582.83 312.83"/></g><g><polygon class="uuid-b26fd9ba-a086-4bf1-8f8e-1b2217f16285" points="744.47 186.86 755.72 175.35 748.25 161.09 762.67 168.24 773.92 156.73 771.58 172.66 786 179.8 770.14 182.5 767.8 198.42 760.33 184.16 744.47 186.86"/><polygon class="uuid-43bdca1a-4837-46ec-b5a1-b91669f7161d" points="739.41 187.71 750.67 176.21 743.2 161.95 748.25 161.09 755.72 175.35 744.47 186.86 739.41 187.71"/><polygon class="uuid-6140cb8d-a50e-4760-8899-2c935c445cd5" points="762.74 199.27 755.28 185.02 760.33 184.16 767.8 198.42 762.74 199.27"/><polygon class="uuid-fb8530d2-7022-46f4-aad1-34b8fc6c5d5e" points="759.83 166.83 768.87 157.59 773.92 156.73 762.67 168.24 759.83 166.83"/></g></svg>