<?xml version="1.0" encoding="UTF-8"?><svg id="g" xmlns="http://www.w3.org/2000/svg" xmlns:xlink="http://www.w3.org/1999/xlink" viewBox="0 0 1366 768"><defs><style>.p{fill:url(#j);}.q{fill:url(#m);}.r{fill:url(#h);}.s{fill:url(#i);}.t{fill:url(#l);}.u{fill:url(#n);}.v{fill:url(#o);}.w{fill:url(#k);}.x{fill:red;}</style><linearGradient id="h" x1="672.51" y1="220.24" x2="810.38" y2="364.24" gradientUnits="userSpaceOnUse"><stop offset="0" stop-color="#f0eeeb"/><stop offset="0" stop-color="#eae7e3"/><stop offset=".04" stop-color="#dbd9d5"/><stop offset=".11" stop-color="#b4b4b2"/><stop offset=".2" stop-color="#757a7a"/><stop offset=".26" stop-color="#4c5355"/><stop offset=".27" stop-color="#51585a"/><stop offset=".38" stop-color="#939798"/><stop offset=".47" stop-color="#c3c5c5"/><stop offset=".53" stop-color="#e0e1e1"/><stop offset=".57" stop-color="#ececec"/><stop offset=".63" stop-color="#e2e2e3"/><stop offset=".74" stop-color="#c8cacc"/><stop offset=".87" stop-color="#9da2a7"/><stop offset=".88" stop-color="#9ba0a5"/><stop offset="1" stop-color="#dcdddd"/><stop offset="1" stop-color="#b5b5b6"/></linearGradient><linearGradient id="i" x1="665" y1="401.55" x2="802.87" y2="545.55" xlink:href="#h"/><linearGradient id="j" x1="558.07" y1="151.23" x2="646.92" y2="191.06" xlink:href="#h"/><linearGradient id="k" x1="543.96" y1="231.29" x2="632.81" y2="271.12" gradientUnits="userSpaceOnUse"><stop offset="0" stop-color="#f0eeeb"/><stop offset="0" stop-color="#eae7e3"/><stop offset=".04" stop-color="#dbd9d5"/><stop offset=".11" stop-color="#b4b4b2"/><stop offset=".21" stop-color="#757a7a"/><stop offset=".27" stop-color="#4c5355"/><stop offset=".27" stop-color="#51585a"/><stop offset=".38" stop-color="#939798"/><stop offset=".47" stop-color="#c3c5c5"/><stop offset=".53" stop-color="#e0e1e1"/><stop offset=".57" stop-color="#ececec"/><stop offset=".63" stop-color="#e2e2e3"/><stop offset=".74" stop-color="#c8cacc"/><stop offset=".87" stop-color="#9da2a7"/><stop offset=".88" stop-color="#9ba0a5"/><stop offset="1" stop-color="#dcdddd"/><stop offset="1" stop-color="#b5b5b6"/></linearGradient><linearGradient id="l" x1="551.5" y1="323.83" x2="640.35" y2="363.66" xlink:href="#h"/><linearGradient id="m" x1="545.4" y1="416.03" x2="634.26" y2="455.86" xlink:href="#h"/><linearGradient id="n" x1="549.89" y1="507.64" x2="638.74" y2="547.47" xlink:href="#h"/><linearGradient id="o" x1="544.42" y1="594.23" x2="633.28" y2="634.06" xlink:href="#h"/></defs><rect class="x" x="-.34" y=".7" width="1366" height="767"/><g><g><path class="r" d="M819.38,227.14c-1.26,1.62-3.96,3.06-7.56,3.78v123.47c0,13.86-2.88,21.42-25.56,23.4-.54-6.12-1.62-10.98-3.96-13.68-2.7-2.88-6.48-5.22-15.12-6.48v-2.52s17.28,1.08,20.7,1.08c3.06,0,3.96-1.26,3.96-3.78v-106.73c-1.08,.72-2.7,1.26-5.4,1.44-2.34,11.88-5.4,25.38-9.9,39.06,21.06,36.54,10.98,60.3-.9,47.88-1.98-7.74-4.32-16.92-7.38-27-6.3,13.14-14.04,25.56-24.12,35.82l-2.16-1.8c9-15.66,15.12-35.46,19.08-55.26-5.04-13.14-11.34-26.46-19.26-37.62l2.34-1.44c7.92,7.38,14.4,14.58,19.98,21.6,1.62-10.98,2.7-21.6,3.24-30.96l24.48,5.4v-15.12h-52.2v142.38c0,2.7-7.74,7.74-16.56,7.74h-3.6v-76.68c-.9,1.08-2.34,1.62-4.32,1.62h-23.76v39.24c7.56-4.14,15.84-9,24.12-13.86l.9,1.62c-5.58,7.92-16.74,23.58-31.5,39.96-.72,1.62-1.62,3.06-2.52,4.14l-20.16-17.82c8.1-6.3,9.54-7.92,9.54-11.52v-41.76h-22.14l-1.26-5.22h23.4v-24.84h-12.24l-.9-3.42c-3.06,3.6-6.12,7.02-9.18,9.9l-1.8-1.26c7.92-18.36,14.04-50.22,15.12-68.76l28.44,7.2c-.36,2.34-1.98,3.96-6.48,4.32-1.44,4.68-3.24,9.72-5.4,14.76h13.32l9.54-12.96s10.8,9.18,17.28,15.3c-.54,1.98-2.16,2.88-4.86,2.88h-37.8c-4.5,9.36-10.44,18.72-16.92,27h28.44l9.72-13.32s10.8,9.18,17.28,15.48c-.54,1.98-2.34,2.88-4.86,2.88h-19.08v24.84h1.98l9.54-13.32s10.26,8.64,16.56,15.12v-85.86l21.24,9h49.32l9.36-10.98,19.98,15.66Z"/><path class="s" d="M720.92,510.09c-6.12,7.38-18.18,22.14-33.3,37.8-1.08,2.7-2.7,4.86-4.32,6.12l-16.02-20.16c6.66-4.68,7.74-6.3,7.74-10.08v-35.46h-23.22l-1.44-5.04h24.66v-30.96h-12.78l-.9-3.42c-4.14,4.32-8.46,8.46-12.78,12.06l-1.8-1.26c11.16-18.54,21.42-51.66,24.48-70.74l27.54,8.64c-.54,2.16-2.34,3.78-7.2,3.96-1.98,5.04-4.5,10.26-7.56,15.66h11.34l9.36-12.96s10.62,9,16.92,15.12c-.54,1.98-2.34,2.88-4.68,2.88h-35.82c-5.22,8.64-11.52,17.28-18.36,25.02h28.44l9.36-13.32s10.44,9.36,16.74,15.48c-.36,1.98-2.16,2.88-4.68,2.88h-17.82v30.96l9.36-13.14s10.44,9,16.56,15.3c-.54,1.98-2.34,2.88-4.86,2.88h-21.06v33.12c7.74-3.96,16.38-8.64,25.02-13.32l1.08,1.98Zm55.08-27.54c4.5,20.16,18.18,41.04,45.72,53.46l-.18,2.34c-9.54,2.16-14.76,7.2-15.84,18.54-21.96-16.56-30.06-50.04-32.94-74.34h-.54c-6.48,32.58-22.68,57.42-63.9,75.06l-1.8-2.7c29.34-19.26,41.58-42.84,46.62-72.36h-33.3l-1.44-5.22h35.64c1.62-12.06,2.34-24.84,2.52-39.06h-18.54c-5.76,10.8-12.78,19.98-20.52,26.82l-2.52-1.26c6.84-15.66,12.78-38.52,14.94-60.3l25.2,5.94c-.72,2.34-2.7,3.96-6.84,4.14-2.34,6.84-4.86,13.5-7.74,19.62h16.02c.18-13.68,0-28.08,0-43.92l26.82,2.52c-.36,2.7-2.16,4.5-6.48,5.22-.18,12.6-.18,24.84-.36,36.18h7.56l10.44-14.04s12.06,9.54,19.26,16.2c-.54,1.98-2.52,2.88-5.04,2.88h-32.4c-.36,14.22-1.26,27-3.06,39.06h16.56l10.62-13.86s12.24,9.36,19.44,16.2c-.54,1.98-2.34,2.88-4.86,2.88h-39.06Z"/></g><g><path class="p" d="M593.32,190.23c1.71,.09,3.51,.09,5.4,.09,6.84,0,23.4,0,30.6-.18v1.08c-3.33,.72-4.95,4.32-4.95,8.28h-25.83c-16.02,0-24.84-3.51-29.97-17.73-4.59,7.65-12.06,14.67-24.03,19.35l-.72-.9c12.78-9.45,17.28-23.58,18.45-35.19l14.67,2.79c-.36,1.26-1.17,2.07-3.42,2.07-.9,3.33-2.07,6.57-3.78,9.81,3.06,5.04,7.02,7.74,12.33,9.18v-27.9h-36.36l-.72-2.52h68.13l5.76-7.65s6.3,5.22,10.17,8.73c-.27,.99-1.26,1.44-2.52,1.44h-33.21v12.42h10.89l6.03-8.1s6.93,5.49,10.98,9.27c-.27,.99-1.17,1.44-2.52,1.44h-25.38v14.22Zm-22.23-37.71c0,1.08-4.95,3.51-9.54,3.51h-1.62v-37.71l11.79,4.68h30.69l5.04-5.58,10.71,8.01c-.54,.72-1.8,1.62-3.6,1.98v24.57c-.09,.54-5.76,2.52-9.36,2.52h-1.89v-4.59h-32.22v2.61Zm0-27v9.54h32.22v-9.54h-32.22Zm32.22,21.78v-9.72h-32.22v9.72h32.22Z"/><path class="w" d="M558.86,261.06c4.23,11.43,1.53,19.53-2.61,22.95-2.79,2.52-7.65,2.07-9.18-1.26-1.17-3.06,.27-5.94,3.15-7.56,3.33-2.25,7.38-8.01,7.38-14.13h1.26Zm10.89-38.43c-5.67,8.55-13.23,16.92-21.96,22.32l-.81-.72c7.74-8.73,14.58-24.57,17.46-37.53l14.4,5.31c-.54,.9-1.26,1.26-3.6,.72-1.17,2.43-2.52,4.86-4.05,7.38h39.78l6.12-7.38s6.57,4.77,10.89,8.46c-.27,.99-1.26,1.44-2.52,1.44h-35.28v10.17h15.66l5.58-6.84s6.21,4.59,9.99,7.92c-.27,.99-1.08,1.44-2.34,1.44h-28.89v9.99h18.36l5.76-7.11s6.48,4.77,10.44,8.19c-.27,.99-1.26,1.44-2.52,1.44h-32.04v7.2c0,.54-3.24,2.52-8.82,2.52h-1.89v-34.92h-9.72Zm39.6,55.26c3.24,1.17,3.96,2.34,3.96,4.23,0,4.59-4.32,6.12-22.41,6.12h-11.7c-10.35,0-12.78-1.62-12.78-8.82v-21.78l13.41,1.17c-.18,1.17-.99,1.89-2.79,2.25v16.2c0,1.35,.45,1.71,3.87,1.71h11.16c3.87,0,7.47,0,9-.09,1.53-.09,2.07-.36,2.7-1.35,1.08-1.53,2.52-5.22,4.32-10.62h.99l.27,10.98Zm-25.83-18.9c24.12,3.06,15.12,21.33,5.67,14.4-.54-4.95-3.42-10.44-6.3-13.86l.63-.54Zm25.29,.81c29.34,7.47,20.43,29.34,9.9,21.24-1.17-7.2-6.03-15.3-10.71-20.7l.81-.54Z"/><path class="t" d="M620.23,346.38s6.12,5.04,9.72,8.46c-.18,.99-1.08,1.44-2.43,1.44h-21.51v22.5c0,.63-3.15,2.79-8.37,2.79h-1.8v-25.29h-19.53l-.72-2.52h20.25v-17.01h-13.05l-.72-2.61h13.77v-14.58h-14.85l.27,.27c-.18,.99-1.08,1.44-2.34,1.44h-10.8v7.02c19.98,7.29,11.61,21.96,4.32,15.48-.27-4.23-2.16-9.18-4.32-13.05v47.34c0,.99-4.23,3.15-7.92,3.15h-1.98v-36.9c-3.69,5.94-8.19,11.43-13.59,16.29l-1.08-1.08c6.84-10.26,11.16-24.57,13.41-38.25h-10.62l-.72-2.61h12.6v-21.96l13.14,1.26c-.27,1.35-.9,2.25-3.24,2.61v18.09h.09l4.68-6.84s5.04,4.5,8.1,7.74l-.72-2.61h23.4c1.98-6.12,4.23-14.4,5.49-20.16l14.13,4.86c-.45,1.17-1.62,1.8-3.51,1.62-3.42,3.69-8.64,9.18-13.77,13.68h6.84l5.22-6.93s6.03,4.77,9.63,8.1c-.27,.99-1.17,1.44-2.43,1.44h-19.26v14.58h4.32l5.22-7.11s5.85,4.86,9.36,8.28c-.27,.99-1.17,1.44-2.43,1.44h-16.47v17.01h8.82l5.4-7.38Zm-37.26-49.05c23.67,7.02,14.04,24.3,5.22,16.74-.54-5.58-3.42-11.79-6.03-16.2l.81-.54Z"/><path class="q" d="M550.85,406.77c4.05,9.9,4.68,18.81,.09,22.86-5.04,4.41-10.98-1.71-5.04-7.47,1.98-2.07,4.05-8.19,3.69-15.39h1.26Zm30.69,2.34c-.36,.81-1.53,1.53-3.33,1.08-2.61,3.24-7.65,8.82-12.33,13.05-.18,5.58-.63,10.8-1.35,15.48,18,9.09,9.9,23.4,2.7,16.74-.09-4.05-1.62-8.73-3.51-12.6-2.61,11.97-7.92,21.24-19.08,28.44l-1.08-1.44c15.48-17.1,13.14-41.94,13.14-82.89l12.87,1.26c-.27,1.35-1.17,2.25-3.33,2.52-.09,10.17,0,19.26-.18,27.45,2.16-5.4,4.32-11.52,5.31-14.94l10.17,5.85Zm14.58,33.93c-.45,1.08-1.62,1.8-3.6,1.71-5.31,9.99-12.69,17.55-20.97,22.23l-1.08-.81c5.22-6.57,10.53-16.92,13.23-27.63l12.42,4.5Zm12.06-10.53v26.73c0,6.75-1.44,10.71-12.69,11.79-.18-3.24-.63-5.67-1.8-7.11-1.35-1.62-3.06-2.61-7.02-3.42v-1.26s8.01,.54,9.72,.54c1.35,0,1.71-.54,1.71-1.71v-25.56h-11.52l-2.97,3.15-9.36-5.67c.81-.72,1.98-1.53,3.15-2.16,1.35-3.15,2.88-7.02,4.32-11.25h-5.58l-.81-2.61h7.29c1.35-3.69,2.7-7.56,3.87-11.25h-12.87l-.72-2.52h14.4c1.71-5.4,3.15-10.26,3.96-13.59l12.78,3.6c-.45,.99-1.44,1.89-3.78,1.71-.72,2.34-1.62,5.13-2.7,8.28h16.92l5.22-6.48s5.94,4.41,9.63,7.56c-.27,.99-1.17,1.44-2.43,1.44h-30.24c-1.17,3.6-2.52,7.38-3.87,11.25h4.41l4.59-5.31,10.08,7.74c-.54,.72-1.8,1.44-3.69,1.8v11.7h3.6l5.22-6.66s5.85,4.5,9.45,7.83c-.27,.99-1.26,1.44-2.43,1.44h-15.84Zm-10.08-2.61v-13.32h-6.21c-1.71,4.95-3.42,9.54-4.86,13.32h11.07Zm13.68,10.35c26.1,10.35,17.19,30.15,7.83,22.23-.81-7.38-5.04-15.84-8.73-21.69l.9-.54Z"/><path class="u" d="M626.17,549.06c3.24,5.31,3.69,8.01,2.16,9.45-4.05,3.96-11.61,.18-15.84-3.6-4.14-3.51-7.56-7.56-10.44-11.97-7.2,7.2-16.29,13.23-27.9,17.46l-.63-1.08c10.44-6.12,18.54-14.31,24.57-23.4-5.31-11.07-7.92-24.03-9-38.16h-25.29v14.4h10.62l5.04-5.04,9.09,7.56c-.63,.72-1.71,1.26-3.51,1.53-.54,19.26-1.71,26.19-5.67,29.34-2.43,1.89-5.49,2.88-9.72,2.88,0-2.88-.18-5.22-1.26-6.66-1.08-1.26-2.97-2.16-5.58-2.88v-1.17c2.07,.18,5.76,.36,7.29,.36,1.26,0,1.89-.18,2.43-.72,1.62-1.44,2.34-8.19,2.7-22.68h-11.43c0,14.4-1.26,34.29-19.17,46.98l-.81-.81c8.64-13.68,9.45-31.05,9.45-46.26v-23.67l12.15,4.32h23.4c-.36-6.03-.54-12.15-.54-18.45l13.68,1.35c-.09,1.17-.9,2.25-3.24,2.61-.09,4.86,0,9.72,.27,14.49h13.5l3.24-4.05c-1.08,.09-2.25-.09-3.51-.72-1.44-3.96-5.67-8.37-9.09-10.71l.63-.72c14.4-.9,17.55,5.85,15.66,9.63,1.98,1.53,6.48,5.13,9.45,7.74-.18,.9-1.17,1.35-2.52,1.35h-27.27c.72,9.63,2.25,18.99,5.31,27.09,3.06-6.48,5.31-13.23,6.84-19.71l14.04,4.68c-.36,1.08-1.17,1.8-3.6,1.71-2.88,7.83-6.84,15.84-12.42,23.22,2.52,3.96,5.67,7.38,9.45,10.26,1.35,1.26,1.98,1.26,2.97-.36,1.44-2.25,3.96-7.11,5.67-10.98l.9,.18-2.07,15.21Z"/><path class="v" d="M585.58,586.41c-.63,.81-1.98,1.53-3.78,1.89v53.64c-.09,.72-4.86,2.97-8.37,2.97h-1.53v-7.11h-13.68v6.66c0,1.17-3.78,3.42-8.1,3.42h-1.62v-68.04l10.08,4.23h.54c.63-4.95,1.44-11.97,1.89-17.01l14.58,3.51c-.36,1.53-1.62,2.16-3.69,2.16-2.34,3.15-5.85,7.83-8.73,11.34h7.83l4.77-5.4,9.81,7.74Zm-27.36,.27v22.32h13.68v-22.32h-13.68Zm13.68,48.6v-23.67h-13.68v23.67h13.68Zm57.6-48.87c-.72,.81-1.89,1.44-3.96,1.71-.63,36.27-1.89,52.74-6.84,58.05-3.24,3.42-7.2,4.86-13.14,4.86,0-3.42-.45-5.94-1.98-7.38-1.62-1.71-5.13-3.15-9.54-3.96l.09-1.26c4.32,.36,10.53,.81,12.87,.81,1.62,0,2.43-.36,3.33-1.17,3.33-3.06,4.23-20.97,4.86-51.66h-16.74c-4.32,7.65-9.45,14.04-15.21,18.9l-1.17-.72c4.95-9.18,9.81-23.85,12.15-37.62l14.22,4.14c-.36,1.17-1.44,1.8-3.51,1.8-1.53,3.87-3.15,7.47-5.04,10.89h14.31l5.67-5.85,9.63,8.46Zm-39.78,15.75c26.28,7.74,16.47,27.18,6.93,19.17-.45-6.39-4.05-13.68-7.65-18.63l.72-.54Z"/></g></g></svg>