<?xml version="1.0" encoding="UTF-8"?><svg id="uuid-881fd561-9265-4a76-8184-e9289b42c613" xmlns="http://www.w3.org/2000/svg" xmlns:xlink="http://www.w3.org/1999/xlink" viewBox="0 0 1920 1080"><defs><style>.uuid-80f8fb23-b068-4c79-869c-f24db6a45ca2{fill:url(#uuid-8df3d2bf-ae98-459d-8ccc-a34bd75469e5);}.uuid-c1a15ce1-f874-47b6-9ece-ecc5061c3e68{fill:url(#uuid-f1a24857-3007-4aab-bdd9-9cab8379030d);}.uuid-0b6943d5-5d0b-434f-9721-fdffd0fa19bf{fill:url(#uuid-5b32db42-eb65-4c50-8652-7be9068a02b5);}.uuid-4d5f3394-8236-4841-a8a7-fc1072bcc505{fill:url(#uuid-2be859c3-0099-479a-86c0-e15a6875eac7);}.uuid-e7ede04c-ec9a-4bd9-a1c9-f6c29ef35ffb{fill:#fff;}.uuid-5bcc04a8-cd70-4b14-8c3f-7ae0a8232f97{fill:url(#uuid-1959f664-d576-44f1-bef0-eb6e2685adad);}.uuid-36b9b7f2-a828-46d8-a431-27c5637a8ec3{fill:url(#uuid-e4340913-d2b6-4e0a-adf1-ecda01f475da);}.uuid-0369dafe-0ffc-44f4-95b3-2674f340a2b2{fill:url(#uuid-6b0a8ffe-a230-481e-9771-5ff879d4e1c1);}.uuid-3e8ad580-ead2-4df6-a90e-35e61d620ec4{fill:url(#uuid-c540829f-7aff-4fda-8aeb-f0ca7b8d7ea9);}.uuid-7434b68c-791b-40c4-a206-56f5e7e1cda5{fill:url(#uuid-334626ef-7ac6-4a3a-be7c-d44b2d32e0a7);}.uuid-0b79f8e9-c955-4b81-83e7-41f5eeb4f7f3{fill:url(#uuid-ce3e4043-158d-4349-aadf-7782c0fb5410);}.uuid-4af50729-654d-45c5-b1b6-d9edc20a4576{fill:#00a89c;}.uuid-7f4fdd9f-5f5e-4ba2-8373-9ce4b20198bf{fill:url(#uuid-6fc0be49-dc7a-4e7b-8d14-64bec9f9df28);}.uuid-b5f9f0f7-9765-4bf1-b6d9-41b8bd1deff6{fill:url(#uuid-c1510e22-a236-4d47-affa-f490e1d38eb8);}.uuid-d15294d5-c470-45f8-a5d3-27c91ec6375e{fill:url(#uuid-a9700ef3-352a-4fe5-a429-9ebf1e523368);}.uuid-a8a7486b-5815-4b75-b3d8-050550e8589b{fill:url(#uuid-cfc8c432-7bc7-414b-85eb-5e786242d133);}.uuid-c94fd22a-4381-49db-9585-e89b97c94f94{fill:url(#uuid-59d4cc34-32bb-4704-becf-15760f4616f5);}.uuid-32b6d364-0dfe-4ac4-bbe2-7f4b83e5cd13{fill:url(#uuid-822c13ba-9011-497d-8153-1578d60a94c7);}.uuid-20a3328a-965d-4714-b9fb-5e81b6170025{fill:url(#uuid-bb070f15-3097-4fe4-af43-d0362cb4d597);}.uuid-1414b70e-f9d4-4b6d-8e19-3cf70c05f093{fill:url(#uuid-d2402249-a599-4b06-afdc-36cfa45d3889);}.uuid-600b30c4-025a-407d-afd2-467d94321a27{fill:url(#uuid-b21db69e-a578-4bb9-9ab2-9112fbf3d191);}.uuid-3d07f0ad-5da7-48d9-87e3-a38fd0c7b0d7{fill:url(#uuid-b4973337-2862-4d96-be24-365e1010ec81);}.uuid-d7fa6ce8-cc27-45f9-8aec-2e5c7a58354b{fill:url(#uuid-a88b74da-3432-4fde-b51c-f109cf0c3aca);}.uuid-d8ab986b-09bf-45ad-9338-efe80b433440{fill:url(#uuid-bdf11547-bb07-41ff-9fab-9715d9e4e94b);}.uuid-d56aaa81-fa5e-4335-becf-2c23d3f0d14c{fill:url(#uuid-95626a83-a7e0-4e3f-9bfc-350292b0d616);}.uuid-f45d8abf-12b6-43f2-bbdd-68b39f8cd872{fill:url(#uuid-49dd08fc-7a00-4ae5-94f4-dcea7ee2ad8f);}.uuid-0866bf1d-10b2-420e-94b2-9b208e84f89d{fill:url(#uuid-c268e46d-18dd-4a85-86fa-4782555f290a);}.uuid-950d5226-71c3-46c3-8aed-2a916d1103b3{fill:url(#uuid-a3f6a916-acf5-420d-9398-6e8f5c828bed);}.uuid-d9d8d61f-5f52-4271-91d3-48060c7d6b43{fill:url(#uuid-649fd48b-4315-4ffa-8c78-4a601123c3b0);}.uuid-ab907603-9069-4457-833d-2564344e5e7a{fill:url(#uuid-082e80be-ae15-4fa5-8b58-55e8850e2429);}.uuid-e460119e-28ca-4208-97f4-4f3abfaeaf8b{fill:url(#uuid-37e820df-1343-46bb-9fa9-52105396c8be);}.uuid-d2ec0436-1ee9-4a9a-acfb-ffc096db5672{fill:url(#uuid-31682fa9-e327-4506-a61f-0de4720896ed);}.uuid-041750a3-d906-44f7-aeb5-4e137459a7e0{fill:url(#uuid-d82c2878-5f8e-402f-b680-5f82c3c5bf52);}.uuid-5279d0e1-4e36-498a-98ae-22f82df43d52{fill:url(#uuid-e5b2c7ad-d905-4819-95a0-4d525c1c6a21);}.uuid-81c95658-98f7-4a18-a029-56a7f1c74013{fill:url(#uuid-2b3edbb6-56fd-49fd-9aed-b01ac9a47cc6);}.uuid-816f1c19-445f-4747-ba2e-25f1fe3a8a93{fill:url(#uuid-f9f90ec5-2b9c-4338-8ce8-8ad326f2ef14);}.uuid-3dfdf222-0d1c-453a-b1a6-df0e84017256{fill:url(#uuid-114ec726-f9b0-43ed-8d24-58a29b2f1675);}.uuid-71c6d892-f0ad-4255-b82c-3827e9c18eb1{fill:url(#uuid-35b3a500-193c-4987-9969-91bfad318848);}.uuid-55ac243b-3566-4a48-9189-a55013abbe19{fill:url(#uuid-7d9bbfb2-c12a-43e3-a14f-0b83b8224313);}.uuid-f4b54eb0-71ab-4ddc-b3b5-56c4c50a40be{fill:url(#uuid-3e9cf6a2-d2f3-4c1c-beee-5956b9fae3a6);}.uuid-6dd3c928-893d-4bc5-8707-155a0fb8df20{fill:url(#uuid-9f5b4b11-2e75-4364-86a1-934c6009ffa8);}.uuid-17a92012-7078-4b9d-a228-e30ad15ceed6{fill:url(#uuid-e3da22c8-091a-40bc-b889-14e2893addb0);}.uuid-727eef3a-d31e-4027-ab31-f7ca20b20acb{fill:url(#uuid-a1147008-9942-40ab-8abd-d75db86f1cb3);}.uuid-32b8f0b8-d7f4-41ae-ae35-c245dff82398{fill:url(#uuid-b633648f-bcf1-45ae-b880-5c6f33f2ba17);}.uuid-2ada3860-af2a-4eeb-a844-286d31769078{fill:url(#uuid-8d7820cb-d5b7-4e99-9c67-68fb84d1b98c);}.uuid-3df174cf-acb5-4c83-accf-57a35ebfb1bd{fill:url(#uuid-5d528f0d-77c0-4412-bfbe-08bf68f85bd1);}.uuid-389b500e-89b9-4a0d-a9ca-60c40438a9db{fill:url(#uuid-7ac9ac3c-f7a9-45fd-b036-e43a9476808a);}.uuid-fd96fd4a-d931-41d4-82a4-52e7cbfd2e8c{fill:url(#uuid-30de3d03-229b-4aa2-88e6-2c4346617d0b);}.uuid-15a34a4f-58ff-49e2-9ae6-c7b52da8c002{fill:url(#uuid-c0991807-9812-442a-9988-9f1f4a8dd9d6);}.uuid-9d77946c-51d3-46a2-a6b1-4e04f88e45d0{fill:url(#uuid-232a5bdb-d14b-4739-93ce-22343d932965);}.uuid-b4bfe977-e1c1-4c7a-8332-bacc97ae6058{fill:url(#uuid-b12ccaeb-1a0f-40b1-9088-947c28a86cca);}.uuid-9e66ff4e-96f3-465c-9607-e5357ffe164d{fill:url(#uuid-56fddfff-a04b-4ecb-88d5-7432e44c55b6);}.uuid-1565f2bb-9acb-4985-bf47-fcb729396661{fill:url(#uuid-df0b5cf8-76dc-4ea7-ae2b-db4df6aa0419);}.uuid-3af2c7d5-b2af-472b-a8e1-db4ef83bb6d2{fill:url(#uuid-d73bafbf-dc7d-48d9-be00-67b7e5b0d175);}.uuid-5cae704d-fd2c-424c-9fbf-d9197cd7ca12{fill:url(#uuid-967f9100-9eba-4852-b1b4-30bfa6b6e349);}.uuid-505df3f5-9e0c-4d13-a95f-1b4080613ab5{fill:url(#uuid-1c5801a2-3187-4366-a236-059c52494573);}.uuid-29a6c43e-50c8-40b2-a383-910c987376fc{fill:url(#uuid-ea92dfb0-0750-41e2-b85c-875dde2b49cb);}.uuid-b88d1024-4d29-4f5f-927b-08800c823685{fill:url(#uuid-1f36b2dc-0df0-40ec-9742-2aa572c90a0d);}.uuid-f5254921-8b8f-45bd-881f-e42aa92df44b{fill:url(#uuid-41c2f1cf-3e2c-4a59-a636-1d6e36aafcd0);}.uuid-dcebc36e-e027-49df-9be4-1537334cd846{fill:url(#uuid-4290f8ab-0c5e-4a9b-88dc-8d89bf8a8a0a);}.uuid-4e351a70-a239-4201-bdbe-27d431ccafa0{fill:url(#uuid-9e5d4511-6fdc-4ab2-a54c-38fc483a72c6);}.uuid-ff18cc90-8e8a-4d47-9eec-4fc0b7ee699c{fill:url(#uuid-f536655c-5f4d-40bf-ac53-6a5b575674f0);}</style><linearGradient id="uuid-6fc0be49-dc7a-4e7b-8d14-64bec9f9df28" x1="1534.93" y1="1054.66" x2="2284.64" y2="1054.66" gradientTransform="translate(518.64 376.01) rotate(-11.46) scale(.25 .17) skewX(-19.02)" gradientUnits="userSpaceOnUse"><stop offset="0" stop-color="#cbdff3"/><stop offset=".06" stop-color="#c1dbf1"/><stop offset=".17" stop-color="#a8d1ed"/><stop offset=".31" stop-color="#7ec0e6"/><stop offset=".47" stop-color="#45aadc"/><stop offset=".57" stop-color="#1e9bd6"/><stop offset=".87" stop-color="#0075bd"/><stop offset=".99" stop-color="#005b96"/></linearGradient><linearGradient id="uuid-b12ccaeb-1a0f-40b1-9088-947c28a86cca" x1="1534.93" y1="1054.66" x2="2284.64" y2="1054.66" gradientTransform="translate(518.64 376.01) rotate(-11.46) scale(.25 .17) skewX(-19.02)" gradientUnits="userSpaceOnUse"><stop offset="0" stop-color="#cbdff3"/><stop offset=".08" stop-color="#c1dbf1"/><stop offset=".21" stop-color="#a8d1ed"/><stop offset=".35" stop-color="#88c5e8"/><stop offset=".4" stop-color="#75bde4"/><stop offset=".5" stop-color="#44aadc"/><stop offset=".57" stop-color="#1e9bd6"/><stop offset=".91" stop-color="#0075bd"/></linearGradient><linearGradient id="uuid-f536655c-5f4d-40bf-ac53-6a5b575674f0" x1="1645.9" y1="1054.59" x2="2395.61" y2="1054.59" gradientTransform="translate(504.03 400.47) rotate(-11.46) scale(.25 .17) skewX(-19.02)" xlink:href="#uuid-6fc0be49-dc7a-4e7b-8d14-64bec9f9df28"/><linearGradient id="uuid-b633648f-bcf1-45ae-b880-5c6f33f2ba17" x1="1645.9" y1="1054.59" x2="2395.61" y2="1054.59" gradientTransform="translate(504.03 400.47) rotate(-11.46) scale(.25 .17) skewX(-19.02)" xlink:href="#uuid-b12ccaeb-1a0f-40b1-9088-947c28a86cca"/><linearGradient id="uuid-2b3edbb6-56fd-49fd-9aed-b01ac9a47cc6" x1="1738.76" y1="1012.96" x2="2488.47" y2="1012.96" gradientTransform="translate(486.49 434.55) rotate(-11.46) scale(.25 .17) skewX(-19.02)" xlink:href="#uuid-6fc0be49-dc7a-4e7b-8d14-64bec9f9df28"/><linearGradient id="uuid-bdf11547-bb07-41ff-9fab-9715d9e4e94b" x1="1738.76" y1="1012.96" x2="2488.47" y2="1012.96" gradientTransform="translate(486.49 434.55) rotate(-11.46) scale(.25 .17) skewX(-19.02)" xlink:href="#uuid-b12ccaeb-1a0f-40b1-9088-947c28a86cca"/><linearGradient id="uuid-334626ef-7ac6-4a3a-be7c-d44b2d32e0a7" x1="1807.15" y1="932.59" x2="2556.86" y2="932.59" gradientTransform="translate(1026.58 48.94) rotate(78.54) scale(.25 .17) skewX(-19.02)" xlink:href="#uuid-6fc0be49-dc7a-4e7b-8d14-64bec9f9df28"/><linearGradient id="uuid-7d9bbfb2-c12a-43e3-a14f-0b83b8224313" x1="1807.15" y1="932.59" x2="2556.86" y2="932.59" gradientTransform="translate(1026.58 48.94) rotate(78.54) scale(.25 .17) skewX(-19.02)" xlink:href="#uuid-b12ccaeb-1a0f-40b1-9088-947c28a86cca"/><linearGradient id="uuid-35b3a500-193c-4987-9969-91bfad318848" x1="1846.44" y1="818.97" x2="2596.15" y2="818.97" gradientTransform="translate(998.95 55.91) rotate(78.54) scale(.25 .17) skewX(-19.02)" xlink:href="#uuid-6fc0be49-dc7a-4e7b-8d14-64bec9f9df28"/><linearGradient id="uuid-1959f664-d576-44f1-bef0-eb6e2685adad" x1="1846.44" y1="818.97" x2="2596.15" y2="818.97" gradientTransform="translate(998.95 55.91) rotate(78.54) scale(.25 .17) skewX(-19.02)" xlink:href="#uuid-b12ccaeb-1a0f-40b1-9088-947c28a86cca"/><linearGradient id="uuid-56fddfff-a04b-4ecb-88d5-7432e44c55b6" x1="1853.93" y1="679.84" x2="2603.64" y2="679.84" gradientTransform="translate(962.45 67.6) rotate(78.54) scale(.25 .17) skewX(-19.02)" xlink:href="#uuid-6fc0be49-dc7a-4e7b-8d14-64bec9f9df28"/><linearGradient id="uuid-31682fa9-e327-4506-a61f-0de4720896ed" x1="1853.93" y1="679.84" x2="2603.64" y2="679.84" gradientTransform="translate(962.45 67.6) rotate(78.54) scale(.25 .17) skewX(-19.02)" xlink:href="#uuid-b12ccaeb-1a0f-40b1-9088-947c28a86cca"/><linearGradient id="uuid-232a5bdb-d14b-4739-93ce-22343d932965" x1="1486.14" y1="424.85" x2="2235.85" y2="424.85" gradientTransform="translate(924.24 1130.83) rotate(-101.46) scale(.32 .22) skewX(-19.02)" xlink:href="#uuid-6fc0be49-dc7a-4e7b-8d14-64bec9f9df28"/><linearGradient id="uuid-a88b74da-3432-4fde-b51c-f109cf0c3aca" x1="1486.14" y1="424.85" x2="2235.85" y2="424.85" gradientTransform="translate(924.24 1130.83) rotate(-101.46) scale(.32 .22) skewX(-19.02)" xlink:href="#uuid-b12ccaeb-1a0f-40b1-9088-947c28a86cca"/><linearGradient id="uuid-f1a24857-3007-4aab-bdd9-9cab8379030d" x1="1464.39" y1="383.19" x2="2214.1" y2="383.19" gradientTransform="translate(948.94 1103.24) rotate(-101.46) scale(.32 .22) skewX(-19.02)" xlink:href="#uuid-6fc0be49-dc7a-4e7b-8d14-64bec9f9df28"/><linearGradient id="uuid-1f36b2dc-0df0-40ec-9742-2aa572c90a0d" x1="1464.39" y1="383.19" x2="2214.1" y2="383.19" gradientTransform="translate(948.94 1103.24) rotate(-101.46) scale(.32 .22) skewX(-19.02)" xlink:href="#uuid-b12ccaeb-1a0f-40b1-9088-947c28a86cca"/><linearGradient id="uuid-df0b5cf8-76dc-4ea7-ae2b-db4df6aa0419" x1="1436.88" y1="345.73" x2="2186.59" y2="345.73" gradientTransform="translate(977.82 1078.61) rotate(-101.46) scale(.32 .22) skewX(-19.02)" xlink:href="#uuid-6fc0be49-dc7a-4e7b-8d14-64bec9f9df28"/><linearGradient id="uuid-082e80be-ae15-4fa5-8b58-55e8850e2429" x1="1436.88" y1="345.73" x2="2186.59" y2="345.73" gradientTransform="translate(977.82 1078.61) rotate(-101.46) scale(.32 .22) skewX(-19.02)" xlink:href="#uuid-b12ccaeb-1a0f-40b1-9088-947c28a86cca"/><linearGradient id="uuid-d2402249-a599-4b06-afdc-36cfa45d3889" x1="1405.49" y1="315" x2="2155.2" y2="315" gradientTransform="translate(1008.91 1058.62) rotate(-101.46) scale(.32 .22) skewX(-19.02)" xlink:href="#uuid-6fc0be49-dc7a-4e7b-8d14-64bec9f9df28"/><linearGradient id="uuid-114ec726-f9b0-43ed-8d24-58a29b2f1675" x1="1405.49" y1="315" x2="2155.2" y2="315" gradientTransform="translate(1008.91 1058.62) rotate(-101.46) scale(.32 .22) skewX(-19.02)" xlink:href="#uuid-b12ccaeb-1a0f-40b1-9088-947c28a86cca"/><linearGradient id="uuid-8d7820cb-d5b7-4e99-9c67-68fb84d1b98c" x1="1372.36" y1="293.11" x2="2122.07" y2="293.11" gradientTransform="translate(1040.09 1044.64) rotate(-101.46) scale(.32 .22) skewX(-19.02)" xlink:href="#uuid-6fc0be49-dc7a-4e7b-8d14-64bec9f9df28"/><linearGradient id="uuid-cfc8c432-7bc7-414b-85eb-5e786242d133" x1="1372.36" y1="293.11" x2="2122.07" y2="293.11" gradientTransform="translate(1040.09 1044.64) rotate(-101.46) scale(.32 .22) skewX(-19.02)" xlink:href="#uuid-b12ccaeb-1a0f-40b1-9088-947c28a86cca"/><linearGradient id="uuid-5d528f0d-77c0-4412-bfbe-08bf68f85bd1" x1="1339.75" y1="281.54" x2="2089.46" y2="281.54" gradientTransform="translate(514.93 565.89) rotate(-11.46) scale(.32 .22) skewX(-19.02)" xlink:href="#uuid-6fc0be49-dc7a-4e7b-8d14-64bec9f9df28"/><linearGradient id="uuid-3e9cf6a2-d2f3-4c1c-beee-5956b9fae3a6" x1="1339.75" y1="281.54" x2="2089.46" y2="281.54" gradientTransform="translate(514.93 565.89) rotate(-11.46) scale(.32 .22) skewX(-19.02)" xlink:href="#uuid-b12ccaeb-1a0f-40b1-9088-947c28a86cca"/><linearGradient id="uuid-e5b2c7ad-d905-4819-95a0-4d525c1c6a21" x1="1887.93" y1="787.35" x2="2637.64" y2="787.35" gradientTransform="translate(1854.44 625.72) rotate(168.54) scale(.39 .27) skewX(-19.02)" xlink:href="#uuid-6fc0be49-dc7a-4e7b-8d14-64bec9f9df28"/><linearGradient id="uuid-7ac9ac3c-f7a9-45fd-b036-e43a9476808a" x1="1887.93" y1="787.35" x2="2637.64" y2="787.35" gradientTransform="translate(1854.44 625.72) rotate(168.54) scale(.39 .27) skewX(-19.02)" xlink:href="#uuid-b12ccaeb-1a0f-40b1-9088-947c28a86cca"/><linearGradient id="uuid-d82c2878-5f8e-402f-b680-5f82c3c5bf52" x1="1881.59" y1="629.67" x2="2631.3" y2="629.67" gradientTransform="translate(1829.78 571.34) rotate(168.54) scale(.39 .27) skewX(-19.02)" xlink:href="#uuid-6fc0be49-dc7a-4e7b-8d14-64bec9f9df28"/><linearGradient id="uuid-f9f90ec5-2b9c-4338-8ce8-8ad326f2ef14" x1="1881.59" y1="629.67" x2="2631.3" y2="629.67" gradientTransform="translate(1829.78 571.34) rotate(168.54) scale(.39 .27) skewX(-19.02)" xlink:href="#uuid-b12ccaeb-1a0f-40b1-9088-947c28a86cca"/><linearGradient id="uuid-bb070f15-3097-4fe4-af43-d0362cb4d597" x1="1841.06" y1="459.39" x2="2590.77" y2="459.39" gradientTransform="translate(1796.25 507.23) rotate(168.54) scale(.39 .27) skewX(-19.02)" xlink:href="#uuid-6fc0be49-dc7a-4e7b-8d14-64bec9f9df28"/><linearGradient id="uuid-c268e46d-18dd-4a85-86fa-4782555f290a" x1="1841.06" y1="459.39" x2="2590.77" y2="459.39" gradientTransform="translate(1796.25 507.23) rotate(168.54) scale(.39 .27) skewX(-19.02)" xlink:href="#uuid-b12ccaeb-1a0f-40b1-9088-947c28a86cca"/><linearGradient id="uuid-ea92dfb0-0750-41e2-b85c-875dde2b49cb" x1="1769.1" y1="288.1" x2="2518.81" y2="288.1" gradientTransform="translate(1756.14 437.77) rotate(168.54) scale(.39 .27) skewX(-19.02)" xlink:href="#uuid-6fc0be49-dc7a-4e7b-8d14-64bec9f9df28"/><linearGradient id="uuid-967f9100-9eba-4852-b1b4-30bfa6b6e349" x1="1769.1" y1="288.1" x2="2518.81" y2="288.1" gradientTransform="translate(1756.14 437.77) rotate(168.54) scale(.39 .27) skewX(-19.02)" xlink:href="#uuid-b12ccaeb-1a0f-40b1-9088-947c28a86cca"/><linearGradient id="uuid-8df3d2bf-ae98-459d-8ccc-a34bd75469e5" x1="1670.62" y1="127.47" x2="2420.33" y2="127.47" gradientTransform="translate(1712.19 367.68) rotate(168.54) scale(.39 .27) skewX(-19.02)" xlink:href="#uuid-6fc0be49-dc7a-4e7b-8d14-64bec9f9df28"/><linearGradient id="uuid-c1510e22-a236-4d47-affa-f490e1d38eb8" x1="1670.62" y1="127.47" x2="2420.33" y2="127.47" gradientTransform="translate(1712.19 367.68) rotate(168.54) scale(.39 .27) skewX(-19.02)" xlink:href="#uuid-b12ccaeb-1a0f-40b1-9088-947c28a86cca"/><linearGradient id="uuid-649fd48b-4315-4ffa-8c78-4a601123c3b0" x1="1552.34" y1="-11.54" x2="2302.05" y2="-11.54" gradientTransform="translate(1667.39 301.76) rotate(168.54) scale(.39 .27) skewX(-19.02)" xlink:href="#uuid-6fc0be49-dc7a-4e7b-8d14-64bec9f9df28"/><linearGradient id="uuid-37e820df-1343-46bb-9fa9-52105396c8be" x1="1552.34" y1="-11.54" x2="2302.05" y2="-11.54" gradientTransform="translate(1667.39 301.76) rotate(168.54) scale(.39 .27) skewX(-19.02)" xlink:href="#uuid-b12ccaeb-1a0f-40b1-9088-947c28a86cca"/><linearGradient id="uuid-b21db69e-a578-4bb9-9ab2-9112fbf3d191" x1="1688.77" y1="982.57" x2="2438.48" y2="982.57" gradientTransform="translate(68.35 260.76) rotate(-11.46) scale(.49 .34) skewX(-19.02)" xlink:href="#uuid-6fc0be49-dc7a-4e7b-8d14-64bec9f9df28"/><linearGradient id="uuid-c540829f-7aff-4fda-8aeb-f0ca7b8d7ea9" x1="1688.77" y1="982.57" x2="2438.48" y2="982.57" gradientTransform="translate(68.35 260.76) rotate(-11.46) scale(.49 .34) skewX(-19.02)" xlink:href="#uuid-b12ccaeb-1a0f-40b1-9088-947c28a86cca"/><linearGradient id="uuid-a1147008-9942-40ab-8abd-d75db86f1cb3" x1="1758.54" y1="918.04" x2="2508.25" y2="918.04" gradientTransform="translate(1103.77 -476.81) rotate(78.54) scale(.49 .34) skewX(-19.02)" xlink:href="#uuid-6fc0be49-dc7a-4e7b-8d14-64bec9f9df28"/><linearGradient id="uuid-e3da22c8-091a-40bc-b889-14e2893addb0" x1="1758.54" y1="918.04" x2="2508.25" y2="918.04" gradientTransform="translate(1103.77 -476.81) rotate(78.54) scale(.49 .34) skewX(-19.02)" xlink:href="#uuid-b12ccaeb-1a0f-40b1-9088-947c28a86cca"/><linearGradient id="uuid-41c2f1cf-3e2c-4a59-a636-1d6e36aafcd0" x1="1802.51" y1="821.24" x2="2552.22" y2="821.24" gradientTransform="translate(1057.86 -463.43) rotate(78.54) scale(.49 .34) skewX(-19.02)" xlink:href="#uuid-6fc0be49-dc7a-4e7b-8d14-64bec9f9df28"/><linearGradient id="uuid-30de3d03-229b-4aa2-88e6-2c4346617d0b" x1="1802.51" y1="821.24" x2="2552.22" y2="821.24" gradientTransform="translate(1057.86 -463.43) rotate(78.54) scale(.49 .34) skewX(-19.02)" xlink:href="#uuid-b12ccaeb-1a0f-40b1-9088-947c28a86cca"/><linearGradient id="uuid-59d4cc34-32bb-4704-becf-15760f4616f5" x1="1817.68" y1="698.78" x2="2567.39" y2="698.78" gradientTransform="translate(994.08 -441.71) rotate(78.54) scale(.49 .34) skewX(-19.02)" xlink:href="#uuid-6fc0be49-dc7a-4e7b-8d14-64bec9f9df28"/><linearGradient id="uuid-49dd08fc-7a00-4ae5-94f4-dcea7ee2ad8f" x1="1817.68" y1="698.78" x2="2567.39" y2="698.78" gradientTransform="translate(994.08 -441.71) rotate(78.54) scale(.49 .34) skewX(-19.02)" xlink:href="#uuid-b12ccaeb-1a0f-40b1-9088-947c28a86cca"/><linearGradient id="uuid-5b32db42-eb65-4c50-8652-7be9068a02b5" x1="1803.01" y1="559" x2="2552.72" y2="559" gradientTransform="translate(916.78 -413.13) rotate(78.54) scale(.49 .34) skewX(-19.02)" xlink:href="#uuid-6fc0be49-dc7a-4e7b-8d14-64bec9f9df28"/><linearGradient id="uuid-4290f8ab-0c5e-4a9b-88dc-8d89bf8a8a0a" x1="1803.01" y1="559" x2="2552.72" y2="559" gradientTransform="translate(916.78 -413.13) rotate(78.54) scale(.49 .34) skewX(-19.02)" xlink:href="#uuid-b12ccaeb-1a0f-40b1-9088-947c28a86cca"/><linearGradient id="uuid-c0991807-9812-442a-9988-9f1f4a8dd9d6" x1="1759.52" y1="411.43" x2="2509.23" y2="411.43" gradientTransform="translate(831.22 -379.63) rotate(78.54) scale(.49 .34) skewX(-19.02)" xlink:href="#uuid-6fc0be49-dc7a-4e7b-8d14-64bec9f9df28"/><linearGradient id="uuid-e4340913-d2b6-4e0a-adf1-ecda01f475da" x1="1759.52" y1="411.43" x2="2509.23" y2="411.43" gradientTransform="translate(831.22 -379.63) rotate(78.54) scale(.49 .34) skewX(-19.02)" xlink:href="#uuid-b12ccaeb-1a0f-40b1-9088-947c28a86cca"/><linearGradient id="uuid-9e5d4511-6fdc-4ab2-a54c-38fc483a72c6" x1="1545.82" y1="638.63" x2="2295.53" y2="638.63" gradientTransform="translate(766.52 1653.95) rotate(-101.46) scale(.62 .43) skewX(-19.02)" xlink:href="#uuid-6fc0be49-dc7a-4e7b-8d14-64bec9f9df28"/><linearGradient id="uuid-a3f6a916-acf5-420d-9398-6e8f5c828bed" x1="1545.82" y1="638.63" x2="2295.53" y2="638.63" gradientTransform="translate(766.52 1653.95) rotate(-101.46) scale(.62 .43) skewX(-19.02)" xlink:href="#uuid-b12ccaeb-1a0f-40b1-9088-947c28a86cca"/><linearGradient id="uuid-95626a83-a7e0-4e3f-9bfc-350292b0d616" x1="1562.09" y1="594.95" x2="2311.8" y2="594.95" gradientTransform="translate(837.73 1642.72) rotate(-101.46) scale(.62 .43) skewX(-19.02)" xlink:href="#uuid-6fc0be49-dc7a-4e7b-8d14-64bec9f9df28"/><linearGradient id="uuid-6b0a8ffe-a230-481e-9771-5ff879d4e1c1" x1="1562.09" y1="594.95" x2="2311.8" y2="594.95" gradientTransform="translate(837.73 1642.72) rotate(-101.46) scale(.62 .43) skewX(-19.02)" xlink:href="#uuid-b12ccaeb-1a0f-40b1-9088-947c28a86cca"/><linearGradient id="uuid-a9700ef3-352a-4fe5-a429-9ebf1e523368" x1="1565.94" y1="541.02" x2="2315.65" y2="541.02" gradientTransform="translate(917.31 1638.87) rotate(-101.46) scale(.62 .43) skewX(-19.02)" xlink:href="#uuid-6fc0be49-dc7a-4e7b-8d14-64bec9f9df28"/><linearGradient id="uuid-9f5b4b11-2e75-4364-86a1-934c6009ffa8" x1="1565.94" y1="541.02" x2="2315.65" y2="541.02" gradientTransform="translate(917.31 1638.87) rotate(-101.46) scale(.62 .43) skewX(-19.02)" xlink:href="#uuid-b12ccaeb-1a0f-40b1-9088-947c28a86cca"/><linearGradient id="uuid-ce3e4043-158d-4349-aadf-7782c0fb5410" x1="1557.11" y1="480.52" x2="2306.82" y2="480.52" gradientTransform="translate(-124.7 549.61) rotate(-11.46) scale(.62 .43) skewX(-19.02)" xlink:href="#uuid-6fc0be49-dc7a-4e7b-8d14-64bec9f9df28"/><linearGradient id="uuid-1c5801a2-3187-4366-a236-059c52494573" x1="1557.11" y1="480.52" x2="2306.82" y2="480.52" gradientTransform="translate(-124.7 549.61) rotate(-11.46) scale(.62 .43) skewX(-19.02)" xlink:href="#uuid-b12ccaeb-1a0f-40b1-9088-947c28a86cca"/><linearGradient id="uuid-822c13ba-9011-497d-8153-1578d60a94c7" x1="1536.22" y1="417.57" x2="2285.93" y2="417.57" gradientTransform="translate(-66.41 592.02) rotate(-11.46) scale(.62 .43) skewX(-19.02)" xlink:href="#uuid-6fc0be49-dc7a-4e7b-8d14-64bec9f9df28"/><linearGradient id="uuid-b4973337-2862-4d96-be24-365e1010ec81" x1="1536.22" y1="417.57" x2="2285.93" y2="417.57" gradientTransform="translate(-66.41 592.02) rotate(-11.46) scale(.62 .43) skewX(-19.02)" xlink:href="#uuid-b12ccaeb-1a0f-40b1-9088-947c28a86cca"/><linearGradient id="uuid-2be859c3-0099-479a-86c0-e15a6875eac7" x1="1504.67" y1="356.47" x2="2254.38" y2="356.47" gradientTransform="translate(-7.41 645.57) rotate(-11.46) scale(.62 .43) skewX(-19.02)" xlink:href="#uuid-6fc0be49-dc7a-4e7b-8d14-64bec9f9df28"/><linearGradient id="uuid-d73bafbf-dc7d-48d9-be00-67b7e5b0d175" x1="1504.67" y1="356.47" x2="2254.38" y2="356.47" gradientTransform="translate(-7.41 645.57) rotate(-11.46) scale(.62 .43) skewX(-19.02)" xlink:href="#uuid-b12ccaeb-1a0f-40b1-9088-947c28a86cca"/></defs><rect class="uuid-4af50729-654d-45c5-b1b6-d9edc20a4576" x="-2" width="1924" height="1080"/><g><g><g><ellipse class="uuid-7f4fdd9f-5f5e-4ba2-8373-9ce4b20198bf" cx="938.2" cy="478.89" rx="87.76" ry="4.04" transform="translate(-80.41 747.23) rotate(-41.8)"/><ellipse class="uuid-b4bfe977-e1c1-4c7a-8332-bacc97ae6058" cx="938.2" cy="478.89" rx="87.76" ry="4.04" transform="translate(-80.41 747.23) rotate(-41.8)"/></g><g><ellipse class="uuid-ff18cc90-8e8a-4d47-9eec-4fc0b7ee699c" cx="951.09" cy="497.77" rx="87.76" ry="4.04" transform="translate(-122.27 482.28) rotate(-26.8)"/><ellipse class="uuid-32b8f0b8-d7f4-41ae-ae35-c245dff82398" cx="951.09" cy="497.77" rx="87.76" ry="4.04" transform="translate(-122.27 482.28) rotate(-26.8)"/></g><g><ellipse class="uuid-81c95658-98f7-4a18-a029-56a7f1c74013" cx="958.65" cy="519.34" rx="87.76" ry="4.04" transform="translate(-85.94 207.01) rotate(-11.8)"/><ellipse class="uuid-d8ab986b-09bf-45ad-9338-efe80b433440" cx="958.65" cy="519.34" rx="87.76" ry="4.04" transform="translate(-85.94 207.01) rotate(-11.8)"/></g><g><ellipse class="uuid-7434b68c-791b-40c4-a206-56f5e7e1cda5" cx="960.37" cy="542.12" rx="4.04" ry="87.76" transform="translate(365.48 1470.73) rotate(-86.8)"/><ellipse class="uuid-55ac243b-3566-4a48-9189-a55013abbe19" cx="960.37" cy="542.12" rx="4.04" ry="87.76" transform="translate(365.48 1470.73) rotate(-86.8)"/></g><g><ellipse class="uuid-71c6d892-f0ad-4255-b82c-3827e9c18eb1" cx="956.14" cy="564.58" rx="4.04" ry="87.76" transform="translate(121.16 1296.54) rotate(-71.8)"/><ellipse class="uuid-5bcc04a8-cd70-4b14-8c3f-7ae0a8232f97" cx="956.14" cy="564.58" rx="4.04" ry="87.76" transform="translate(121.16 1296.54) rotate(-71.8)"/></g><g><ellipse class="uuid-9e66ff4e-96f3-465c-9607-e5357ffe164d" cx="946.23" cy="585.18" rx="4.04" ry="87.76" transform="translate(-61.55 1056.52) rotate(-56.8)"/><ellipse class="uuid-d2ec0436-1ee9-4a9a-acfb-ffc096db5672" cx="946.23" cy="585.18" rx="4.04" ry="87.76" transform="translate(-61.55 1056.52) rotate(-56.8)"/></g></g><g><g><ellipse class="uuid-9d77946c-51d3-46a2-a6b1-4e04f88e45d0" cx="907.51" cy="581.57" rx="5.06" ry="109.69" transform="translate(-24.57 1122.89) rotate(-62.8)"/><ellipse class="uuid-d7fa6ce8-cc27-45f9-8aec-2e5c7a58354b" cx="907.51" cy="581.57" rx="5.06" ry="109.69" transform="translate(-24.57 1122.89) rotate(-62.8)"/></g><g><ellipse class="uuid-c1a15ce1-f874-47b6-9ece-ecc5061c3e68" cx="923.77" cy="558.08" rx="5.06" ry="109.69" transform="translate(-110.18 867.53) rotate(-47.8)"/><ellipse class="uuid-b88d1024-4d29-4f5f-927b-08800c823685" cx="923.77" cy="558.08" rx="5.06" ry="109.69" transform="translate(-110.18 867.53) rotate(-47.8)"/></g><g><ellipse class="uuid-1565f2bb-9acb-4985-bf47-fcb729396661" cx="945.55" cy="539.59" rx="5.06" ry="109.69" transform="translate(-141.55 598.23) rotate(-32.8)"/><ellipse class="uuid-ab907603-9069-4457-833d-2564344e5e7a" cx="945.55" cy="539.59" rx="5.06" ry="109.69" transform="translate(-141.55 598.23) rotate(-32.8)"/></g><g><ellipse class="uuid-1414b70e-f9d4-4b6d-8e19-3cf70c05f093" cx="971.37" cy="527.38" rx="5.06" ry="109.69" transform="translate(-114.72 322.18) rotate(-17.8)"/><ellipse class="uuid-3dfdf222-0d1c-453a-b1a6-df0e84017256" cx="971.37" cy="527.38" rx="5.06" ry="109.69" transform="translate(-114.72 322.18) rotate(-17.8)"/></g><g><ellipse class="uuid-2ada3860-af2a-4eeb-a844-286d31769078" cx="999.47" cy="522.26" rx="5.06" ry="109.69" transform="translate(-24.32 49.44) rotate(-2.8)"/><ellipse class="uuid-a8a7486b-5815-4b75-b3d8-050550e8589b" cx="999.47" cy="522.26" rx="5.06" ry="109.69" transform="translate(-24.32 49.44) rotate(-2.8)"/></g><g><ellipse class="uuid-3df174cf-acb5-4c83-accf-57a35ebfb1bd" cx="1027.94" cy="524.59" rx="109.69" ry="5.06" transform="translate(297.96 1418.45) rotate(-77.8)"/><ellipse class="uuid-f4b54eb0-71ab-4ddc-b3b5-56c4c50a40be" cx="1027.94" cy="524.59" rx="109.69" ry="5.06" transform="translate(297.96 1418.45) rotate(-77.8)"/></g></g><g><g><ellipse class="uuid-5279d0e1-4e36-498a-98ae-22f82df43d52" cx="1041.08" cy="571.39" rx="137.12" ry="6.32" transform="translate(360.59 1544.67) rotate(-83.8)"/><ellipse class="uuid-389b500e-89b9-4a0d-a9ca-60c40438a9db" cx="1041.08" cy="571.39" rx="137.12" ry="6.32" transform="translate(360.59 1544.67) rotate(-83.8)"/></g><g><ellipse class="uuid-041750a3-d906-44f7-aeb5-4e137459a7e0" cx="1006.39" cy="562.95" rx="137.12" ry="6.32" transform="translate(117.6 1297.64) rotate(-68.8)"/><ellipse class="uuid-816f1c19-445f-4747-ba2e-25f1fe3a8a93" cx="1006.39" cy="562.95" rx="137.12" ry="6.32" transform="translate(117.6 1297.64) rotate(-68.8)"/></g><g><ellipse class="uuid-20a3328a-965d-4714-b9fb-5e81b6170025" cx="975.06" cy="545.81" rx="137.12" ry="6.32" transform="translate(-41.27 1010.28) rotate(-53.8)"/><ellipse class="uuid-0866bf1d-10b2-420e-94b2-9b208e84f89d" cx="975.06" cy="545.81" rx="137.12" ry="6.32" transform="translate(-41.27 1010.28) rotate(-53.8)"/></g><g><ellipse class="uuid-29a6c43e-50c8-40b2-a383-910c987376fc" cx="949.23" cy="521.15" rx="137.12" ry="6.32" transform="translate(-117.1 709.78) rotate(-38.8)"/><ellipse class="uuid-5cae704d-fd2c-424c-9fbf-d9197cd7ca12" cx="949.23" cy="521.15" rx="137.12" ry="6.32" transform="translate(-117.1 709.78) rotate(-38.8)"/></g><g><ellipse class="uuid-80f8fb23-b068-4c79-869c-f24db6a45ca2" cx="930.67" cy="490.65" rx="137.12" ry="6.32" transform="translate(-118.85 417.29) rotate(-23.8)"/><ellipse class="uuid-b5f9f0f7-9765-4bf1-b6d9-41b8bd1deff6" cx="930.67" cy="490.65" rx="137.12" ry="6.32" transform="translate(-118.85 417.29) rotate(-23.8)"/></g><g><ellipse class="uuid-d9d8d61f-5f52-4271-91d3-48060c7d6b43" cx="920.64" cy="456.38" rx="137.12" ry="6.32" transform="translate(-58.98 146.21) rotate(-8.8)"/><ellipse class="uuid-e460119e-28ca-4208-97f4-4f3abfaeaf8b" cx="920.64" cy="456.38" rx="137.12" ry="6.32" transform="translate(-58.98 146.21) rotate(-8.8)"/></g></g><g><g><ellipse class="uuid-600b30c4-025a-407d-afd2-467d94321a27" cx="969.37" cy="420.08" rx="171.4" ry="7.9" transform="translate(-75.15 261.55) rotate(-14.8)"/><ellipse class="uuid-3e8ad580-ead2-4df6-a90e-35e61d620ec4" cx="969.37" cy="420.08" rx="171.4" ry="7.9" transform="translate(-75.15 261.55) rotate(-14.8)"/></g><g><ellipse class="uuid-727eef3a-d31e-4027-ab31-f7ca20b20acb" cx="975.06" cy="464.35" rx="7.9" ry="171.4" transform="translate(507.3 1437.78) rotate(-89.8)"/><ellipse class="uuid-17a92012-7078-4b9d-a228-e30ad15ceed6" cx="975.06" cy="464.35" rx="7.9" ry="171.4" transform="translate(507.3 1437.78) rotate(-89.8)"/></g><g><ellipse class="uuid-f5254921-8b8f-45bd-881f-e42aa92df44b" cx="969.09" cy="508.59" rx="7.9" ry="171.4" transform="translate(224.21 1310.43) rotate(-74.8)"/><ellipse class="uuid-fd96fd4a-d931-41d4-82a4-52e7cbfd2e8c" cx="969.09" cy="508.59" rx="7.9" ry="171.4" transform="translate(224.21 1310.43) rotate(-74.8)"/></g><g><ellipse class="uuid-c94fd22a-4381-49db-9585-e89b97c94f94" cx="951.88" cy="549.77" rx="7.9" ry="171.4" transform="translate(-2.09 1095.91) rotate(-59.8)"/><ellipse class="uuid-f45d8abf-12b6-43f2-bbdd-68b39f8cd872" cx="951.88" cy="549.77" rx="7.9" ry="171.4" transform="translate(-2.09 1095.91) rotate(-59.8)"/></g><g><ellipse class="uuid-0b6943d5-5d0b-434f-9721-fdffd0fa19bf" cx="924.6" cy="585.1" rx="7.9" ry="171.4" transform="translate(-143.75 821.43) rotate(-44.8)"/><ellipse class="uuid-dcebc36e-e027-49df-9be4-1537334cd846" cx="924.6" cy="585.1" rx="7.9" ry="171.4" transform="translate(-143.75 821.43) rotate(-44.8)"/></g><g><ellipse class="uuid-15a34a4f-58ff-49e2-9ae6-c7b52da8c002" cx="889.1" cy="612.16" rx="7.9" ry="171.4" transform="translate(-186.65 522.8) rotate(-29.8)"/><ellipse class="uuid-36b9b7f2-a828-46d8-a431-27c5637a8ec3" cx="889.1" cy="612.16" rx="7.9" ry="171.4" transform="translate(-186.65 522.8) rotate(-29.8)"/></g></g><g><g><ellipse class="uuid-4e351a70-a239-4201-bdbe-27d431ccafa0" cx="824.92" cy="571.55" rx="9.87" ry="214.25" transform="translate(-178.47 590.52) rotate(-35.8)"/><ellipse class="uuid-950d5226-71c3-46c3-8aed-2a916d1103b3" cx="824.92" cy="571.55" rx="9.87" ry="214.25" transform="translate(-178.47 590.52) rotate(-35.8)"/></g><g><ellipse class="uuid-d56aaa81-fa5e-4335-becf-2c23d3f0d14c" cx="874.03" cy="545.08" rx="9.87" ry="214.25" transform="translate(-136.6 345.89) rotate(-20.8)"/><ellipse class="uuid-0369dafe-0ffc-44f4-95b3-2674f340a2b2" cx="874.03" cy="545.08" rx="9.87" ry="214.25" transform="translate(-136.6 345.89) rotate(-20.8)"/></g><g><ellipse class="uuid-d15294d5-c470-45f8-a5d3-27c91ec6375e" cx="928.32" cy="532.22" rx="9.87" ry="214.25" transform="translate(-49.03 96.53) rotate(-5.8)"/><ellipse class="uuid-6dd3c928-893d-4bc5-8707-155a0fb8df20" cx="928.32" cy="532.22" rx="9.87" ry="214.25" transform="translate(-49.03 96.53) rotate(-5.8)"/></g><g><ellipse class="uuid-0b79f8e9-c955-4b81-83e7-41f5eeb4f7f3" cx="984.09" cy="533.86" rx="214.25" ry="9.87" transform="translate(299.76 1419.94) rotate(-80.8)"/><ellipse class="uuid-505df3f5-9e0c-4d13-a95f-1b4080613ab5" cx="984.09" cy="533.86" rx="214.25" ry="9.87" transform="translate(299.76 1419.94) rotate(-80.8)"/></g><g><ellipse class="uuid-32b6d364-0dfe-4ac4-bbe2-7f4b83e5cd13" cx="1037.54" cy="549.87" rx="214.25" ry="9.87" transform="translate(110.67 1270.82) rotate(-65.8)"/><ellipse class="uuid-3d07f0ad-5da7-48d9-87e3-a38fd0c7b0d7" cx="1037.54" cy="549.87" rx="214.25" ry="9.87" transform="translate(110.67 1270.82) rotate(-65.8)"/></g><g><ellipse class="uuid-4d5f3394-8236-4841-a8a7-fc1072bcc505" cx="1085.02" cy="579.17" rx="214.25" ry="9.87" transform="translate(-49.58 1053.94) rotate(-50.8)"/><ellipse class="uuid-3af2c7d5-b2af-472b-a8e1-db4ef83bb6d2" cx="1085.02" cy="579.17" rx="214.25" ry="9.87" transform="translate(-49.58 1053.94) rotate(-50.8)"/></g></g></g><g><path class="uuid-e7ede04c-ec9a-4bd9-a1c9-f6c29ef35ffb" d="M842.17,866.86l-26.64,2.52v5.54l13.25-1.3,1.94-2.66,3.02,2.66c.29,.24,.43,.43,.43,.58s-.17,.29-.5,.43c-.86,.34-1.46,1.7-1.8,4.1l-1.58,10.94,1.66,1.73c.19,.19,.29,.36,.29,.5s-.22,.24-.65,.29l-16.06,1.37v6.98c6.77-.62,10.73-1.37,11.88-2.23l3.17,2.38c.24,.19,.36,.35,.36,.47s-.17,.2-.5,.25l-14.9,1.37v7.56c12.34-.72,19.49-1.58,21.46-2.59l3.24,2.59c.33,.24,.5,.42,.5,.54s-.22,.2-.65,.25c-27.94,1.49-44.21,2.66-48.82,3.53l-3.53-2.74,25.13-1.44v-7.42c-7.82,.62-12.24,1.22-13.25,1.8l-3.74-2.59,16.99-1.51v-6.98l-12.24,1.01c.05,.43,.02,1.15-.07,2.16-.1,1.01-.23,1.51-.4,1.51s-.37-.17-.61-.5l-2.52-3.6c.62-.82,.94-2.11,.94-3.89,0-.38-.02-.89-.07-1.51l-.58-7.7c-.29-3.22-.72-5.88-1.3-7.99l.94-.36,2.09,3.53,13.82-1.3v-5.47c-13.1,1.15-21.02,2.06-23.76,2.74l-3.74-2.66,27.5-2.3v-7.27c-6.62,1.44-13.1,2.52-19.44,3.24l-.14-1.08c8.74-1.73,15.9-3.46,21.49-5.18,5.59-1.73,8.82-3.12,9.68-4.18l.86-.36,3.53,2.66c.33,.29,.5,.48,.5,.58s-.22,.19-.65,.29c-1.78,.24-6.17,1.37-13.18,3.38v7.63c13.78-1.1,21.62-2.23,23.54-3.38l3.1,2.3c.33,.24,.5,.42,.5,.54s-.17,.21-.5,.25Zm-29.3,24.55v-6.41c-3.36,.29-5.83,.65-7.42,1.08l-2.88-2.38,10.3-.94v-5.47l-13.25,1.3,.94,14.11,12.31-1.3Zm16.7-15.7l-14.04,1.37v5.47c3.41-.38,5.81-.89,7.2-1.51l2.09,1.94c.29,.24,.43,.43,.43,.58s-.26,.24-.79,.29l-8.93,.86v6.48l12.24-1.3,1.8-14.18Z"/><path class="uuid-e7ede04c-ec9a-4bd9-a1c9-f6c29ef35ffb" d="M908.34,859.44c.24,.19,.36,.35,.36,.47s-.19,.21-.58,.25l-34.06,3.46c-5.9,7.58-11.66,13.32-17.28,17.21l-.72-.86c6.53-6,11.69-11.76,15.48-17.28,3.79-5.52,5.69-9.7,5.69-12.53l1.08-.22,2.74,4.54c.05,.14,.07,.3,.07,.47s-.16,.32-.47,.47c-.31,.14-.73,.47-1.26,.97-.53,.5-1.09,1.25-1.69,2.23-.6,.98-1.26,1.91-1.98,2.77,9.36-.96,16.37-1.78,21.02-2.45,4.66-.67,7.37-1.34,8.14-2.02l3.46,2.52Zm9,53.78l-14.18,.94-15.62-11.59c-7.58,5.76-17.14,10.01-28.66,12.74l-.29-1.08c12.29-4.08,21.26-8.47,26.93-13.18l-3.46-2.59c-2.02-1.49-4.2-2.59-6.55-3.31-6.05,5.18-11.42,8.86-16.13,11.02l-.58-.94c12.24-7.63,19.42-14.78,21.53-21.46l-3.82,.29c.05,1.3-.02,2.16-.22,2.59-.19,.43-.35,.65-.47,.65s-.25-.12-.4-.36l-2.52-3.89c.38-.58,.64-1.15,.76-1.73,.12-.58,.16-1.66,.11-3.24l-.14-4.82c-.1-4.18-.36-6.7-.79-7.56l1.08-.5,2.09,3.24,22.1-2.3,1.94-2.52,3.24,2.81c.14,.1,.22,.2,.22,.32s-.1,.23-.29,.32c-1.06,.53-1.71,1.83-1.94,3.89l-.86,8.21,2.3,2.09c.14,.14,.22,.26,.22,.36s-.14,.17-.43,.22l-20.23,1.8,1.37,2.88c.05,.14,.07,.29,.07,.43s-.14,.26-.43,.36c-.48,.24-1.39,1.13-2.74,2.66l15.19-1.94,2.3-2.81,3.24,2.74c.19,.19,.29,.35,.29,.47s-.12,.23-.36,.32c-1.15,.62-2.57,1.99-4.25,4.1-3.5,4.27-6.14,7.08-7.92,8.42,5.95,3.98,10.54,6.66,13.75,8.03s8.06,2.36,14.54,2.99v.94Zm-18.58-44.93l-22.68,2.09,.22,4.61c9.26-.86,14.66-1.8,16.2-2.81l2.52,2.02c.19,.19,.29,.32,.29,.4s-.14,.13-.43,.18l-18.5,2.23,.14,5.18,21.24-2.3,1.01-11.59Zm-3.89,21.82c-8.16,.96-12.72,1.66-13.68,2.09l-1.66-1.01c-1.2,1.34-2.21,2.35-3.02,3.02h3.82c.77,1.25,2.95,3.1,6.55,5.54,2.93-2.59,5.59-5.81,7.99-9.65Z"/><path class="uuid-e7ede04c-ec9a-4bd9-a1c9-f6c29ef35ffb" d="M959.75,862.54c.82,1.54,1.22,3.72,1.22,6.55,0,4.85-1.08,10.42-3.24,16.7-2.16,6.29-4.82,11.23-7.99,14.83-3.17,3.6-6.14,5.4-8.93,5.4s-5.21-1.68-7.27-5.04c-2.06-3.36-3.1-7.06-3.1-11.09,0-4.94,1.38-9.83,4.14-14.65,2.76-4.82,6.4-8.58,10.91-11.27,4.51-2.69,9.4-4.03,14.65-4.03s9.94,1.02,14.04,3.06c4.1,2.04,7.4,5.03,9.9,8.96,2.5,3.94,3.74,8.2,3.74,12.78s-1.55,8.84-4.64,12.78c-3.1,3.94-7.18,6.82-12.24,8.64-5.07,1.82-9.73,2.74-14,2.74-.58,0-.86-.26-.86-.79s.46-.86,1.37-1.01c8.5-1.1,15.05-3.9,19.66-8.39,4.61-4.49,6.91-9.54,6.91-15.16,0-3.98-1.1-7.67-3.31-11.05-2.21-3.38-5.2-5.89-8.96-7.52-3.77-1.63-7.76-2.45-11.99-2.45Zm-1.3,0c-7.54,.29-13.5,3.06-17.89,8.32-4.39,5.26-6.59,11.48-6.59,18.68,0,4.08,.59,7.39,1.76,9.94,1.18,2.54,2.84,3.82,5,3.82,2.74,0,5.46-2.12,8.17-6.37,2.71-4.25,4.98-9.56,6.8-15.95s2.74-12.53,2.74-18.43Z"/><path class="uuid-e7ede04c-ec9a-4bd9-a1c9-f6c29ef35ffb" d="M1025.7,869.52c.14,.14,.22,.29,.22,.43s-.12,.29-.36,.43c-1.1,.58-1.78,1.82-2.02,3.74l-1.08,7.92,1.37,1.44c.1,.1,.14,.21,.14,.32s-.14,.21-.43,.25l-7.99,.94v11.09l5.47-1.58-1.08-4.54,.79-.36,4.32,6.62c-.29,1.49-.67,2.66-1.15,3.53-.48,.86-.8,1.3-.97,1.3s-.28-.12-.32-.36l-1.22-4.9c-10.8,3.94-16.49,6.29-17.06,7.06l-4.1-2.45,12.82-3.6v-11.45l-5.11,.58c.1,3.12-.12,4.68-.65,4.68-.14,0-.26-.07-.36-.22l-2.52-4.03c.77-1.15,1.13-2.93,1.08-5.33l-.14-8.21c0-1.82-.22-3.77-.65-5.83l1.01-.29,1.73,4.32,5.62-.72v-6.84c0-3.94-.08-6.61-.25-8.03-.17-1.42-.57-2.84-1.19-4.28l.72-.58,4.32,3.67c.19,.19,.29,.37,.29,.54s-.05,.35-.14,.54c-.82,1.34-1.22,4.32-1.22,8.93v5.76l5.4-.72,2.02-2.38,2.74,2.59Zm-12.67,13.68v-10.8l-5.4,.72,.22,10.8,5.18-.72Zm8.35-11.88l-5.83,.79v10.73l4.61-.65,1.22-10.87Zm13.32,30.17c.1,.14,.14,.29,.14,.43s-.31,.37-.94,.68-1.32,.85-2.09,1.62c-4.18,4.18-8.52,7.61-13.03,10.3l-.72-.86c4.42-3.5,7.83-6.64,10.26-9.4,2.42-2.76,3.64-4.79,3.64-6.08l.79-.22,1.94,3.53Zm21.38-9.07c0,3.41-.26,5.11-.79,5.11-.14,0-.31-.14-.5-.43-.96-1.44-2.09-2.9-3.38-4.39l-9.14,1.58v13.1c0,3.65-.17,6.13-.5,7.45-.34,1.32-.65,1.98-.94,1.98-.1,0-.19-.07-.29-.22-2.06-2.59-4.78-5.38-8.14-8.35l.5-.72,6.48,3.6c.24-1.15,.36-2.95,.36-5.4v-11.02c-5.71,1.01-8.98,1.8-9.79,2.38-.14,.1-.3,.14-.47,.14s-.32-.07-.47-.22l-2.59-2.59c1.49-.33,2.75-.76,3.78-1.26,1.03-.5,2.64-1.63,4.82-3.38,2.18-1.75,3.92-3.23,5.22-4.43-5.14,.86-8.33,1.73-9.58,2.59-.14,.1-.28,.14-.4,.14s-.28-.1-.47-.29l-2.45-2.23c1.82-.33,3.2-.85,4.14-1.55,.94-.7,2.3-2.03,4.1-4,1.8-1.97,2.87-3.43,3.2-4.39l-7.7,.86c0,2.69-.22,4.03-.65,4.03-.14,0-.26-.09-.36-.29l-2.45-4.32c.67-.96,1.01-2.86,1.01-5.69v-9.5c0-2.64-.26-5.33-.79-8.06l1.01-.22,1.94,5.04,20.02-2.16,2.16-2.81,2.81,2.59c.24,.24,.36,.46,.36,.65s-.12,.36-.36,.5c-.91,.58-1.56,2.26-1.94,5.04l-1.37,10.22,1.37,1.44c.24,.29,.36,.5,.36,.65s-.17,.24-.5,.29l-13.1,1.51,1.3,2.02c.1,.14,.14,.31,.14,.5s-.23,.32-.68,.4c-.46,.07-1.5,.83-3.13,2.27l-4.54,4.03,8.71-1.3c2.64-2.59,4.32-4.8,5.04-6.62h.58l1.51,4.03c.1,.19,.14,.38,.14,.58s-.24,.29-.72,.29-1.61,.72-3.38,2.16l-12.1,9.79,16.63-2.38c-.77-.86-2.04-2.23-3.82-4.1l.58-.79,9.22,6.12Zm-16.42-27.65v-6.05l-8.57,.86v6.26l8.57-1.08Zm0,8.78v-6.84c-3.31,.43-5.5,.84-6.55,1.22l-2.02-1.44v8.14l8.57-1.08Zm11.88-16.06l-9.43,.94v6.05c1.73-.29,3.07-.67,4.03-1.15l2.02,1.58c.19,.19,.29,.35,.29,.47s-.14,.2-.43,.25l-5.9,.79v6.84l7.99-1.08,1.44-14.69Zm5.62,48.6c.1,1.97,.04,3.4-.18,4.28-.22,.89-.41,1.33-.58,1.33s-.35-.12-.54-.36c-2.64-3.98-5.9-7.66-9.79-11.02l.58-.79,10.51,6.55Z"/><path class="uuid-e7ede04c-ec9a-4bd9-a1c9-f6c29ef35ffb" d="M1101.66,869.66l-14.33,2.02,2.02,2.38c.14,.19,.22,.35,.22,.47s-.07,.3-.22,.54c-.53,.82-1.27,3.02-2.23,6.62l6.77-1.22,1.94-2.74,2.88,2.3c.19,.14,.29,.26,.29,.36s-.1,.24-.29,.43c-1.15,.91-1.9,2.21-2.23,3.89-1.63,8.4-3.17,14.72-4.61,18.97-1.44,4.25-2.42,6.37-2.95,6.37-.14,0-.31-.17-.5-.5-1.25-2.26-3.07-4.92-5.47-7.99l.58-.72,4.9,4.1c.86-1.54,1.88-4.5,3.06-8.89,1.18-4.39,2.12-8.96,2.84-13.72-3.6,.58-5.74,1.06-6.41,1.44l-1.08-.79c-1.63,6.77-3.49,12.3-5.58,16.6s-5.27,8.96-9.54,14l-.79-.65c6.24-8.54,10.31-16.64,12.2-24.3,1.9-7.66,2.75-13.24,2.56-16.74-4.22,.58-6.94,1.13-8.14,1.66l-3.31-2.3c7.54-.82,13.19-1.54,16.96-2.16,3.77-.62,6.3-1.37,7.6-2.23l2.88,2.16c.24,.19,.36,.34,.36,.43s-.12,.17-.36,.22Zm-9-9.79c-.14,1.25-.48,2.46-1.01,3.64-.53,1.18-.91,1.76-1.15,1.76-.1,0-.19-.1-.29-.29l-5.4-11.59,.65-.58,7.2,7.06Zm41.98,54.07l-13.32,1.51-19.01-16.85c-3.36,7.49-7.1,13.3-11.23,17.42l-.79-.65c4.22-6.05,7.39-11.62,9.5-16.7,2.11-5.09,3.14-9.36,3.1-12.82l.65-.22,2.88,3.96c.1,.14,.14,.29,.14,.43s-.07,.29-.22,.43c-.82,.82-1.92,2.98-3.31,6.48l7.99,6.62v-23.62c-3.55,.48-5.98,.96-7.27,1.44l-3.1-2.23,21.24-3.02,2.02-3.02,3.38,2.95c.14,.14,.22,.28,.22,.4s-.07,.25-.22,.4c-1.87,1.25-4.13,4.06-6.77,8.42l-1.01-.43,2.95-6.62-8.93,1.37v11.74c5.09-.67,8.14-1.49,9.14-2.45l2.74,2.23c.24,.19,.36,.35,.36,.47s-.12,.2-.36,.25l-11.88,1.44v12.31c3.21,2.54,6.31,4.37,9.29,5.47,2.98,1.1,6.91,1.68,11.81,1.73v1.15Zm-5.4-48.1c.29,.19,.43,.35,.43,.47s-.17,.21-.5,.25l-22.61,3.1c-1.2,2.4-2.71,4.75-4.54,7.06l-.79-.43c4.99-9.26,7.49-16.61,7.49-22.03,0-1.06-.1-2.04-.29-2.95l.65-.43,3.96,4.39c.14,.14,.22,.28,.22,.4s-.1,.28-.29,.47c-.67,.67-1.46,2.17-2.38,4.5-.91,2.33-1.9,4.62-2.95,6.88,9.5-1.25,15.65-2.59,18.43-4.03l3.17,2.38Z"/></g></svg>