<?xml version="1.0" encoding="UTF-8"?><svg id="h" xmlns="http://www.w3.org/2000/svg" viewBox="0 0 1366 768"><defs><style>.q{fill:#fff;}.r{stroke-width:.89px;}.r,.s{fill:none;stroke:#fff;stroke-miterlimit:10;}.t{fill:#e63828;}.s{stroke-width:.84px;}</style></defs><rect class="t" x="-.03" y=".44" width="1366.01" height="767.56"/><g id="i"><polygon class="q" points="798.95 443.2 635.58 658.8 797.6 442.19 798.95 443.2 798.95 443.2"/></g><g id="j"><polygon class="q" points="820.27 185.75 518.45 584.4 816.91 183.23 820.27 185.75 820.27 185.75"/></g><g id="k"><line class="r" x1="1214.94" y1="639.69" x2="1249.72" y2="594.56"/><line class="r" x1="777.53" y1="498.29" x2="814.35" y2="450.68"/><line class="r" x1="972.76" y1="498.31" x2="992.07" y2="472.83"/><line class="r" x1="899.11" y1="462.07" x2="933.96" y2="414.13"/><line class="r" x1="1042.15" y1="590.86" x2="1099.47" y2="515.53"/><line class="r" x1="769.7" y1="637.75" x2="834.92" y2="551.62"/><line class="r" x1="924.54" y1="747.08" x2="956.43" y2="704.7"/></g><g id="l"><line class="r" x1="361.67" y1="516.51" x2="401.73" y2="464.18"/><line class="r" x1="523.94" y1="304.69" x2="558.72" y2="259.56"/><line class="r" x1="86.53" y1="163.29" x2="123.35" y2="115.68"/><line class="r" x1="281.76" y1="163.31" x2="301.07" y2="137.83"/><line class="r" x1="208.11" y1="127.07" x2="242.96" y2="79.13"/><line class="r" x1="351.15" y1="255.86" x2="408.47" y2="180.53"/><line class="r" x1="78.7" y1="302.75" x2="143.92" y2="216.62"/><line class="r" x1="233.54" y1="412.08" x2="265.43" y2="369.7"/></g><g id="m"><line class="r" x1="174.36" y1="536.52" x2="213.04" y2="483.17"/><line class="r" x1="330.88" y1="320.42" x2="364.16" y2="274.18"/><line class="r" x1="591.55" y1="699.07" x2="626.63" y2="650.15"/><line class="r" x1="535.66" y1="512" x2="554.55" y2="486.21"/><line class="r" x1="591.46" y1="572.21" x2="627.42" y2="525.09"/><line class="r" x1="427.12" y1="472.01" x2="482.89" y2="395.53"/><line class="r" x1="460.17" y1="746.48" x2="524.03" y2="659.33"/><line class="r" x1="311.1" y1="629.4" x2="342.57" y2="586.72"/></g><g id="n"><line class="s" x1="358.52" y1="505.03" x2="320.88" y2="554.28"/><line class="s" x1="115.24" y1="178.31" x2="82.56" y2="220.79"/><line class="s" x1="145.61" y1="399.71" x2="129.39" y2="421.35"/><line class="s" x1="279.31" y1="386.95" x2="261.18" y2="410.93"/><line class="s" x1="393.66" y1="369.56" x2="360.92" y2="414.69"/><line class="s" x1="323.82" y1="162.14" x2="226.49" y2="283.28"/><line class="s" x1="494.53" y1="241.1" x2="451.39" y2="298.19"/><line class="s" x1="400.88" y1="225.88" x2="339.6" y2="306.94"/><line class="s" x1="369.61" y1="101.2" x2="317.9" y2="170.24"/></g><g id="o"><line class="s" x1="668.52" y1="414.03" x2="630.88" y2="463.28"/><line class="s" x1="425.24" y1="87.31" x2="392.56" y2="129.79"/><line class="s" x1="455.61" y1="308.71" x2="439.39" y2="330.35"/><line class="s" x1="589.31" y1="295.95" x2="571.18" y2="319.93"/><line class="s" x1="703.66" y1="278.56" x2="670.92" y2="323.69"/><line class="s" x1="633.82" y1="71.14" x2="536.49" y2="192.28"/><line class="s" x1="804.53" y1="150.1" x2="761.39" y2="207.19"/><line class="s" x1="710.88" y1="134.88" x2="649.6" y2="215.94"/><line class="s" x1="679.61" y1="10.2" x2="627.9" y2="79.24"/></g><g id="p"><line class="r" x1="1203.18" y1="529.19" x2="1315.66" y2="381.67"/><line class="r" x1="1259.82" y1="373.4" x2="1294.6" y2="328.27"/><line class="r" x1="1257.22" y1="81.72" x2="1274.49" y2="58.73"/><line class="r" x1="928.03" y1="175.97" x2="964.86" y2="128.35"/><line class="r" x1="1123.27" y1="175.98" x2="1184.89" y2="94.9"/><line class="r" x1="1049.61" y1="139.75" x2="1084.47" y2="91.8"/><line class="r" x1="1192.65" y1="268.53" x2="1249.97" y2="193.21"/><line class="r" x1="920.21" y1="315.42" x2="985.43" y2="229.29"/><line class="r" x1="1075.05" y1="424.75" x2="1106.94" y2="382.37"/></g></svg>