<?xml version="1.0" encoding="UTF-8"?><svg id="g" xmlns="http://www.w3.org/2000/svg" viewBox="0 0 1366 768"><defs><style>.h{fill:#fff;}.i{fill:#3fa9f5;}.j{fill:none;stroke:#fff;stroke-miterlimit:10;stroke-width:4px;}</style></defs><g><rect class="i" x=".5" y="1.5" width="1365" height="766"/><path d="M1365,2V767H1V2H1365m1-1H0V768H1366V1h0Z"/></g><g><line class="j" x1="620.47" y1="78.87" x2="620.47" y2="696.87"/><g><path class="h" d="M647.86,105.55c5.33,4.27,10.14,9.08,14.41,14.41,0,3.2-1.34,4.54-4,4-3.74-4.8-8.27-9.61-13.61-14.41-.54-2.66,.53-4,3.2-4Zm15.21,24.82c2.13-2.13,3.73-1.86,4.8,.8-1.6,12.81-5.87,26.69-12.81,41.63-2.67,2.13-4.27,1.6-4.8-1.6,6.94-14.94,11.21-28.55,12.81-40.83Zm-8.81-50.44c4.27,3.74,8.54,8.54,12.81,14.41,.53,3.2-.8,4.27-4,3.2-3.74-4.8-7.74-9.34-12.01-13.61-.54-2.66,.53-4,3.2-4Zm29.62-1.6c2.13-2.13,3.73-1.6,4.8,1.6l-2.4,5.6h51.24c2.66,1.6,2.66,3.2,0,4.8h-52.84c-3.74,6.94-7.74,12.55-12.01,16.81-3.2,1.07-4.54-.26-4-4,6.94-6.94,12.01-15.21,15.21-24.82Zm5.6,21.62h37.63c5.87,0,8.54,2.67,8.01,8.01l-1.6,19.21h6.4c2.66,1.6,2.66,3.2,0,4.8h-6.4l-2.4,22.42h8.81c2.66,1.6,2.66,3.2,0,4.8h-9.61c-1.6,9.07-4.8,13.87-9.61,14.41-7.47,1.06-14.68-.27-21.62-4-1.6-3.2-.8-4.8,2.4-4.8,5.33,2.67,10.94,4,16.81,4,3.73,0,6.14-3.2,7.2-9.61h-44.03c-5.87,.53-8.27-2.13-7.2-8.01l3.2-19.21h-6.4c-2.67-1.6-2.67-3.2,0-4.8h7.21l3.2-20.01c1.06-4.8,3.73-7.21,8.01-7.21Zm39.23,32.02h-46.43l-3.2,19.21c-.54,2.67,.53,3.74,3.2,3.2h44.03l2.4-22.42Zm-2.4-27.22h-35.22c-2.67,0-4.27,1.07-4.8,3.2l-3.2,19.21h45.63l1.6-18.41c.53-2.66-.8-4-4-4Zm-31.22,33.62c-.54-3.73,.8-5.07,4-4,3.73,4.8,6.94,9.88,9.61,15.21-.54,3.2-2.14,4-4.8,2.4-2.14-4.27-5.07-8.81-8.81-13.61Zm3.2-28.02c0-3.2,1.33-4.27,4-3.2,3.73,4.8,6.67,9.61,8.81,14.41-.54,2.67-2.14,3.2-4.8,1.6-2.67-5.33-5.34-9.61-8.01-12.81Z"/><path class="h" d="M648.67,215.23h12.01c5.87,0,8.54,2.4,8.01,7.21v32.02c8.01,9.07,17.61,13.34,28.82,12.81h38.43c2.13,1.6,2.13,3.2,0,4.8h-37.63c-11.75,.53-22.15-3.47-31.22-12.01-3.74,4.8-8.01,8.54-12.81,11.21-3.2,0-4-1.6-2.4-4.8,5.33-2.67,9.34-6.41,12.01-11.21v-31.22c.53-2.67-1.07-4-4.8-4h-10.41c-2.14-1.6-2.14-3.2,0-4.8Zm11.21-27.22c3.73,4.8,7.21,10.41,10.41,16.81,0,3.2-1.34,4.27-4,3.2-3.74-6.94-7.21-12.54-10.41-16.81,.53-3.2,1.86-4.27,4-3.2Zm40.03-4.8v14.41h23.22c6.94,0,10.14,3.2,9.61,9.61l-1.6,40.83c.53,11.21-7.74,14.41-24.82,9.61-1.07-2.66-.54-4.27,1.6-4.8,12.81,4.8,18.94,2.94,18.41-5.6l1.6-38.43c.53-4.27-1.6-6.4-6.4-6.4h-21.62c0,25.62-6.94,44.3-20.81,56.04-2.67,.54-3.74-.8-3.2-4,12.81-11.21,19.21-28.55,19.21-52.04h-17.61c-2.14-1.06-2.14-2.67,0-4.8h17.61v-14.41c1.6-2.66,3.2-2.66,4.8,0Z"/><path class="h" d="M668.68,284.88c2.13-2.13,3.73-1.86,4.8,.8-.54,4.8-1.34,9.08-2.4,12.81h11.21c5.87,0,8.54,2.67,8.01,8v57.64c.53,5.87-2.14,8.54-8.01,8.01h-22.42c-5.34,.53-8.01-2.14-8.01-8.01v-57.64c0-5.33,2.66-8,8.01-8h6.4c1.06-3.73,1.86-8.27,2.4-13.61Zm12.01,18.41h-19.21c-3.2,0-4.8,1.6-4.8,4.8v24.02h28.82v-24.02c.53-3.2-1.07-4.8-4.8-4.8Zm4.8,33.62h-28.82v25.62c0,3.73,1.6,5.33,4.8,4.8h19.21c3.73,.53,5.33-1.07,4.8-4.8v-25.62Zm20.01-52.04c0,2.67-.27,6.14-.8,10.41h25.62c5.87,0,8.54,2.67,8.01,8l-.8,54.44c.53,16.54-11.48,20.81-36.03,12.81-1.6-3.2-1.07-4.8,1.6-4.8,20.28,7.47,30.15,4.26,29.62-9.61l.8-51.24c.53-3.2-1.07-4.8-4.8-4.8h-24.82c-1.6,7.47-4,14.15-7.21,20.01-2.67,1.6-4,.8-4-2.4,5.33-10.67,8.01-21.62,8.01-32.82,1.6-2.13,3.2-2.13,4.8,0Zm.8,33.62c6.4,9.08,11.47,18.68,15.21,28.82-.54,4.27-2.14,4.8-4.8,1.6-4.8-11.21-9.61-20.54-14.41-28.02-.54-3.2,.8-4,4-2.4Z"/><path class="h" d="M694.3,386.55v11.21h36.83c2.13,1.6,2.13,3.2,0,4.8h-36.83v20.81h46.43c2.13,1.6,2.13,3.2,0,4.8h-46.43v9.61c16.54,6.94,29.08,13.08,37.63,18.41,1.6,2.67,.8,4-2.4,4-10.14-5.87-21.88-11.47-35.22-16.81v36.83c-1.6,2.13-3.2,2.13-4.8,0v-52.04h-40.03c-2.14-1.6-2.14-3.2,0-4.8h40.03v-36.83c1.6-2.13,3.2-2.13,4.8,0Z"/><path class="h" d="M691.09,489.82c1.6-2.13,3.2-2.13,4.8,0v15.21h36.83c2.13,1.6,2.13,3.2,0,4.8h-36.83c0,11.21-.27,19.75-.8,25.62h40.83c2.13,1.6,2.13,3.2,0,4.8h-32.82c8.54,20.81,20.81,33.35,36.83,37.63,2.13,2.13,1.6,3.73-1.6,4.8-19.21-5.87-32.56-20.01-40.03-42.43h-4c-4.8,21.35-18.95,35.49-42.43,42.43-3.74,0-4.27-1.6-1.6-4.8,20.81-5.87,33.89-18.41,39.23-37.63h-36.83c-2.67-1.6-2.67-3.2,0-4.8h37.63c.53-5.33,.8-13.87,.8-25.62h-35.22c-2.67-1.6-2.67-3.2,0-4.8h35.22v-15.21Z"/><path class="h" d="M694.3,591.5v11.21h36.83c2.13,1.6,2.13,3.2,0,4.8h-36.83v20.81h46.43c2.13,1.6,2.13,3.2,0,4.8h-46.43v9.61c16.54,6.94,29.08,13.08,37.63,18.41,1.6,2.67,.8,4-2.4,4-10.14-5.87-21.88-11.47-35.22-16.81v36.83c-1.6,2.13-3.2,2.13-4.8,0v-52.04h-40.03c-2.14-1.6-2.14-3.2,0-4.8h40.03v-36.83c1.6-2.13,3.2-2.13,4.8,0Z"/></g></g></svg>