<?xml version="1.0" encoding="UTF-8"?><svg id="uuid-8ffea735-b8a1-4898-aab4-903fc835d543" xmlns="http://www.w3.org/2000/svg" viewBox="0 0 1366 768"><defs><style>.uuid-bc642714-c973-48ef-97b3-3ae1212f80c9{fill:#fff;}</style></defs><rect y="1" width="1366" height="767"/><g><path class="uuid-bc642714-c973-48ef-97b3-3ae1212f80c9" d="M679.01,112.11l6.29,3.14c2.38,1.55,3.58,3.46,3.58,5.75,0,.77-.66,1.43-1.98,1.98-.48,0-1.47-.61-2.95-1.84-.26,0-.79,.53-1.6,1.6v.63c1.71,0,6.83,4,15.37,11.99,6.03,5.03,9.91,7.61,11.65,7.73,6.16,2.13,11.89,4.62,17.21,7.49,0,.22,.79,.63,2.37,1.21v.58c0,.84-3.5,1.5-10.49,1.98-4.77-.93-8.31-2.66-10.63-5.17-1.68-1.74-4.85-4.24-9.52-7.49l-12.42-12.81c-2.45-2.45-4.09-3.9-4.93-4.35-4.96,4.77-10.34,10.83-16.14,18.18-9.25,11.31-15.24,16.97-17.98,16.97-.97,0-1.5-.19-1.6-.58,7.77-7.03,13.04-12.29,15.81-15.81,10.15-12.28,16.6-20.69,19.34-25.23,.29-.87,.44-1.48,.44-1.84-1.45-2-2.19-3.3-2.22-3.91l.44-.19Zm-12.47-13.58c3.12,1.29,5.41,2.88,6.86,4.79,.45,1.42,.71,2.13,.77,2.13,0,.19-.9,1.06-2.71,2.61v.34c2.26-.84,3.9-1.26,4.93-1.26,.9,0,1.8,.55,2.71,1.64v.14c0,.39-2.06,1.13-6.19,2.22-.87,.61-1.61,.92-2.22,.92v.53c2.93,3,4.4,5.25,4.4,6.77-.26,.74-.87,1.11-1.84,1.11-2.32-1.61-4.33-4.04-6.04-7.3l-.34-.19c-6.19,6.09-9.67,9.2-10.44,9.33h-.19l-.34-.19c6.8-11.67,10.2-18.19,10.2-19.58v-.14c-2.55-.45-3.82-1.5-3.82-3.14,.51-.22,1.93-.47,4.25-.72Zm21.75,40.03c1.55,1.1,3.19,1.87,4.93,2.32,.64,.74,.97,1.29,.97,1.64,0,.71-.66,1.1-1.98,1.16h-3.34c-4.64,0-10.04,1.06-16.19,3.19-3.38,0-5.49-1.34-6.33-4.01v-.15h2.37c10.96-2.77,17.48-4.16,19.58-4.16Zm-21.12,13.44c2.71,.97,4.74,2.61,6.09,4.93,.16,.64,.44,1.16,.82,1.55,4.87-1.03,9.33-1.82,13.39-2.37,2.9-1.06,4.35-2.3,4.35-3.72l.58-.39c.39,0,1.58,.65,3.58,1.93,2.87,.36,4.3,1.68,4.3,3.96v.82c0,2.13-2.03,4.62-6.09,7.49,0,.23-.79,1.14-2.37,2.76v.34h.58c1.42,0,3.19,.66,5.32,1.98l.24,.43v.39c-1.03,1.68-7.03,2.85-17.98,3.53-1.19,.16-1.79,.37-1.79,.63v3.14c0,.32,.08,.6,.24,.82-.68,2.87-1.42,4.3-2.22,4.3-1.68,0-3.45-3.29-5.32-9.86,0-4.83-.85-11.6-2.56-20.3-.35,0-.74-.79-1.16-2.37Zm9.28,8.46l-1.79-.19,2.95,11.46h.39c2.71-1.32,5.8-1.98,9.28-1.98,.68-2.06,2.13-5.88,4.35-11.46v-.19c-2.68,.9-7.73,1.69-15.18,2.37Zm11.26-69.22c4.38,1.9,6.57,4.14,6.57,6.72-1.74,2.68-2.71,4.69-2.9,6.04v.19c1.42,0,4.83-.97,10.25-2.9h.14c3.8,1.42,5.71,2.69,5.71,3.82-.32,.74-.87,1.11-1.64,1.11l-3.87-.92c-2.42,.61-6.07,1.34-10.97,2.18-.42-.22-.9-.34-1.45-.34-.45,1.71-2.66,4.45-6.62,8.22l-.34,.19c-.23-.13-.4-.19-.53-.19,2.51-5.74,4.04-9.57,4.59-11.51,1.19-5.15,1.79-8.28,1.79-9.38l-1.11-2.9c.26,0,.39-.11,.39-.34Zm5.51,17.02h.34c5.77,2.58,8.65,4.9,8.65,6.96,0,.29-.44,.71-1.3,1.26l-.39-.14h-.72c-1,0-2.16-.08-3.48-.24-1.39,.61-2.37,.92-2.95,.92-.45-.13-.68-.5-.68-1.11,1.58-1.96,2.37-3.24,2.37-3.82-.64-.64-1.32-1.74-2.03-3.29,.13-.26,.19-.44,.19-.53Z"/><path class="uuid-bc642714-c973-48ef-97b3-3ae1212f80c9" d="M666.73,228.13h.24c4.16,.87,6.24,2.56,6.24,5.08v.24c0,.9-2.38,3.14-7.15,6.72,0,.26-.24,.64-.72,1.16,0,4.38-.14,8.01-.44,10.88,.29,2.32,.44,3.79,.44,4.4-.29,.61-.44,1.08-.44,1.4,.29,1.55,.44,3.09,.44,4.64v2.56c0,8.31-1.14,12.47-3.43,12.47h-.19c-1.52,0-2.84-2-3.96-5.99,3.22-9.25,4.83-17.06,4.83-23.45-.32-2.13-.48-3.51-.48-4.16-.36,0-3.82,2.01-10.39,6.04-6.73,3.71-11.91,5.56-15.52,5.56h-1.64c-.19,0-.42-.24-.68-.72,7.57-2.42,14.37-5.66,20.4-9.72,4.9-3.32,7.38-5.71,7.45-7.15,0-1.16,.82-1.77,2.46-1.84,2.03-2.8,3.04-4.59,3.04-5.37,0-.13-.16-1.05-.48-2.76Zm-2.56-15.71c6.35,1.68,9.52,3.43,9.52,5.27-1.13,1.35-4.92,3.76-11.36,7.2-.74,.45-1.58,.76-2.51,.92-.74-.19-1.13-.5-1.16-.92,1.68-2.45,3.82-5.4,6.43-8.85-.77-2.03-1.16-3.17-1.16-3.43,.16,0,.24-.06,.24-.19Zm53.08,41.86h1.4c6.16,1.9,9.23,4,9.23,6.29,0,1.16-.93,1.85-2.8,2.08-5.03-1.1-8.17-1.64-9.43-1.64-1.81,.32-3.05,.48-3.72,.48h-1.16c-3.71,0-6.03-.47-6.96-1.4-10.44,2.64-16.31,3.96-17.6,3.96-1.8,0-3.58-1.24-5.32-3.72v-.24c.03-.32,.18-.48,.44-.48,.39,0,1.55,.08,3.48,.24,16.34-3.71,27.15-5.56,32.44-5.56Zm-3.72-34.51h3.29c4.74,1.29,7.11,2.92,7.11,4.88,0,.55-.61,1.02-1.84,1.4-2.54-1.42-6.09-2.13-10.63-2.13-2.32,0-3.48,.32-3.48,.97v.19c.71,.77,1.34,2.01,1.89,3.72-.32,1.35-.48,3.21-.48,5.56v1.88h2.08c5.12,.81,7.69,2.05,7.69,3.72,0,1.1-.94,1.79-2.8,2.08-3.22-.48-5.54-.72-6.96-.72v2.76c0,5.96-1.38,9.67-4.16,11.12h-.24c-1.26-.84-1.88-3.93-1.88-9.28,0-.68,.16-1.96,.48-3.87h-.24c-2.71,0-6.41,.6-11.12,1.79-.55,0-1.22-.52-2.03-1.55v-.24c0-.48,3.46-1.42,10.39-2.8l3-1.6v-1.16c0-1.22,.16-3.32,.48-6.28-.65-2.32-1.5-3.48-2.56-3.48-.87,0-4.72,.39-11.55,1.16-.65-.16-1.34-.94-2.08-2.32,.45-.39,4.75-1.32,12.91-2.8,7.25-2,11.5-3,12.76-3Zm-12.76-16.87c5.48,1.71,9.12,4.03,10.92,6.96,.13,.61,.29,.92,.48,.92,0,.23-1.48,1.37-4.45,3.43-1.39,2.03-2.08,3.27-2.08,3.72h-.92c-.77-1.61-1.16-3.53-1.16-5.75v-3.04c-.32,0-.48-.06-.48-.19l-1.6,.43c-1.26-.58-1.88-1.5-1.88-2.75,.77-1.29,1.16-2.14,1.16-2.56v-.24c0-.16-.07-.24-.19-.24,.13-.29,.19-.51,.19-.68Z"/><path class="uuid-bc642714-c973-48ef-97b3-3ae1212f80c9" d="M694.33,303.49c3,0,7.14,3.84,12.42,11.5,0,.65,.1,.97,.29,.97-.29,.74-1.13,1.89-2.51,3.43l.29,2.46c.16,15.86,.24,28.63,.24,38.33,0,5.38-.74,8.07-2.22,8.07-3.58-.84-5.37-2.46-5.37-4.88,0-.19,.16-1.08,.48-2.66v-5.95c0-1.61-2.35-2.42-7.06-2.42h-.53c-3.32,0-7.96,.72-13.92,2.18-1.03-.29-1.76-.44-2.17-.44h-.24v.97c0,3.61-1.63,5.8-4.88,6.57-.26,0-.92-1.05-1.98-3.14,.97-10.57,1.45-23.7,1.45-39.4,0-1.8-.14-3.66-.44-5.56l.44-.29c3.9,3.45,5.85,9.73,5.85,18.85h.29c9.73-2.29,15.34-3.43,16.82-3.43,.45,0,1.45,.89,3,2.66v.53c0,1.13-5.56,2.02-16.68,2.66-1.77-.39-2.66-.63-2.66-.72-.52,.16-.77,.34-.77,.53,0,2.97-.07,8.15-.19,15.57-.16,.32-.24,.66-.24,1.02l.44,.24c7.25-2.77,15.08-4.16,23.49-4.16,0-.22-.06-1.03-.19-2.42,0-6.83-.18-17.58-.53-32.24-1.35-1.09-2.58-1.67-3.67-1.74h-.97c-2.93,0-8.46,1.29-16.58,3.87-2.8-.74-4.21-1.37-4.21-1.88,2.16-1.42,5.99-2.64,11.51-3.67,3.77-.64,6.53-1.63,8.27-2.95,1.55-1.64,2.46-2.46,2.76-2.46Z"/><path class="uuid-bc642714-c973-48ef-97b3-3ae1212f80c9" d="M662.09,440.2c1.26,0,6.61,3.45,16.05,10.34,18.14,8.19,33.82,12.28,47.03,12.28h6.29c.22,0,.45,.22,.68,.68,0,1.03-6.28,3.12-18.85,6.29-.81,.13-1.39,.19-1.74,.19-8.44-1.23-25.31-9.73-50.61-25.52-.58-.26-1.11-.39-1.6-.39-5.67,1.29-8.96,1.93-9.86,1.93h-.63c-1.35,0-2.03-.52-2.03-1.55,.32-1.03,.61-1.55,.87-1.55,.52,.29,.9,.43,1.16,.43,8.48-2.09,12.89-3.14,13.25-3.14Zm45.87-33.79c2.96,1.06,4.45,3.01,4.45,5.85v2.66c0,1.52-3.5,3.32-10.49,5.41-13.89,12.21-23.75,18.77-29.58,19.68-1.32,.13-2.13,.27-2.42,.43v-.68c9.44-7.09,18.32-14.32,26.63-21.71v-.24h-.24c-9.44,3.64-18.4,7.82-26.88,12.52-7.93-.52-11.89-1.19-11.89-2.03v-.14c0-.52,4.79-2.08,14.36-4.69,12.5-4.16,23.04-8.28,31.61-12.38,0-1.96,1.48-3.53,4.45-4.69Zm-24.89-2.22c5.71,0,8.56,2.46,8.56,7.4,0,1.38-4.03,3.75-12.09,7.11l-.24-.87c1.32-2.58,1.98-4.3,1.98-5.17v-1.3c-1.96-2.1-3.98-3.51-6.04-4.25v-.68c3.06-1.48,5.67-2.22,7.83-2.22Z"/><path class="uuid-bc642714-c973-48ef-97b3-3ae1212f80c9" d="M682.68,490.76c7.06,2.8,10.59,5.29,10.59,7.45,0,.39-.72,1.1-2.17,2.13,0,5.61,.85,11.57,2.56,17.88h.19c2.35-.39,4.19-.58,5.51-.58,.39,0,1.88,.71,4.5,2.13,1.45,.32,2.17,.98,2.17,1.98-.29,.81-.82,1.21-1.59,1.21h-4.88c-1.29,0-2.93-.13-4.93-.39v.39c1.06,4.74,2.19,8.39,3.38,10.97l.34,.24c.71-.55,1.5-1.48,2.37-2.8,0-.42-.13-1.32-.39-2.71h.19c4.87,1.81,7.62,3.9,8.27,6.29,.22,0,.34,.45,.34,1.35,0,1.42-1.8,2.27-5.41,2.56-1.71,.74-2.56,1.27-2.56,1.59,2.48,7.09,7.91,15.45,16.29,25.09,.39,0,.58,.27,.58,.82h.58v-3.77c0-5.16,.98-9.09,2.95-11.79h.34c.71,0,1.45,4.45,2.22,13.34,2.58,6.28,3.87,9.83,3.87,10.63,0,.93-.9,1.64-2.71,2.13-4.25-1-10.54-8.06-18.85-21.17-2.09-2.45-4.79-7.15-8.07-14.12h-.14c-5.03,2.61-8.83,3.92-11.41,3.92h-.39c-.26,0-.39-.13-.39-.39,6.51-5.15,9.76-7.91,9.76-8.27,.16-.26,.24-.45,.24-.58l-4.5-13.54h-.24c-2.35,0-6.87,.98-13.54,2.95,.13,3.32,.19,5.74,.19,7.25v13.58c0,11.28-1.37,18.21-4.11,20.79-.77,.68-1.55,1.13-2.32,1.35-1.35,0-2.68-1.63-3.96-4.88,.13-1.13,.19-1.98,.19-2.56-.52-1.38-1.1-2.5-1.74-3.34v-.44h.15c.55,0,1.53,.53,2.95,1.6h.44c1.71-2.06,2.56-5.46,2.56-10.2v-6.87h-.44c-11.5,7.96-17.72,11.94-18.66,11.94-.71,.16-1.29,.24-1.74,.24-2.06,0-3.77-1.71-5.12-5.12v-.19c.16,0,.82,.06,1.98,.19,14.15-6.03,22.06-9.04,23.73-9.04l.24-.39v-12.18l-15.76,5.32c-1.68,.29-2.51,.48-2.51,.58-2.06,0-3.9-1.43-5.51-4.3,.13,0,.19-.06,.19-.19l2.32,.19h.44c2.9,0,9.76-1.69,20.59-5.07v-1.64c-.55-3.9-1.52-5.85-2.9-5.85-.74,0-1.27-.19-1.6-.58,0-.61,1.82-2.83,5.46-6.67,0-.06,.66-.85,1.98-2.37-.74-1.13-1.32-2.18-1.74-3.14,.13-.26,.19-.45,.19-.58h.14c4.35,1.71,6.53,3.14,6.53,4.3,.9,1,1.55,2.56,1.93,4.69,0,.77-.71,1.24-2.13,1.4h-.24c-.42,0-.86-.19-1.31-.58h-.24c-4.58,1.8-6.87,2.85-6.87,3.14,1.29,0,3,1.69,5.12,5.08,.19,.94,.51,1.4,.97,1.4,3.22-1.03,7.54-2.27,12.96-3.72l-4.69-23.35c-1.87-1.55-2.87-3-3-4.35l.24-.39Zm18.61,10.39h.19c5.16,2.35,8.64,4.25,10.44,5.7,1.42,1.42,2.13,2.72,2.13,3.92-.45,1.32-1.35,1.98-2.71,1.98s-4.35-2.82-8.89-8.46c-.77-1.58-1.16-2.56-1.16-2.95v-.19Z"/><path class="uuid-bc642714-c973-48ef-97b3-3ae1212f80c9" d="M676.06,588.98c6.38,1.23,9.57,3.22,9.57,5.99,0,1.48-.9,3.11-2.71,4.88l-.14,.24c.1,2.26,.14,4.03,.14,5.32v.15l.1,.05c9.31-2.93,14.46-4.48,15.42-4.64,2.67,.07,5.2,2.18,7.59,6.33,0,.61-.84,.9-2.51,.87l-1.84-.05c-1.61,0-4.56,3.71-8.85,11.12-.36,.16-.53,.48-.53,.97h.1c7.61-1.77,12.62-3.12,15.03-4.06,.48-.06,.98-.1,1.5-.1,5.29,1.35,7.93,2.53,7.93,3.53,1.35,2.35,2.03,4.29,2.03,5.8-.26,1.77-1.68,4.43-4.25,7.98-1.29,3.38-2.87,8.53-4.74,15.42-.93,1.71-2.53,3.35-4.79,4.93-1.64,1.16-3.37,2.17-5.17,3.04-1.61-.03-4.03-2.13-7.25-6.29-.13-1.03-2.26-3.21-6.38-6.53v-.14c.32,.03,3.09,1.1,8.31,3.19,1.1,.29,2.1,.44,3,.44l2.32,.05c2.13,.06,3.48-.35,4.06-1.26,1.9-2.87,4.03-7.78,6.38-14.74,.39-1.9,.58-3.75,.58-5.56-.19-3.54-1.06-5.35-2.61-5.41h-.92c-3.74-.06-11.81,1.64-24.22,5.12v.1l.48,36.45c-.39,3.12-2.1,7.99-5.12,14.6h-.29c-.94-5.03-1.4-8.04-1.4-9.04,0-.45,.05-1.13,.14-2.03,0-.77-.22-3.96-.68-9.57l1.4-28.81h-.19c-.68-.03-6.04,1.63-16.1,4.98-1.8-.32-3.9-1.3-6.29-2.95,1.1-.36,8.65-2.21,22.67-5.56,.29-4.96,.44-9.65,.44-14.07-2.1,.39-4.32,1.06-6.67,2.03h-.72c-1.55-.03-3-.47-4.35-1.31v-.14c4.87-1.55,8.88-2.71,12.04-3.48v-.1c.06-2.84,.1-4.69,.1-5.56,0-2.8-.87-4.88-2.61-6.23-1.96-.77-2.95-1.84-2.95-3.19-.48-.97-.73-1.69-.73-2.18,1.52-.32,2.74-.51,3.67-.58Zm6.87,19.58c.06,4.19,.1,7.38,.1,9.57v3.53c.03,.45,.13,.7,.29,.73,1.1,0,1.74-.58,1.93-1.74,.87-1.74,4.03-6.14,9.47-13.2,.39-.64,.58-1.1,.58-1.35h-.14c-.61,0-4.69,.82-12.23,2.46Zm22.33-17.11h.1c6.83,2.51,10.25,4.35,10.25,5.51,.35,.9,.53,1.82,.53,2.76v.77c-.77,4-1.68,5.99-2.71,5.99-2.64-1.35-3.96-2.84-3.96-4.45l.14-.29v-1.35c0-3.03-.72-5.09-2.18-6.19l-2.18-2.75Z"/></g></svg>