<?xml version="1.0" encoding="UTF-8"?><svg id="uuid-3c7d6f0f-aec9-49b5-865f-d053a49e7c22" xmlns="http://www.w3.org/2000/svg" viewBox="0 0 1366 768"><defs><style>.uuid-478e15c1-a2ec-44a4-a846-8e159985c153{fill:#fff;}</style></defs><rect width="1367" height="768"/><g><path class="uuid-478e15c1-a2ec-44a4-a846-8e159985c153" d="M664.46,193.22c.4-2.01,.92-3.89,1.57-5.66,.64-1.76,1.08-2.65,1.32-2.65s.36,.32,.36,.96-.2,1.77-.6,3.37c-2.09,8.43-3.13,16.54-3.13,24.32l.36,12.28c0,2.33-.24,4.17-.72,5.54s-1.17,2.05-2.05,2.05-1.89-.92-3.01-2.77l-3.61-5.78c-1.2-2-1.69-4.33-1.45-6.98,.56-5.46,.84-11.68,.84-18.66,0-5.46-.52-8.19-1.57-8.19-.4,0-.92,.32-1.57,.96-3.53,3.69-5.8,5.54-6.8,5.54s-2.13-1.5-3.37-4.51c-1.25-3.01-1.87-5.54-1.87-7.59s.78-3.63,2.35-4.76c1.57-1.12,3.37-3.01,5.42-5.66,2.05-2.65,4.76-6.32,8.13-11.02s5.3-7.48,5.78-8.37c.48-.88,.72-1.7,.72-2.47s-.08-1.54-.24-2.35c-.16-.8-.24-1.5-.24-2.11s.34-.9,1.02-.9,2.39,.8,5.12,2.41c2.73,1.61,4.92,3.53,6.56,5.78,1.64,2.25,2.47,4.54,2.47,6.86,0,3.13-1.49,5.7-4.46,7.71-5.46,3.61-9.79,8.07-13,13.36,2.57,1.93,4.46,5.02,5.66,9.27Zm44.79-28.78c5.86-1.28,10.29-1.93,13.3-1.93s5.88,1.38,8.61,4.15c2.73,2.77,4.09,5.56,4.09,8.37s-1.17,4.66-3.49,5.54c-2.09,.8-3.75,1.87-5,3.19-1.25,1.32-3.23,2.91-5.96,4.76,1.61,2.01,2.41,3.73,2.41,5.18s-.4,2.51-1.2,3.19c-.8,.68-1.69,1.02-2.65,1.02s-1.85-.14-2.65-.42c-.8-.28-2.13-.42-3.97-.42s-3.41,.4-4.7,1.2c-.64,13.81-1.29,24.92-1.93,33.35-.64,8.43-1.25,13.97-1.81,16.62-.56,2.65-1.2,3.97-1.93,3.97-1.12,0-2.05-3.49-2.77-10.48-.72-6.98-1.25-20.19-1.57-39.61-1.61,.8-3.03,1.34-4.27,1.62-1.25,.28-2.53,.4-3.85,.36-1.32-.04-2.35-.06-3.07-.06-.72,2.65-1.81,3.97-3.25,3.97s-3.17-1.7-5.18-5.12c-2.01-3.41-3.01-6.92-3.01-10.54,0-6.02-1.2-9.87-3.61-11.56-1.29-.88-1.93-1.61-1.93-2.17s.88-.84,2.65-.84c3.21,0,5.98,.64,8.31,1.93,2.33-3.21,4.64-5.6,6.92-7.16,2.29-1.57,5.68-3.15,10.17-4.76,0-3.29-.32-6-.96-8.13-.64-2.12-.96-4.05-.96-5.78s.28-3.71,.84-5.96c-.16-.64-.24-1.24-.24-1.81,0-1.85,.6-3.35,1.81-4.52,1.2-1.16,2.75-1.75,4.63-1.75s3.45,.96,4.7,2.89c1.24,1.93,1.87,4.74,1.87,8.43,0,.4-.06,1.93-.18,4.58-.12,2.65-.18,5.54-.18,8.67Zm-11.2,26.73c0-6.34-.04-10.55-.12-12.64-2.65,1.61-5.06,2.53-7.22,2.77-.72,.16-1.45,.78-2.17,1.87-.72,1.08-1.08,2.39-1.08,3.91s.12,3.49,.36,5.9c3.05,.32,6.46-.28,10.23-1.81Zm.24-33.71c.56-.16,.84-.6,.84-1.32,0-1.36-.22-2.05-.66-2.05s-.66,.6-.66,1.81c0,.64,.16,1.16,.48,1.56Zm10.48,23.6c.64,1.93,1.44,2.89,2.41,2.89s2.81-1.85,5.54-5.54c2.73-3.69,4.09-6.22,4.09-7.59,0-.72-.5-1.08-1.5-1.08s-2.61,.3-4.82,.9c-2.21,.6-4.03,1.47-5.48,2.59-.16,2.97-.24,5.58-.24,7.83Z"/><path class="uuid-478e15c1-a2ec-44a4-a846-8e159985c153" d="M706.24,358.29c8.51,3.37,14.41,6.18,17.7,8.43,3.29,2.25,5.66,5.06,7.1,8.43,1.45,3.37,2.17,5.42,2.17,6.14s-.38,1.08-1.14,1.08-2.85-.96-6.26-2.89c-3.41-1.93-6.14-3.65-8.19-5.18-2.05-1.53-4.01-2.83-5.9-3.91-1.89-1.08-5.28-2.75-10.17-5-4.33,4.9-9.75,7.34-16.25,7.34-5.14,0-11.32-1.53-18.54-4.58-1.85,2.65-3.41,3.97-4.7,3.97s-2.27-.48-2.95-1.45c-.68-.96-1.02-2.21-1.02-3.73s1.02-4.15,3.07-7.89c2.05-3.73,4.15-6.06,6.32-6.98,2.17-.92,4.74-3.35,7.71-7.28,2.97-3.93,4.46-6.42,4.46-7.46,0-.4-.2-.84-.6-1.32l-12.4,7.46c-4.09,2.41-6.34,3.69-6.74,3.85-.4,.16-.84,.24-1.33,.24-1.77,0-2.65-1.24-2.65-3.73,0-4.17,.7-6.26,2.11-6.26s2.89-.26,4.45-.78c1.57-.52,4.8-1.87,9.69-4.03-2.25-4.01-3.37-8.47-3.37-13.37,0-9.79,5.06-18.78,15.17-26.97,1.45-1.2,2.09-2.29,1.93-3.25-2.57,.64-5.22,1.73-7.95,3.25-2.73,1.53-6.14,4.21-10.23,8.07-1.2,1.12-2.73,1.69-4.58,1.69s-3.69-.62-5.54-1.87c-1.85-1.24-3.39-2.89-4.64-4.94-1.25-2.05-1.87-3.33-1.87-3.85s.48-.82,1.45-.9c3.13-.16,5.78-.52,7.95-1.08,2.17-.56,5.98-1.81,11.44-3.73,13-4.49,23.52-6.74,31.55-6.74,3.61,0,6.56,.44,8.85,1.32,2.29,.88,3.43,2.21,3.43,3.97,0,1.04-.44,1.93-1.32,2.65-.88,.72-2.05,1.08-3.49,1.08-5.22,.08-8.87,.62-10.96,1.62-2.09,1-3.13,1.87-3.13,2.59s.72,1.37,2.17,1.93c2.89,1.12,4.77,2.15,5.66,3.07,.88,.92,1.32,2.23,1.32,3.91s-.12,4.07-.36,7.16c-.24,3.09-.36,5.72-.36,7.89l.24,7.1c0,5.46-.72,9.67-2.17,12.64,2.33,.88,4.17,2.23,5.54,4.03,1.36,1.81,2.05,3.53,2.05,5.18s-.36,3.17-1.08,4.58c-.72,1.41-1.93,4.23-3.61,8.49Zm-14.33,2.65c-1.77-.8-4.2-1.58-7.29-2.35-3.09-.76-5.64-1.14-7.65-1.14-3.45,2.17-6.14,4.74-8.07,7.71,2.89,1.36,5.78,2.05,8.67,2.05,5.06,0,9.83-2.09,14.33-6.26Zm-14.21-33.83c2.33-2.09,3.91-3.31,4.76-3.67,.84-.36,1.26-.72,1.26-1.08s-.54-.54-1.63-.54-1.79-.44-2.11-1.32c-.32-.88-.48-2.15-.48-3.79s.88-3.19,2.65-4.64c.96-.88,1.44-1.6,1.44-2.17s-.8-1.16-2.41-1.81c-.88,.96-1.71,3.17-2.47,6.62-.76,3.45-1.14,6.18-1.14,8.19s.04,3.41,.12,4.21Zm7.71-26.37c6.1,1.77,9.15,3.73,9.15,5.9,0,1.37-.74,2.85-2.23,4.46-1.49,1.61-2.23,2.71-2.23,3.31s.68,1.38,2.05,2.35c1.36,.96,2.05,1.99,2.05,3.07s-.96,2.03-2.89,2.83c-1.04,.48-1.57,1-1.57,1.57s.66,1.04,1.99,1.44c1.32,.4,2.21,.6,2.65,.6s.74-.14,.9-.42c.16-.28,.28-1.88,.36-4.82,.08-2.93,.12-5.5,.12-7.71s-.12-4.83-.36-7.89c-.24-3.05-.44-4.8-.6-5.24-.16-.44-.52-.86-1.08-1.26-.56-.4-1.97-1-4.21-1.81l-4.09,3.61Zm12.04,54.18c1.76-2.41,3.01-4.7,3.73-6.86,.72-2.17,1.08-3.81,1.08-4.94s-.3-1.69-.9-1.69-1.22,.32-1.87,.96-1.65,1.33-3.01,2.05c-1.37,.72-4.46,2.17-9.27,4.33-.32,.88-.76,1.81-1.32,2.77,4.98,1.37,8.83,2.49,11.56,3.37Zm-4.94-16.01c-.24-2.01-.6-3.01-1.08-3.01s-1.49,1-3.01,3.01v2.05c1.76-.48,3.13-1.16,4.09-2.05Z"/><path class="uuid-478e15c1-a2ec-44a4-a846-8e159985c153" d="M694.44,441.73c4.17-1.85,9.23-2.77,15.17-2.77s11.26,1.02,15.95,3.07c4.7,2.05,7.04,4.68,7.04,7.89,0,.8-.24,1.63-.72,2.47-.48,.84-.86,1.95-1.14,3.31-.28,1.37-.58,3.69-.9,6.98-1.04,10.68-2.09,17.48-3.13,20.41-1.04,2.93-2.83,6.58-5.36,10.96s-4.36,6.56-5.48,6.56c-.4,0-.88-.46-1.44-1.38-.56-.92-1.19-1.65-1.87-2.17-.68-.52-2.35-1.31-5-2.35-2.65-1.04-4.64-2.21-5.96-3.49-1.32-1.28-2.71-3.01-4.15-5.18-1.44-2.17-2.17-3.47-2.17-3.91s.24-.66,.72-.66,1.48,.28,3.01,.84c6.42,2.25,11,3.37,13.73,3.37,1.44,0,2.47-.46,3.07-1.38,.6-.92,1.32-4.9,2.17-11.92,.84-7.02,1.26-12.04,1.26-15.05s-.16-5.34-.48-6.98c-.32-1.64-.8-2.99-1.44-4.03-.64-1.04-1.2-1.72-1.69-2.05-.48-.32-1.41-.48-2.77-.48-4.42,0-10.56,1.53-18.42,4.58-.64,2.33-1.04,4.9-1.2,7.71,1.93-1.12,3.65-2.29,5.18-3.49,1.52-1.2,3.03-1.81,4.51-1.81s2.91,.44,4.27,1.32c1.36,.88,2.05,2.17,2.05,3.85s-.72,3.17-2.17,4.46c-1.93,1.77-2.89,3.17-2.89,4.21s.28,1.61,.84,1.69c3.29,.32,5.56,1.63,6.8,3.91,1.24,2.29,1.87,3.89,1.87,4.82s-.56,1.38-1.69,1.38c-1.85,0-4.38-.32-7.59-.96-3.21-.64-5.6-1.7-7.16-3.19-1.56-1.48-2.35-3.13-2.35-4.94s1.08-4.03,3.25-6.68c.64-.8,.96-1.57,.96-2.29s-.16-1.08-.48-1.08c-1.12,0-3.01,1.12-5.66,3.37-.24,2.73-.36,5.78-.36,9.15l.12,6.02c0,4.17-.44,7.41-1.32,9.69-.88,2.29-1.63,3.43-2.23,3.43s-1.71-.94-3.31-2.83c-1.61-1.88-2.41-4.27-2.41-7.16s.12-6.02,.36-9.39c-2.73,2.81-5.62,6.7-8.67,11.68-.72,1.28-1.67,1.93-2.83,1.93s-2.37-.92-3.61-2.77c-1.25-1.84-1.87-3.85-1.87-6.02s.42-3.69,1.26-4.58c.84-.88,1.26-1.75,1.26-2.59s-.36-1.63-1.08-2.35c-.72-.72-1.08-1.51-1.08-2.35s.2-1.44,.6-1.81c.4-.36,1.24-.54,2.53-.54,3.77,0,5.82,1.12,6.14,3.37,.16,1.12,.44,1.69,.84,1.69,.24,0,1.14-.56,2.71-1.69,1.57-1.12,2.91-1.81,4.03-2.05,0-2.65,.12-5.74,.36-9.27-1.85,.64-3.41,1.32-4.7,2.05-1.29,.72-2.25,1.14-2.89,1.26-.64,.12-1.81,.18-3.49,.18s-3.69,1-6.02,3.01c-2.33,2.01-3.49,3.93-3.49,5.78,0,.64,.12,1.44,.36,2.41,.48,2.17,.72,5.6,.72,10.29s-.32,8.41-.96,11.14c-.64,2.73-1.45,4.09-2.41,4.09-.32,0-.66-.16-1.02-.48-.36-.32-1.19-1.36-2.47-3.13-1.29-1.76-2.11-3.45-2.47-5.06-.36-1.61-.5-3.13-.42-4.58,.08-1.45,.12-3.23,.12-5.36s-.44-3.67-1.32-4.64c-2.01-2.49-3.01-5.34-3.01-8.55s.42-6.52,1.26-9.93c.84-3.41,1.54-5.12,2.11-5.12,.32,0,.52,.44,.6,1.32,.24,2.33,1.08,5.42,2.53,9.27,1.44,3.85,2.53,5.78,3.25,5.78,4.17-7.22,6.76-11.14,7.77-11.74,1-.6,6.28-2.43,15.83-5.48,.24-1.76-.52-3.67-2.29-5.72-1.77-2.05-3.13-2.91-4.09-2.59-3.21,1.12-5.06,1.69-5.54,1.69s-.78-.1-.9-.3c-.12-.2-.3-.3-.54-.3-.64,0-2.25,.5-4.82,1.5-2.57,1-4.15,1.5-4.76,1.5s-.9-.12-.9-.36c0-.16,.56-.54,1.69-1.14,1.12-.6,2.91-1.62,5.36-3.07,2.45-1.45,3.85-2.33,4.21-2.65,.36-.32,.54-.66,.54-1.02s-.58-1.12-1.75-2.29c-1.16-1.16-2.33-2.67-3.49-4.52-1.17-1.84-1.75-2.91-1.75-3.19s.32-.42,.96-.42l3.01,.24c3.61,0,8.13-.82,13.55-2.47,5.42-1.64,8.65-3.31,9.69-5,.56-.96,1.61-1.45,3.13-1.45,2.57,0,5.02,1.08,7.34,3.25,2.33,2.17,3.49,4.01,3.49,5.54,0,.96-.5,1.83-1.5,2.59-1,.76-2.65,1.61-4.94,2.53-2.29,.92-5.68,2.51-10.17,4.76,2.33,2.89,3.85,6.18,4.58,9.87Z"/><path class="uuid-478e15c1-a2ec-44a4-a846-8e159985c153" d="M695.88,557.2c2.09-3.21,3.93-4.82,5.54-4.82s4.15,1.43,7.65,4.27c3.49,2.85,5.24,5.16,5.24,6.92,0,.88-.4,1.77-1.2,2.65-3.93,4.26-5.9,7.55-5.9,9.87,0,.48,.12,1.02,.36,1.63,.24,.6,.36,1.19,.36,1.75,0,1.61-1.69,2.89-5.06,3.85-8.43,2.57-14.15,6.52-17.16,11.86-3.01,5.34-4.51,10.9-4.51,16.68,0,1.61,1.44,2.85,4.33,3.73,2.89,.88,6.54,1.32,10.96,1.32s8.67-.26,12.76-.78c4.09-.52,7.26-1.18,9.51-1.99,2.25-.8,3.99-1.85,5.24-3.13,1.24-1.28,2.07-2.71,2.47-4.27,.4-1.57,.6-3.89,.6-6.98s.12-4.64,.36-4.64,.72,1.29,1.45,3.85c1.76,6.74,3.73,11.56,5.9,14.45,.88,1.12,1.33,2.21,1.33,3.25,0,2.73-2.97,4.96-8.91,6.68-5.94,1.73-13.61,2.59-23,2.59-5.22,0-9.39-.24-12.52-.72-3.13-.48-5.44-1.1-6.92-1.87-1.49-.76-2.87-1.81-4.15-3.13-1.29-1.33-2.25-2.85-2.89-4.58-.64-1.73-.96-4.58-.96-8.55s1-9.81,3.01-17.52c-1.37-1.84-2.05-3.43-2.05-4.76s1.28-2.35,3.85-3.07c6.34-1.76,10.58-3.55,12.7-5.36,2.13-1.81,3.77-3.91,4.94-6.32,1.16-2.41,1.75-4.13,1.75-5.18s-.32-1.57-.96-1.57c-1.2,0-2.95,1.26-5.24,3.79-2.29,2.53-5,3.79-8.13,3.79-1.37,0-2.73-.24-4.09-.72-2.97,.24-5.72,2.17-8.25,5.78s-5.86,11.42-9.99,23.42c-4.14,12-6.2,19.45-6.2,22.33l.24,3.73c0,1.76-.6,2.65-1.81,2.65s-2.73-1.44-4.58-4.33c-1.85-2.89-2.77-5.3-2.77-7.22,0-.56,.04-1.12,.12-1.69,.32-1.6,.62-5.04,.9-10.29,.28-5.26,.42-10.69,.42-16.31-2.65,3.53-4.42,5.94-5.3,7.22-.88,1.29-1.81,2.13-2.77,2.53-.96,.4-1.89,.6-2.77,.6-2.89,0-5.26-1.42-7.1-4.27-1.85-2.85-2.77-5.6-2.77-8.25,0-1.52,.38-3.09,1.14-4.7,.76-1.6,1.28-2.41,1.56-2.41s.42,.38,.42,1.14-.08,1.67-.24,2.71c-.16,1.04-.24,1.95-.24,2.71s.52,1.14,1.57,1.14c2.25,0,4.92-.9,8.01-2.71,3.09-1.81,5.04-3.33,5.84-4.58,.8-1.24,1.95-2.19,3.43-2.83,1.48-.64,3.13-.96,4.94-.96s3.25,.66,4.33,1.99c1.08,1.32,1.62,2.75,1.62,4.27,0,1.04-.42,2.31-1.26,3.79-.84,1.49-1.75,4.12-2.71,7.89-.96,3.77-1.45,6.5-1.45,8.19s.08,2.81,.24,3.37c4.41-9.79,8.07-17.3,10.96-22.52,2.89-5.22,6.14-9.91,9.75-14.09-.08-.32-.12-.6-.12-.84,0-1.28,1.24-2.65,3.73-4.09,2.49-1.45,7.3-3.57,14.45-6.38Zm-39.73-7.22c.96,0,3.29,.3,6.98,.9,3.69,.6,5.88,1.67,6.56,3.19,.68,1.53,1.02,3.07,1.02,4.63s-.24,2.53-.72,2.89c-.48,.36-1.46,.72-2.95,1.08-1.49,.36-2.81,.76-3.97,1.2-1.17,.44-3.71,1.59-7.65,3.43l-12.88,6.14c-2.09,.96-3.35,1.45-3.79,1.45s-.66-.04-.66-.12c0-.24,.36-.6,1.08-1.08,2.57-1.69,5.5-3.99,8.79-6.92,3.29-2.93,5.32-4.88,6.08-5.84,.76-.96,1.14-1.81,1.14-2.53,0-.64-.6-1.36-1.81-2.17-1.2-.8-2.19-1.97-2.95-3.49-.76-1.52-1.14-2.45-1.14-2.77s.1-.48,.3-.48,.64,.16,1.32,.48c.68,.32,1.26,.48,1.75,.48s1.04-.08,1.69-.24c.64-.16,1.24-.24,1.81-.24Z"/></g></svg>